<?xml version="1.0" encoding="UTF-8"?>
<svg id="OBJECTS" xmlns="http://www.w3.org/2000/svg" viewBox="0 0 184.34 186.74">
  <g>
    <path d="M100.35,135.58c.72,1.08,1.31,2.23,1.8,3.51.07,0,.14-.01.21-.04.03.18.14.31.28.43-.14.04-.25.03-.35,0,.42,1.17.77,2.45,1.06,3.89.28,1.37,1.56,1.25,2.4.46.14-.14.28-.27.42-.41-.02,0-.04,0-.06,0-.24-.1-.42-.21-.68-.19.08-.26-.02-.53-.11-.78.15-.05.28-.16.37-.3l.33.13c.35.08.6.21.83.43.85-.97,1.54-2,2.09-3.08-.06.04-.13.09-.18.16-.13-.24-.39-.36-.62-.47.07-.14.09-.32.05-.48l.32-.14c.33-.22.63-.3.99-.29.54-1.34.88-2.72,1.03-4.11-2.93-1.16-6.55-1.47-10.17,1.27ZM104.08,140.28c-.25-.11-.51-.07-.75.01.13-.49.4-.64.71-.8l.41.09c-.18.19-.33.43-.37.71Z" style="fill: #d61b18; stroke-width: 0px;"/>
    <path d="M107.31,144.52c-.23.6-.48,1.2-.75,1.77.49,0,.98-.01,1.48-.02,0,.06,0,.13-.04.2.08.12.23.29.23.44-.09.06-.17.14-.25.23-.08-.05-.18-.14-.27-.14-.19,0-.25.12-.43.05-.08-.03-.15-.08-.22-.13-.26.06-.4-.11-.64-.3.03-.12.11-.2.19-.26-.02-.02-.03-.04-.05-.05-1.94,4.11-4.82,7.48-6.25,9.19,3.53,1.52,7.16,1.7,9.67-2.31.45-2.86.36-6.14-.63-8.59-.48-1.18-1.64-1.12-2.03-.08Z" style="fill: #d61b18; stroke-width: 0px;"/>
    <path d="M78.49,143.84c.84.78,2.12.91,2.4-.46.65-3.2,1.56-5.63,3.01-7.79-2.22-1.68-4.43-2.21-6.49-2.1-.21.25-.38.54-.49.85-.16-.15-.3-.27-.23-.51.03-.1.09-.2.18-.3-1.1.12-2.15.4-3.13.79.39,3.43,1.87,6.83,4.76,9.53Z" style="fill: #d61b18; stroke-width: 0px;"/>
    <path d="M78.8,148.83c-.21-.29-.21-.46-.15-.7-.64-1.14-1.23-2.35-1.7-3.61-.39-1.04-1.55-1.11-2.03.08-1,2.44-1.09,5.73-.63,8.59,2.51,4.01,6.14,3.83,9.67,2.31-1.07-1.28-2.96-3.51-4.66-6.27-.21-.12-.41-.29-.49-.4Z" style="fill: #d61b18; stroke-width: 0px;"/>
    <path d="M112.02,82.19c-2.3.08-4.21,1.19-5.37,2.48-.42.88-.99,2.34-.65,4.6.36,2.41,2.52,4.69,5.25,5.24,2.27.45,4.4-.15,5.75-1.64,1.44-1.6,1.92-3.17,2.03-4.88.09-1.3-.18-2.74-.48-3.37-2.01-1.42-3.66-2.52-6.54-2.42ZM113.8,88.61c-.51,1.28-1.92,1.89-3.15,1.36-1.23-.53-1.81-2.01-1.3-3.29.12-.31.3-.57.5-.8-.07-.12-.15-.23-.25-.33.05-.12.24-.18.37-.16.16.03.17.08.21.18.65-.48,1.52-.61,2.3-.26,1.23.53,1.81,2.01,1.3,3.29Z" style="fill: #d61b18; stroke-width: 0px;"/>
    <path d="M67.24,92.87c.22.24.46.45.71.64h.15s.02-.02.03-.03c0,0,0,.02,0,.03h-.03s-.04.04-.07.06c1.32.96,3.09,1.31,4.96.94,2.73-.55,4.89-2.82,5.25-5.24.34-2.25-.23-3.72-.65-4.6-1.16-1.29-3.07-2.4-5.37-2.48-2.89-.1-4.53,1-6.54,2.42-.31.63-.57,2.07-.48,3.37.11,1.71.59,3.29,2.03,4.88ZM71.75,85.29c1.23-.53,2.64.07,3.15,1.36s-.07,2.76-1.3,3.29c-1.23.53-2.64-.07-3.15-1.36-.51-1.28.07-2.76,1.3-3.29Z" style="fill: #d61b18; stroke-width: 0px;"/>
    <path d="M184.33,93.04c-.15,0-.3.01-.44.07-.05-.27-.23-.47-.43-.65.38-.1.62-.01.87.12-.17-21.21-7.32-40.73-19.24-56.32-.07-.03-.14-.07-.2-.06-.21.03-.26.18-.47.12-.29-.07-.58-.26-.54-.59l.04-.31c.04-.18.13-.25.3-.26.01,0,.02,0,.04,0-12.59-15.98-30.25-27.67-50.51-32.59.02.11.04.23.08.34l-.25.14c-.08.05-.23.07-.32.09-.06-.34-.22-.36-.05-.61.02-.03.05-.05.07-.08-6.77-1.61-13.83-2.46-21.09-2.46-9.92,0-19.46,1.59-28.41,4.53,0,.04,0,.07-.02.11.08.13.24.29.24.46-.1.06-.18.15-.26.23-.09-.05-.18-.15-.28-.15-.19,0-.26.12-.44.05-.08-.03-.15-.08-.22-.13-.16.04-.28-.02-.4-.1C40.31,12.62,22.03,28.48,11.08,48.96c0,0,0,0,0,0,.06.1.15.18.23.26-.05.09-.14.19-.14.28,0,.19.12.26.05.45-.03.08-.08.16-.13.23.07.27-.11.42-.3.67-.12-.03-.2-.11-.27-.2-.02.02-.05.04-.07.06,0-.14-.03-.26-.08-.39C3.75,63.2,0,77.84,0,93.37c0,4.36.3,8.66.87,12.86,0,0,.01,0,.02,0l.08.23c.08-.05.16-.09.27-.08l.3.03c.17.04.24.12.26.29,0,.08-.09.19-.07.28.02.09.12.13.13.19.06.33-.08.51-.44.44-.09.08-.2.22-.32.29,1.4,9.1,4.1,17.76,7.9,25.79.03,0,.05.01.08,0,.09-.01.14-.13.2-.14.34-.05.51.1.44.47.11.13.3.28.32.46-.1.08-.17.19-.25.29-.1-.04-.22-.13-.32-.11,0,0,0,0,0,0,4.47,9.17,10.38,17.49,17.43,24.65v-.48c.14.08.27.21.39.14.21.22.51.12.55.41.03.18-.11.45-.21.66.4.39.79.79,1.2,1.17h0c.24.07.48.12.73.13.06.14,0,.33-.09.48,16.45,15.46,38.47,24.92,62.67,24.92,8.72,0,17.15-1.23,25.15-3.52,0,0,0,0,0,0l.22-.08c-.05-.08-.09-.16-.07-.27l.03-.3c.04-.17.12-.25.28-.26.08,0,.18.09.28.07.09-.02.13-.13.19-.14.33-.06.5.09.44.44.03.03.07.07.11.11,4.12-1.26,8.12-2.8,11.97-4.6,0-.16,0-.32-.01-.48.18-.11.48,0,.66.17.8-.38,1.6-.77,2.38-1.18-.03-.04-.05-.1-.06-.18,0-.08.09-.19.07-.28-.02-.09-.12-.13-.14-.19-.06-.33.08-.51.44-.44.12-.11.26-.3.43-.33.07.09.18.16.28.24-.04.1-.12.22-.1.32.02.14.1.21.12.31,9.35-4.95,17.75-11.48,24.86-19.24-.03-.07-.11-.09-.21-.02-.04-.35-.39-.18-.28.11-.34-.08-.39.34-.56.5l-.19.04s-.03-.08-.03-.12c0,0,0-.02,0-.02,0-.25.3-.33.36-.6.02-.08-.06-.33-.06-.43,0-.16.08-.26,0-.41-.06-.02-.16-.02-.26-.01,0-.15.01-.31.02-.46.16.1.32.22.37.25.29-.19.13-.23.45-.11.16.06.31.25.44.16.21.22.51.12.55.41,0,.01,0,.03,0,.04,9.44-10.5,16.55-23.18,20.5-37.22-.06,0-.12,0-.17,0,.04-.17-.06-.28-.22-.16-.04-.35-.39-.18-.28.11-.34-.08-.39.34-.56.5l-.19.04s-.03-.08-.03-.12c0,0,0-.02,0-.02,0-.25.3-.33.36-.6.02-.08-.06-.33-.06-.43,0-.16.08-.26,0-.41-.06-.02-.16-.02-.26-.01,0-.15.01-.31.02-.46.16.1.32.22.37.25.29-.19.13-.23.45-.11.16.06.31.25.44.16.13.13.29.15.4.21,2.11-7.83,3.24-16.08,3.24-24.59,0-.11,0-.22,0-.33ZM148.27,28.91l.04-.3c.04-.18.13-.24.29-.26.08,0,.18.09.28.08.09-.01.13-.12.19-.13.33-.05.5.1.43.45.1.12.29.27.32.44-.09.07-.16.18-.24.28-.1-.04-.21-.13-.32-.11-.2.03-.25.17-.46.12-.28-.07-.57-.25-.53-.57ZM104.09,10.12s.01-.01.02-.02c.17-.17.43-.02.66-.16.07-.04.18-.26.25-.34.11-.11.23-.13.28-.28-.03-.05-.1-.12-.17-.19.11-.1.22-.2.33-.31.05.18.07.37.08.43.33.07.25-.07.38.24.06.15.04.39.19.42,0,.29.27.44.1.67-.13.18-.57.29-.77.38-.08-.05-.17-.15-.22-.22.15-.09.15-.24-.04-.26.21-.27-.15-.39-.27-.12-.18-.3-.5-.04-.73-.05l-.15-.11s.04-.08.06-.1ZM65.06,18.12c4.72-1.74,9.64-3.04,14.73-3.85l.16-.23c.05-.07.18-.16.24-.21.14.2.26.23.29.34,3.81-.57,7.71-.87,11.68-.87.36,0,.72,0,1.08.01-.09-.09-.15-.21-.13-.36l.04-.3c.04-.18.13-.24.29-.26.08,0,.18.09.28.08.09-.01.13-.12.19-.13.33-.05.5.1.43.45.1.12.29.27.32.44-.04.03-.07.07-.11.11.58.02,1.17.04,1.75.07-.04-.02-.07-.04-.07-.05-.02-.21-.13-.52.15-.55.06,0,.13.02.2.06,0,0,0,0,0,0l.31-.13c-.18.2-.15.47-.27.7,7.89.44,15.48,2.06,22.59,4.68.04,2.49.84,5.35,2.9,9.02,2.82,5.01,3.71,8.29,2.29,12.74-4.8-1.23-8.98-9.46-9.77-15.78-3.43,7.29-2.71,17.03,1.69,22.09-.02-.04-.04-.08-.06-.12.32.03.44.19.59.38v.28s-.04-.03-.07-.05c.73.74,1.55,1.37,2.47,1.84-2.79,3.03-5.04,6.99-6.97,9.4,1.74-3.72,2.05-4.92,1.6-7.24-.03.04-.05.08-.04.13-.26.12-.28.44-.55.38-.22-.04-.51-.4-.68-.54.01-.1.06-.22.1-.3.14.1.27.03.21-.15.33.08.29-.31,0-.3.19-.29-.18-.48-.27-.69l.03-.19s.09,0,.12.01c0,0,.01,0,.02,0,.23.08.2.39.42.53.07.05.31.05.4.08-.64-2.47-1.83-4.59-4.2-6.8-.61,3.75-2.03,4.11-4.57,5.3-1.43.67-4.06,1.08-4.9,3.63-.69-3.24,1.18-7.22,2.67-8.64-1.34.02-2.75.31-4.09.88.17.04.25.19.2.45.1.12.29.27.32.44-.09.07-.17.18-.24.28-.1-.04-.21-.13-.32-.11-.2.03-.25.17-.46.12-.28-.07-.57-.25-.53-.57v-.12c-2.26,1.26-4.27,3.41-5.39,6.63-1.92-5.53-6.5-7.95-10.51-8,1.48,1.42,3.35,5.4,2.67,8.64-.43-1.3-1.33-2.04-2.29-2.55,0,.02-.01.04-.02.06l-.35.24c0-.18-.04-.35-.1-.52-.78-.35-1.55-.58-2.14-.85-2.54-1.18-3.96-1.54-4.57-5.3-2.64,2.47-3.82,4.82-4.4,7.68-.49,2.42-.2,3.59,1.58,7.38-1.93-2.42-4.18-6.37-6.97-9.4,6.91-3.57,8.71-15.74,4.62-24.42-.79,6.32-4.97,14.55-9.77,15.78-.1-.31-.18-.61-.26-.91-.12.18-.28.33-.5.5-.12-.07-.25-.1-.39-.11,0-.3.02-.6.02-.91.1-.24.21-.43.18-.69.14.04.29.03.44,0-.55-3.46.45-6.43,2.8-10.61,2.05-3.66,2.85-6.51,2.9-9ZM133.91,88.51c3.93-1.65,7.77-3.5,11.32-8.74-2.89,6.48-6.45,9.05-10.97,10.44-3.18.98-2.95-.61-.36-1.7ZM144.11,87.8c-.24-.1-.5-.16-.75-.1,0-.27-.15-.49-.32-.69.47-.05.7.15.97.38l.1.41ZM132.37,99.82c3-.52,5.68-.15,8.07,1.09-.05-.11-.07-.18.03-.33.1-.15.34-.28.5-.2,0,.19.04.38.1.57l-.24.14s-.02,0-.04.01c2.13,1.2,4.04,3.1,5.74,5.71-2.72-2.44-5.2-3.89-7.64-4.61-.03.05-.08.09-.14.12.11.04.18.12.23.23-.2-.13-.4-.24-.6-.34-.03-.05-.07-.1-.09-.16-2.28-.56-4.56-.49-7.02.01-2.95.61-3.32-1.16-.35-1.94h-.02c-.23-.42.69-.56.99-.52.24.03.37.1.47.21ZM121.83,76.91c-2.91,1.58-7.05.77-10.37-.98,1.18-.28,2.52-1.41,3.34-2.09-3.27-1.61-11.51-1.27-14.81,2.73-.1-5.54,4.11-9.41,7.34-10.03.45-.09.93-.17,1.45-.25-.05-.17-.04-.4.1-.49.17.1.35.16.53.2v.19c3.46-.53,8.08-1.11,12.42-2.53-3.62,3.93-7.84,5.36-11.08,5.9,3.43-.31,6.92.59,10.83,2.36,4.09,1.86,5.78,4.44,10.16,5.36-3.49,2.88-8.63,1.69-9.89-.37ZM122.3,98.59c-.03.18-.19.4-.37.4-.06-.12-.14-.24-.23-.34,0,.01-.02.03-.03.04-2.23,3.09-3.45,3.55-4.62,7.46-.38,1.29-1.53,1.23-1.98.05-.51-1.36-1.01-2.31-1.62-3.05-.11.09-.26.14-.38.08,0-.19-.04-.38-.1-.57h.02c-.9-.89-2.04-1.47-3.76-2.22,5.38,1.34,7.85.53,10-1.34,2.49-2.16,4.32-5.14,5.18-8.33-.24,3.15-.78,5.05-2.36,7.38.17.19.28.18.24.44ZM119.48,112.9c-.11.1-.22.2-.33.31-.05-.18-.07-.37-.08-.43-.33-.07-.25.07-.38-.24-.06-.15-.04-.39-.19-.42,0-.29-.27-.44-.1-.67.13-.18.57-.29.77-.38.08.05.17.15.22.22-.15.09-.15.24.04.26-.21.27.15.39.27.12.18.3.5.04.73.05l.15.11s-.04.08-.06.1c0,0-.01.01-.02.02-.17.17-.43.02-.66.16-.07.04-.18.26-.25.34-.11.11-.23.13-.28.28.03.05.1.12.17.19ZM118.09,111.49l-.26-.11c.15-.09.28-.21.36-.37.15.11.32.12.49.11-.16.28-.36.32-.6.38ZM117.86,127.32c.15-.05.28-.16.37-.3l.31.12c.74-1.1,1.36-1.86,2.19-2.69.93-.94,2.05-.3,2.15,1.04.22,3.02-1.72,5.78-3.55,7.55-1.82,1.78-3.18,3.36-4.51,6.31-.26.58-.53,1.36-.79,2.25.26,0,.53.04.71.04.06.1.12.25.15.38-.32-.08-.66-.07-.99-.01-.67,2.3-1.36,5.26-2.1,7.76.06.04.12.08.16.14.11-.04.18,0,.29,0-.05.12.02.22.01.29.16-.04.31-.06.45-.14.02.01.02.02.04.04-.33.16-.65.31-.98.48-.05-.11-.1-.19-.14-.26-.37,1.2-.74,2.26-1.14,3.06-.29.58-.62,1.09-.98,1.55,0,.12.04.23.09.35-.12-.02-.2-.06-.27-.11-1.89,2.21-4.61,2.78-7.33,1.9-3.45-1.12-6.97-1.71-9.89-1.71-1.51,0-3.19.16-4.93.47.03.01.06.02.08.04-.06.18-.09.38-.09.57l-.27.05c-.09.01-.24-.02-.32-.02.05-.31-.07-.39.11-.55-1.47.28-2.97.66-4.47,1.14-3.06.99-6.12.13-7.99-2.8-.04.03-.11.05-.1.05l-.22-.03c-.06-.13-.13-.26-.15-.4-.08-.02-.1-.08-.17-.12.08-.05.08-.14.11-.18-.11-.04-.2-.1-.32-.11-.09-.3-.02-.32.16-.48-1.54-3.48-2.85-10.79-4.13-13.63-.24-.52-.47-1-.71-1.44-.21.1-.33.28-.43.48-.14-.24-.17-.43-.15-.61h-.03c-.09.08-.2.19-.3.23l-.33.15c-.12-.14-.24-.27-.39-.39-.05-.04-.1-.08-.15-.11.04-.22.36-.38.6-.38.38,0,.3.17.6.46.02-.12.05-.23.09-.35l.15-.1c-.95-1.62-1.98-2.79-3.21-4.01-.1.05-.21.08-.32.1l-.26-.11c.12-.07.21-.16.29-.28-1.81-1.78-3.72-4.51-3.5-7.5.04-.57.27-1.02.59-1.26-.16-.12-.35-.25-.2-.43.04-.05.1-.08.18-.1,0,0,0,0,0,0l.12-.31c.07.22.19.44.28.66.37-.1.79.02,1.18.41,1.33,1.35,2.14,2.5,3.77,5.2,1.43,2.38,3.24,3.39,5.26,3.42,1.5.03,2.9-.48,4.92-.78,2.07-.31,3.87.37,5.7,1.32,2.07,1.07,5.12,2.97,8.95,2.97,3.02,0,5.55-1.18,7.5-2.2-.06,0-.11,0-.17-.02l-.2-.2c.17-.03.34-.1.46-.23.08.11.19.18.31.23.37-.2.73-.39,1.05-.56.85-.44,1.69-.81,2.55-1.07-.17-.08-.15,0-.17-.3-.01-.16.09-.38-.04-.46.1-.28-.11-.51.12-.67.19-.13.64-.08.86-.1.06.08.11.2.14.28-.17.03-.22.17-.05.26-.29.18.01.42.21.2.07.34.46.21.67.3l.11.15s-.01.01-.02.02c.43-.02.87,0,1.33.06,2.02.31,3.42.81,4.92.78,2.02-.04,3.83-1.04,5.26-3.42.39-.64.73-1.2,1.04-1.69.02-.22-.06-.44-.13-.64ZM121.54,121.59s0,0,0,0c0,0,0,0,0,0ZM78.67,157.87c0,.26-.11.2-.3.41-.05-.06-.14-.15-.17-.22l-.1-.23c.12-.1.24-.22.32-.36.14.03.25.24.25.4ZM66.08,103.37l-.08.03s.02-.09.02-.13c-.89-1.59-1.94-2.48-3.46-4.58-1.87-2.59-2.49-4.53-2.74-7.92.86,3.19,2.69,6.17,5.18,8.33,2.15,1.86,4.62,2.67,10,1.34-2.82,1.23-4.11,2.01-5.26,4.4.14-.03.27,0,.41.02l.18.21c-.17.02-.34.07-.47.18-.06-.09-.13-.16-.22-.21-.16.35-.32.73-.48,1.15-.45,1.18-1.6,1.24-1.98-.05,0-.02,0-.03-.01-.04-.03.02-.06.04-.1.06-.27.17-.42.35-.58.58l-.2.09c-.45-.13.11-.89.34-1.07.15-.11.26-.16.37-.18-.3-.91-.6-1.61-.93-2.22ZM54.38,103c-.47.23-.61.05-1.07-.14.21-.3.4-.22.72-.34.25-.1.42-.22.6-.37-.4.08-.95.07-1.66-.07-2.77-.57-5.3-.58-7.88.22.04.09.2.12.32,0,.07.34.46.21.67.3l.11.15s-.06.06-.09.08c0,0-.01,0-.02,0-.22.11-.41-.13-.67-.07-.08.02-.26.19-.35.23-.14.07-.26.04-.36.17,0,.06.05.14.1.24-.14.06-.27.12-.41.18.01-.19.06-.37.07-.43-.29-.18-.26-.02-.28-.36,0-.05,0-.1,0-.15-2.07.8-4.18,2.15-6.47,4.2,3.64-5.59,8.21-7.94,13.95-7.03.04-.09.06-.17.19-.22.08-.03.16-.05.24-.06.14-.23.36-.21.66-.25.06.11.06.22.05.32.03,0,.06,0,.09,0-.12.12-.24.25-.36.38.24.05.48.1.73.16,2.06.52,2.56,1.52,1.74,1.92.32.25-.34.85-.61.97ZM49.51,111.65c-.49.15-.59-.04-1.01-.29.24-.26.41-.16.74-.23.31-.07.51-.19.74-.35l.22-.02c.38.27-.39.8-.68.89ZM50.34,88.51c2.59,1.09,2.83,2.68-.36,1.7-4.52-1.39-8.07-3.96-10.97-10.44,3.55,5.25,7.39,7.09,11.32,8.74ZM48.58,82.48s0-.05,0-.07h1.54c-.03.23-.21.55-.28.73-.09.02-.23.02-.31,0,.04-.17-.06-.27-.21-.15-.04-.34-.38-.17-.27.11-.34-.08-.38.33-.55.48l-.18.03s-.03-.08-.03-.12c0,0,0-.01,0-.02,0-.24.29-.32.35-.58.02-.08-.06-.32-.06-.42ZM52.52,77.28c4.38-.92,6.06-3.5,10.16-5.36,3.91-1.78,7.39-2.68,10.83-2.36-3.25-.53-7.47-1.97-11.08-5.9,3.08,1.01,6.3,1.59,9.15,2.04-.05-.1-.09-.22-.1-.34-.25-.05-.51-.24-.36-.53.05-.1.24-.24.34-.26.14-.02.24.16.37.1l.02.09s0,.08-.01.11c-.06,0-.11.04-.17.03,0,.03.01.08.02.11.24-.05.28.22.04.25-.02.05-.02.12-.01.17.18.07.4-.12.43-.29.22.23.18.42.09.65,1.78.27,3.39.5,4.7.75,1.9.36,3.26,1.51,4.81,3.02l.84-.5c.12.05.26.11.32.22-.05.1-.08.21-.1.32-.1,0-.22-.03-.31.02-.16.09-.15.23-.35.26-.02,0-.05,0-.07,0,.93.98,2.38,4.87,2.2,6.68-3.35-4-11.55-4.34-14.81-2.73.82.68,2.16,1.81,3.34,2.09-3.33,1.75-7.47,2.56-10.37.98-.41.67-1.23,1.24-2.26,1.61l.1.07c-.08.22-.14.44-.16.67-.18-.02-.36-.02-.54,0-.07-.06-.14-.12-.18-.19-.08-.13-.1-.21-.09-.29-2.07.48-4.7.2-6.76-1.5ZM55.97,30.77c-.35.35-.19.96-.54,1.32-.04-.04-.59-.33-.62-.41-.14-.03-.36-.04-.47-.15.03-.11.02-.23.02-.34.09-.03.23-.03.29-.09.13-.13.09-.26.27-.34.08-.03.16-.05.24-.06.14-.23.36-.21.66-.25.06.11.06.22.05.32.03,0,.06,0,.09,0ZM56,57.16c.15.21.25.41.48.52,0,0,0,0,0,0h-1.34c-.1-.21-.16-.45-.18-.75.12-.07.22-.17.3-.28.25.17.5.33.75.5ZM86.97,62.52c.66,1.7,2.06,3.26,3.14,1.87.64-.82,1.14-1.14,2.08-1.14s1.44.31,2.08,1.14c1.08,1.39,2.48-.17,3.14-1.87.01-.03.03-.07.04-.1-.14.01-.28.01-.46-.02-.03-.11-.09-.21-.16-.3.18-.17.36-.35.54-.52.19-.08.37-.13.51-.3,0,.01.01.02.02.03.57-1.46,1.23-3.52.95-6.2,1.25,2.83.46,7.63-.14,9.85-.8,2.93-2.77,4.96-3.95,3.27-.64-.91-1.42-1.5-2.56-1.5s-1.93.59-2.56,1.5c-1.18,1.68-3.15-.34-3.95-3.27-.6-2.21-1.4-7.02-.14-9.85-.37,3.52.88,5.97,1.44,7.4ZM87.87,51.98c-.03.08-.08.15-.13.22.06.26-.11.41-.29.65-.12-.03-.2-.11-.26-.19-.02.02-.05.04-.07.06,0-.5-.49-.92-.49-1.43.06,0,.6-.08.68-.05.12-.08.28-.23.44-.23.05.1.14.18.22.26-.05.09-.14.18-.14.28,0,.19.12.25.05.44ZM105.54,103.72c.26-.09.49-.28.63-.53l.56.22c.85.19,1.36.55,1.92,1.32-.12.21-.17.45-.19.69-.52-.01-1.03-.03-1.55-.03-.41-.17-.73-.37-1.18-.32.13-.45-.04-.92-.2-1.34ZM112.68,114.67c1.18,1.81,1.32,5.54.07,8.06.07-3.29-1.39-5.73-3.82-6.87-1.77-.83-3.88-.77-6.8.53-2.49,1.11-4.28,1.75-6.86,2.45,3.65-1.6,6.28-5.37,9.75-6.41,3.34-1,6-.32,7.66,2.23ZM90.84,135.48l.08-.03s.07,0,.1,0c0,.05.05.09.05.15.03,0,.07-.02.09-.03-.06-.21.16-.27.21-.06.04.01.11,0,.15,0,.04-.17-.14-.34-.29-.35.24-.3.46-.15.79-.07.05.33-.24.58-.55.64-.02.23-.16.48-.42.37-.09-.04-.23-.19-.25-.28-.03-.12.12-.23.06-.34ZM88.59,132.87c0,.1,0,.2.03.3-.12.08-.35,0-.46-.11-.13-.13-.11-.19-.08-.31-1.56-.38-2.97-.94-4.63-1.47-1.99-.64-3.75-.89-6.03-.72-.38.03-.77.08-1.16.13-.33.33-.64.67-.96,1-.04-.04-.08-.1-.12-.17-.14-.03-.36-.04-.47-.15.03-.11.02-.23.02-.34.09-.03.22-.03.29-.09.03-.02.04-.05.06-.07-.91.14-1.74.25-2.34.19-2.46-.25-3.85-1.41-4.6-2.53-.63-.94-.27-1.45.67-.79.23.16.49.32.76.48,0,0,0-.01,0-.02.13,0,.2-.1.27-.11-.09-.14-.16-.28-.28-.38,0-.02.01-.03.02-.05.26.26.51.52.77.77-.05.05-.09.1-.12.14.83.4,1.81.73,2.96.85,1.89.2,6.88-.15,10.04.66,2.29.58,6.53,1.03,8.91,1.03s6.62-.45,8.91-1.03c3.16-.81,8.15-.46,10.04-.66,1.89-.2,3.33-.96,4.37-1.68.94-.66,1.3-.15.67.79-.75,1.12-2.15,2.29-4.6,2.53-1.1.11-2.98-.37-4.69-.5-2.28-.17-4.04.08-6.03.72-2.93.94-5.11,1.96-8.67,1.96-1.33,0-2.47-.14-3.53-.37ZM77.21,131.27c.08.05.17.07.25.06.05.17.14.39.13.49-.02.15-.09.26-.17.37-.02-.15-.12-.25-.35-.16-.05-.14-.05-.28-.03-.44.12.08.22.16.37.21.04-.05.08-.15.09-.21-.17-.05-.35-.14-.29-.32ZM76.1,102c.05.34-.09.51-.45.44-.12.1-.27.3-.44.32-.07-.1-.18-.17-.28-.24.04-.1.12-.22.11-.32-.03-.2-.17-.25-.12-.47.07-.28.25-.58.56-.53l.3.04c.17.04.24.13.25.29,0,.08-.09.19-.08.28.01.09.12.14.13.19ZM79.23,112.43c1,.3,1.93.83,2.83,1.46.02-.16.05-.3.06-.35-.29-.18-.26-.02-.28-.36-.01-.16.09-.38-.04-.46.1-.28-.11-.51.12-.67.19-.13.64-.08.86-.1.06.08.11.2.14.28-.17.03-.22.17-.05.26-.29.18.01.42.21.2.07.34.46.21.67.3l.11.15s-.06.06-.09.08c0,0-.01,0-.02,0-.22.11-.41-.13-.67-.07-.08.02-.26.19-.35.23-.14.07-.26.04-.36.17,0,.06.05.14.1.24-.11.05-.22.1-.33.14,2.21,1.57,4.28,3.77,6.85,4.9-2.58-.7-4.37-1.35-6.86-2.45-.18-.08-.36-.16-.54-.23-.03.07-.07.14-.12.21-.02-.15-.12-.25-.35-.16-.03-.08-.04-.16-.04-.25-2.38-.87-4.2-.83-5.75-.1-1.75.82-2.99,2.32-3.53,4.33.2.06.31.26.48.48-.13.25-.39.33-.65.29-.09.56-.13,1.15-.12,1.77-.25-.51-.45-1.07-.59-1.65-.07-.02-.14-.06-.2-.15-.06-.09-.08-.33-.04-.43.02-.05.06-.07.1-.1-.2-1.16-.19-2.37-.01-3.45-.07-.24-.17-.42-.31-.61l-.02-.22c.13-.19.32-.1.49.08.16-.58.37-1.11.64-1.53,1.66-2.55,4.32-3.23,7.66-2.23ZM82.27,109.6c-.35.35-.7.72-1.04,1.08-.04-.04-.08-.1-.12-.17-.14-.03-.36-.04-.47-.15.03-.11.02-.23.02-.34.09-.03.22-.03.29-.09.13-.13.09-.26.27-.34.08-.03.16-.05.24-.06.14-.23.36-.21.66-.25.06.11.06.22.05.32.03,0,.06,0,.09,0ZM88.94,111.95c.07-.12.11-.25.14-.39.25.11.51.07.75-.01-.08.31-.21.48-.38.6.97.33,1.96.4,2.67.4,1.04,0,2.69-.14,3.97-1.04.99-.69,2.65-1.63,4.54-1.62-.18-.06-.37-.12-.55-.18.02-.01.03-.02.06-.04.18-.11.41-.34.56-.1.03.05.04.13.03.2,0,0,0,0,0,0l.13.11c.49.02.99.1,1.5.28-.76-.08-1.73.19-2.65.61,0,.06-.01.11-.02.17l-.27.05s-.1,0-.16,0c-.63.33-1.2.71-1.62,1.08-1.94,1.71-2.48,3.65-5.52,3.65s-3.57-1.89-5.46-3.58c-.03,0-.06,0-.08,0,0-.02,0-.04,0-.06-1.1-.97-3.29-2.06-4.71-1.91,2.56-.87,4.98.45,6.27,1.34.25.18.52.32.79.44ZM93.28,119.01c-.13.14-.41.23-.57.13.03-.21.02-.42,0-.62l.22-.08c-.05-.08-.08-.16-.07-.27l.03-.29c.04-.17.12-.24.28-.26.08,0,.18.09.27.07.09-.02.13-.12.18-.13.32-.06.49.08.43.43.1.12.29.26.32.43-.09.07-.16.18-.23.28-.09-.04-.21-.12-.31-.1-.19.03-.24.16-.43.12.02.1.02.18-.1.3ZM76.45,117.45c.33.08.29-.31,0-.3.19-.29-.18-.48-.27-.69l.03-.18s.09,0,.12.01c0,0,.01,0,.02,0,.23.08.2.39.42.53.07.05.31.05.41.08.15.05.21.16.37.14.04-.05.06-.14.1-.24.14.06.28.11.41.17-.14.12-.3.22-.35.26.08.34.17.2-.05.45-.11.12-.32.21-.29.36-.27.12-.28.44-.55.38-.22-.04-.51-.4-.68-.54.01-.1.06-.22.1-.3.14.09.27.03.21-.15ZM76.41,119.96s.02-.01.03-.02c.11-.31.27-.59.49-.83,1.18-1.32,3.35-.81,4.95.48.61.49,1.18,1.11,1.68,1.77.1-.04.2-.1.36-.17.04.03.09.12.09.13h0s0,0,0,0l.02.31c-.06.04-.12.08-.18.12.58.83,1.03,1.69,1.29,2.4.2.55-.24.89-.67.55-.77-.59-2.01-1-2.86-1.01-1.48-.03-3.12.1-4.39-.88-.89-.69-1.12-1.86-.79-2.83,0,0-.02,0-.02,0ZM97.08,123.5c.22-.43.86.29.99.57.23.48.05.62-.14,1.09-.3-.21-.22-.41-.34-.73-.11-.31-.26-.5-.46-.71l-.05-.22ZM100.74,121.12l-.1-.23c.12-.1.24-.22.32-.36.09.02.17.11.21.22.37-.43.77-.84,1.19-1.18,1.6-1.29,3.77-1.79,4.95-.48.91,1.02.89,2.78-.29,3.7-1.27.98-2.91.86-4.39.88-.85.02-2.09.42-2.86,1.01-.43.33-.86,0-.67-.55.31-.87.92-1.95,1.69-2.94-.02-.03-.05-.06-.06-.08ZM110.63,118.07l.34.13c-.02.24-.02.49.03.73-.18.12-.52,0-.69-.16-.27-.27-.09-.33-.11-.75-.09.07-.2.13-.31.19l-.39-.08c.17-.18.3-.4.34-.66.24.1.47.06.7-.01-.07.28-.19.44-.34.56.11.01.3.01.41.05ZM99.62,102.83c-1.11-.14-1.6.56-2.83-.7-1.23-1.26-3.63-.49-4.67-.49s-3.44-.77-4.67.49-1.72.56-2.83.7c-1.11.14-1.84.28-2.83,1.68.87-2.26,2.09-3.64,3.19-3.5s1.6-.98,2.95-1.82c1.35-.84,2.54-1.12,4.18-1.12s2.83.28,4.18,1.12c1.35.84,1.84,1.96,2.95,1.82,1.11-.14,2.4,1.07,3.19,3.5-.98-1.4-1.72-1.54-2.83-1.68ZM92.12,92.14c-3.35,0-6.28.99-8.57,2.62,2.54-3.75,6.23-5.14,8.57-5.14s6.03,1.39,8.57,5.14c-2.26-1.56-5.22-2.62-8.57-2.62ZM86.38,88.55c-.36.47.26.68.46.2.31.51.86.07,1.25.09l.26.18c-.03.08-.07.13-.11.18,0,0-.02.02-.03.03-.29.3-.75.04-1.13.27-.12.08-.31.46-.43.58-.19.19-.39.22-.49.48.05.09.17.2.29.33-.19.18-.37.35-.56.53-.08-.31-.12-.64-.14-.74-.58-.12-.43.12-.66-.42-.11-.26-.08-.66-.33-.73.01-.51-.46-.77-.18-1.15.23-.32.99-.51,1.33-.66.14.09.3.26.39.38-.25.15-.25.41.07.45ZM58.91,83.51c1.33-.3,2.39-.88,4.02-1.47.2-.07.46-.18.74-.3-.01-.06-.01-.13,0-.21-.1-.12-.29-.26-.32-.42.09-.07.16-.18.23-.28.1.04.21.12.31.1.19-.03.24-.16.43-.12-.02-.1-.02-.18.1-.3.13-.14.41-.23.57-.13-.03.21-.02.42,0,.62l-.22.08s.05.09.06.14c.72-.33,1.49-.67,2.16-.94,1.83-.73,3.34-1.19,5.8-1.07,1.8.09,3.34.55,4.7,1.15,1.35.59,2.61,1.37,3.61,1.95.84.49,1.75,1.06,2.71,1.42-.49,1.23-2.02,1.74-2.95,1.53.3,1.27.35,2.37.01,3.94-.2.9-.64,1.93-1.36,2.91.07.17.13.34.19.51-.05.02-.12.03-.2.04-.09.12-.19.32-.33.37-.08-.07-.18-.11-.28-.16-1.14,1.25-2.75,2.35-4.91,2.9-4.06,1.04-6.82-.6-8.22-2.16-1.96-2.17-2.59-3.97-3.06-5.41-.3-.9-.46-1.56-.85-2.29-1.11.36-2.36.79-3.85.13-.81-.36-1.8-1.38-1.83-2.31.69.29,1.59.04,2.73-.21ZM116.63,120.82s-.02-.03-.04-.06c-.11-.18-.33-.41-.1-.56.05-.03.12-.04.2-.03,0,0,0,0,0,0l.52.09c-.09.3-.49.27-.58.57ZM116.93,113.95c-.4-.02-.29-.2-.59-.51.09-.07.24-.2.36-.25l.35-.14c.15.2.32.39.52.55-.06.22-.4.37-.64.35ZM123.63,108.78l.55-.25c.73-.47,1.33-.58,2.25-.44.06.23.19.43.34.62-.37.36-.74.71-1.1,1.07-.4.17-.76.26-1.05.61-.22-.41-.66-.62-1.06-.8.12-.24.15-.54.08-.81ZM122.38,85.91c-.39.73-.55,1.39-.85,2.29-.47,1.43-1.1,3.24-3.06,5.41-1.4,1.55-4.16,3.19-8.22,2.16-1.27-.32-2.34-.84-3.25-1.46-.02.02-.03.03-.05.05-.23.1-.45.15-.61.36-.13-.24-.39-.36-.62-.47.07-.14.09-.32.05-.48l.32-.14s.02,0,.02-.01c-1.55-1.36-2.44-3.03-2.74-4.42-.34-1.56-.29-2.67.01-3.94-.4.09-.92.04-1.41-.14.02.05.05.09.08.14-.26.1-.41.32-.53.55-.22-.38-.18-.65-.1-.94-.43-.26-.8-.64-1-1.13.96-.36,1.87-.92,2.71-1.42.99-.59,2.26-1.36,3.61-1.95.07-.03.14-.06.21-.09l-.12-.21c-.04-.08-.07-.23-.09-.31.32-.06.35-.22.59-.05.1.07.19.21.21.34,1.16-.44,2.44-.75,3.89-.82,2.46-.12,3.97.35,5.8,1.07,1.37.55,3.18,1.44,4.08,1.77,1.63.59,2.69,1.17,4.02,1.47,1.14.26,2.04.5,2.73.21-.02.93-1.01,1.95-1.83,2.31-1.49.66-2.74.23-3.85-.13ZM126.56,80.13c.13-.14.41-.23.57-.13-.03.21-.02.42,0,.62l-.22.08c.05.08.08.16.07.27l-.03.29c-.04.17-.12.24-.28.26-.08,0-.18-.09-.27-.07-.09.02-.13.12-.18.13-.32.06-.49-.08-.43-.43-.1-.12-.29-.26-.32-.42.09-.07.16-.18.23-.28.1.04.21.12.31.1.19-.03.24-.16.43-.12-.02-.1-.02-.18.1-.3ZM102.1,55.88c-.01-.09.01-.24.02-.33.32.05.4-.09.57.15.11.15.15.42.02.55-.28,0-.51-.13-.61-.37ZM125.14,58.65c-.24.09-.22-.04-.48-.15.04-.07.09-.18.15-.24l.18-.17c.14.08.29.15.45.19.02.15-.14.32-.29.37ZM14.55,123.86c-.01.11-.01.31-.05.42l-.13.35c-.24-.02-.48-.02-.73.03-.12-.19,0-.53.16-.7.27-.28.33-.09.74-.11-.07-.09-.13-.2-.19-.31l.08-.39c.18.17.4.31.65.35-.1.24-.06.48.01.71-.28-.07-.43-.2-.55-.35ZM14.68,109.36c-1.03-5.17-1.58-10.51-1.58-15.98,0-3.61.24-7.15.69-10.63-.24.07-.15.14-.38-.07-.12-.11-.2-.33-.35-.3-.12-.27-.43-.28-.38-.56.04-.22.39-.51.54-.68.09.01.22.06.3.1-.09.14-.03.28.15.22-.08.34.3.29.29,0,0,0,.02,0,.03.01,1.08-7.29,3.12-14.27,6-20.78.04,3.13,1.2,5.92,4.06,9.71,3.27,4.33,4.91,9.13,4.06,13.92-.63,3.55-2.81,8.25-4.86,11.18-2.07,2.95-4.06,5.81-6.3,9.36-.88,1.39-1.65,2.92-2.27,4.52ZM20.04,120.09c-.23-3.47.76-7.37,2.78-11.19,1.68-3.16,3.11-5.19,5.24-8.49,3.18-4.9,5.34-8.79,6.06-13.37,1.18-7.52-.26-12.56-4.99-18.29-4.13-5.01-6.26-8.01-5.26-13.33.28-1.5.66-2.97,1.19-4.42,8.43-13.68,20.82-24.59,35.55-31.09,0,0,0,0,0,0-1.4,2.73-3.6,4.58-7.17,8.61-3.84,4.34-5.07,9.04-4.12,15.1.33,2.09,1.29,4.71,2.55,6.79-3.55-1.19-9.11-6.13-10.17-11.05-.98,3.26-.51,9.06,1.07,12.63,2.44,5.48,6.9,9.24,11.68,11.23-3.62-.64-6.6,1.95-10.45-2.32-.97,6.95.06,10.5,1.47,12.88.27.45.56.91.89,1.37,0-.03,0-.05.02-.08.03-.08.08-.15.13-.22-.06-.26.11-.41.29-.65.12.03.2.11.26.19.02-.02.05-.04.07-.06,0,.5.01,1.01.02,1.51-.06,0-.12,0-.2-.04-.02.01-.04.03-.06.04.93,1.16,2.12,2.34,3.74,3.44-4.25-.56-10.1-2.19-14.28-5.34-1.07,3.43.01,9.57,2.04,13.26,2.24,4.08,3.59,6.25,8.15,8.98-7.04-.27-10.74,8.08-12.06,13.46.93-.09,1.98-.12,3.09-.08,0-.01.02-.02.03-.03.18-.18.22-.06.5-.07,0,.03,0,.07,0,.12,3.97.2,8.57,1.21,11.11,3.15-2.4-1.06-6.72-2.01-10.45-1.7,3.38,1.56,5,2.51,5.08,5.25.05,1.6.34,3.02,1.38,4.37,2.91-2.8,5.16-5.2,7.27-6.56,2.4-1.54,5.21-2.2,7.59-1.47-1.83.02-3.43.42-4.94,1.13.07.16.12.34.17.44-.05.08-.15.18-.22.23-.09-.15-.23-.15-.26.04-.27-.21-.39.15-.12.27-.29.18-.04.51-.05.74l-.1.15s-.08-.04-.1-.06c0,0,0-.01-.02-.02-.17-.17-.02-.44-.16-.67-.04-.07-.26-.18-.33-.25-.06-.06-.09-.12-.13-.17-3.53,2.13-6.68,5.94-11.24,10.36-2.96,2.88-5.8,4.37-8.41,4.96,0,.05,0,.1-.02.14-.19,0-.38.05-.56.1l-.06-.11c-1.75.3-3.39.2-4.88-.15-.17.04-.33.06-.39.07-.07.34.07.25-.24.39-.13.06-.33.05-.4.15v-.9c-.55-.18-1.07-.38-1.57-.61-3.53-1.63-5.73-4.45-6.02-8.79ZM31.27,155c-.21-.08-.31-.41-.27-.64.06-.37.22-.25.57-.48.06.1.17.25.2.36l.09.34c-.21.11-.42.25-.59.42ZM31.48,151.27h0s0,0,0,0ZM42.31,166.08s0,0,0,0c0,0,0,0,0,0ZM52.53,169.92c-.12.1-.27.3-.44.32-.07-.09-.18-.17-.28-.24.04-.1.12-.22.11-.32-.03-.2-.17-.25-.12-.47.07-.28.25-.58.56-.53l.3.04c.17.04.24.13.25.29,0,.08-.09.19-.08.28.01.09.12.14.13.19.05.34-.09.51-.45.44ZM61.11,177.75c-.05.06-.19.07-.24.14-.05.07,0,.18-.04.23-.19.27-.4.29-.6,0-.15,0-.39.03-.52-.07.01-.12-.01-.24-.03-.36.09-.04.23-.07.29-.15.11-.16.06-.29.22-.4-.08-.06-.14-.11-.14-.29,0-.2.13-.46.31-.5.12.17.28.31.44.44l-.1.21c.09.02.17.05.24.14l.18.23c.09.15.08.25-.02.38ZM75.29,176s-.08-.1-.12-.17c-.14-.03-.36-.04-.47-.15.03-.11.02-.23.02-.34.09-.03.22-.03.29-.09.13-.13.09-.26.27-.34.08-.03.16-.05.24-.06.14-.23.36-.21.66-.25.06.11.06.22.05.32.03,0,.06,0,.09,0-.35.35-.7.72-1.04,1.08ZM77.7,170.89c-.09.02-.23.02-.31,0,.04-.17-.06-.27-.21-.15-.04-.34-.38-.17-.27.11-.21-.05-.31.1-.4.25.15.28.29.57.42.87-1.91-.38-3.79-.83-5.64-1.34-.12.13-.21.28-.29.43l-.27-.07c-.09-.02-.21-.12-.28-.16.13-.19.13-.31.2-.38-2.84-.81-5.61-1.78-8.31-2.9.05.13.1.26.1.38-.02-.02-.38-.1-.4-.12-.16-.14-.45-.28-.28-.49-4.34-1.83-8.49-4.05-12.4-6.61.02.08,0,.15-.09.22-.05.03-.12.04-.2.03,0,0,0,0,0,0l-.22.25c.08-.26-.09-.62-.09-.92-3.96-2.64-7.67-5.63-11.09-8.93v.03c-.17-.02-.34-.02-.5.02-.08-.12,0-.32.09-.44-.96-.94-1.89-1.9-2.8-2.88-.14.1-.29.2-.45.26-.01.12-.08.16-.12.26-.09-.09-.21-.07-.27-.11-.03.17-.08.31-.07.47-.02.01-.03.01-.05.02,0-.37-.45-.61-.46-.98.35,0,.74-.14,1.09-.28-2.97-3.26-5.69-6.76-8.1-10.49,1.88.71,3.96.98,6.73.92,2.61-.06,5.65-.57,9-2.46-.03-.19-.09-.38-.21-.55.26-.1.41-.32.53-.55.19.34.18.59.12.84,1.84-1.1,3.78-2.61,5.79-4.69.39-.4.77-.8,1.16-1.19-.01,0-.03-.02-.04-.03-.15-.1-.28-.34-.2-.51.19,0,.38-.05.56-.1l.11.2c2.19-2.22,4.34-4.2,6.9-5.81-.05,0-.11,0-.17,0,0-.15.01-.3.02-.45.16.09.31.21.36.25.25-.17.16-.22.36-.14,2.12-1.25,4.53-2.24,7.48-2.9.83-.19,1.38-.86,1.6-1.58.27-.89,0-1.89-.13-2.7,1.49,1.79,1.19,4.65-1.02,5.16-1.79.41-3.75.83-5.87,2.02-.34.19-.68.39-1.01.58,0,0,0,.01,0,.02.03.23-.2.62-.28.83-.09.02-.23.02-.31,0,.04-.17-.06-.27-.21-.15,0-.08-.04-.14-.07-.16-.07.04-.14.09-.21.13,0,.04,0,.09.02.14-.34-.08-.38.33-.55.48l-.18.03s-.03-.08-.03-.12c0,0,0-.01,0-.02,0-.01,0-.02,0-.04-1.81,1.2-3.41,2.47-4.76,3.89,1.6,1.64,2.91,2.74,5.4,4.67-.29,2.8.61,4.55,2.21,5.61.07-.15.24-.17.48-.42.08.09.24.24.3.35l.18.36c-.06.05-.12.11-.17.16.42.2.87.37,1.35.51.36.52.69,1.07.98,1.65.06-.05.11-.1.16-.15.03.17.02.3,0,.43-.01,0-.03,0-.04,0,.71,1.53,1.13,3.29,1.13,5.57,0,3.62.33,6.81,1.35,9.5l.21-.11c.14.18.3.34.48.48-.11.14-.2.3-.28.47-.02,0-.04.01-.05.02.46,1.02,1.03,1.96,1.74,2.81,1.18,1.43,2.74,2.76,4.32,4.22.09-.06.19.01.17.15.05.04.09.09.14.13.13-.13.08-.4-.05-.5.42-.11.52.18.76.48-.09.18-.26.27-.44.29,1.69,1.6,3.35,3.37,4.54,5.59.05-.06.1-.13.12-.21.02-.08-.06-.32-.06-.42,0-.16.07-.25,0-.4-.06-.02-.15-.01-.25-.01,0-.15.01-.3.02-.45.16.09.31.21.36.25.29-.19.12-.23.44-.1.15.06.3.24.43.16.2.21.5.12.54.4.03.23-.2.62-.28.83ZM60.84,133.81c-.19.27-.4.29-.6,0-.15,0-.39.03-.52-.07.01-.12-.01-.24-.03-.36.09-.04.23-.07.29-.15.11-.16.06-.29.22-.4-.08-.06-.14-.11-.14-.29,0-.2.13-.46.31-.5.12.17.28.31.44.44l-.1.21c.09.02.17.05.24.14l.18.23c.09.15.08.25-.02.38-.05.06-.19.07-.24.14-.05.07,0,.18-.04.23ZM72.61,163.04c.27-.38.79.4.88.68.15.49-.04.6-.28,1.03-.26-.25-.16-.42-.23-.75-.07-.31-.19-.51-.35-.75l-.02-.22ZM104.83,172.43c-3.74.61-7.58.96-11.48,1.02,0,.11,0,.22.06.32.04.07.26.18.33.25.11.11.12.23.28.29.05-.03.12-.1.19-.17.1.11.2.22.3.33-.18.05-.37.07-.42.08-.07.34.07.25-.24.39-.15.07-.38.04-.42.2-.29,0-.44.27-.66.11-.18-.14-.29-.58-.38-.78.05-.08.15-.18.22-.23.09.15.23.15.26-.04.27.21.39-.15.12-.27.19-.12.15-.29.1-.47-.31,0-.62,0-.93,0-3.76,0-7.46-.27-11.08-.79.04.28.12.56.24.81-.21,0-.4.02-.52-.2-.09-.16-.1-.41-.09-.67-.43-.06-.85-.13-1.28-.2,1.13-1.28,2.4-2.16,3.42-2.61,1.56-.69,1.95.13,1.82,2.52,1.76-2.44,3.35-4.59,7.45-4.61.04,0,.07,0,.11,0,.01-.16,0-.32-.01-.48l.22-.08c-.05-.08-.08-.16-.07-.27l.03-.29c.04-.17.12-.24.28-.26.08,0,.18.09.27.07.09-.02.13-.12.18-.13.32-.06.49.08.43.43.1.12.29.26.32.42-.09.07-.16.18-.23.28-.09-.04-.21-.12-.31-.1-.19.03-.24.16-.43.12.02.1.02.18-.1.3,0,0,0,0,0,0,3.61.24,5.13,2.29,6.79,4.59-.13-2.39.26-3.21,1.82-2.52.68.3,1.48.8,2.27,1.48-.04-.08-.09-.18-.14-.31.03-.04.11-.09.12-.09h0,0l.3-.02c.12.16.23.33.29.51.12.01.16.08.26.12-.09.09-.07.21-.11.27.16.03.3.08.47.07.01.02.01.03.02.05-.19,0-.37,0-.56,0,.17.17.34.35.5.53ZM84,165.62h0s0,0,0,0ZM88.34,162.92c.18-.19.33-.43.37-.71.25.11.51.07.75-.01-.13.49-.4.64-.71.8l-.41-.09ZM105.3,170.25c-.36-.07-.24-.23-.48-.57.09-.06.25-.17.36-.21l.34-.1c.11.22.24.42.41.6-.08.22-.41.32-.63.28ZM106.13,164.47c-.06.11-.24.08-.28.2l-.07-.04s-.05-.04-.07-.07c.03-.04.03-.1.07-.14-.02-.01-.06-.04-.09-.04-.1.19-.3.07-.19-.11-.02-.04-.07-.08-.11-.1-.15.09-.14.35-.04.46-.38.04-.43-.22-.6-.51.02-.03.04-.05.07-.07-.76-.2-1.5-.52-2.18-.97-1.62-1.06-3.51-2.37-5.78-3.22,0,.23-.2.58-.27.77-.09.02-.23.02-.31,0,.04-.17-.06-.27-.21-.15-.04-.34-.38-.17-.27.11-.34-.08-.38.33-.55.48l-.18.03s-.03-.08-.03-.12c0,0,0-.01,0-.02,0-.24.29-.32.35-.58.02-.08-.06-.32-.06-.42,0-.16.07-.25,0-.4-.06-.02-.15-.01-.25-.01,0-.08,0-.16,0-.24-.93-.22-1.92-.36-2.98-.36-4.51,0-7.89,2.39-10.53,4.12-.7.46-1.45.78-2.22.98,0,.03.02.05.02.08-.09.06-.17.14-.25.23-.08-.05-.18-.14-.27-.14-.19,0-.25.12-.43.05-.02,0-.04-.02-.06-.04-.44.04-.88.05-1.31,0,0,.03,0,.07,0,.11,0,0,0,0,0,0l.25.22c-.3-.09-.6-.19-.9-.29.02-.01.03-.02.06-.04.03-.02.07-.05.11-.07-2.22-.39-4.28-1.98-5.39-4.96-.08-.21-.15-.43-.23-.65-.12.22-.3.41-.55.6-.12-.07-.25-.1-.39-.11,0-.3.02-.6.02-.91.1-.24.21-.43.18-.69.13.04.26.03.39,0-.31-1.05-.61-2.22-.9-3.44-.05.11-.11.21-.17.32l-.39.16c.06-.26.08-.52-.02-.77.18-.03.32-.13.45-.24-.84-3.57-1.64-7.41-2.6-9.68-1.47-3.47.93-3.82,1.34-2.21.56,2.21,1.05,4.91,1.62,7.55.07,0,.14.02.22.03l.18.21c-.12.01-.22.05-.33.1.55,2.5,1.18,4.94,2.04,6.87,1.98,4.46,6.29,5.25,9.54,3.67,2.67-1.31,5.66-2.69,9.77-2.84-.07-.11-.17-.2-.27-.29.46-.12.72.04,1.02.22l.02.05c2.66,0,4.85.52,6.79,1.22,0-.02,0-.04,0-.06-.1-.05-.12-.13-.21-.2.12-.05.14-.17.19-.22-.14-.09-.26-.18-.41-.23,0-.02,0-.03,0-.05.34.12.68.25,1.02.36-.1.27-.1.41-.08.58,1.15.45,2.2.95,3.21,1.44,2.2,1.08,4.89,1.05,7.02-.47-.13,0-.24,0-.38.07-.16.07-.2.17-.38.12.1-.25.09-.38.34-.45.14-.04.57-.04.56.17.95-.72,1.78-1.73,2.38-3.1,1.79-4.04,2.61-10.35,3.73-14.76.41-1.61,2.81-1.26,1.34,2.21-1.53,3.63-2.66,11.27-4.21,15.41-.66,1.78-1.67,3.05-2.84,3.88l.19.07c-.02.24-.02.49.03.73-.18.12-.52,0-.69-.16-.11-.11-.14-.18-.15-.26-1.07.59-2.24.84-3.41.78,0,.09-.01.18-.04.22ZM145.58,161.34c0,.24-.29.32-.35.58-.02.08.06.32.06.42,0,.16-.07.25,0,.4.06.02.15.01.25.01,0,.15-.01.3-.02.45-.16-.09-.31-.21-.36-.25-.28.19-.12.23-.44.1-.15-.06-.3-.24-.43-.16-.2-.21-.5-.12-.54-.4-.03-.23.2-.62.28-.83.09-.02.23-.02.31,0-.04.17.06.27.21.15.04.34.38.17.27-.11.34.08.38-.33.55-.48l.18-.03s.03.08.03.12c0,0,0,.01,0,.02ZM152.27,145.38c.09.04.19.09.37.13-.03.11-.05.3-.11.4l-.17.31c-.23-.07-.46-.12-.7-.13-2.51,2.91-5.22,5.62-8.12,8.14.13.11.29.18.43.25-.07.14-.09.32-.05.48l-.32.14c-.43.28-.78.34-1.32.26,0-.02-.01-.03-.02-.05-.38.31-.75.62-1.13.93,0,0,0,0,0,0,.02,0,.04.02.06.03v1.02c-.1-.03-.23.11-.16.29-.34-.08-.38.33-.55.48l-.18.03s-.03-.08-.03-.12c0,0,0-.01,0-.02,0-.24.29-.32.35-.58.02-.08-.06-.32-.06-.42,0-.12.04-.21.03-.31-9.58,7.54-20.92,12.91-33.3,15.34,2.13-4.9,6.54-7.7,9.39-10.79-.02.02-.04.03-.07.05l-.28-.02c.11-.13.19-.29.21-.47.17.05.34,0,.49-.07-.01.07-.03.12-.05.17.1-.12.21-.23.3-.35.78-.95,1.4-1.99,1.88-3.13-.18-.02-.14.04-.25-.22-.06-.15-.04-.39-.19-.42,0-.29-.27-.44-.1-.67.13-.18.57-.29.77-.38.08.05.17.15.22.22-.14.08-.14.21.01.25.58-1.78.89-3.76,1.03-5.92-.22.16-.42.15-.64.12l-.2-.2c.17-.03.34-.1.46-.23.09.13.23.2.38.25.06-.92.08-1.87.08-2.85,0-3.29.86-5.52,2.23-7.49,2.86-.82,4.76-2.68,4.35-6.57,2.49-1.93,3.8-3.03,5.4-4.67-2.02-2.11-4.59-3.93-7.6-5.62-2.12-1.19-4.08-1.6-5.87-2.02-2.2-.51-2.51-3.37-1.02-5.16-.13.81-.4,1.82-.13,2.7.22.72.77,1.4,1.6,1.58,7.77,1.74,11.79,5.78,16.53,10.68,3.21,3.33,6.23,5.21,8.99,6.24-.02-.08-.05-.15-.08-.23.15-.05.28-.16.37-.3l.33.13c.49.11.79.32,1.11.76-.03.05-.05.11-.07.17,1.64.44,3.17.6,4.58.63,2.82.06,4.93-.23,6.82-.96-1.84,2.85-3.87,5.57-6.04,8.15ZM124.8,132.17c.49.13.63.4.79.72l-.08.42c-.19-.18-.42-.33-.7-.38.11-.26.07-.51-.01-.76ZM140.44,129.66c.29-.18.04-.51.05-.74l.1-.15s.08.04.1.06c0,0,0,.01.02.02.17.17.02.44.16.67,0,.01.02.03.04.04v1.28s-.02.03-.02.05c-.29,0-.44.27-.66.11-.18-.14-.29-.58-.38-.78.05-.08.15-.18.22-.23.09.15.23.15.26-.04.27.21.39-.15.12-.27ZM152.29,134.33c.32-.06.35-.22.59-.05.15.1.28.34.2.51-.19,0-.38.05-.56.1l-.14-.24c-.04-.08-.07-.23-.09-.31ZM164.51,117.12c-.16.15-.25.15-.37.13.11.97.13,1.92.07,2.84-.29,4.35-2.48,7.17-6.02,8.79-2.18,1-4.81,1.57-7.75.99.02.02.04.04.06.06-.18.05-.37.07-.42.08-.07.34.07.25-.24.39-.15.07-.38.04-.42.2-.29,0-.44.27-.66.11-.18-.14-.29-.58-.38-.78.05-.08.15-.18.22-.23.09.15.23.15.26-.04.18.15.3.02.26-.11-2.34-.72-4.85-2.18-7.45-4.71-.81-.79-1.58-1.56-2.31-2.3-.06.22-.03.44.04.66-.48-.13-.63-.4-.79-.72l.08-.42c.15.14.32.26.52.33-5.48-5.58-9.05-9.67-15.03-9.74,2.38-.73,5.19-.07,7.59,1.47,1.03.66,2.09,1.57,3.24,2.65,0-.05-.02-.1-.03-.14.18-.03.31-.15.42-.28.07.3-.02.47-.14.66,1.15,1.09,2.39,2.33,3.78,3.67,1.04-1.36,1.33-2.78,1.38-4.37.03-.95.24-1.68.65-2.3-.21.05-.27.35-.41.49l-.18.03s-.03-.08-.03-.12c0,0,0-.01,0-.02,0-.24.29-.32.35-.58.02-.08-.06-.32-.06-.42,0-.16.07-.25,0-.4-.06-.02-.15-.01-.25-.01,0-.15.01-.3.02-.45.16.09.31.21.36.25.28-.19.12-.23.44-.1.02,0,.04.02.06.03v.92c.82-.96,2.18-1.66,4.14-2.56-3.73-.32-8.05.64-10.45,1.7,3.38-2.58,10.37-3.52,14.72-3.09-1.32-5.38-5.02-13.73-12.06-13.46,4.57-2.73,5.91-4.9,8.15-8.98,2.02-3.68,3.11-9.83,2.04-13.26-4.18,3.15-10.03,4.78-14.28,5.34,2.58-1.77,4.08-3.71,5.15-5.51,1.41-2.39,2.45-5.93,1.47-12.88-3.86,4.27-6.83,1.68-10.45,2.32,4.78-2,9.25-5.76,11.68-11.23,1.59-3.57,2.06-9.37,1.07-12.63-1.06,4.92-6.62,9.85-10.17,11.05,1.26-2.08,2.22-4.7,2.55-6.79.21-1.37.31-2.66.3-3.9-.02,0-.04,0-.07-.01-.08-.03-.15-.08-.22-.13-.26.06-.4-.11-.64-.3.03-.12.11-.2.19-.26-.02-.02-.04-.05-.06-.07.26,0,.52,0,.78,0-.2-3.92-1.61-7.27-4.4-10.42-3.57-4.03-5.76-5.88-7.17-8.61,0-.01-.01-.03-.02-.04,14.66,6.45,27.02,17.27,35.46,30.85.58,1.53.99,3.1,1.29,4.7,1,5.32-1.13,8.32-5.26,13.33-4.73,5.73-6.17,10.76-4.99,18.29.72,4.58,2.89,8.47,6.06,13.37,2.13,3.29,3.57,5.32,5.24,8.49,1.33,2.51,2.21,5.06,2.59,7.5.23.03.46.04.69,0,.12.2-.02.54-.21.71ZM136.59,115.9c.04.34.38.17.27-.11.34.08.38-.33.55-.48l.18-.03s.03.08.03.12c0,0,0,.01,0,.02,0,.24-.29.32-.35.58-.02.08.06.32.06.42,0,.16-.07.25,0,.4.06.02.15.01.25.01,0,.15-.01.3-.02.45-.16-.09-.31-.21-.36-.25-.28.19-.12.23-.44.1-.15-.06-.3-.24-.43-.16-.2-.21-.5-.12-.54-.4-.03-.23.2-.62.28-.83.09-.02.23-.02.31,0-.04.17.06.27.21.15ZM138.76,117.7c.18.06.37.09.56.09l.05.28c.01.09-.01.24-.02.33-.32-.05-.4.09-.57-.15-.11-.15-.15-.42-.02-.55ZM131.83,42.25c.32-.06.35-.22.59-.05.15.1.28.34.2.51-.19,0-.38.04-.56.1l-.14-.24c-.04-.08-.07-.23-.09-.31ZM135,53.27c.09-.04.3-.03.38.02.1.06.08.25.2.28l-.03.07s-.04.05-.07.07c-.04-.03-.1-.03-.14-.07-.01.02-.03.06-.04.09.19.1.07.3-.11.19-.04.02-.08.07-.1.11.09.15.34.14.45.04.04.38-.22.43-.51.61-.27-.2-.24-.58-.06-.84-.15-.18-.22-.45.04-.57ZM152.69,91.46c.15-.05.28-.16.37-.3l.33.13c.49.11.79.32,1.11.76-.07.12-.1.26-.11.4-.3,0-.6-.02-.9-.02-.24-.1-.42-.21-.68-.19.08-.26-.02-.53-.11-.78ZM172.88,91.22s-.01,0-.02,0c-.22.11-.41-.13-.67-.07-.08.02-.26.19-.35.23-.14.07-.26.04-.36.17,0,.06.05.14.1.24-.13.06-.26.11-.38.17,0,.47.02.94.02,1.42,0,3.63-.24,7.19-.7,10.69.17-.02.34-.07.49-.13.05.15.16.28.3.37l-.13.33c-.11.5-.31.8-.75,1.13-.04-.03-.09-.04-.14-.06-.19,1.27-.41,2.53-.67,3.78-.63-1.64-1.41-3.21-2.31-4.64-2.23-3.55-4.22-6.41-6.3-9.36-2.06-2.93-4.24-7.63-4.86-11.18-.85-4.79.79-9.59,4.06-13.92,2.91-3.84,4.06-6.67,4.06-9.86.88,1.98,1.68,4.01,2.41,6.08l.08-.19c.25.04.5.05.75.01.19.08.26.26.19.43.1-.05.21-.04.32,0-.22.05-.43.12-.63.19-.03.04-.05.07-.08.1-.18.16-.27.15-.4.12,2.44,7.18,3.91,14.82,4.23,22.76.22-.07.57-.05.75-.06.06.08.11.2.14.28-.17.03-.22.17-.05.26-.29.18.01.42.21.2.07.34.46.21.67.3l.11.15s-.06.06-.09.08Z" style="fill: #d61b18; stroke-width: 0px;"/>
  </g>
  <g>
    <path d="M94.79,9.37c.11-.62.51-1.06.97-1.46-1.06-.28-1.66.09-2.36.52l-.36.91c.58-.15,1.19-.18,1.76.04Z" style="fill: #fff; opacity: .12; stroke-width: 0px;"/>
    <path d="M100.95,11.57c.32.05.5-.12.75-.25-.19-.44-.58-.6-.97-.44.12-.24.1-.5.01-.75-.13.54-.27,1.05-.44,1.55.03.17.05.34.16.51.26-.22.42-.27.5-.62Z" style="fill: #fff; opacity: .12; stroke-width: 0px;"/>
    <path d="M122.96,15.33c.02-.51.11-.97.23-1.41-.15-.02-.31-.03-.46-.08-.11.62-.51,1.06-.97,1.46.48.12.85.11,1.19.02Z" style="fill: #fff; opacity: .12; stroke-width: 0px;"/>
    <path d="M74.33,11.03c.21-.56-.09-.52-.34-1.12-.15.09-.42.22-.55.35l-.39.41c.18.32.34.67.43,1.04.34.05.73-.33.85-.68Z" style="fill: #fff; opacity: .12; stroke-width: 0px;"/>
    <path d="M83.98,4.99c.21-.56-.09-.52-.34-1.12-.15.09-.42.22-.55.35l-.39.41c.18.32.34.67.43,1.04.34.05.73-.33.85-.68Z" style="fill: #fff; opacity: .12; stroke-width: 0px;"/>
    <path d="M48.19,11.96c.35-.01.7-.03,1.05-.04-.22-.38-.5-.74-.58-.86,0-.01.02-.02.02-.04-.19.1-.39.21-.58.31.02,0,.03,0,.05.02.04.14.03.36.03.61Z" style="fill: #fff; opacity: .12; stroke-width: 0px;"/>
    <path d="M36.42,75.81c.18.5.94.74,1.45.64.68-.12.62-.4.88-.93-.51-.29-1-.59-1.48-.91-.24.43-.51.84-.85,1.2Z" style="fill: #fff; opacity: .12; stroke-width: 0px;"/>
    <path d="M38.37,79.24c.84,0,1.67,0,2.51.01,0-1.06.24-1.19.63-2.14-.08-.09-.26-.2-.29-.22l-.7-.04c-.27.36-.53.76-.68,1.19-.27.03-.36.19-.6.28.22.21.17.48.26.62-.38.08-.7.19-1.08.17-.02.05-.03.07-.05.12Z" style="fill: #fff; opacity: .12; stroke-width: 0px;"/>
    <path d="M33.38,33.74c0-.45.1-.89.23-1.31l-.56-.33c-.18-.1-.53-.15-.72-.2-.14.76-.5.81-.12,1.37.23.35.78.65,1.16.47Z" style="fill: #fff; opacity: .12; stroke-width: 0px;"/>
    <path d="M42.32,27.18c.23-.09.5-.29.73-.26.46.06.58.4,1.06.27.65-.16,1.31-.58,1.22-1.32l-.09-.7c-.1-.41-.29-.57-.67-.59-.19-.02-.43.21-.64.18-.2-.03-.31-.29-.44-.31-.77-.12-1.16.22-1,1.05-.24.28-.68.63-.73,1.03.22.17.38.42.55.66Z" style="fill: #fff; opacity: .12; stroke-width: 0px;"/>
    <path d="M48.39,25.49c-.46-.27-1.24.06-1.62.49-.61.7-.16.81-.14,1.82.05,0,.11-.02.17-.02.51-.36,1.03-.72,1.55-1.08-.03-.4-.03-.8.03-1.21Z" style="fill: #fff; opacity: .12; stroke-width: 0px;"/>
    <path d="M50.26,37.33c-.05-.03-.07-.05-.13-.08-.26-.16-.57-.42-.84-.47-.05.3-.1.6-.14.91.37-.12.74-.24,1.11-.35Z" style="fill: #fff; opacity: .12; stroke-width: 0px;"/>
    <path d="M46.86,63.87c0,.6.26.46.69.94.11-.14.32-.35.4-.51l.23-.52c-.17-.15-.33-.31-.47-.48-.19-.04-.38-.1-.58-.16-.17.19-.27.49-.28.74Z" style="fill: #fff; opacity: .12; stroke-width: 0px;"/>
    <path d="M19.51,59.68c.11-.14.32-.35.4-.51l.23-.52c-.28-.24-.54-.51-.75-.84-.33.06-.58.56-.58.93,0,.6.26.46.69.94Z" style="fill: #fff; opacity: .12; stroke-width: 0px;"/>
    <path d="M51.42,39.53c-.33-.25-.95-.34-1.25-.05.14.42.2.87.21,1.32l.63.12c.2.03.55-.03.74-.05-.12-.76.2-.93-.34-1.33Z" style="fill: #fff; opacity: .12; stroke-width: 0px;"/>
    <path d="M51.94,49.22c.13-.43.25-.9.24-1.35.24-.12.28-.3.47-.47-.27-.12-.32-.4-.45-.5.33-.2.59-.42.96-.52,0-.06,0-.08,0-.13-.79.28-1.57.57-2.37.84.27.77.22,1.07.16,1.64.11.23.22.46.34.68l.63-.19Z" style="fill: #fff; opacity: .12; stroke-width: 0px;"/>
    <path d="M70.73,61.32c.07-.42.33-.72.63-.99-.72-.18-1.11.07-1.58.37l-.19.49s.06.06.09.09c.35-.07.71-.08,1.05.04Z" style="fill: #fff; opacity: .12; stroke-width: 0px;"/>
    <path d="M56.78,28.27l-.24.61c.39-.1.8-.13,1.18.01.07-.42.33-.72.63-.99-.72-.18-1.11.07-1.58.37Z" style="fill: #fff; opacity: .12; stroke-width: 0px;"/>
    <path d="M67.31,67.8s0-.09,0-.13l-.07-.68c-.08-.39-.27-.55-.64-.59-.18-.02-.41.2-.62.16-.2-.04-.3-.28-.43-.31-.74-.13-1.12.19-.98,1-.04.04-.08.09-.13.14.1,0,.2.02.3.03.89.1,1.75.23,2.57.39Z" style="fill: #fff; opacity: .12; stroke-width: 0px;"/>
    <path d="M1.04,101.76c-.08-.49-.05-.99.01-1.48l-.52-.19c.12-.18.2-.38.17-.64l-.07-.7c-.07-.34-.23-.51-.51-.57.06,1.23.15,2.44.26,3.66.24.05.48.04.65-.08Z" style="fill: #fff; opacity: .12; stroke-width: 0px;"/>
    <path d="M76.62,58.5c-.42-.44-.76-.99-.86-1.63-.59.26-1.17.15-1.74-.03.3,1.14.92,1.47,1.64,1.86l.96-.2Z" style="fill: #fff; opacity: .12; stroke-width: 0px;"/>
    <path d="M79.18,60.45c.42-.43.13-.52.15-1.18-.17.02-.48.02-.65.09l-.53.21c.04.38.04.76-.04,1.14.29.19.81,0,1.07-.26Z" style="fill: #fff; opacity: .12; stroke-width: 0px;"/>
    <path d="M67.84,88.58c.42-.43.13-.52.15-1.18-.17.02-.48.02-.65.09l-.53.21c.04.38.04.76-.04,1.14.29.19.81,0,1.07-.26Z" style="fill: #fff; opacity: .12; stroke-width: 0px;"/>
    <path d="M80.18,77.45c-.27.36-.53.76-.68,1.19-.27.03-.36.19-.6.28.22.21.17.48.26.62-.38.08-.7.19-1.08.17-.02.05-.03.07-.05.12.84,0,1.67,0,2.51.01,0-1.03.23-1.19.59-2.06-.12-.1-.24-.2-.36-.3l-.59-.03Z" style="fill: #fff; opacity: .12; stroke-width: 0px;"/>
    <path d="M76.55,75.26c.18.5.94.74,1.45.64.16-.03.28-.07.37-.11-.5-.31-1.02-.59-1.54-.86-.09.11-.18.23-.29.33Z" style="fill: #fff; opacity: .12; stroke-width: 0px;"/>
    <path d="M100.05,47.26l.23-.52c-.28-.24-.54-.51-.75-.84-.33.07-.58.56-.58.93,0,.6.26.46.69.94.11-.14.32-.35.4-.51Z" style="fill: #fff; opacity: .12; stroke-width: 0px;"/>
    <path d="M106.09,52.12c-.11,0-.2,0-.28.03-.02,0-.03.01-.05.02-.52.18-.47.9-.98,1.23-.16.11-.73.12-.94.19-.34.12-.49.36-.86.32-.08-.11-.15-.32-.22-.55-.32.13-.64.26-.95.38.32.28.7.51.81.6-.19.78-.39.45.12,1.05.25.29.75.48.68.83.61.28.65,1.01,1.27.89.51-.1,1.17-.92,1.56-1.26-.03-.22-.14-.52-.23-.69-.33.22-.63.08-.49-.35-.76.18-.67-.71.02-.68-.43-.68.41-1.1.62-1.59l-.07-.43Z" style="fill: #fff; opacity: .12; stroke-width: 0px;"/>
    <path d="M104.29,57.68l-.02.66c.33-.23.71-.39,1.11-.39-.07-.42.08-.79.27-1.15-.73.07-1.03.45-1.37.89Z" style="fill: #fff; opacity: .12; stroke-width: 0px;"/>
    <path d="M102.1,62.28c.69-.22,1.39-.44,2.08-.66-.05-.03-.07-.05-.13-.08-.42-.25-.94-.78-1.28-.24-.08.12-.08.29-.07.47,0,0-.01,0-.02,0l-.58.52Z" style="fill: #fff; opacity: .12; stroke-width: 0px;"/>
    <path d="M84.83,53.23c.69-.22,1.39-.44,2.08-.66-.05-.03-.07-.05-.13-.08-.42-.25-.94-.78-1.28-.24-.08.12-.08.29-.07.47,0,0-.01,0-.02,0l-.58.52Z" style="fill: #fff; opacity: .12; stroke-width: 0px;"/>
    <path d="M96.81,58.19c0,.11.02.24.07.39-.15.24-.44.55-.44.85.18.11.33.28.49.43.16-.09.34-.27.52-.27.36,0,.48.23.83.09.07-.03.13-.06.19-.1.11-.42.21-.88.29-1.36-.65,0-1.3-.02-1.95-.03Z" style="fill: #fff; opacity: .12; stroke-width: 0px;"/>
    <path d="M99.5,59.21c.13-.1.27-.22.43-.34-.06-.23-.2-.38-.37-.5.04-.04.08-.09.12-.13-.07,0-.13,0-.2,0,.02.32.02.65.02.98Z" style="fill: #fff; opacity: .12; stroke-width: 0px;"/>
    <path d="M112.91,59.28l.04-.51c-.62-.89-1.82.92-2.03,1.58-.35,1.14.08,1.39.65,2.37.59-.57.37-.97.53-1.72.16-.72.43-1.19.8-1.73Z" style="fill: #fff; opacity: .12; stroke-width: 0px;"/>
    <path d="M105.42,65.88c.21-.56-.09-.52-.34-1.12-.15.09-.42.22-.55.35l-.39.41c.18.32.34.67.43,1.04.34.05.73-.33.85-.68Z" style="fill: #fff; opacity: .12; stroke-width: 0px;"/>
    <path d="M90.31,89.76c-.08.05-.19.11-.3.17.12-.03.23-.06.34-.09-.01-.03-.03-.05-.04-.08Z" style="fill: #fff; opacity: .12; stroke-width: 0px;"/>
    <path d="M126.65,39.43c-.38-.07-.69-.06-.98,0,.02.52.04,1.05.06,1.57,0,0,0,0,.01,0,.08-.64.46-1.13.9-1.57Z" style="fill: #fff; opacity: .12; stroke-width: 0px;"/>
    <path d="M50.96,71.36c-.52,1.11-.11,1.43.33,2.51.68-.49.51-.94.79-1.68.26-.71.61-1.15,1.06-1.65l.11-.51c-.51-.99-1.99.68-2.29,1.32Z" style="fill: #fff; opacity: .12; stroke-width: 0px;"/>
    <path d="M126.31,56.8c.42.78,1.39.84,2.14.48.4.45,1.08.75,1.46.11.13-.21.19-.77.1-.99-.13-.3-.6-.3-.64-.63l-.2.06c-.07.05-.15.1-.21.16.07.12.04.26.13.39-.07.02-.17.07-.24.08-.19-.54-.75-.3-.54.22-.07.09-.21.19-.32.23-.34-.29-.23-.95.08-1.2-.97-.24-1.2.41-1.77,1.1Z" style="fill: #fff; opacity: .12; stroke-width: 0px;"/>
    <path d="M131.48,47.81c.95.02.73-.45,1.51-1.21-.21-.19-.54-.57-.8-.71l-.82-.42c-.33.41-.7.79-1.12,1.12.26.33.47.69.65,1.08.2.08.39.14.58.14Z" style="fill: #fff; opacity: .12; stroke-width: 0px;"/>
    <path d="M8.14,80.4c-.18-.6.05-1.24.26-1.8-.34-.12-.65-.38-.84-.7l-.75.29c-1.14.25-1.82.73-2.57,1.76.16.28.23.6.26.92.69-.02,1.38-.04,2.07-.05.54-.23.97-.49,1.58-.43Z" style="fill: #fff; opacity: .12; stroke-width: 0px;"/>
    <path d="M50.87,20.27c-.73.07-1.03.45-1.37.89l-.02.66c.33-.23.71-.39,1.12-.39-.07-.41.08-.79.27-1.15Z" style="fill: #fff; opacity: .12; stroke-width: 0px;"/>
    <path d="M28.72,39.79l-.04-.65c-.31.26-.67.45-1.06.48.1.4-.01.78-.17,1.16.72-.14.97-.53,1.27-.99Z" style="fill: #fff; opacity: .12; stroke-width: 0px;"/>
    <path d="M24.36,43.59c-.26-.17-.5-.25-.75-.3.23.46.47,1.01.73,1.46.04-.45.07-.87.02-1.16Z" style="fill: #fff; opacity: .12; stroke-width: 0px;"/>
    <path d="M52.36,80.12c-.33.04-.6.21-.84.39.34.05.57.29.36.82.32.13.65.12.99.07-.18-.29-.36-.51-.47-.87.12-.09.34-.19.49-.2.1.4.32.81.72.67-.11-.18-.15-.39-.13-.58-.38-.11-.9-.33-1.13-.3Z" style="fill: #fff; opacity: .12; stroke-width: 0px;"/>
    <path d="M115.13,69.67l-.49-.78c-.49.19-1,.32-1.52.38.01.09.01.17.02.26.68.05,1.37.14,2.06.27-.02-.05-.04-.1-.06-.13Z" style="fill: #fff; opacity: .12; stroke-width: 0px;"/>
    <path d="M115.88,63.72s.09.09.14.14c.4.37.98.55,1.33-.03.13-.21.19-.77.1-.99-.06-.14-.19-.21-.32-.28-.15-.08-.3-.17-.32-.34l-.2.06c-.07.05-.15.1-.21.16.07.12.04.26.13.39-.07.02-.17.07-.24.08-.19-.54-.75-.3-.54.22-.07.09-.21.19-.32.23-.34-.29-.23-.95.08-1.2-.17-.04-.31-.05-.45-.04-.2.6-.42,1.18-.66,1.73.45.18,1.01.11,1.49-.11Z" style="fill: #fff; opacity: .12; stroke-width: 0px;"/>
    <path d="M63.94,13.38l.23-.61c-.39.11-.8.13-1.18,0-.07.42-.33.72-.64.99.72.18,1.12-.07,1.58-.37Z" style="fill: #fff; opacity: .12; stroke-width: 0px;"/>
    <path d="M59.71,17.24c-.3-1.14-.92-1.47-1.64-1.86l-.96.2c.42.45.76.99.86,1.63.59-.26,1.17-.16,1.74.03Z" style="fill: #fff; opacity: .12; stroke-width: 0px;"/>
    <path d="M128.26,21.56c-.61-.12-1.05-.52-1.45-.98-.07.28-.1.53-.09.76.48.23.95.48,1.42.72.02-.17.06-.34.12-.5Z" style="fill: #fff; opacity: .12; stroke-width: 0px;"/>
    <path d="M118.53,35.44c-.27,1.08.09,1.68.51,2.39l.89.37c-.13-.51-.15-1.05-.02-1.55-.09-.11-.18-.22-.27-.33-.45-.17-.8-.51-1.12-.88Z" style="fill: #fff; opacity: .12; stroke-width: 0px;"/>
    <path d="M140.49,20.04c-.01-.23-.03-.45-.04-.68-.23-.03-.46-.04-.72,0-.03.19.01.51.09.69.22-.04.46-.05.67-.01Z" style="fill: #fff; opacity: .12; stroke-width: 0px;"/>
    <path d="M149.78,35.57c-.09-.12-.24-.18-.42-.22,0,0,0-.01,0-.02l-.29-.72c-.03.74-.05,1.47-.08,2.21.04-.04.07-.05.12-.1.37-.32,1.04-.64.66-1.14Z" style="fill: #fff; opacity: .12; stroke-width: 0px;"/>
    <path d="M139.42,54.03c-.44,0-.88-.1-1.3-.24l-.32.57c-.1.18-.15.53-.2.73.75.14.8.5,1.35.12.34-.24.64-.79.47-1.17Z" style="fill: #fff; opacity: .12; stroke-width: 0px;"/>
    <path d="M137.71,63.25c.28.18.65.54,1.01.54.13-.22.33-.41.51-.59-.11-.2-.32-.42-.33-.64,0-.2.06-.35.11-.48-.7.55-1.37.89-2.03,1.1.3.06.62.11.72.08Z" style="fill: #fff; opacity: .12; stroke-width: 0px;"/>
    <path d="M137.16,67.95c-.24.79-.86,1.66-.88,2.4.04-.04.87-.24.92-.28.37-.32,1.04-.64.66-1.14-.09-.12-.24-.18-.42-.22,0,0,0-.01,0-.02l-.29-.72Z" style="fill: #fff; opacity: .12; stroke-width: 0px;"/>
    <path d="M103.7,76.54l.32.28c.09-.07.15-.13.19-.2,0-.01.02-.03.03-.04.18-.31.05-.63-.03-.98-.19.02-.37.04-.55.06.01.3-.04.64.04.88Z" style="fill: #fff; opacity: .12; stroke-width: 0px;"/>
    <path d="M103.47,71.93c-.65.18-1.14-.36-1.54.15-.27.34-.31,1.12-.37,1.67.56-.68,1.2-1.29,1.91-1.81,0,0,0,0,0,0Z" style="fill: #fff; opacity: .12; stroke-width: 0px;"/>
    <path d="M142.67,77.54l.2.97c.44-.43.98-.77,1.61-.87-.22-.52-.17-1.04-.03-1.56-.4.2-.81.39-1.22.57-.22.26-.38.56-.55.88Z" style="fill: #fff; opacity: .12; stroke-width: 0px;"/>
    <path d="M147.47,81.75c-.22-.55-.48-.98-.42-1.6-.59.18-1.22-.05-1.77-.27-.08.22-.21.42-.37.59-.08.17-.16.34-.24.5l.2.53c.25,1.16.72,1.85,1.74,2.61.2-.12.41-.18.64-.23.09-.28.17-.57.25-.86-.01-.43-.02-.85-.03-1.28Z" style="fill: #fff; opacity: .12; stroke-width: 0px;"/>
    <path d="M126.75,28.8c-.71-.55-1.11-.48-1.74-.33-.2.05-.42.11-.69.16.33.76.78.68,1.42,1.09.62.4.96.81,1.34,1.34l.46.21c1.03-.3-.25-2.05-.79-2.47Z" style="fill: #fff; opacity: .12; stroke-width: 0px;"/>
    <path d="M93.34,80.89c.39-.7.12-2.29.12-3.07-.24-.15-.58-.28-.86-.36.3,1.28.11,2.67-.46,3.88.49.02.91.05,1.2-.45Z" style="fill: #fff; opacity: .12; stroke-width: 0px;"/>
    <path d="M86.69,67.33s-.06-.02-.09-.03l-.27.47c-.08.15-.13.44-.17.6.62.12.66.42,1.12.1.07-.05.13-.11.19-.18-.27-.25-.54-.58-.79-.97Z" style="fill: #fff; opacity: .12; stroke-width: 0px;"/>
    <path d="M88.25,64.51c-.08-.27-.21-.35-.41-.43.13.16.27.31.41.43Z" style="fill: #fff; opacity: .12; stroke-width: 0px;"/>
    <path d="M88.51,63.47c.03.23.15.31.23.51.17-.18.4-.14.51-.22.06.32.16.59.14.9.04.02.06.02.1.04,0-.7,0-1.41,0-2.11-.87,0-.98-.21-1.75-.53-.08.06-.16.22-.18.24l-.03.59c.3.23.62.45.97.57Z" style="fill: #fff; opacity: .12; stroke-width: 0px;"/>
    <path d="M155.74,84.42c-.07-.18-.18-.35-.29-.51.15-.6-.26-.94-.68-1.5-.27.07-.45.25-.6.45-.04-.05-.11-.1-.16-.15-.43,1.12-.65,2.28-.04,3.5.13,0,.29-.02.46-.08.28.18.65.54,1.01.54.13-.22.33-.41.51-.59-.11-.2-.32-.42-.33-.64,0-.44.28-.58.11-1.01Z" style="fill: #fff; opacity: .12; stroke-width: 0px;"/>
    <path d="M158.22,72.63l-.69.09c-.4.1-.56.3-.59.68-.02.2.21.43.18.65-.03.21-.28.31-.3.45-.08.54.06.89.42,1,.39-.95.87-1.89,1.43-2.82-.13-.05-.28-.07-.44-.05Z" style="fill: #fff; opacity: .12; stroke-width: 0px;"/>
    <path d="M161.22,68.98l-.13-.3c-.57.08-1.15.12-1.73.03-.27.46.06,1.25.48,1.64.09.09.18.15.25.2.04-.06.08-.11.12-.17.36-.48.7-.95,1.01-1.4Z" style="fill: #fff; opacity: .12; stroke-width: 0px;"/>
    <path d="M171.32,69.02c.12.08.29.09.47.07,0,0,0,.01,0,.02l1.2.25c-.22-.7-1.13-1.07-1.35-1.77-.03.05-.05.07-.08.13-.24.42-.77.95-.24,1.3Z" style="fill: #fff; opacity: .12; stroke-width: 0px;"/>
    <path d="M160.9,59.01c-.24.42-.77.95-.24,1.3.12.08.29.09.47.07,0,0,0,.01,0,.02l.51.58c-.22-.7-.44-1.41-.66-2.11-.03.05-.05.07-.08.13Z" style="fill: #fff; opacity: .12; stroke-width: 0px;"/>
    <path d="M174.47,66.69l.12-.64c.03-.21-.03-.55-.05-.75-.75.12-.92-.2-1.32.35-.24.34-.34.96-.05,1.26.42-.14.86-.2,1.3-.22Z" style="fill: #fff; opacity: .12; stroke-width: 0px;"/>
    <path d="M142.31,27.87c.26.24.59.68.97.74.17-.21.41-.37.64-.53-.08-.22-.27-.49-.23-.72.07-.45.37-.56.28-1.02.23.05.4.04.69-.24.32-.31.54-.96.29-1.33-.47.07-.95.05-1.42-.01l-.19.51c-.17-.12-.37-.2-.61-.17l-.67.07c-.39.09-.55.28-.58.65-.02.18.2.42.16.63-.04.2-.28.3-.3.43-.13.75.19,1.14.98,1Z" style="fill: #fff; opacity: .12; stroke-width: 0px;"/>
    <path d="M168.29,41.06c.1.03.19.05.28.07-.48-.72-.98-1.44-1.48-2.15l-.4-.03c-.9.65.93,1.89,1.6,2.11Z" style="fill: #fff; opacity: .12; stroke-width: 0px;"/>
    <path d="M156.13,34.64c.18.53.88.48,1.22.99.11.16.12.73.19.95.12.34.35.49.32.87-.11.08-.32.15-.54.23.13.32.25.65.38.97.28-.33.51-.71.59-.82.77.19.45.4,1.04-.12.28-.25.47-.76.82-.68.28-.62,1-.66.87-1.29-.1-.52-.91-1.19-1.24-1.58-.22.03-.51.14-.69.24.22.33.07.64-.34.5.17.77-.7.67-.67-.02-.67.44-1.08-.42-1.57-.62l-.42.07c0,.11,0,.2.03.28,0,.02.01.03.02.05Z" style="fill: #fff; opacity: .12; stroke-width: 0px;"/>
    <path d="M118.96,49.52c0-.23,0-.46-.01-.7-.26.29-.52.59-.77.9.24-.12.51-.18.78-.2Z" style="fill: #fff; opacity: .12; stroke-width: 0px;"/>
    <path d="M118.93,48.32c0-.3-.02-.6-.02-.9-.22-.55-.48-.98-.42-1.6-.59.18-1.22-.05-1.77-.27-.08.23-.22.44-.4.61.76.87,1.63,1.6,2.61,2.15Z" style="fill: #fff; opacity: .12; stroke-width: 0px;"/>
    <path d="M168.15,54.53c.12.08.29.09.47.07,0,0,0,.01,0,.02l.51.58c-.22-.7.39-1.78.18-2.49-.03.05-.88.45-.91.51-.24.42-.77.95-.24,1.3Z" style="fill: #fff; opacity: .12; stroke-width: 0px;"/>
    <path d="M167.51,52.25l.65.02c-.23-.34-.39-.72-.39-1.13-.41.07-.78-.08-1.13-.27.07.74.44,1.04.87,1.39Z" style="fill: #fff; opacity: .12; stroke-width: 0px;"/>
    <path d="M172.64,77.87c-.14-.73-.52-.98-.98-1.29l-.64.04c.25.31.44.68.48,1.08.4-.1.77.01,1.14.17Z" style="fill: #fff; opacity: .12; stroke-width: 0px;"/>
    <path d="M175.42,81c-.16.26-.25.51-.3.76.45-.24,1-.48,1.44-.74-.44-.04-.85-.07-1.14-.02Z" style="fill: #fff; opacity: .12; stroke-width: 0px;"/>
    <path d="M93,51.18c-.18.12-.38.15-.58.13-.11.39-.32.91-.29,1.14.04.34.21.6.39.85.05-.35.28-.58.81-.36.13-.32.12-.66.07-1.01-.29.18-.5.37-.86.48-.09-.12-.18-.34-.2-.49.4-.1.8-.32.66-.73Z" style="fill: #fff; opacity: .12; stroke-width: 0px;"/>
    <path d="M102.32,87.74c-.18.12-.38.15-.58.13-.11.39-.32.91-.29,1.14.04.34.21.6.39.85.05-.35.28-.58.81-.36.13-.32.12-.66.07-1.01-.29.18-.5.37-.86.48-.09-.12-.18-.34-.2-.49.4-.1.8-.32.66-.73Z" style="fill: #fff; opacity: .12; stroke-width: 0px;"/>
    <path d="M70.84,90.74c-.18.12-.38.15-.58.13-.11.39-.32.91-.29,1.14.04.34.21.6.39.85.05-.35.28-.58.81-.36.13-.32.12-.66.07-1.01-.29.18-.5.37-.86.48-.09-.12-.18-.34-.2-.49.4-.1.8-.32.66-.73Z" style="fill: #fff; opacity: .12; stroke-width: 0px;"/>
    <path d="M80.38,101.81c-.17-.15-.33-.3-.5-.45-.18.14-.35.3-.51.52.11.15.36.35.54.42.13-.19.29-.37.47-.49Z" style="fill: #fff; opacity: .12; stroke-width: 0px;"/>
    <path d="M173.44,91.41c.35.2.65.48.83.85.34-.24.74-.27,1.14-.24-.38-.64-.84-.75-1.38-.87l-.59.27Z" style="fill: #fff; opacity: .12; stroke-width: 0px;"/>
    <path d="M175.94,87.73c.01.68-.62,1.03-.24,1.55.31.42,1.32.68,1.79.89.18-.13.4-.35.52-.51-.34-.2-.34-.54.1-.6-.48-.62.35-.91.62-.27.42-.69,1.16-.1,1.68-.12l.35-.24c-.04-.1-.09-.18-.14-.24-.01-.01-.02-.02-.04-.04-.39-.4-1-.05-1.52-.36-.17-.1-.42-.61-.58-.78-.25-.26-.53-.29-.66-.65.07-.12.22-.27.39-.44-.25-.24-.5-.47-.75-.71-.11.42-.16.86-.19.99-.77.16-.57-.17-.88.56-.15.35-.1.89-.45.97Z" style="fill: #fff; opacity: .12; stroke-width: 0px;"/>
    <path d="M182.89,91.91l.84.56c.01-.63.16-1.28.55-1.82-.61-.25-.96-.75-1.25-1.3-.59,1.05-.38,1.74-.14,2.56Z" style="fill: #fff; opacity: .12; stroke-width: 0px;"/>
    <path d="M69.95,96.74c-.56-.69-1.06-.35-1.82-.16-.11.77.55,1.33,1.27,1.48.05.53.37,1.1.98.86.2-.08.54-.44.59-.65.07-.28-.27-.53-.13-.79l-.18-.06c-.08,0-.15,0-.23,0-.01.12-.11.21-.11.34-.06-.02-.15-.04-.21-.07.14-.48-.37-.61-.49-.13-.1.02-.25.02-.34,0-.09-.39.33-.8.68-.81Z" style="fill: #fff; opacity: .12; stroke-width: 0px;"/>
    <path d="M106.57,99.61c.36-.34.68-.62.53-1.18-.21-.77-1.51-1.7-2.06-2.26-.27.06-.6.22-.86.36,1.1.69,1.94,1.81,2.39,3.08Z" style="fill: #fff; opacity: .12; stroke-width: 0px;"/>
    <path d="M98.09,99.74c.08-.41-.1-1.02-.49-1.16-.32.31-.69.55-1.08.76.47.32.83.67,1.16.97.21-.09.34-.18.41-.56Z" style="fill: #fff; opacity: .12; stroke-width: 0px;"/>
    <path d="M91.75,97.87c-.7-.49-.76-.03-1.71.15.02.07.04.16.06.26.58-.13,1.19-.2,1.87-.2-.07-.08-.14-.15-.22-.2Z" style="fill: #fff; opacity: .12; stroke-width: 0px;"/>
    <path d="M87.16,95.93c.21.17.39.13.62.23,0-.3.22-.46.25-.63.32.22.63.36.88.65.05-.02.07-.03.12-.05-.59-.6-1.18-1.2-1.76-1.8-.74.75-1,.67-1.93,1.06-.01.12.05.33.05.36l.47.53c.44-.06.91-.16,1.31-.35Z" style="fill: #fff; opacity: .12; stroke-width: 0px;"/>
    <path d="M38.93,100.66c-.04-.16-.05-.34-.05-.51-.2.25-.4.51-.59.78.24-.04.49-.11.64-.26Z" style="fill: #fff; opacity: .12; stroke-width: 0px;"/>
    <path d="M24.36,52.59l.09.35c.04-.16.09-.32.14-.48-.08.04-.15.09-.23.13Z" style="fill: #fff; opacity: .12; stroke-width: 0px;"/>
    <path d="M42.8,52.06c.1-.08.21-.19.31-.35.37-.03.92.04,1.23-.2-.03-.28.03-.57.07-.86-.22-.1-.55-.15-.7-.34-.29-.38-.13-.7-.56-.95-.41-.25-.9-.41-1.32-.27.25,1.06.57,2.06.95,2.93,0,.02.02.03.02.05Z" style="fill: #fff; opacity: .12; stroke-width: 0px;"/>
    <path d="M128.73,98.01l.59-.26c-.35-.21-.65-.48-.83-.85-.34.24-.74.27-1.14.25.38.64.84.75,1.38.87Z" style="fill: #fff; opacity: .12; stroke-width: 0px;"/>
    <path d="M110.12,92.74l.59-.26c-.35-.21-.65-.48-.83-.86-.34.24-.74.27-1.14.25.38.64.84.75,1.38.87Z" style="fill: #fff; opacity: .12; stroke-width: 0px;"/>
    <path d="M142.45,92.45c-.11-.05-.22-.11-.28-.19-.26-.36-.13-.66-.51-.92.2-.13.31-.26.32-.66,0-.45-.29-1.06-.73-1.15-.28.39-.64.72-1.01,1.01l.22.5c-.2.04-.4.12-.55.32l-.42.53c-.21.34-.19.59.04.88.12.14.43.15.55.33.11.17.01.41.09.52.19.28.39.43.6.47.64-.53,1.19-1.06,1.68-1.62Z" style="fill: #fff; opacity: .12; stroke-width: 0px;"/>
    <path d="M122.36,94.67c0,.33-.06.66-.15.98.16-.25.32-.51.47-.77l-.32-.21Z" style="fill: #fff; opacity: .12; stroke-width: 0px;"/>
    <path d="M123.05,97.71c.43-.76.43-1.32.3-1.89-.19.44-.41.87-.66,1.32.13.18.25.37.36.57Z" style="fill: #fff; opacity: .12; stroke-width: 0px;"/>
    <path d="M175.66,98.79c-.74.75-1,.67-1.93,1.06-.01.12.04.33.05.36l.47.53c.44-.06.91-.16,1.31-.36.21.17.39.13.62.23,0-.3.22-.46.25-.63.32.22.63.36.88.65.05-.02.07-.03.12-.05-.59-.6-1.18-1.2-1.76-1.8Z" style="fill: #fff; opacity: .12; stroke-width: 0px;"/>
    <path d="M132.48,83.16c.53-.17,1.08-.29,1.64-.3.22-.48-.15-1.19-.58-1.49-.7-.49-.76-.03-1.71.15.06.25.12.7.25.93l.4.72Z" style="fill: #fff; opacity: .12; stroke-width: 0px;"/>
    <path d="M116.44,88.15c.53-.17,1.08-.29,1.64-.3.22-.48-.15-1.19-.58-1.49-.7-.49-.76-.03-1.71.15.06.25.12.7.25.93l.4.72Z" style="fill: #fff; opacity: .12; stroke-width: 0px;"/>
    <path d="M9.46,94.99c.42-.42.14-.51.16-1.16-.17.02-.47.02-.64.08l-.53.2c.03.37.03.75-.05,1.13.28.19.8.02,1.06-.25Z" style="fill: #fff; opacity: .12; stroke-width: 0px;"/>
    <path d="M41.06,90.81c.67-.41.59-.04.65-.83.02-.38-.2-.87.1-1.07-.24-.64.25-1.18-.28-1.54-.43-.29-1.47-.19-1.98-.23-.13.18-.26.47-.32.66.38.08.5.4.11.6.4.25.31.55.08.64.59,1,1.15,1.89,1.8,2.71-.04-.41-.13-.81-.15-.94Z" style="fill: #fff; opacity: .12; stroke-width: 0px;"/>
    <path d="M50.95,94.87l.47-.45c-.4-.07-.78-.23-1.06-.52-.24.34-.61.51-.99.62.57.47,1.04.42,1.59.35Z" style="fill: #fff; opacity: .12; stroke-width: 0px;"/>
    <path d="M53.81,92.32c.12.47.12,1.23.74,1.09.14-.03.26-.15.38-.29,0,0,0,0,.02.02l.77.05c-.64-.34-1.29-.68-1.94-1.02.01.06.02.08.03.15Z" style="fill: #fff; opacity: .12; stroke-width: 0px;"/>
    <path d="M56.53,89.43c.1-.36.23-.72.42-1.05-.2-.28-.75-.29-1.08-.13-.54.25-.3.43-.54,1.04.17.04.45.14.63.14h.56Z" style="fill: #fff; opacity: .12; stroke-width: 0px;"/>
    <path d="M87.24,45.51l-.25.35c.07.08.14.14.22.18.02,0,.03.01.05.02.46.23.89-.22,1.43-.18-.19-.17-.39-.33-.59-.48-.29.04-.62.02-.85.12Z" style="fill: #fff; opacity: .12; stroke-width: 0px;"/>
    <path d="M91.03,3.06c.21.27.44.75.79.88.2-.17.46-.27.7-.39-.04-.23-.17-.52-.09-.73.15-.42.47-.46.45-.93,0-.2-.05-.4-.11-.6.28-.41.17-.8,0-1.28-.21,0-.41,0-.62,0-.17,0-.33,0-.49,0-.36.99-.75,1.98-1.12,2.97.13.05.28.08.48.08Z" style="fill: #fff; opacity: .12; stroke-width: 0px;"/>
    <path d="M73.4,3.05c-.14.04-.36.03-.6.03,0,.36.02.71.03,1.07.38-.22.73-.5.85-.57.67.46.29.55,1.04.25.36-.14.72-.56,1.03-.37.48-.5,1.19-.27,1.29-.93.05-.32-.13-.79-.31-1.22-1.11.19-2.22.39-3.31.62-.01.06-.02.12-.02.16,0,.37.17.6,0,.95Z" style="fill: #fff; opacity: .12; stroke-width: 0px;"/>
    <path d="M15.79,67.94c-.29.55-.9.84-1.44,1.08.16.33.2.73.11,1.1l.74.33c.36.24.7.4,1.05.51.22-.77.45-1.54.7-2.31-.44-.17-.83-.32-1.15-.72Z" style="fill: #fff; opacity: .12; stroke-width: 0px;"/>
    <path d="M110.92,10.96c-.6-.42-1.06-.32-1.59-.21l-.43.48c.4.04.79.16,1.09.42.21-.36.56-.55.93-.7Z" style="fill: #fff; opacity: .12; stroke-width: 0px;"/>
    <path d="M115.88,10.38c-.34.29-.65.56-.82.81.07.31.18.54.32.75.15-.49.38-1.05.5-1.55Z" style="fill: #fff; opacity: .12; stroke-width: 0px;"/>
    <path d="M84.19,82.32c-.05.21-.17.38-.32.5.19.35.41.87.59,1.02.27.21.57.28.87.32-.21-.28-.21-.61.32-.84-.13-.32-.38-.55-.65-.76-.08.33-.1.62-.27.95-.15-.02-.37-.11-.49-.2.21-.36.34-.8-.04-.99Z" style="fill: #fff; opacity: .12; stroke-width: 0px;"/>
    <path d="M128.06,75.9c.09.01.17.02.26.04-.1-.49-.18-.91-.73-1.06-.29-.08-.67-.03-1.07.06.5.34,1.01.66,1.55.96Z" style="fill: #fff; opacity: .12; stroke-width: 0px;"/>
    <path d="M121.22,85.33c-.05-.77.28-.91-.22-1.36-.31-.28-.92-.43-1.24-.16.1.43.12.89.1,1.33l.62.18c.2.05.55.01.74.02Z" style="fill: #fff; opacity: .12; stroke-width: 0px;"/>
    <path d="M121.46,82.1c.22-.05.47-.1.62-.19l.71-.41c-.17-.54-.29-1.09-.3-1.66-.48-.22-1.18.15-1.47.59-.45.65-.1.77.1,1.53.06.02.13.05.19.07.05.02.1.04.16.06Z" style="fill: #fff; opacity: .12; stroke-width: 0px;"/>
    <path d="M119.82,81.28c.17-.21.13-.39.23-.63-.3,0-.46-.22-.62-.26.21-.32.36-.64.64-.89-.02-.05-.03-.07-.05-.12-.48.49-.97.98-1.45,1.46.45.2.9.4,1.31.59-.02-.05-.04-.11-.06-.16Z" style="fill: #fff; opacity: .12; stroke-width: 0px;"/>
    <path d="M21.77,98.74c.21.05.38.17.5.32.35-.19.86-.41,1.01-.6.21-.27.28-.57.32-.88-.28.21-.6.21-.83-.32-.31.14-.54.38-.75.66.33.08.61.1.94.28-.02.15-.11.38-.2.49-.35-.21-.79-.35-.98.04Z" style="fill: #fff; opacity: .12; stroke-width: 0px;"/>
    <path d="M176.68,56.61c.07-.04.12-.08.17-.12-.2-.47-.4-.95-.61-1.42-.26,0-.53-.12-.68-.3-.25,1.01.41,1.25,1.11,1.84Z" style="fill: #fff; opacity: .12; stroke-width: 0px;"/>
    <path d="M159.24,49.32c.26-.25.29-.54.64-.66.12.07.27.23.43.39.23-.25.47-.51.7-.76-.41-.11-.85-.16-.98-.19-.16-.78.16-.58-.55-.9-.35-.15-.88-.1-.96-.45-.67.01-1.01-.63-1.53-.25-.14.11-.26.3-.37.52.65.93,1.29,1.87,1.9,2.83.15-.17.58-.39.73-.53Z" style="fill: #fff; opacity: .12; stroke-width: 0px;"/>
    <path d="M16.67,47.51l.32-.56c.1-.18.15-.53.2-.73-.75-.14-.8-.5-1.35-.12-.34.24-.64.79-.47,1.17.44,0,.88.1,1.3.24Z" style="fill: #fff; opacity: .12; stroke-width: 0px;"/>
    <path d="M11.55,62.17c-.12-.08-.29-.09-.47-.07,0,0,0-.01,0-.02l-1.2.2c.22.7,1.13.62,1.35,1.32.03-.05.05-.07.08-.13.24-.42.77-.95.24-1.3Z" style="fill: #fff; opacity: .12; stroke-width: 0px;"/>
    <path d="M9.65,65.55c.24-.34.34-.96.05-1.26-.42.14-.86.2-1.3.22l-.12.64c-.03.21.03.55.05.75.75-.12.92.2,1.32-.35Z" style="fill: #fff; opacity: .12; stroke-width: 0px;"/>
    <path d="M2.87,84.79c.61.12,1.05.52,1.45.98.27-1.08-.09-1.68-.51-2.39l-.88-.36s0,.03,0,.05c.13.58.16,1.17-.05,1.73Z" style="fill: #fff; opacity: .12; stroke-width: 0px;"/>
    <path d="M14.72,76.66c-.12-.08-.29-.09-.47-.07,0,0,0-.01,0-.02l-.51-.58c.22.7.44,1.41.66,2.11.03-.05.05-.07.08-.13.04-.07.08-.13.13-.2.07-.34.13-.68.2-1.01-.03-.03-.05-.06-.09-.08Z" style="fill: #fff; opacity: .12; stroke-width: 0px;"/>
    <path d="M11.85,54.57c-.24-.3-.42-.64-.47-1.02-.14.29-.28.59-.42.89.08.06.16.11.25.17l.64-.04Z" style="fill: #fff; opacity: .12; stroke-width: 0px;"/>
    <path d="M158.69,104.2c.09-.79.88-.4.63.25.78-.19.88.76,1.27,1.12l.42.08c.04-.1.06-.19.07-.27,0-.02,0-.03,0-.05,0-.56-.67-.75-.82-1.35-.05-.19.13-.73.13-.96,0-.06,0-.11,0-.16-.03-.28-.14-.48,0-.77.13-.04.35-.03.58-.03-.01-.35-.03-.69-.04-1.04-.37.21-.71.49-.83.57-.66-.44-.29-.53-1.02-.24-.35.14-.69.56-1,.37-.24.25-.53.32-.78.41.47.72.91,1.39,1.33,2.04.02.01.04.02.05.03Z" style="fill: #fff; opacity: .12; stroke-width: 0px;"/>
    <path d="M57.11,61.54c.34-.24.74-.27,1.14-.25-.38-.64-.84-.75-1.38-.87l-.59.27c.35.2.65.48.83.85Z" style="fill: #fff; opacity: .12; stroke-width: 0px;"/>
    <path d="M63.24,63.76c.01-.62.16-1.24.53-1.77-.59-.24-.94-.73-1.21-1.27-.58,1.02-.37,1.7-.13,2.49l.82.55Z" style="fill: #fff; opacity: .12; stroke-width: 0px;"/>
    <path d="M61.03,50.68c-.01-.35-.03-.69-.04-1.04-.37.21-.71.49-.83.57-.66-.44-.29-.53-1.02-.24-.35.14-.69.56-1,.37-.46.49-1.16.28-1.25.92-.08.52.46,1.43.64,1.91.22.04.53.04.72.01-.1-.38.14-.63.49-.35.09-.79.88-.4.63.25.78-.19.88.76,1.27,1.12l.42.08c.04-.1.06-.19.07-.27,0-.02,0-.03,0-.05,0-.56-.67-.75-.82-1.35-.05-.19.13-.73.13-.96,0-.36-.17-.58-.01-.93.13-.04.35-.03.58-.03Z" style="fill: #fff; opacity: .12; stroke-width: 0px;"/>
    <path d="M106.76,128.38c-1.06-.28-1.66.09-2.36.52l-.3.74c.59-.04,1.18-.07,1.77-.09.17-.47.5-.83.88-1.16Z" style="fill: #fff; opacity: .12; stroke-width: 0px;"/>
    <path d="M95.76,110.29c-1.06-.28-1.66.09-2.36.52l-.36.91c.58-.15,1.19-.18,1.76.04.11-.62.51-1.06.97-1.46Z" style="fill: #fff; opacity: .12; stroke-width: 0px;"/>
    <path d="M19.48,139.56c.04.23.05.47.01.68.22-.01.45-.03.67-.04.03-.23.04-.46,0-.73-.19-.03-.5.01-.68.09Z" style="fill: #fff; opacity: .12; stroke-width: 0px;"/>
    <path d="M109.37,137.31c-.28.31-.16,1.03-.06,1.53.24-.55.44-1.1.61-1.67-.18-.08-.37-.07-.56.14Z" style="fill: #fff; opacity: .12; stroke-width: 0px;"/>
    <path d="M101.22,110.44c-.13.54-.27,1.05-.44,1.55.03.17.05.34.16.51.26-.22.42-.27.5-.62.32.05.5-.12.75-.25-.19-.44-.58-.6-.97-.44.12-.24.1-.5.01-.75Z" style="fill: #fff; opacity: .12; stroke-width: 0px;"/>
    <path d="M121.77,117.69c.48.12.85.11,1.19.02.02-.51.11-.97.23-1.41-.15-.02-.31-.03-.46-.08-.11.62-.51,1.06-.97,1.46Z" style="fill: #fff; opacity: .12; stroke-width: 0px;"/>
    <path d="M81.1,118.17c.11-.09.18-.25.22-.42,0,0,.01,0,.02,0l.71-.29c-.73-.03-1.45-.7-2.18-.73.04.04.05.72.1.77.31.37.63,1.06,1.13.66Z" style="fill: #fff; opacity: .12; stroke-width: 0px;"/>
    <path d="M73.99,112.29c-.15.09-.42.22-.55.35l-.39.41s0,0,0,0c.32-.24.66-.43,1.02-.59-.03-.05-.06-.11-.09-.18Z" style="fill: #fff; opacity: .12; stroke-width: 0px;"/>
    <path d="M81.8,104.52c.14-.36.29-.69.44-1.01-.15.09-.36.19-.47.3l-.39.41c.18.32.34.67.43,1.04.34.05.73-.33.85-.68.17-.46,0-.52-.21-.86-.21.21-.42.46-.65.79Z" style="fill: #fff; opacity: .12; stroke-width: 0px;"/>
    <path d="M58.9,104.76c0-.45.1-.89.23-1.31l-.56-.33c-.18-.1-.53-.15-.72-.2-.14.76-.5.81-.12,1.37.23.35.78.65,1.16.47Z" style="fill: #fff; opacity: .12; stroke-width: 0px;"/>
    <path d="M43.56,106.71c.72.18,1.12-.07,1.58-.37l.23-.61c-.39.11-.8.13-1.18,0-.07.42-.33.72-.64.99Z" style="fill: #fff; opacity: .12; stroke-width: 0px;"/>
    <path d="M48.15,112.33c-.46.15-.98.44-1.31.57-.04.22-.04.54-.01.73.38-.1.62.14.35.49.78.09.39.89-.25.64.18.79-.75.9-1.11,1.29l-.08.43c.1.04.19.06.27.07.02,0,.03,0,.05,0,.55,0,.74-.68,1.33-.83.19-.05.72.13.95.14.36,0,.58-.17.91-.01.04.13.03.35.03.59.11,0,.22,0,.32-.01.15-.14.31-.28.46-.42-.14-.21-.27-.37-.31-.45.43-.67.52-.29.23-1.03-.14-.35-.55-.7-.36-1.01-.48-.47-.28-1.17-.91-1.27-.08-.01-.16,0-.25,0,.26.16.5.32.73.49-.32-.14-.67-.28-1.05-.41Z" style="fill: #fff; opacity: .12; stroke-width: 0px;"/>
    <path d="M41.91,111.97l-.92.19c.84.47,1.49.95,1.95,1.52.2.03.41.08.61.15-.3-1.14-.92-1.47-1.64-1.86Z" style="fill: #fff; opacity: .12; stroke-width: 0px;"/>
    <path d="M98.82,125.85c-.75.34-.67.79-1.07,1.44-.39.63-.8.97-1.33,1.36l-.21.46c.29,1.05,2.02-.25,2.43-.8.54-.72.48-1.12.33-1.76-.05-.2-.1-.43-.15-.69Z" style="fill: #fff; opacity: .12; stroke-width: 0px;"/>
    <path d="M28.33,152.46c-.34-.11-1.47-.1-1.29.48l.23.14c.34,0,.62,0,.97.15.37.15.47.39.89.28-.24-.58-.21-.87-.8-1.05Z" style="fill: #fff; opacity: .12; stroke-width: 0px;"/>
    <path d="M34.86,166.21c.06-.03.14-.08.2-.11.24.45.71.17.45-.27.05-.09.17-.19.25-.25.35.21.33.82.09,1.09.9.09,1.02-.52,1.43-1.22-.47-.64-1.35-.56-1.98-.14-.41-.35-1.06-.53-1.32.1-.03.08-.05.2-.06.33.35.29.69.57,1.04.85.02-.02.03-.04.05-.06-.08-.09-.07-.23-.17-.33Z" style="fill: #fff; opacity: .12; stroke-width: 0px;"/>
    <path d="M32.22,135.65c.23.35.78.65,1.16.47,0-.45.1-.89.23-1.31l-.56-.33c-.18-.1-.53-.15-.72-.2-.14.76-.5.81-.12,1.37Z" style="fill: #fff; opacity: .12; stroke-width: 0px;"/>
    <path d="M19.13,123.69c-.18-.1-.53-.15-.72-.2-.14.76-.5.81-.12,1.37.23.35.78.65,1.16.47,0-.45.1-.89.23-1.31l-.56-.33Z" style="fill: #fff; opacity: .12; stroke-width: 0px;"/>
    <path d="M42.32,129.56c.23-.09.5-.29.73-.26.46.06.58.4,1.06.27.65-.16,1.31-.58,1.22-1.32l-.09-.7c-.1-.41-.29-.57-.67-.59-.19-.02-.43.21-.64.18-.2-.03-.31-.29-.44-.31-.77-.12-1.16.22-1,1.05-.24.28-.68.63-.73,1.03.22.17.38.42.55.66Z" style="fill: #fff; opacity: .12; stroke-width: 0px;"/>
    <path d="M46.78,128.36c-.61.7-.16.81-.14,1.82.26-.04.73-.07.99-.19l.8-.37c-.08-.57-.11-1.16-.03-1.75-.46-.27-1.24.06-1.62.49Z" style="fill: #fff; opacity: .12; stroke-width: 0px;"/>
    <path d="M47.43,165.32c-.33.06-.58.56-.58.93,0,.6.26.46.69.94.11-.14.32-.35.4-.51l.23-.52c-.28-.24-.54-.51-.75-.84Z" style="fill: #fff; opacity: .12; stroke-width: 0px;"/>
    <path d="M70.73,163.7c.07-.42.33-.72.63-.99-.72-.18-1.11.07-1.58.37l-.09.22c.11.1.23.21.34.31.23-.01.47,0,.69.09Z" style="fill: #fff; opacity: .12; stroke-width: 0px;"/>
    <path d="M56.54,131.26c.39-.1.8-.13,1.18.01.07-.42.33-.72.63-.99-.72-.18-1.11.07-1.58.37l-.24.61Z" style="fill: #fff; opacity: .12; stroke-width: 0px;"/>
    <path d="M67.14,170.66c.12-.17.2-.37.17-.62l-.07-.65c-.73-.25-1.46-.51-2.19-.77-.4.08-.59.41-.49,1.01-.24.27-.67.6-.73.98.21.17.37.42.53.65.22-.08.48-.27.71-.24.44.07.56.38,1,.29-.05.23-.04.41.24.7.31.33.94.54,1.31.29-.07-.48-.05-.96.01-1.44l-.5-.19Z" style="fill: #fff; opacity: .12; stroke-width: 0px;"/>
    <path d="M75.02,137.33c.59-.57.37-.97.53-1.72.16-.72.43-1.19.8-1.73l.02-.29c-.48.07-.96.18-1.42.31-.29.38-.51.8-.59,1.06-.35,1.14.08,1.39.65,2.37Z" style="fill: #fff; opacity: .12; stroke-width: 0px;"/>
    <path d="M81.91,139.61c.09-.25.18-.5.28-.74l-.38.23c.04.17.08.34.1.52Z" style="fill: #fff; opacity: .12; stroke-width: 0px;"/>
    <path d="M75.76,159.24c-.51.22-1.02.17-1.53.04.62.51,1.3.89,2.01,1.13-.24-.34-.42-.73-.49-1.16Z" style="fill: #fff; opacity: .12; stroke-width: 0px;"/>
    <path d="M80.18,179.83c-.27.36-.53.76-.68,1.19-.27.03-.36.19-.6.28.22.21.17.48.26.62-.38.08-.7.19-1.08.17-.02.05-.03.07-.05.12.84,0,1.67,0,2.51.01,0-1.06.24-1.19.63-2.14-.08-.09-.26-.2-.29-.22l-.7-.04Z" style="fill: #fff; opacity: .12; stroke-width: 0px;"/>
    <path d="M79.11,176.96c-.22-.13-.57-.4-.82-.48l-.79-.22c-.26.5-.56.98-.95,1.38.18.5.94.74,1.45.64.83-.15.56-.52,1.1-1.33Z" style="fill: #fff; opacity: .12; stroke-width: 0px;"/>
    <path d="M105.49,156.42c-.3-.62.47-1.03.67-1.49l-.07-.43c-.11,0-.2,0-.28.03-.02,0-.03.01-.05.02-.52.18-.47.9-.98,1.23-.16.11-.73.12-.94.19-.34.12-.49.36-.86.32-.08-.11-.15-.32-.22-.55-.28.11-.56.23-.84.34,1.22.36,2.42.51,3.57.33Z" style="fill: #fff; opacity: .12; stroke-width: 0px;"/>
    <path d="M102.47,157.17c-.1.22-.1.18.27.61.25.29.75.48.68.83.61.28.65,1.01,1.27.88.51-.1,1.17-.92,1.56-1.26-.03-.22-.14-.52-.23-.69-.28.19-.55.11-.52-.2-.97.16-1.99.1-3.02-.17Z" style="fill: #fff; opacity: .12; stroke-width: 0px;"/>
    <path d="M105.39,160.33c-.07-.42.08-.79.27-1.15-.73.07-1.03.45-1.37.89v.52s.09.03.15.04c.29-.17.61-.29.95-.29Z" style="fill: #fff; opacity: .12; stroke-width: 0px;"/>
    <path d="M98.3,161.76c0,.13-.52.69-.46.87-.18.29-.53.66-.53,1.03.22.13.4.33.58.52.19-.11.41-.33.63-.33.43,0,.57.28,1,.11.18-.07.35-.18.5-.3.59.15.93-.26,1.48-.68-.07-.27-.24-.46-.44-.61.05-.05.09-.11.14-.16-1.15,0-1.76-.43-2.91-.45Z" style="fill: #fff; opacity: .12; stroke-width: 0px;"/>
    <path d="M110.92,162.74c-.35,1.14.08,1.39.65,2.37.59-.57.37-.97.53-1.72.16-.72.43-1.19.8-1.73l.04-.51c-.23-.33-.54-.29-.85-.07-.31.47-.64.89-1,1.26-.08.15-.14.29-.17.4Z" style="fill: #fff; opacity: .12; stroke-width: 0px;"/>
    <path d="M104.53,167.49l-.39.41c.18.32.34.67.43,1.04.34.05.73-.33.85-.68.21-.56-.09-.52-.34-1.12-.15.09-.42.22-.55.35Z" style="fill: #fff; opacity: .12; stroke-width: 0px;"/>
    <path d="M52.13,175l.12-.52c-.53-1.02-2.04.7-2.35,1.36-.08.16-.13.3-.17.43.41.22.83.43,1.24.64.02-.07.04-.14.07-.22.27-.73.62-1.18,1.09-1.69Z" style="fill: #fff; opacity: .12; stroke-width: 0px;"/>
    <path d="M80.95,129.56c.51-.1,1.17-.92,1.56-1.26-.03-.22-.14-.52-.23-.69-.33.22-.63.08-.49-.35-.76.18-.67-.71.02-.68-.43-.68.41-1.1.62-1.59l-.07-.43c-.11,0-.2,0-.28.03-.02,0-.03.01-.05.02-.52.18-.47.9-.98,1.23-.16.11-.72.12-.94.19-.34.12-.49.36-.86.32-.08-.11-.15-.32-.22-.54-.32.13-.64.26-.95.38.32.28.7.51.81.6-.19.78-.39.45.12,1.05.25.29.75.48.68.83.61.28.65,1.01,1.27.89Z" style="fill: #fff; opacity: .12; stroke-width: 0px;"/>
    <path d="M90.51,118.7l-.75.29c-1.14.25-1.82.73-2.57,1.76.16.28.23.6.26.92.69-.02,1.38-.04,2.07-.05.54-.23.97-.49,1.58-.43-.18-.6.05-1.24.26-1.8-.34-.12-.65-.38-.84-.7Z" style="fill: #fff; opacity: .12; stroke-width: 0px;"/>
    <path d="M70.41,148.79c.11-.62.51-1.06.97-1.46-.76-.2-1.29-.06-1.78.19.08.38.16.76.24,1.15.19.02.39.06.58.13Z" style="fill: #fff; opacity: .12; stroke-width: 0px;"/>
    <path d="M61.72,137.77c.69-.22,1.39-.44,2.08-.66-.05-.03-.07-.05-.13-.08-.42-.25-.94-.78-1.28-.24-.08.12-.08.29-.07.47,0,0-.01,0-.02,0l-.58.52Z" style="fill: #fff; opacity: .12; stroke-width: 0px;"/>
    <path d="M64.64,136.13l-.02.66c.33-.23.71-.39,1.12-.39-.07-.41.08-.79.27-1.15-.73.07-1.03.45-1.37.89Z" style="fill: #fff; opacity: .12; stroke-width: 0px;"/>
    <path d="M49.5,123.54l-.02.66c.33-.23.71-.39,1.12-.39-.07-.41.08-.79.27-1.15-.73.07-1.03.45-1.37.89Z" style="fill: #fff; opacity: .12; stroke-width: 0px;"/>
    <path d="M28.72,142.17l-.04-.65c-.31.26-.67.45-1.06.48.1.4-.01.78-.17,1.16.72-.14.97-.53,1.27-.99Z" style="fill: #fff; opacity: .12; stroke-width: 0px;"/>
    <path d="M22.68,105.35l-.04-.65c-.31.26-.67.45-1.06.48.1.4-.01.78-.17,1.16.72-.14.97-.53,1.27-.99Z" style="fill: #fff; opacity: .12; stroke-width: 0px;"/>
    <path d="M23.61,145.67c.23.46.47,1.01.73,1.46.04-.45.07-.87.02-1.16-.26-.17-.5-.25-.75-.3Z" style="fill: #fff; opacity: .12; stroke-width: 0px;"/>
    <path d="M110.91,171.86c.26.33.47.69.65,1.08.2.08.39.14.58.14.95.02.73-.45,1.51-1.21-.21-.19-.54-.57-.8-.71l-.62-.32c-.12.03-.25.07-.37.1-.29.33-.6.65-.94.92Z" style="fill: #fff; opacity: .12; stroke-width: 0px;"/>
    <path d="M65.61,122.88l-.35.24c.04.1.09.18.14.24.01.01.02.02.04.04.39.4,1,.05,1.52.37.17.1.42.61.58.78.25.26.53.29.66.65-.07.12-.22.27-.39.44.25.24.5.47.75.71.11-.42.16-.86.19-.99.77-.16.57.17.88-.56.15-.35.1-.89.45-.97-.01-.68.62-1.03.24-1.55-.31-.42-1.32-.68-1.79-.89-.18.13-.4.35-.52.51.34.2.34.54-.1.6.48.62-.35.91-.62.27-.42.69-1.16.1-1.68.12Z" style="fill: #fff; opacity: .12; stroke-width: 0px;"/>
    <path d="M57.1,117.97c.42.45.76.99.86,1.63.59-.26,1.17-.16,1.74.03-.3-1.14-.92-1.47-1.64-1.86l-.96.2Z" style="fill: #fff; opacity: .12; stroke-width: 0px;"/>
    <path d="M63.94,115.77l.23-.61c-.39.11-.8.13-1.18,0-.07.42-.33.72-.64.99.72.18,1.12-.07,1.58-.37Z" style="fill: #fff; opacity: .12; stroke-width: 0px;"/>
    <path d="M127.32,125.35l.89.37c-.08-.31-.12-.62-.11-.94-.44-.3-.9-.59-1.37-.87.06.55.31.97.59,1.44Z" style="fill: #fff; opacity: .12; stroke-width: 0px;"/>
    <path d="M118.53,137.82c-.27,1.08.09,1.68.51,2.39l.89.37c-.14-.59-.17-1.21.04-1.78-.61-.12-1.05-.52-1.45-.98Z" style="fill: #fff; opacity: .12; stroke-width: 0px;"/>
    <path d="M182.44,108.4c-.06-.19-.18-.24-.28-.41-.12.19-.33.18-.42.27-.1-.27-.22-.49-.25-.77-.75-.23-.76-.04-1.21.48-.35.41-1.02.89-.51,1.37.39.37,1.48.06,1.89,0,.65-.12.85-.03,1.3.1.05-.27.09-.54.13-.81-.21-.1-.44-.18-.66-.22Z" style="fill: #fff; opacity: .12; stroke-width: 0px;"/>
    <path d="M136.72,106.97c.12-.48.11-.86.02-1.21-.5-.02-.96-.11-1.39-.24-.02.16-.03.32-.08.47.61.12,1.05.52,1.45.98Z" style="fill: #fff; opacity: .12; stroke-width: 0px;"/>
    <path d="M149.78,137.95c-.09-.12-.24-.18-.42-.22,0,0,0-.01,0-.02l-.29-.72c-.01.33-.02.66-.04,1,.27.04.54.07.8.1-.02-.04-.03-.08-.07-.13Z" style="fill: #fff; opacity: .12; stroke-width: 0px;"/>
    <path d="M104.19,141.4s0-.01,0-.02l-.29-.72c-.03.74-.05,1.47-.08,2.21.04-.04.07-.05.12-.1.37-.32,1.04-.64.66-1.14-.09-.12-.24-.18-.42-.22Z" style="fill: #fff; opacity: .12; stroke-width: 0px;"/>
    <path d="M166.08,105.99s0-.01,0-.02l-.29-.72c-.03.74-.05,1.47-.08,2.21.04-.04.07-.05.12-.1.37-.32,1.04-.64.66-1.14-.09-.12-.24-.18-.42-.22Z" style="fill: #fff; opacity: .12; stroke-width: 0px;"/>
    <path d="M139.02,163.93c-.07-.18-.18-.35-.29-.51.15-.6-.26-.94-.68-1.5-.27.07-.45.25-.6.45-.04-.05-.11-.1-.16-.15-.42.94-.81,2.07-.83,3.24.13,0,1.07.24,1.24.18.28.18.65.54,1.01.54.13-.22.33-.41.51-.59-.11-.2-.32-.42-.33-.64,0-.44.28-.58.11-1.01Z" style="fill: #fff; opacity: .12; stroke-width: 0px;"/>
    <path d="M139.06,173.33c-.09-.12-.25-.18-.43-.23,0,0,0-.01,0-.02l-.29-.74c-.24.78-.83,1.63-.89,2.37.58-.33,1.15-.67,1.72-1.01.02-.11-.01-.23-.11-.37Z" style="fill: #fff; opacity: .12; stroke-width: 0px;"/>
    <path d="M103.96,178.73c-.05-.19.13-.73.13-.96,0-.36-.17-.58-.01-.93.13-.04.35-.03.58-.03-.01-.35-.03-.69-.04-1.04-.37.21-.71.49-.83.57-.66-.44-.29-.53-1.02-.24-.35.14-.69.56-1,.37-.46.49-1.16.28-1.25.92-.08.52.46,1.43.65,1.91.22.04.53.04.72.01-.1-.38.14-.63.49-.35.09-.79.88-.4.63.25.78-.19.88.76,1.27,1.12l.42.08c.04-.1.06-.19.07-.27,0-.02,0-.03,0-.05,0-.56-.67-.75-.82-1.35Z" style="fill: #fff; opacity: .12; stroke-width: 0px;"/>
    <path d="M127.89,132.85c-.17-.62-.8-1.4-1.14-1.67-.71-.55-1.11-.48-1.74-.33-.2.05-.42.11-.69.16.33.76.78.68,1.42,1.09.62.4.96.81,1.34,1.34l.29.13c0-.1-.01-.2-.02-.31.19-.14.36-.28.54-.42Z" style="fill: #fff; opacity: .12; stroke-width: 0px;"/>
    <path d="M92.6,179.84c.3,1.28.11,2.67-.46,3.88.49.02.91.05,1.2-.45.39-.7.12-2.29.12-3.07-.24-.15-.58-.28-.86-.36Z" style="fill: #fff; opacity: .12; stroke-width: 0px;"/>
    <path d="M85.13,173.7c-.1.18-.15.53-.2.73.75.14.8.5,1.35.12.34-.24.64-.79.47-1.17-.38,0-.76-.08-1.13-.19-.06,0-.12-.01-.19-.02l-.3.53Z" style="fill: #fff; opacity: .12; stroke-width: 0px;"/>
    <path d="M87.2,169.38c-.21-.15-.54-.19-1.01-.52-.13.22-.4.58-.47.83l-.22.8c.13.07.27.15.4.23.4-.49.83-.94,1.3-1.34Z" style="fill: #fff; opacity: .12; stroke-width: 0px;"/>
    <path d="M88.95,167.46c-1.04,0-1.18-.25-2.11-.63-.09.08-.2.27-.21.29l-.04.71c.36.27.75.54,1.17.69.02.15.07.25.13.34.33-.21.67-.4,1.05-.56,0-.28,0-.56,0-.84Z" style="fill: #fff; opacity: .12; stroke-width: 0px;"/>
    <path d="M107.02,122.8c-.5.38-1.05.6-1.63.72.15.03.32.02.53-.02.28.24.62.69,1.01.74.17-.22.42-.39.65-.56-.09-.23-.29-.5-.26-.74.05-.38.27-.53.29-.83-.15.26-.34.49-.6.69Z" style="fill: #fff; opacity: .12; stroke-width: 0px;"/>
    <path d="M143.52,127.13l-.19.51c-.17-.12-.37-.2-.61-.17l-.67.07c-.39.09-.55.28-.58.65-.02.18.2.42.16.63-.04.2-.28.3-.3.43-.13.75.19,1.14.98,1,.26.24.59.68.97.74.17-.21.41-.37.64-.53-.08-.22-.27-.49-.23-.72.07-.45.37-.56.28-1.02.23.05.4.04.69-.24.22-.21.38-.57.39-.9-.19-.13-.38-.26-.57-.39-.32.01-.64-.01-.95-.05Z" style="fill: #fff; opacity: .12; stroke-width: 0px;"/>
    <path d="M167.2,144.05l-.51-.04c-.87.63.84,1.83,1.55,2.09.27-.4.53-.8.8-1.2-.03,0-.05,0-.08-.01-.73-.17-1.2-.45-1.75-.83Z" style="fill: #fff; opacity: .12; stroke-width: 0px;"/>
    <path d="M173.25,137.11c-.53-.39-.57-.05-1.28.04.05.19.11.52.21.69l.31.55c.16-.04.33-.08.5-.1.17-.31.33-.62.5-.94-.07-.09-.15-.17-.24-.24Z" style="fill: #fff; opacity: .12; stroke-width: 0px;"/>
    <path d="M137.64,111.1s0,0,0-.01c-.63-.08-1.11-.46-1.55-.91-.07.39-.05.7,0,.99.52-.02,1.04-.04,1.55-.06Z" style="fill: #fff; opacity: .12; stroke-width: 0px;"/>
    <path d="M142.34,105.15l-.41.83c.41.33.78.71,1.1,1.13.33-.26.69-.48,1.06-.66.08-.2.13-.4.14-.58.02-.96-.45-.74-1.19-1.53-.19.21-.56.55-.7.81Z" style="fill: #fff; opacity: .12; stroke-width: 0px;"/>
    <path d="M158.08,137.25c-.67.44-1.08-.42-1.57-.62l-.42.07c0,.11,0,.2.03.28,0,.02.01.03.02.05.12.36.49.46.82.64.39-.1.77-.22,1.14-.36,0-.02,0-.04,0-.06Z" style="fill: #fff; opacity: .12; stroke-width: 0px;"/>
    <path d="M159.78,136.53c-.22.03-.51.14-.69.24.22.33.07.64-.34.5.15.66-.46.68-.63.24-.22.33-.44.66-.66.99.02.18.04.36.08.46.12.34.35.49.32.87-.11.08-.32.15-.54.23.13.32.25.65.38.97.28-.33.51-.71.59-.82.77.19.45.4,1.04-.12.28-.25.47-.76.82-.68.28-.62,1-.66.87-1.29-.1-.52-.91-1.19-1.24-1.58Z" style="fill: #fff; opacity: .12; stroke-width: 0px;"/>
    <path d="M116.71,147.94c-.12.35-.37.66-.69.86l.29.76c.25,1.16.72,1.85,1.74,2.61.28-.16.59-.23.91-.26-.02-.7-.04-1.4-.05-2.1-.22-.55-.48-.98-.42-1.6-.59.18-1.22-.05-1.77-.27Z" style="fill: #fff; opacity: .12; stroke-width: 0px;"/>
    <path d="M88.96,156.15c.04.34.21.6.39.85.05-.35.28-.58.81-.36.13-.32.12-.66.07-1.01-.29.18-.5.37-.86.48-.09-.12-.18-.34-.2-.49.13-.03.25-.08.36-.14-.15.01-.29.03-.44.05-.08.25-.15.49-.13.63Z" style="fill: #fff; opacity: .12; stroke-width: 0px;"/>
    <path d="M113.49,121.17c.11.15.36.35.54.42.13-.19.29-.37.47-.49-.17-.15-.33-.3-.5-.45-.18.14-.35.3-.51.52Z" style="fill: #fff; opacity: .12; stroke-width: 0px;"/>
    <path d="M116.97,106.39c.3.35.85.75,1.06.33l-.06-.26c-.25-.24-.43-.45-.58-.81-.04-.1-.07-.2-.09-.28-.08.24-.17.5-.25.77-.03.09-.06.17-.09.24Z" style="fill: #fff; opacity: .12; stroke-width: 0px;"/>
    <path d="M28.41,156.4c.08-.41-.1-1.02-.49-1.16-.29.28-.63.51-.98.7.33.35.67.7,1,1.05.25-.1.39-.17.47-.59Z" style="fill: #fff; opacity: .12; stroke-width: 0px;"/>
    <path d="M38.89,152.6l-.42.56c-.22.35-.19.61.06.9.13.15.45.15.58.33.12.17.02.42.1.53.46.64.97.67,1.44-.03.25-.02.58,0,.87-.05-.88-.74-1.73-1.5-2.58-2.28-.01.01-.02.02-.03.04Z" style="fill: #fff; opacity: .12; stroke-width: 0px;"/>
    <path d="M17.01,139.85c.12.47.12,1.23.74,1.09.14-.03.26-.15.38-.29,0,0,0,0,.02.02l.77.05c-.64-.34-1.29-.68-1.94-1.02.02.06.02.08.03.15Z" style="fill: #fff; opacity: .12; stroke-width: 0px;"/>
    <path d="M17.57,138.13c.2-.4.47-.76.77-1.08l-.37-.54c-.12-.17-.41-.37-.56-.5-.45.62-.79.52-.69,1.19.06.41.43.92.85.93Z" style="fill: #fff; opacity: .12; stroke-width: 0px;"/>
    <path d="M23.74,130.32l-.62-.34c-.4.21-.8.45-1.11.78-.25-.09-.41,0-.66,0,.11.28-.05.51-.03.68-.37-.09-.71-.13-1.04-.32-.04.03-.06.06-.09.09.76.36,1.51.72,2.26,1.1.44-.96.73-.97,1.47-1.66-.03-.14-.2-.36-.17-.32Z" style="fill: #fff; opacity: .12; stroke-width: 0px;"/>
    <path d="M173.19,120.26c-.43-.29-1.47-.19-1.98-.23-.13.18-.26.47-.32.66.38.08.5.4.11.6.66.42-.02.98-.49.47-.17.79-1.06.48-1.54.68l-.25.35c.07.08.14.14.22.18.02,0,.03.01.05.02.5.25.96-.3,1.55-.17.19.04.6.43.8.54.32.16.59.09.83.39-.02.14-.12.33-.22.55.31.14.63.27.94.41-.03-.43-.14-.86-.15-1,.67-.41.6-.04.65-.83.02-.38-.2-.87.1-1.07-.24-.64.25-1.18-.28-1.54Z" style="fill: #fff; opacity: .12; stroke-width: 0px;"/>
    <path d="M92.63,104.37c-.28-.02-.51.07-.71.21-.02-.06-.07-.13-.1-.19-.39,1.1-.82,2.18-1.23,3.27.12.05.28.08.46.08.2.27.43.74.77.86.19-.16.45-.27.68-.38-.04-.22-.16-.5-.09-.71.14-.41.46-.45.44-.91,0-.2-.05-.39-.1-.58.34-.51.08-.98-.12-1.65Z" style="fill: #fff; opacity: .12; stroke-width: 0px;"/>
    <path d="M73.69,104.25l-.42-.08c-.04.1-.06.19-.07.27,0,.02,0,.03,0,.05-.01.56.67.76.81,1.36.04.19-.14.73-.14.96,0,.36.16.59,0,.93-.13.04-.35.03-.58.03,0,.35.02.69.03,1.04.37-.21.72-.49.83-.56.65.45.28.53,1.01.25.35-.14.7-.55,1-.36.47-.49,1.16-.27,1.26-.91.08-.52-.45-1.43-.63-1.92-.22-.05-.53-.04-.72-.02.09.39-.15.62-.49.35-.1.79-.88.39-.63-.26-.78.18-.88-.77-1.26-1.13Z" style="fill: #fff; opacity: .12; stroke-width: 0px;"/>
    <path d="M109.59,107.17c.98.64,1.8.79,3.05.6.08-.31.25-.59.46-.83-.5-.48-1-.96-1.49-1.45-.54-.23-1.03-.35-1.42-.83-.29.55-.9.84-1.44,1.08.16.33.2.73.11,1.1l.74.33Z" style="fill: #fff; opacity: .12; stroke-width: 0px;"/>
    <path d="M19.1,113.01c.02-.5.05-.93-.45-1.21-.69-.39-2.26-.12-3.03-.12-.15.24-.28.58-.36.87,1.26-.3,2.64-.11,3.83.47Z" style="fill: #fff; opacity: .12; stroke-width: 0px;"/>
    <path d="M8.09,118.73c-.51.35-1.1.39-1.71.34.56.96,1.24,1.13,2.03,1.32l.89-.38c-.52-.31-.97-.73-1.21-1.29Z" style="fill: #fff; opacity: .12; stroke-width: 0px;"/>
    <path d="M115.07,113.57c.07.31.18.54.32.75.15-.49.38-1.05.5-1.55-.34.29-.65.56-.82.81Z" style="fill: #fff; opacity: .12; stroke-width: 0px;"/>
    <path d="M126.18,169.24c-.76.22-1.68,1.53-2.23,2.09.06.28.21.61.35.87.68-1.12,1.79-1.97,3.04-2.42-.33-.37-.61-.69-1.16-.54Z" style="fill: #fff; opacity: .12; stroke-width: 0px;"/>
    <path d="M146.8,155.1c.1.39.13.81,0,1.2.41.07.71.34.98.64.18-.73-.07-1.13-.36-1.6l-.6-.24Z" style="fill: #fff; opacity: .12; stroke-width: 0px;"/>
    <path d="M156.31,149.59c-.35-.15-.88-.1-.96-.45-.67.01-1.01-.63-1.53-.25-.42.31-.67,1.34-.88,1.81.12.19.35.41.5.53.2-.34.54-.34.59.1.62-.49.9.35.27.63.68.42.1,1.17.12,1.7l.24.36c.1-.04.17-.09.24-.15.01-.01.02-.02.04-.04.4-.39.05-1.01.36-1.54.1-.17.6-.43.77-.58.26-.25.29-.54.64-.66.12.07.27.23.43.39.23-.25.47-.51.7-.76-.41-.11-.85-.16-.98-.19-.16-.78.16-.58-.55-.9Z" style="fill: #fff; opacity: .12; stroke-width: 0px;"/>
    <path d="M149.38,161.3l.2.97c.44-.43.98-.77,1.61-.87-.25-.6-.15-1.19.03-1.77-1.12.31-1.45.93-1.83,1.67Z" style="fill: #fff; opacity: .12; stroke-width: 0px;"/>
    <path d="M47.75,101.99c-.12.27-.34.6-.37.87-.02.18.04.34.27.45.13.07.29.05.47.02,0,0,0,.01,0,.02l.57.52c-.14-.34-.29-.67-.44-1.01-.15-.34-.29-.67-.44-1.01-.02.05-.04.08-.07.14Z" style="fill: #fff; opacity: .12; stroke-width: 0px;"/>
    <path d="M124.06,103.39l.77.35c.27-.32.56-.63.89-.89.11-.09.23-.17.35-.25-.1-.51-.83-.87-1.38-.88-.89,0-.68.39-1.38,1.05-.04-.27-.11-.54-.2-.82l-.76-.52c-.01.49-.12.98-.37,1.42-.04.08-.08.16-.14.23.55.23.87.68,1.13,1.19.32-.55.39-1,.34-1.42h.06c.2.17.47.43.68.54Z" style="fill: #fff; opacity: .12; stroke-width: 0px;"/>
    <path d="M8.28,102.86c-.14.22-.18.54-.49.99.22.13.57.4.82.48l.79.22c.26-.5.56-.98.95-1.38-.04-.12-.12-.22-.22-.31h-1.85Z" style="fill: #fff; opacity: .12; stroke-width: 0px;"/>
    <path d="M164.5,113.79c-.59-.24-.94-.73-1.21-1.27-.06.11-.11.21-.15.31.3.89.55,1.78.73,2.66l.11.07c.01-.62.16-1.24.53-1.77Z" style="fill: #fff; opacity: .12; stroke-width: 0px;"/>
  </g>
</svg>