<?xml version="1.0" encoding="UTF-8"?>
<svg id="Layer_1" data-name="Layer 1" xmlns="http://www.w3.org/2000/svg" viewBox="0 0 103.75 104.21">
  <g>
    <path d="M34.46,22.65c1.82-3.89,5.14-7.25,9.08-9.25,3.95-2.02,8.36-2.56,12.73-1.64,2.16.48,4.27,1.27,6.16,2.41.95.55,1.85,1.19,2.67,1.9.42.34.81.71,1.19,1.1.4.38.72.75.95,1.05.24.3.37.53.43.67.06.15.04.09.06.2.02.12.02.39-.02.8-.03.4-.14.99-.26,1.52-.42,2.16-1.26,4.26-2.36,6.2-1.11,1.93-2.54,3.66-4.16,5.09-1.64,1.39-3.47,2.53-5.39,3.17-3.75,1.36-8.41.99-12.01-.82-1.8-.91-3.33-2.17-4.44-3.64-1.04-1.43-1.82-3.21-2.08-5.16-.18-.96-.15-1.95-.12-2.93.12-.96.23-1.94.55-2.82.54-1.82,1.58-3.29,2.78-4.41l-8.05-9.27c-3.06,2.73-5.31,6.25-6.43,9.94-.63,1.84-.91,3.74-1.1,5.63-.1,1.9-.09,3.8.23,5.68.54,3.76,2.02,7.46,4.38,10.67,2.34,3.14,5.42,5.58,8.75,7.26,3.35,1.65,6.95,2.65,10.62,2.88,1.83.16,3.67.05,5.51-.14,1.83-.28,3.66-.63,5.43-1.28,3.54-1.2,6.68-3.17,9.42-5.5,2.7-2.37,4.97-5.16,6.73-8.22,1.75-3.07,3.06-6.38,3.75-9.87.18-.88.34-1.71.44-2.74.1-1.02.15-2.19,0-3.51-.15-1.32-.58-2.78-1.13-3.93-.55-1.17-1.2-2.15-1.85-2.99-.66-.84-1.29-1.54-1.93-2.16-.63-.64-1.29-1.26-1.98-1.83-1.37-1.16-2.82-2.2-4.36-3.1-3.05-1.82-6.39-3.09-9.85-3.85-3.47-.71-7.07-.93-10.64-.45-3.59.44-7.04,1.57-10.21,3.16-6.31,3.23-11.55,8.45-14.64,15l11.12,5.19Z" style="fill: none; stroke-width: 0px;"/>
    <path d="M31.99,40.27c-.1-.04-.23-.15-.37-.29.08,0,.3.14.37.29Z" style="fill: #231f20; fill-rule: evenodd; stroke-width: 0px;"/>
    <path d="M35.45,30.84c-.07-.07-.25-.3-.1-.33.08.14.07.22.1.33Z" style="fill: #231f20; fill-rule: evenodd; stroke-width: 0px;"/>
    <path d="M35.43,30.33c-.07,0-.1-.22-.16-.3.08-.03.17.23.16.3Z" style="fill: #231f20; fill-rule: evenodd; stroke-width: 0px;"/>
    <path d="M33.74,29.44c-.07-.06-.17-.24-.14-.35.07,0,.09.25.14.35Z" style="fill: #231f20; fill-rule: evenodd; stroke-width: 0px;"/>
    <path d="M34.81,28.44c-.1-.09-.17-.28-.21-.56.11.07.15.35.21.56Z" style="fill: #231f20; fill-rule: evenodd; stroke-width: 0px;"/>
    <path d="M28,27.82c-.06-.42-.32-1.27-.19-1.59-.06.53.2,1.1.19,1.59Z" style="fill: #231f20; fill-rule: evenodd; stroke-width: 0px;"/>
    <path d="M30.68,26.37c-.23-.45-.07-1.29-.21-1.88.13-.09.07.87.19,1.03,0,.14-.03.25-.04.36.02.16.12.31.07.48Z" style="fill: #231f20; fill-rule: evenodd; stroke-width: 0px;"/>
    <path d="M31.34,20.8c-.08,0-.12-.05-.08-.2.04-.04.08-.05.13-.03l-.05.23Z" style="fill: #231f20; fill-rule: evenodd; stroke-width: 0px;"/>
    <path d="M30.94,18.24c-.05-.42.32-1.25.59-1.66,0-.07-.04-.09.02-.2.1-.28.47-.83.16-.27-.22.76-.57,1.29-.78,2.13Z" style="fill: #231f20; fill-rule: evenodd; stroke-width: 0px;"/>
    <path d="M32.45,18.46c-.02-.1.02-.23.09-.4.05.07-.05.34-.09.4Z" style="fill: #231f20; fill-rule: evenodd; stroke-width: 0px;"/>
    <path d="M28.98,16.54c-.03-.1.16-.42.22-.61-.02.15-.1.48-.22.61Z" style="fill: #231f20; fill-rule: evenodd; stroke-width: 0px;"/>
    <path d="M32.13,17.88c-.02-.16.13-.46.14-.65.17-.1-.07.44-.14.65Z" style="fill: #231f20; fill-rule: evenodd; stroke-width: 0px;"/>
    <path d="M32.63,17.78c-.04-.14.11-.44.19-.68.01.17-.13.46-.19.68Z" style="fill: #231f20; fill-rule: evenodd; stroke-width: 0px;"/>
    <path d="M28.58,15.63c-.08-.06.04-.33.1-.53.07.08-.06.35-.1.53Z" style="fill: #231f20; fill-rule: evenodd; stroke-width: 0px;"/>
    <path d="M29.37,15.62c-.01-.26.4-.96.59-1.31-.16.49-.38.81-.59,1.31Z" style="fill: #231f20; fill-rule: evenodd; stroke-width: 0px;"/>
    <path d="M32.86,16.99c-.01-.34.31-.67.43-.89-.05.28-.39.56-.43.89Z" style="fill: #231f20; fill-rule: evenodd; stroke-width: 0px;"/>
    <path d="M31.96,15.67c.01-.13.1-.32.16-.49.13.03-.07.3-.16.49Z" style="fill: #231f20; fill-rule: evenodd; stroke-width: 0px;"/>
    <path d="M32.48,15.33c0-.17.09-.27.21-.45.03.08-.16.31-.21.45Z" style="fill: #231f20; fill-rule: evenodd; stroke-width: 0px;"/>
    <path d="M33.05,15.04c-.03-.1.21-.49.29-.32-.06.11-.1.07-.14.05-.09.11-.03.14-.15.27Z" style="fill: #231f20; fill-rule: evenodd; stroke-width: 0px;"/>
    <path d="M31.89,12.65c-.09.36-.57.74,0,0h0Z" style="fill: #231f20; fill-rule: evenodd; stroke-width: 0px;"/>
    <path d="M31.48,11.36c.15-.28.35-.5.6-.76-.12.2-.48.66-.6.76Z" style="fill: #231f20; fill-rule: evenodd; stroke-width: 0px;"/>
    <path d="M31.49,11.07c-.14.03.25-.44.24-.29l-.24.29Z" style="fill: #231f20; fill-rule: evenodd; stroke-width: 0px;"/>
    <path d="M30.74,9.49c.03-.13.18-.34.33-.48.02.1-.24.43-.33.48Z" style="fill: #231f20; fill-rule: evenodd; stroke-width: 0px;"/>
    <path d="M32.42,7.95c.4-.57.67-.63,0,0h0Z" style="fill: #231f20; fill-rule: evenodd; stroke-width: 0px;"/>
    <path d="M25.55,23.75c-.04-.13-.05-.31-.1-.4.13-.23.02-.67.12-.99.1.4-.07.81-.01,1.38Z" style="fill: #231f20; fill-rule: evenodd; stroke-width: 0px;"/>
    <path d="M29.66,16.32c.05-.16.11-.12.16-.31.05,0,.02.08.05.1.16-.31.17-.51.31-.77,0,.04,0,.09.05.11.04-.42.47-.71.79-1.46-.11.39-.39.94-.67,1.48-.26.55-.49,1.1-.6,1.42-.07-.14.25-.64.16-.76-.08-.05-.16.35-.24.19Z" style="fill: #231f20; fill-rule: evenodd; stroke-width: 0px;"/>
    <path d="M32.51,16.81c.02-.06-.01-.04-.03-.01-.06-.05.09-.25.13-.27.02.09-.3.81-.1.28Z" style="fill: #231f20; fill-rule: evenodd; stroke-width: 0px;"/>
    <path d="M34.62,12.89l.09.08c.22-.32.65-.77.92-.86-.29.35-1.06.95-1.11,1.33-.07.04-.16.15-.24.19-.49.94-1.25,1.81-1.63,2.85-.06-.58.83-1.37.89-1.98.06-.07.03.02,0,.07.14-.2.33-.48.53-.78.22-.28.44-.59.57-.9Z" style="fill: #231f20; fill-rule: evenodd; stroke-width: 0px;"/>
    <path d="M31.41,10.79c.03-.13.16-.3.21-.43.05-.05-.05.37-.21.43Z" style="fill: #231f20; fill-rule: evenodd; stroke-width: 0px;"/>
    <path d="M35.81,3.67c-.28.17-.53.46-.82.65-.68.44-1.33.78-1.96,1.31-.53.5-.97,1.03-1.51,1.55-.4.39-.5.55-.75.82-.72.81-1.36,1.43-1.46,1.97-.34.71-.89,1.47-1.12,2.11-.04.1-.18.26-.2.3-.64,1.6-.52,2.86-1.15,4.62.07.22.25.44.31.82.03.17-.06.47-.01.61.17.49.74.42.7,1.13.07.07.15-.02.22-.03.67.33,1.34.39,1.8.77.49-.22.81.04,1.23-.09.27-.08.59-.32.88-.43.33-.12.62-.28.92-.35.19.12.4-.15.59-.1.34-.26.67-.4,1-.65.08.01.17-.04.25,0,.8-.45,1.67-.79,2.51-1.49.08-.06.24-.19.33-.28.28-.29.65-.65,1.04-.91.38-.28.76-.47,1.02-.48.13-.07.08-.13.21-.2.16.06.64,0,.94-.21.1-.07.16-.36.37-.55.31-.28.79-.25,1.07-.48.13-.11.19-.35.33-.46.18-.15.48-.33.78-.48.31-.14.62-.24.81-.3.29-.09.45,0,.65-.11.18-.1.27-.3.16-.51.37-.74,1.99-.82,2.83-1.26.7.05,1.28-.39,1.94-.42.13-.01.29.03.43,0,.22-.02.51-.13.8-.19.49-.11.93-.08,1.35-.16.63.28,1.11,0,1.65.04.2.03.39.15.61.18.19.02.38-.04.59-.01.21.04.4.18.6.21.15.03.28-.01.4.02.16.04.24.12.41.15.18.03.38-.04.56,0,.67.09,1.31.44,1.98.42,1.01.56,2.05.66,3.16,1.47.33.09.56.2.83.42.08.02.11-.04.22.03.29.2.6.38.92.55.33.16.65.35.9.62.04-.01.08-.02.13,0,.73.7,1.6,1.57,2.28,2,.32.53.86.9,1.17,1.33.15.21.18.43.29.57.23.31.2.52.27.81.02.09.11.18.13.29.03.21-.07.45-.05.74.04.56-.11,1.34-.25,2.03-.17.69-.36,1.36-.56,1.93-.12.35-.12.69-.23,1.1-.21.67-.61,1.28-.9,1.92-.07.16-.09.34-.14.5-.17.38-.42.71-.63,1.1-.26.47-.53.95-.79,1.41-.3.44-.58.89-.96,1.24-.63,1.16-2.01,2.48-3.15,3.43-.15.35-.49.44-.76.64-.8.71-1.91,1.53-2.95,1.92-2.04,1.11-4.33,1.73-6.74,1.86-2.39.11-4.82-.19-7.07-.87-.3-.25-.86-.36-1.18-.44-.03-.1-.23-.19-.36-.28-.63-.05-1.18-.58-1.83-.91-.26.06-.54-.31-.86-.35-.03-.15.19.02.05-.15-.31.02-.72-.3-1.17-.63-.43-.34-.81-.79-1.11-.99.04.04,0,.08-.05.04-.06-.18-.23-.13-.36-.29-.22-.24-.44-.46-.66-.65l-.59-.59c-.42-.37-.76-.78-1.09-1.25-.04-.15-.07-.55-.23-.63.06.21.19.43.05.48-.12-.33-.34-.73-.55-.9-.2-.39-.2-.63-.42-.97-.03-.09-.11.14-.18-.06-.13-.61-.35-.87-.39-1.44-.16-.13-.38-.76-.32-.98-.08-.17-.09.22-.14.07-.11-.5-.26-.97-.2-1.46-.07-.11-.16-.18-.2-.38-.02-.13.14.03.08-.17-.09-.18-.13.15-.24.11-.06-.26-.13-.2-.22-.33.05-.37-.12-.62-.15-.96-.04-.35.02-.74-.01-1.08,0-.29-.09-.43-.06-.75.03-.27.16-.48.19-.77,0-.16-.13.09-.1-.14.08-.51.16-1.03.24-1.52.11-.48.18-.93.21-1.34-.05.62-.23,1.1-.35,1.58-.1.49-.23.96-.2,1.49-.15.14.03.48-.17.61.07.08.15-.15.11.08-.02.08-.06.1-.06.22-.14-.16-.17.06-.29.13-.07.45-.02.85-.02,1.24,0,.39.01.76.05,1.15.05.14.09-.1.12.06.04.29.03.52.1.86-.12.11-.15.35-.32.25-.02-.53-.13-1.15-.2-1.8-.03-.65-.12-1.34-.03-1.98.04-.39.2-.77.04-1.02,0,.58-.27,1.01-.35,1.52-.03.65.1,1.35.09,1.98,0,.18-.05.26-.04.42,0,.13.11.34.11.48,0,.15-.06.17-.05.3.03.27.17.46.21.76.07.5,0,1.01.19,1.54-.03.11-.17.1-.22-.02-.15-.64-.15-.76-.26-1.43,0,.08-.02.13-.07.13-.02-.21,0-.29-.08-.42.08.5-.16.49-.29.33-.17-1.26-.27-2.84-.13-3.89-.06-.12-.15-.2-.15-.39.04-1.2.32-2.51.62-3.76-.33.67-.44,1.42-.6,2.19-.07.78-.17,1.59-.13,2.44-.03.06-.11,0-.1.18.04.73.08,1.57.14,2.13-.12.26-.23.52-.33.77.31,1.78.16,3.2.75,4.9-.09.03-.06.16-.1.24-.13-.11-.25-.16-.36-.3-.1-.28-.24-.56-.26-.83-.74-1.39-1.01-3.59-1.2-5.49-.16-.23-.27-.04-.39.13-.06.95.26,1.78.24,2.79-.3.42-.6.09-.73-.7-.28-1.3-.24-3.58-.13-4.43.04-1.93.34-3.86.95-5.74.63-1.87,1.51-3.69,2.66-5.43-1.42,1.85-2.14,3.85-2.89,5.72.06.01.07.09.02.24-.33.93-.54,1.95-.72,2.94-.11,1-.22,1.97-.16,2.82-.27.72.05,2.09-.11,2.83-.35-.15-.54-.75-.67-1.52.07.78-.03,1.53.04,2.19.06.54.29,1.46.27,1.75,0,.07-.1-.04-.07.08-.04-.22.11.39.12.43.11.28.12.22.19.57.09.45.08.44.08.74.22.76.45,1.51.75,2.23.34.71.6,1.45.98,2.16.08.15.24.44.25.47.06.14-.06.06.03.24.05.1.09.02.16.17.26.57.69,1.16,1.05,1.69.44.67,1.02,1.28,1.53,1.92.54.61,1.1,1.15,1.56,1.59.2.2-.15.04.14.28,1.59,1.51,3.52,2.8,5.59,3.81.15.08-.03.14.21.23.28.15.27-.01.52.12.14.11.28.21.34.31,2.41,1.11,5.11,1.65,7.79,1.84,2.5.19,5.04.06,7.4-.42,1.85-.38,3.59-1.03,5.16-1.62,2.04-.97,3.72-1.93,5.38-3.17,1.21-.87,2.48-1.91,3.33-2.83.15-.15.27-.39.44-.57.26-.27.59-.48.85-.76.67-.76,1.25-1.63,1.83-2.44.68-.9,1.27-1.8,1.85-2.74.3-.54.52-1.11.79-1.66.17-.37.43-.72.61-1.1.49-1.09.82-2.25,1.18-3.31.52-1.4,1-2.89,1.13-4.43.18-.81.35-1.82.38-2.97.03-1.14-.12-2.44-.49-3.58-.32-1.93-1.52-3.39-2.52-4.69-.11-.14-.15-.26-.25-.4-1.45-1.93-3.52-3.32-4.93-4.51-.65-.27-1.04-.73-1.56-1.12-.57-.39-1.18-.62-1.75-.95-.19-.1-.34-.24-.53-.35-.59-.33-1.21-.53-1.9-.8-.51-.21-1-.49-1.55-.72-.54-.24-1.1-.48-1.73-.58-.89-.4-2.27-.89-3.4-.95-1.82-.59-3.78-.5-5.73-.61-.66-.04-1.27-.19-1.94.01-.71-.13-1.53.06-2.37.16-.84.09-1.71.19-2.59.34-1.24.24-2.68.84-3.67.86-.64-.47-1.07.74-2.01,1.04-.54.1-.56-.1-.87-.23-.48.11-.85.37-1.23.65-.5.21-1.02.11-1.64.5ZM32.23,27.29s.05-.02.05-.06c.16.09-.01.39-.05.06ZM32.15,27.19c-.07-.46-.33-1.1-.22-1.46,0-.09-.17.1-.21-.05.06-.21.11-.45.09-.8.25-.03.14.66.36.67,0,.26-.01.39.11.5,0,.54.16.64.14,1.05-.16-.08-.1.09-.26.08Z" style="fill: #231f20; fill-rule: evenodd; stroke-width: 0px;"/>
  </g>
  <g>
    <path d="M80.28,48.82c-5.01,2.26-9.82,4.41-14.57,5.79-2.37.69-4.72,1.19-7.03,1.43-2.28.25-4.61.2-6.92-.05-9.25-1.04-18.22-6.1-23.6-13.56l-9.95,7.19c7.62,10.46,19.51,17.1,32.17,18.57,3.17.34,6.39.4,9.6.05,3.18-.33,6.24-1,9.17-1.85,5.86-1.71,11.15-4.12,16.19-6.39l-5.06-11.19Z" style="fill: none; stroke-width: 0px;"/>
    <path d="M30,59.54c-.06.01-.13-.02-.2-.06.06-.05.18-.03.2.06Z" style="fill: #231f20; fill-rule: evenodd; stroke-width: 0px;"/>
    <path d="M32.71,51.22c-.06,0-.23-.04-.13-.14.08.04.08.09.13.14Z" style="fill: #231f20; fill-rule: evenodd; stroke-width: 0px;"/>
    <path d="M32.61,50.92c-.05.04-.11-.07-.16-.09.05-.06.16.04.16.09Z" style="fill: #231f20; fill-rule: evenodd; stroke-width: 0px;"/>
    <path d="M31.24,51.42c-.06,0-.16-.03-.16-.11.05-.04.11.08.16.11Z" style="fill: #231f20; fill-rule: evenodd; stroke-width: 0px;"/>
    <path d="M31.83,50.18c-.1.02-.2-.03-.29-.14.1-.04.2.08.29.14Z" style="fill: #231f20; fill-rule: evenodd; stroke-width: 0px;"/>
    <path d="M26.8,54.49c-.15-.12-.53-.28-.53-.48.11.23.41.29.53.48Z" style="fill: #231f20; fill-rule: evenodd; stroke-width: 0px;"/>
    <path d="M28.33,52.03c-.29-.02-.43-.44-.71-.55.07-.13.31.28.45.25.04.06.06.11.08.17.06.05.18.03.19.14Z" style="fill: #231f20; fill-rule: evenodd; stroke-width: 0px;"/>
    <path d="M26.7,49.85c-.05.06-.1.08-.14.01,0-.03.03-.07.07-.1l.07.09Z" style="fill: #231f20; fill-rule: evenodd; stroke-width: 0px;"/>
    <path d="M25.2,49.7c-.22-.04-.51-.35-.58-.59-.03-.01-.07.02-.1-.03-.1-.09-.27-.36-.07-.13.32.21.44.49.75.75Z" style="fill: #231f20; fill-rule: evenodd; stroke-width: 0px;"/>
    <path d="M26.23,48.59c-.06,0-.12-.04-.17-.11.07-.03.18.07.17.11Z" style="fill: #231f20; fill-rule: evenodd; stroke-width: 0px;"/>
    <path d="M23.11,50.99c-.07.02-.14-.14-.2-.2.07.02.2.1.2.2Z" style="fill: #231f20; fill-rule: evenodd; stroke-width: 0px;"/>
    <path d="M25.71,48.77c-.1,0-.19-.14-.3-.16.04-.14.21.09.3.16Z" style="fill: #231f20; fill-rule: evenodd; stroke-width: 0px;"/>
    <path d="M25.94,48.39c-.11.02-.19-.12-.29-.2.1,0,.19.14.29.2Z" style="fill: #231f20; fill-rule: evenodd; stroke-width: 0px;"/>
    <path d="M22.37,51.24c-.08.06-.16-.04-.24-.09.08-.05.16.06.24.09Z" style="fill: #231f20; fill-rule: evenodd; stroke-width: 0px;"/>
    <path d="M22.83,50.66c-.13-.02-.35-.3-.45-.44.2.12.31.25.45.44Z" style="fill: #231f20; fill-rule: evenodd; stroke-width: 0px;"/>
    <path d="M25.61,48.15c-.2-.02-.26-.25-.33-.35.15.05.17.29.33.35Z" style="fill: #231f20; fill-rule: evenodd; stroke-width: 0px;"/>
    <path d="M24.29,48.77c-.08-.01-.15-.08-.22-.12.09-.09.15.06.22.12Z" style="fill: #231f20; fill-rule: evenodd; stroke-width: 0px;"/>
    <path d="M24.36,48.38c-.1,0-.11-.08-.16-.17.07-.02.11.13.16.17Z" style="fill: #231f20; fill-rule: evenodd; stroke-width: 0px;"/>
    <path d="M24.49,47.95c-.08.02-.23-.14-.07-.2.05.04,0,.07-.04.1.03.06.08.02.11.1Z" style="fill: #231f20; fill-rule: evenodd; stroke-width: 0px;"/>
    <path d="M22.32,48.89c.19.04.2.37,0,0h0Z" style="fill: #231f20; fill-rule: evenodd; stroke-width: 0px;"/>
    <path d="M21.24,49.3c-.13-.07-.19-.18-.27-.31.09.05.25.25.27.31Z" style="fill: #231f20; fill-rule: evenodd; stroke-width: 0px;"/>
    <path d="M21.04,49.33c-.05.09-.2-.11-.09-.13l.09.13Z" style="fill: #231f20; fill-rule: evenodd; stroke-width: 0px;"/>
    <path d="M19.6,50.06c-.08,0-.15-.07-.19-.15.07-.03.19.1.19.15Z" style="fill: #231f20; fill-rule: evenodd; stroke-width: 0px;"/>
    <path d="M19.15,49.25c-.28-.14-.22-.3,0,0h0Z" style="fill: #231f20; fill-rule: evenodd; stroke-width: 0px;"/>
    <path d="M23.97,54.83c-.07,0-.13-.05-.2-.03.01-.16-.2-.21-.25-.35.21.02.22.27.46.38Z" style="fill: #231f20; fill-rule: evenodd; stroke-width: 0px;"/>
    <path d="M23.38,50.48c-.06-.05,0-.09-.08-.14.03-.04.06-.01.09-.03-.08-.13-.18-.16-.26-.26.03,0,.06,0,.09-.03-.23-.03-.19-.33-.46-.57.34.17.77.81.99,1.01-.12.04-.21-.22-.33-.16-.08.06.1.14-.04.19Z" style="fill: #231f20; fill-rule: evenodd; stroke-width: 0px;"/>
    <path d="M25.31,48.39s-.03,0-.02.02c-.06.04-.09-.09-.09-.11.09-.03.3.28.12.09Z" style="fill: #231f20; fill-rule: evenodd; stroke-width: 0px;"/>
    <path d="M23.71,46.94l.1-.07c-.12-.14-.32-.36-.31-.52.2.12.32.61.57.62,0,.05.04.1.04.15.47.27.62.86,1.07,1.17-.41.04-.41-.66-.82-.67-.01-.05.02-.02.04,0-.15-.18-.35-.56-.68-.68Z" style="fill: #231f20; fill-rule: evenodd; stroke-width: 0px;"/>
    <path d="M20.81,49.43c-.07,0-.14-.07-.21-.08-.01-.03.24-.02.21.08Z" style="fill: #231f20; fill-rule: evenodd; stroke-width: 0px;"/>
    <path d="M78.49,63.02c.12-.05.22-.21.35-.26.3-.13.63-.14.9-.32.25-.16.44-.42.7-.57.2-.11.25-.18.37-.28.36-.28.71-.37.75-.73.2-.31.5-.57.66-.86.03-.04.11-.07.12-.08.42-.71.48-1.59,1.05-2.23-.01-.19-.07-.44-.04-.7.01-.11.11-.23.11-.34,0-.41-.33-.78-.18-1.16-.02-.09-.08-.09-.12-.14-.3-.68-.67-1.21-.84-1.76-.33-.23-.45-.61-.73-.83-.17-.14-.43-.24-.62-.36-.22-.14-.43-.23-.63-.39-.09-.21-.28-.17-.39-.33-.26-.04-.49-.14-.75-.17-.05-.06-.12-.08-.16-.16-.59-.16-1.22-.39-1.86-.27-.06.01-.18.04-.25.07-.43.2-1.13.42-1.48.24-.09.01-.06.08-.14.09-.11-.11-.44-.26-.64-.17-.07.03-.11.26-.25.35-.2.14-.51-.01-.7.11-.08.06-.12.26-.2.33-.21.2-.74.34-.97.36-.18.02-.3-.08-.41,0-.1.07-.13.25-.03.46-.14.59-1.12.57-1.53.95-.43-.04-.67.38-1.04.47-.07.02-.18-.01-.25.02-.12.04-.25.19-.39.28-.24.15-.48.22-.67.37-.43-.17-.57.23-.85.31-.11.03-.24-.03-.36.01-.1.03-.17.14-.28.17-.11.03-.25-.03-.36,0-.08.02-.12.1-.19.11-.09.02-.16-.04-.24,0-.09.04-.15.18-.24.22-.33.14-.74.12-1,.42-.63-.02-1.08.38-1.82.35-.16.09-.28.16-.47.14-.04.03-.02.1-.09.11-.38-.01-.71.31-1.11.27,0,.04-.02.07-.04.1-.54-.05-1.19.03-1.57.25-.33-.1-.68.11-1.06.14-.18.02-.37-.05-.53,0-.33.09-.76.05-1.08.11-.09.02-.18.12-.28.13-.17.03-.35-.06-.53-.01-.69.16-1.5.1-2.11.04-.19-.01-.35.08-.57.1-.36.04-.71-.15-1.07-.13-.09,0-.18.06-.26.06-.21,0-.41-.08-.63-.1-.54-.06-1.12.04-1.61-.17-.68.06-1.63-.18-2.39-.3-.21.11-.33-.07-.51-.09-.55-.08-1.29-.08-1.82-.36-2.44-.44-4.77-1.56-7.09-2.41-.11-.2-.41-.28-.6-.29,0-.09-.09-.14-.16-.2-.37.02-.63-.3-.99-.46-.18.11-.3-.14-.51-.1,0-.13.12-.03.06-.14-.4.16-1.03-.44-1.41-.57.02.02,0,.06-.03.05-.03-.12-.17,0-.25-.06-.59-.38-1.19-.4-1.76-.66-.03-.08-.1-.32-.24-.26.07.08.19.16.1.27-.12-.15-.35-.24-.52-.22-.19-.13-.22-.27-.44-.32-.04-.03-.06.15-.14.08-.19-.27-.4-.27-.57-.51-.15.05-.44-.14-.47-.26-.11-.02,0,.15-.08.13-.23-.14-.46-.25-.57-.48-.09,0-.17.04-.26,0-.05-.04.11-.09,0-.12-.12,0-.04.15-.13.21-.13-.06-.16.02-.26.03-.08-.19-.28-.15-.44-.23-.16-.08-.26-.25-.41-.34-.13-.07-.25-.04-.36-.16-.09-.09-.1-.25-.21-.34-.07-.04-.04.11-.13.04-.39-.34-.75-.71-1.15-.87.57.27.65.78,1.18.99-.04.15.22.1.15.28.08-.03.03-.15.11-.06.02.03,0,.07.06.1-.17.06-.09.14-.14.25.32.3.62.49.89.75.08.02.03-.1.1-.07.12.08.18.18.34.26-.05.13,0,.24-.15.32-.36-.36-1.02-.68-1.49-1.1-.14-.13-.19-.34-.4-.29.24.15.25.46.41.64.21.24.58.33.77.58.05.07.04.13.1.19.04.04.18.05.22.1.05.06,0,.11.06.15.1.08.25.07.36.16.18.16.29.4.51.54,0,.07-.1.16-.16.14-.24-.21-.28-.24-.54-.44.02.03.02.07-.02.1-.07-.07-.07-.12-.17-.11.19.15.02.31-.12.34-.44-.42-1.02-.88-1.32-1.28-.08,0-.17.04-.25,0-.46-.33-.85-.83-1.3-1.24.31.65.92,1.08,1.54,1.58,0,.04-.07.08,0,.13.3.18.57.47.78.63,0,.17,0,.35-.02.53.71.46.84,1.27,1.47,1.8-.06.07-.03.13-.05.2-.1.02-.19.06-.29.06-.11-.08-.24-.14-.29-.26-.69-.26-1.36-1.01-2.08-1.51-.18.04-.2.18-.23.32.24.37.67.46.89.89-.11.37-.4.45-.68.23-.47-.35-1.15-1.1-1.39-1.39-.34-.26-.68-.53-1-.82-.3-.31-.6-.62-.9-.93-.6-.62-1.19-1.26-1.79-1.92.54.84,1.3,1.38,1.79,2.13.05-.05.09-.04.13.01.53.68,1.23,1.35,1.85,1.79.08.38.69.62.77,1-.29.2-.58.12-.89-.05.26.22.41.54.62.74.17.17.55.36.59.49.01.03-.08.05-.04.09-.07-.07.14.1.16.11.12.05.12.02.23.13.14.14.13.14.18.28.48.49,1.05.83,1.56,1.28.06.05.16.13.18.14.04.06-.04.07.02.13.03.03.06-.04.11.01.19.18.42.38.64.54.53.39,1.15.88,1.61,1.16.09.08-.1.08.04.17.38.28.77.57,1.15.86.4.28.83.53,1.26.79.06.05-.06.13.05.17.11.09.15-.06.26.01.05.07.09.15.09.23.94.69,2.09,1.05,3.17,1.53,1.02.42,2.06.81,3.04,1.18.79.25,1.58.38,2.25.69.96.23,1.8.4,2.7.64.64.17,1.35.37,1.92.41.1,0,.22-.04.33-.02.17.03.32.17.48.2.45.09.93.06,1.39.12.51.08,1,.15,1.49.23.28.04.56-.02.84,0,.19,0,.38.1.57.11.55.03,1.11-.07,1.62-.01.68.1,1.39.2,2.09.06.77.08,1.72.08,2.45-.05.62.19,1.23-.1,1.91-.1.07,0,.13.04.2.05,1.04.05,2.11-.43,2.95-.42.28-.2.56-.09.85-.11.31-.02.57-.18.86-.25.09-.02.19.02.29,0,.3-.05.56-.21.87-.31.47-.14,1.04-.02,1.54-.32.45,0,1.1-.05,1.53-.33.87-.01,1.58-.53,2.41-.69.28-.06.58,0,.8-.22.33.05.64-.15.98-.25.34-.11.72-.15,1.08-.24.52-.13,1.07-.5,1.56-.33.42.57.37-.49.81-.52.26.04.3.23.48.43.22.02.37-.11.53-.23.23-.02.5.2.78.09ZM29.68,51.35s.03-.04.02-.06c.14-.07.1.17-.02.06ZM29.6,51.35c-.18-.14-.53-.25-.57-.45-.03-.03-.09.15-.17.13-.02-.12-.07-.25-.19-.37.16-.19.3.16.46,0,.08.11.12.16.24.11.15.23.29.16.39.35-.14.07-.04.11-.16.22Z" style="fill: #231f20; fill-rule: evenodd; stroke-width: 0px;"/>
  </g>
  <g>
    <path d="M89.36,90.3c1.78-6.65,2.24-13.61,1.39-20.42-.2-1.7-.52-3.39-.88-5.07-.2-.84-.39-1.67-.63-2.5-.22-.82-.46-1.66-.82-2.63-.72-1.9-1.76-4.28-4.2-6.4-1.19-1-2.57-1.8-4.24-2.29-1.65-.49-3.7-.61-5.7-.01l2.77,9.29c.04.05.09.61-.09,1.18-.15.57-.48,1.01-.45.96l.08-.08.04-.04h.01s0-.01,0-.01c.08-.07-.7.64-.37.34h0s0,0,0,0l.02.03s.08.11.14.21c.12.2.28.54.45,1.01.17.45.35,1.07.53,1.72.19.63.33,1.27.48,1.91.27,1.29.53,2.58.68,3.9.65,5.24.3,10.63-1.07,15.71l11.85,3.19Z" style="fill: none; stroke-width: 0px;"/>
    <path d="M77.47,62.55s-.06,0-.07-.02c.06-.03.12-.03.07.02Z" style="fill: #231f20; fill-rule: evenodd; stroke-width: 0px;"/>
    <path d="M83.81,57.03c-.05-.01-.19-.07-.07-.15.06.05.05.1.07.15Z" style="fill: #231f20; fill-rule: evenodd; stroke-width: 0px;"/>
    <path d="M83.82,56.73c-.06.03-.08-.09-.12-.11.07-.05.13.06.12.11Z" style="fill: #231f20; fill-rule: evenodd; stroke-width: 0px;"/>
    <path d="M82.45,57.07c-.05,0-.13-.03-.12-.09.06-.04.08.07.12.09Z" style="fill: #231f20; fill-rule: evenodd; stroke-width: 0px;"/>
    <path d="M83.22,55.95c-.1,0-.19-.05-.27-.16.1-.03.18.1.27.16Z" style="fill: #231f20; fill-rule: evenodd; stroke-width: 0px;"/>
    <path d="M78.31,60.3s-.18,0-.12-.12c0,.1.13.04.12.12Z" style="fill: #231f20; fill-rule: evenodd; stroke-width: 0px;"/>
    <path d="M79.98,57.97c-.2.07-.25-.22-.44-.2.06-.14.19.1.29.04.02.03.03.07.04.11.04.02.13-.04.11.06Z" style="fill: #231f20; fill-rule: evenodd; stroke-width: 0px;"/>
    <path d="M78.92,56.84c-.03.07-.06.12-.09.09,0-.03.01-.07.03-.12l.06.03Z" style="fill: #231f20; fill-rule: evenodd; stroke-width: 0px;"/>
    <path d="M78.03,57.6c-.12.11-.29.07-.37-.04-.02.02-.03.06-.05.05-.06,0-.18-.07-.06-.04.18-.07.28.05.47.04Z" style="fill: #231f20; fill-rule: evenodd; stroke-width: 0px;"/>
    <path d="M78.35,56.13s-.08.04-.14.02c.03-.07.13-.06.14-.02Z" style="fill: #231f20; fill-rule: evenodd; stroke-width: 0px;"/>
    <path d="M77.31,59.91c-.02.06-.03,0-.04.01.02-.04.05-.08.04-.01Z" style="fill: #231f20; fill-rule: evenodd; stroke-width: 0px;"/>
    <path d="M78.1,56.59c-.06.06-.14.02-.2.07-.02-.12.14-.08.2-.07Z" style="fill: #231f20; fill-rule: evenodd; stroke-width: 0px;"/>
    <path d="M78.12,56.16c-.05.08-.15.04-.23.04.06-.06.15-.02.23-.04Z" style="fill: #231f20; fill-rule: evenodd; stroke-width: 0px;"/>
    <path d="M77.13,60.61c-.02.1-.02.09-.03.11.02-.09.02-.08.03-.11Z" style="fill: #231f20; fill-rule: evenodd; stroke-width: 0px;"/>
    <path d="M77.25,59.89c-.03.08-.07.05-.09.03.03-.07.05-.06.09-.03Z" style="fill: #231f20; fill-rule: evenodd; stroke-width: 0px;"/>
    <path d="M77.86,56.19c-.11.12-.23,0-.31-.03.1-.07.2.09.31.03Z" style="fill: #231f20; fill-rule: evenodd; stroke-width: 0px;"/>
    <path d="M77.46,57.54s-.07.05-.11.07c0-.13.07-.07.11-.07Z" style="fill: #231f20; fill-rule: evenodd; stroke-width: 0px;"/>
    <path d="M77.37,57.23c-.04.07-.06.03-.11.01.01-.07.08,0,.11-.01Z" style="fill: #231f20; fill-rule: evenodd; stroke-width: 0px;"/>
    <path d="M77.27,56.85c-.02.08-.13.09-.1-.07.03-.01.03.04.03.09.04.01.04-.05.08-.02Z" style="fill: #231f20; fill-rule: evenodd; stroke-width: 0px;"/>
    <path d="M77.03,59.14c.03-.13.08.06,0,0h0Z" style="fill: #231f20; fill-rule: evenodd; stroke-width: 0px;"/>
    <path d="M77.06,60.24c0,.06,0,.04,0,.02,0-.04,0-.05,0-.02Z" style="fill: #231f20; fill-rule: evenodd; stroke-width: 0px;"/>
    <path d="M77.07,60.42s0-.04,0-.01c0,0,0,.01,0,.01Z" style="fill: #231f20; fill-rule: evenodd; stroke-width: 0px;"/>
    <path d="M77.07,60.39s0-.02,0-.03c0,.03,0,.02,0,.03Z" style="fill: #231f20; fill-rule: evenodd; stroke-width: 0px;"/>
    <path d="M77.05,60.28s0-.03,0,0h0Z" style="fill: #231f20; fill-rule: evenodd; stroke-width: 0px;"/>
    <path d="M76.82,61.9s-.03.05-.06.1c.06-.1,0-.01.03-.06.07-.11-.01.03.04-.03Z" style="fill: #231f20; fill-rule: evenodd; stroke-width: 0px;"/>
    <path d="M77.39,59.37s0-.06-.02-.04c0-.05.02-.05.02-.09-.03-.03-.06.01-.08,0,0-.02.01-.05.02-.09-.06.15-.07-.1-.16-.04.09-.17.25-.02.33-.03-.04.11-.08,0-.11.12-.02.09.03.02,0,.15Z" style="fill: #231f20; fill-rule: evenodd; stroke-width: 0px;"/>
    <path d="M77.79,56.57s-.01.03,0,.03c-.02.07-.07,0-.08-.02.03-.08.24,0,.09-.01Z" style="fill: #231f20; fill-rule: evenodd; stroke-width: 0px;"/>
    <path d="M76.6,56.87v-.12c-.11.02-.27.07-.36-.02.11-.12.39.06.46-.14.02.03.06.03.09.06.28-.22.59,0,.9-.08-.17.3-.43-.16-.6.17-.02-.02,0-.03.02-.03-.12,0-.37-.06-.5.15Z" style="fill: #231f20; fill-rule: evenodd; stroke-width: 0px;"/>
    <path d="M77.07,60.42s0-.02,0-.03c0,0,0,.01,0,.03Z" style="fill: #231f20; fill-rule: evenodd; stroke-width: 0px;"/>
    <path d="M78.26,83.7c-.01.06.08.15.07.21-.03.15-.16.26-.13.42.03.14.15.3.16.44,0,.11.04.15.06.23.06.22-.03.38.26.53.17.19.25.39.4.56.02.03,0,.06,0,.08.38.43,1.09.81,1.33,1.29.16.08.4.17.6.29.09.05.13.14.23.19.34.18.82.23,1.05.45.09.03.12.01.18.02.72.2,1.34.3,1.89.49.36-.02.73.1,1.07.1.21,0,.42-.06.62-.09.23-.03.42-.07.65-.08.22.06.29-.04.47-.01.17-.1.38-.15.54-.25.08,0,.13-.02.22,0,.45-.19.98-.37,1.2-.73.02-.03.06-.1.07-.15.06-.29.23-.73.56-.82.03-.05-.04-.06,0-.11.15,0,.44-.11.46-.25,0-.05-.17-.17-.18-.28-.02-.16.26-.26.25-.41,0-.07-.17-.16-.19-.24-.07-.19.06-.53.15-.66.07-.11.21-.13.2-.22-.01-.08-.16-.17-.39-.19-.47-.3,0-.82-.17-1.19.22-.23-.06-.51,0-.75.01-.05.08-.1.08-.15,0-.08-.08-.2-.1-.31-.04-.19-.01-.35-.07-.5.32-.2,0-.4.02-.6.01-.07.11-.14.12-.22,0-.07-.08-.14-.06-.22.01-.07.11-.15.12-.22,0-.05-.05-.1-.04-.14.01-.06.09-.09.08-.15,0-.07-.12-.14-.13-.2-.03-.24.11-.49-.11-.73.2-.4-.08-.76.14-1.24-.06-.12-.09-.21-.04-.33-.02-.03-.09-.03-.09-.07.09-.25-.16-.51-.05-.77-.04,0-.07-.02-.09-.04.14-.35.17-.8-.02-1.08.14-.22-.03-.47-.05-.73,0-.12.07-.25.04-.37-.07-.23,0-.53-.06-.75-.02-.06-.11-.12-.12-.19-.03-.11.05-.24,0-.36-.2-.46-.12-1.02-.16-1.43-.01-.13-.12-.23-.17-.37-.08-.23.06-.5,0-.73-.02-.06-.08-.11-.1-.16-.05-.14-.01-.28-.04-.43-.06-.37-.28-.71-.18-1.08-.26-.41-.31-1.06-.42-1.56-.18-.09-.06-.22-.1-.33-.14-.35-.41-.77-.36-1.18-.63-1.53-.91-3.15-1.73-4.64.08-.16-.07-.34-.19-.42.07-.05.03-.12.04-.19-.26-.14-.21-.46-.36-.71-.21,0-.14-.21-.32-.26.08-.09.11.02.13-.08-.4-.03-.52-.69-.75-.91,0,.02-.04.05-.05.03.05-.11-.13-.05-.16-.13-.3-.46-.81-.62-1.18-.92,0-.08.04-.3-.1-.26.04.08.11.16-.02.24-.04-.14-.21-.25-.36-.25-.12-.13-.12-.24-.3-.29-.02-.03-.09.13-.14.06-.1-.23-.29-.24-.39-.45-.14.05-.36-.09-.37-.2-.09,0-.02.14-.09.13-.18-.1-.35-.17-.44-.35-.08.03-.15.08-.22.05-.05-.02.09-.1,0-.11-.1.02-.04.14-.11.22-.1-.02-.13.06-.22.1-.06-.14-.23-.05-.35-.07-.12-.02-.21-.13-.33-.15-.1-.01-.19.05-.28,0-.08-.04-.1-.17-.19-.2-.06,0-.02.12-.08.09-.33-.1-.67-.19-.96-.07.44-.12.61.21,1,.16-.01.14.17,0,.14.18.06-.06,0-.14.07-.1.02.02.01.05.05.06-.12.12-.05.15-.08.27.24.12.46.17.66.3.06,0,.03-.09.08-.09.09.03.13.09.25.12-.04.11-.02.2-.15.3-.25-.2-.72-.24-1.05-.38-.1-.04-.15-.2-.29-.05.17.02.19.26.3.34.14.1.39.04.52.17.03.04.02.09.05.12.03.02.13-.02.15,0,.03.03,0,.08.03.1.07.03.17,0,.23.05.11.09.13.27.26.34-.02.06-.12.15-.16.14-.12-.12-.15-.14-.29-.24,0,.02,0,.05-.04.09-.03-.04-.03-.08-.1-.05.1.08-.06.25-.16.3-.2-.23-.56-.34-.73-.53-.05.04-.11.11-.16.11-.27-.06-.5-.25-.79-.26.24.26.56.29.92.42,0,.03-.05.1-.01.1.18.01.32.13.43.18-.03.14-.07.27-.12.41.37.16.17.71.37.95-.07.06-.07.09-.12.14-.07.03-.16.08-.23.1-.04-.03-.11-.04-.09-.12-.35.01-.46-.35-.79-.38-.11.1-.15.21-.21.33.04.14.26.04.24.27-.2.29-.4.45-.47.42-.12-.06-.27-.21-.32-.28-.4,0-.64-.11-.71.06.02.06.13-.12.22.04.02-.06.03-.09.04-.08.1.07.25.13.44.11-.06.22.18.07.1.29-.22.26-.34.36-.43.41.05.01.02.13.04.17.01.03.12-.01.08.06,0,.02-.06.06-.06.07,0-.01.03,0,.03,0,.04-.02.06-.04.06-.02,0,.03,0,.03-.04.1.02.09.2.14.22.3,0,.02.02.04.02.04,0,.02-.07.05-.06.07,0,.01.06-.03.06-.01,0,.07.02.14.06.19.1.12.13.36.21.5,0,.04-.12.04-.1.09.05.28.12.6.21.96,0,.03-.13.05-.1.08,0,.06.13,0,.14.04-.03.04-.06.08-.12.12.03.43.3.89.48,1.38.17.45.31.92.43,1.37.1.35.31.66.3,1,.18.41.25.78.35,1.18.07.29.05.62.16.86.02.04.1.08.1.13.01.07-.08.17-.06.24.03.2.19.39.2.59l.05.67c.01.13.12.23.15.36.02.08-.06.18-.05.26.03.24.18.47.18.7,0,.31-.1.63.06.93-.06.35-.04.76.04,1.09-.23.28.02.54-.02.85,0,.03-.05.05-.06.09-.16.46.16.96,0,1.33.16.14-.02.26-.05.38-.04.14.07.27.06.4,0,.04-.06.08-.07.13-.03.13.07.27.08.42.02.22-.25.45-.1.71-.12.19-.28.47-.15.7-.26.36-.01.77-.16,1.14-.05.13-.22.23-.09.38-.18.12-.1.29-.14.46-.03.16-.15.32-.21.49-.09.23,0,.55-.35.69-.69-.02.28.29.12.46-.15.08-.34.04-.59.04-.12.07-.07.17-.03.26-.08.09-.4.11-.43.24ZM81.13,57.1s.03-.04.03-.06c.13-.08.05.14-.03.06ZM81.06,57.12c-.13-.09-.38-.13-.41-.28-.02-.02-.08.15-.14.15,0-.1-.04-.19-.13-.26.14-.21.24.05.38-.12.06.07.09.11.19.04.1.18.22.09.28.25-.12.08-.05.1-.17.21Z" style="fill: #231f20; fill-rule: evenodd; stroke-width: 0px;"/>
  </g>
  <g>
    <path d="M28.22,85.86c-.38-.27-.91-.78-1.36-1.62-.46-.82-.84-1.9-1.07-3.05-.46-2.24-.34-5.03.16-7.94.25-1.46.59-2.98.99-4.55.4-1.61.79-3.01,1.26-4.33.46-1.3,1.01-2.44,1.53-3.21.26-.37.51-.67.69-.82.18-.15.29-.21.35-.25l-4.59-11.39c-1.52.62-2.86,1.51-3.95,2.49-1.1.98-1.92,2.02-2.64,3.05-1.39,2.06-2.25,4.06-2.95,5.97-.69,1.9-1.19,3.8-1.62,5.5-.44,1.75-.85,3.56-1.18,5.46-.64,3.81-.98,7.96-.09,12.44.45,2.19,1.16,4.39,2.36,6.56,1.17,2.15,2.92,4.32,5.38,5.96l6.72-10.27Z" style="fill: none; stroke-width: 0px;"/>
    <path d="M18.48,58.48s-.02-.09,0-.14c.06.04.07.13,0,.14Z" style="fill: #231f20; fill-rule: evenodd; stroke-width: 0px;"/>
    <path d="M26.7,60.6s-.04-.15.08-.07c-.01.05-.05.05-.08.07Z" style="fill: #231f20; fill-rule: evenodd; stroke-width: 0px;"/>
    <path d="M26.93,60.57c-.05-.04.03-.06.03-.1.07.04.02.1-.03.1Z" style="fill: #231f20; fill-rule: evenodd; stroke-width: 0px;"/>
    <path d="M26.04,59.58s-.03-.11.03-.11c.05.04-.03.07-.03.11Z" style="fill: #231f20; fill-rule: evenodd; stroke-width: 0px;"/>
    <path d="M27.28,60.11c-.05-.07-.04-.13.02-.18.06.07,0,.12-.02.18Z" style="fill: #231f20; fill-rule: evenodd; stroke-width: 0px;"/>
    <path d="M22.11,56.05c.06-.11.13-.41.3-.4-.18.08-.16.32-.3.4Z" style="fill: #231f20; fill-rule: evenodd; stroke-width: 0px;"/>
    <path d="M24.65,57.41c-.06-.21.25-.3.26-.51.13.07-.14.22-.08.33-.03.03-.08.04-.12.05-.02.05.03.14-.07.13Z" style="fill: #231f20; fill-rule: evenodd; stroke-width: 0px;"/>
    <path d="M26.04,56.4c-.06-.05-.09-.1-.04-.12.03,0,.06.04.1.07l-.05.05Z" style="fill: #231f20; fill-rule: evenodd; stroke-width: 0px;"/>
    <path d="M25.85,55.17c0-.19.22-.36.4-.38,0-.03-.03-.07.01-.08.06-.07.26-.15.1-.03-.13.23-.35.26-.51.49Z" style="fill: #231f20; fill-rule: evenodd; stroke-width: 0px;"/>
    <path d="M26.91,56.24c-.01-.05.01-.09.05-.11.04.06-.02.12-.05.11Z" style="fill: #231f20; fill-rule: evenodd; stroke-width: 0px;"/>
    <path d="M24.51,53.13c-.02-.07.12-.1.16-.16-.01.06-.08.17-.16.16Z" style="fill: #231f20; fill-rule: evenodd; stroke-width: 0px;"/>
    <path d="M26.68,55.78c-.02-.08.07-.13.08-.21.11.06-.04.15-.08.21Z" style="fill: #231f20; fill-rule: evenodd; stroke-width: 0px;"/>
    <path d="M27.01,56.06c-.03-.09.06-.13.11-.19.01.08-.07.12-.11.19Z" style="fill: #231f20; fill-rule: evenodd; stroke-width: 0px;"/>
    <path d="M24.26,52.43c-.06-.09.03-.14.08-.21.04.08-.05.14-.08.21Z" style="fill: #231f20; fill-rule: evenodd; stroke-width: 0px;"/>
    <path d="M24.79,52.93c.01-.12.25-.27.37-.34-.1.16-.21.24-.37.34Z" style="fill: #231f20; fill-rule: evenodd; stroke-width: 0px;"/>
    <path d="M27.14,55.86c-.02-.16.15-.15.21-.19-.01.11-.19.07-.21.19Z" style="fill: #231f20; fill-rule: evenodd; stroke-width: 0px;"/>
    <path d="M26.49,54.59c0-.06.05-.11.08-.16.08.1-.03.12-.08.16Z" style="fill: #231f20; fill-rule: evenodd; stroke-width: 0px;"/>
    <path d="M26.8,54.74c0-.09.05-.08.12-.1.02.06-.09.06-.12.1Z" style="fill: #231f20; fill-rule: evenodd; stroke-width: 0px;"/>
    <path d="M27.15,54.95c-.03-.08.08-.16.14-.01-.03.03-.05-.02-.08-.06-.05.01,0,.07-.06.07Z" style="fill: #231f20; fill-rule: evenodd; stroke-width: 0px;"/>
    <path d="M26.3,52.78c-.04.17-.31.11,0,0h0Z" style="fill: #231f20; fill-rule: evenodd; stroke-width: 0px;"/>
    <path d="M25.99,51.68c.06-.11.18-.14.3-.18-.05.07-.25.17-.3.18Z" style="fill: #231f20; fill-rule: evenodd; stroke-width: 0px;"/>
    <path d="M25.98,51.48c-.08-.06.12-.16.13-.06l-.13.06Z" style="fill: #231f20; fill-rule: evenodd; stroke-width: 0px;"/>
    <path d="M25.49,49.96c.01-.07.1-.13.18-.15.01.08-.13.16-.18.15Z" style="fill: #231f20; fill-rule: evenodd; stroke-width: 0px;"/>
    <path d="M26.34,49.71c.19-.23.32-.14,0,0h0Z" style="fill: #231f20; fill-rule: evenodd; stroke-width: 0px;"/>
    <path d="M21.18,53.64c0-.06.02-.12,0-.18.15.01.16-.17.28-.22.01.19-.22.19-.28.4Z" style="fill: #231f20; fill-rule: evenodd; stroke-width: 0px;"/>
    <path d="M24.98,53.46s.08.01.11-.05c.03.03.01.05.04.09.11-.05.13-.13.21-.19,0,.03,0,.05.03.09.01-.21.27-.11.47-.31-.14.28-.65.54-.81.71-.05-.11.18-.15.11-.27-.05-.08-.11.07-.17-.06Z" style="fill: #231f20; fill-rule: evenodd; stroke-width: 0px;"/>
    <path d="M26.91,55.54s0-.03-.02-.02c-.04-.06.05-.06.07-.05.03.08-.18.18-.05.07Z" style="fill: #231f20; fill-rule: evenodd; stroke-width: 0px;"/>
    <path d="M27.84,54.55l.05.11c.1-.05.26-.16.37-.09-.08.13-.44.07-.43.28-.04-.02-.07,0-.11-.01-.16.34-.57.31-.75.62-.08-.36.45-.17.41-.53.03,0,.02.03,0,.03.13-.08.37-.17.45-.41Z" style="fill: #231f20; fill-rule: evenodd; stroke-width: 0px;"/>
    <path d="M25.92,51.24c.01-.07.08-.11.1-.18.03,0-.01.23-.1.18Z" style="fill: #231f20; fill-rule: evenodd; stroke-width: 0px;"/>
    <path d="M16.55,90.93c.06.1.23.15.29.26.16.24.2.53.43.74.2.19.48.29.67.49.14.15.22.17.34.25.35.24.52.53.86.45.34.07.68.23.98.27.05,0,.09.07.11.08.79.08,1.56-.27,2.29-.16.15-.11.33-.29.55-.41.1-.05.22-.04.3-.11.31-.24.49-.69.82-.8.06-.07.04-.11.07-.17.41-.62.7-1.18,1.06-1.64.1-.35.34-.66.46-.97.08-.19.12-.4.19-.58.08-.21.13-.38.23-.59.14-.18.11-.26.22-.41.03-.16.1-.35.13-.5.04-.06.06-.11.12-.18.13-.39.37-.84.35-1.07,0-.02,0-.07-.02-.09-.1-.1-.2-.34,0-.59,0-.04-.06,0-.05-.03.11-.1.28-.31.23-.37-.01-.02-.2.05-.25.02-.09-.04.09-.25.02-.28-.03-.02-.2.04-.25.02-.14-.04-.18-.25-.16-.35.01-.09.13-.17.08-.21-.04-.03-.2,0-.41.11-.53.1-.32-.42-.62-.55.11-.23-.23-.28-.26-.45,0-.03.04-.09.03-.12-.02-.06-.14-.1-.19-.16-.1-.11-.12-.22-.23-.3.24-.25-.12-.28-.14-.42,0-.05.07-.13.05-.19-.01-.05-.11-.08-.11-.14,0-.06.08-.14.06-.19,0-.04-.07-.06-.07-.09,0-.04.06-.09.04-.13-.02-.04-.15-.07-.17-.12-.08-.17.01-.39-.24-.52.15-.34-.2-.57-.03-.97-.07-.09-.12-.15-.07-.26-.02-.02-.1-.01-.09-.05.07-.2-.18-.41-.09-.63-.04,0-.07-.01-.09-.03.13-.3.15-.67-.02-.91.15-.18-.02-.4-.02-.63,0-.11.09-.21.06-.31-.06-.2.03-.46.01-.65,0-.06-.09-.12-.1-.18-.02-.1.08-.21.04-.32-.13-.44.04-.92.09-1.3.01-.12-.07-.23-.08-.37-.02-.23.17-.43.16-.65,0-.06-.05-.12-.05-.17,0-.14.07-.25.09-.39.04-.34-.05-.72.15-1.02-.11-.45.08-1.05.16-1.55-.13-.15.03-.22.03-.34.02-.36-.06-.86.16-1.2.11-1.66.64-3.22.81-4.73.15-.07.14-.27.09-.4.08,0,.1-.06.14-.1-.12-.24.11-.4.14-.64-.16-.13.03-.2-.08-.34.11,0,.07.08.15.04-.27-.27.07-.68.08-.92,0,.01-.06,0-.05-.03.1-.01-.05-.11-.02-.16.13-.39-.05-.79,0-1.17.06-.02.25-.05.15-.14-.05.04-.07.12-.2.05.09-.07.1-.22.03-.34.05-.12.15-.14.12-.29.02-.02-.14-.05-.11-.1.15-.12.09-.26.24-.36-.09-.11-.02-.29.07-.3-.02-.08-.13-.02-.13-.07.04-.15.07-.3.23-.35-.03-.06-.09-.13-.07-.19.01-.04.1.09.1.02-.03-.09-.13-.05-.21-.12,0-.09-.06-.12-.11-.2.13-.03.04-.19.06-.3.02-.12.13-.16.16-.26.03-.09-.03-.18.03-.25.05-.06.17-.03.22-.1.01-.05-.1-.05-.06-.11.18-.24.37-.46.41-.76-.08.41-.45.39-.49.76-.13-.06-.03.16-.19.07.04.07.13.05.08.09-.02,0-.05,0-.07.03-.09-.14-.13-.09-.24-.14-.17.2-.24.41-.37.59,0,.06.09.03.08.09-.03.08-.09.12-.11.23-.11-.05-.2-.03-.31-.14.2-.24.25-.73.49-1.02.07-.09.24-.1.14-.27-.07.17-.31.13-.43.23-.15.13-.13.41-.27.53-.04.04-.1.02-.13.06-.02.03.01.13-.02.16-.03.03-.09,0-.1.03-.04.07,0,.18-.05.25-.09.12-.26.18-.32.34-.06,0-.17-.09-.16-.13.11-.16.13-.19.23-.37-.02.01-.05,0-.09-.02.04-.05.08-.04.05-.12-.08.13-.26-.01-.32-.12.26-.29.45-.74.73-.92-.03-.07-.08-.14-.06-.2.18-.33.51-.58.76-.89-.46.17-.71.61-.99,1.05-.03,0-.09-.07-.11-.02-.07.23-.24.42-.32.57-.15-.02-.3-.03-.46-.05-.21.52-.89.57-1.15,1.04-.08-.05-.12-.02-.19-.04-.04-.07-.11-.15-.14-.22.04-.08.04-.19.14-.22.01-.54.53-1,.78-1.57-.07-.15-.2-.17-.33-.21-.25.19-.25.53-.56.68-.36-.1-.5-.34-.38-.56.22-.36.68-.93.91-1.11.65-1.12,1.73-2,2.94-2.89-.77.37-1.24.97-1.86,1.34.05.05.05.09,0,.12-.54.43-1.03.99-1.3,1.49-.32.05-.38.56-.7.62-.24-.25-.25-.5-.16-.75-.14.22-.38.34-.52.51-.11.13-.19.44-.3.47-.03,0-.06-.06-.09-.03.04-.06-.05.12-.06.13-.02.1.01.1-.06.19-.09.11-.09.11-.21.14-.29.39-.44.84-.71,1.22-.03.04-.07.13-.07.13-.04.03-.07-.03-.11.02-.02.03.05.05.02.09-.11.15-.23.32-.3.49-.17.41-.47.85-.59,1.19-.05.06-.11-.07-.14.03-.31.54-.59,1.11-.83,1.7-.03.04-.14-.04-.14.03-.05.07.1.1.06.17-.05.03-.11.06-.18.06-.34.65-.45,1.39-.6,2.1-.16.67-.3,1.29-.45,1.9-.1.46-.09.93-.27,1.33-.04.58-.16,1.07-.27,1.6-.08.38-.24.8-.24,1.14,0,.06.05.14.04.21-.02.1-.14.18-.16.28-.06.27,0,.57-.05.84-.07.3-.13.6-.2.89-.03.17.03.35.01.52-.01.11-.11.22-.13.34-.04.33.04.69-.03,1-.09.42-.28.84-.17,1.29-.13.47-.18,1.06-.16,1.53-.25.37-.04.78-.1,1.21,0,.05-.05.08-.07.12-.19.66.14,1.4,0,1.95.17.2,0,.38-.02.57-.03.21.1.4.12.6,0,.07-.05.13-.05.2,0,.21.11.4.16.62.07.33-.14.73.09,1.09-.06.32-.11.79.11,1.1-.1.63.31,1.15.37,1.77.03.21-.07.44.13.6-.09.26.08.48.16.74.08.26.08.56.16.83.12.4.42.81.27,1.23-.55.43.48.24.5.6-.04.22-.22.29-.4.48,0,.19.12.3.25.41.04.2-.17.47-.03.7ZM25.61,58.47s.05.03.06.02c.1.11-.12.06-.06-.02ZM25.58,58.41c.06-.12.06-.36.21-.37.02-.02-.15-.08-.16-.14.1,0,.18-.02.24-.1.2.15-.03.21.14.35-.06.05-.09.07-.02.16-.16.07-.05.19-.18.24-.1-.11-.1-.04-.23-.14Z" style="fill: #231f20; fill-rule: evenodd; stroke-width: 0px;"/>
  </g>
  <g>
    <path d="M83.67,80.51c-4.04,4-9.19,7.06-14.78,9.12-5.6,2.06-11.65,3.14-17.71,3.25-6.06.13-12-.71-16.88-3.01-2.39-1.12-4.54-2.66-6.22-4.48-1.68-1.81-2.82-3.86-3.23-5.83l-12.02,2.51c.98,4.62,3.37,8.56,6.24,11.65,2.89,3.11,6.31,5.5,9.99,7.24,3.64,1.72,7.44,2.79,11.2,3.43,3.76.63,7.5.84,11.17.76,7.36-.15,14.7-1.43,21.7-4.01,6.98-2.57,13.67-6.46,19.19-11.92l-8.64-8.72Z" style="fill: none; stroke-width: 0px;"/>
    <path d="M25.65,97.87c-.07,0-.15-.03-.24-.09.06-.04.21-.01.24.09Z" style="fill: #231f20; fill-rule: evenodd; stroke-width: 0px;"/>
    <path d="M27.9,89.21c-.07,0-.24-.07-.14-.17.08.05.09.11.14.17Z" style="fill: #231f20; fill-rule: evenodd; stroke-width: 0px;"/>
    <path d="M27.8,88.87c-.05.04-.12-.09-.18-.12.06-.06.17.06.18.12Z" style="fill: #231f20; fill-rule: evenodd; stroke-width: 0px;"/>
    <path d="M26.3,89.24c-.06,0-.18-.06-.18-.14.06-.04.12.1.18.14Z" style="fill: #231f20; fill-rule: evenodd; stroke-width: 0px;"/>
    <path d="M26.93,87.99c-.11,0-.21-.06-.32-.19.11-.02.21.12.32.19Z" style="fill: #231f20; fill-rule: evenodd; stroke-width: 0px;"/>
    <path d="M21.42,91.72c-.17-.17-.6-.45-.6-.69.12.29.47.43.6.69Z" style="fill: #231f20; fill-rule: evenodd; stroke-width: 0px;"/>
    <path d="M23.12,89.34c-.31-.09-.47-.59-.78-.78.08-.13.34.38.49.38.04.07.06.14.09.2.07.07.2.07.2.2Z" style="fill: #231f20; fill-rule: evenodd; stroke-width: 0px;"/>
    <path d="M21.48,86.47c-.06.05-.12.06-.16-.03,0-.04.04-.07.09-.09l.07.12Z" style="fill: #231f20; fill-rule: evenodd; stroke-width: 0px;"/>
    <path d="M19.9,85.81c-.24-.12-.47-.6-.5-.9-.03-.03-.08,0-.1-.08-.09-.15-.21-.51-.05-.18.29.37.34.74.65,1.15Z" style="fill: #231f20; fill-rule: evenodd; stroke-width: 0px;"/>
    <path d="M21.14,84.95c-.07-.02-.12-.09-.16-.19.07-.01.16.14.16.19Z" style="fill: #231f20; fill-rule: evenodd; stroke-width: 0px;"/>
    <path d="M17.5,86.46c-.08-.01-.12-.23-.18-.32.07.06.2.21.18.32Z" style="fill: #231f20; fill-rule: evenodd; stroke-width: 0px;"/>
    <path d="M20.58,84.96c-.11-.04-.17-.22-.27-.3.06-.14.2.18.27.3Z" style="fill: #231f20; fill-rule: evenodd; stroke-width: 0px;"/>
    <path d="M20.89,84.62c-.11-.02-.17-.21-.25-.33.1.05.17.23.25.33Z" style="fill: #231f20; fill-rule: evenodd; stroke-width: 0px;"/>
    <path d="M16.69,86.41c-.1.03-.16-.13-.24-.22.1-.02.16.14.24.22Z" style="fill: #231f20; fill-rule: evenodd; stroke-width: 0px;"/>
    <path d="M17.26,85.93c-.13-.09-.32-.51-.39-.74.17.25.26.44.39.74Z" style="fill: #231f20; fill-rule: evenodd; stroke-width: 0px;"/>
    <path d="M20.61,84.23c-.2-.1-.22-.38-.25-.52.13.12.1.39.25.52Z" style="fill: #231f20; fill-rule: evenodd; stroke-width: 0px;"/>
    <path d="M19.13,84.39c-.07-.05-.13-.16-.19-.24.11-.07.14.13.19.24Z" style="fill: #231f20; fill-rule: evenodd; stroke-width: 0px;"/>
    <path d="M19.3,83.97c-.1-.05-.1-.14-.13-.26.07,0,.08.19.13.26Z" style="fill: #231f20; fill-rule: evenodd; stroke-width: 0px;"/>
    <path d="M19.52,83.55c-.09,0-.2-.25-.03-.25.04.07-.02.08-.06.1.02.08.08.05.09.16Z" style="fill: #231f20; fill-rule: evenodd; stroke-width: 0px;"/>
    <path d="M17.09,83.61c.18.15.11.53,0,0h0Z" style="fill: #231f20; fill-rule: evenodd; stroke-width: 0px;"/>
    <path d="M15.9,83.52c-.11-.15-.15-.32-.19-.52.08.11.19.43.19.52Z" style="fill: #231f20; fill-rule: evenodd; stroke-width: 0px;"/>
    <path d="M15.69,83.45c-.07.09-.17-.25-.06-.21l.06.21Z" style="fill: #231f20; fill-rule: evenodd; stroke-width: 0px;"/>
    <path d="M14.05,83.51c-.08-.04-.13-.19-.14-.3.08.01.15.25.14.3Z" style="fill: #231f20; fill-rule: evenodd; stroke-width: 0px;"/>
    <path d="M13.86,82.21c-.23-.35-.12-.51,0,0h0Z" style="fill: #231f20; fill-rule: evenodd; stroke-width: 0px;"/>
    <path d="M18.2,91.31c-.08-.03-.15-.1-.23-.11.02-.18-.22-.32-.28-.5.24.1.25.4.51.61Z" style="fill: #231f20; fill-rule: evenodd; stroke-width: 0px;"/>
    <path d="M17.87,85.97c-.05-.08.01-.1-.06-.19.04-.03.06.01.1,0-.07-.19-.16-.27-.23-.42.03,0,.06.02.1,0-.25-.13-.11-.49-.36-.89.31.36.62,1.3.84,1.63-.13,0-.18-.36-.32-.33-.09.03.08.21-.07.21Z" style="fill: #231f20; fill-rule: evenodd; stroke-width: 0px;"/>
    <path d="M20.25,84.39s-.04,0-.03.01c-.07.02-.08-.13-.07-.16.1,0,.25.43.1.15Z" style="fill: #231f20; fill-rule: evenodd; stroke-width: 0px;"/>
    <path d="M19.01,82.08l.12-.03c-.07-.21-.18-.56-.11-.73.14.23.08.84.33.96-.02.05,0,.13,0,.18.35.53.43,1.21.79,1.75-.42-.13-.25-.91-.68-1.09,0-.06.03-.01.04.02-.1-.27-.18-.77-.49-1.07Z" style="fill: #231f20; fill-rule: evenodd; stroke-width: 0px;"/>
    <path d="M15.43,83.43c-.07-.05-.12-.16-.19-.22,0-.04.24.11.19.22Z" style="fill: #231f20; fill-rule: evenodd; stroke-width: 0px;"/>
    <path d="M84.38,95.55c.15-.1.25-.29.41-.4.36-.24.76-.35,1.09-.66.29-.27.49-.62.79-.89.23-.2.28-.29.42-.44.41-.43.83-.68.82-1.09.19-.42.51-.84.66-1.21.02-.06.13-.12.13-.15.4-.93.26-1.9.78-2.84-.06-.19-.19-.42-.21-.69-.01-.12.07-.29.04-.4-.11-.41-.57-.63-.5-1.08-.05-.08-.12-.05-.18-.08-.52-.54-1.06-.89-1.4-1.36-.42-.08-.65-.4-1.01-.5-.22-.07-.52-.05-.75-.09-.27-.05-.51-.05-.76-.13-.15-.17-.33-.06-.49-.17-.28.06-.54.05-.81.12-.07-.04-.14-.04-.21-.1-.66.04-1.36,0-1.98.34-.06.03-.17.1-.23.15-.42.31-1.11.72-1.5.64-.09.04-.04.09-.13.13-.13-.09-.5-.13-.69,0-.07.05-.08.28-.21.41-.2.19-.55.11-.73.27-.08.08-.09.29-.16.38-.19.26-.76.51-1.01.58-.2.06-.33-.03-.45.07-.1.09-.12.28.01.47-.08.65-1.18.8-1.63,1.27-.49.04-.73.52-1.14.67-.08.03-.2.02-.29.06-.13.06-.28.23-.44.35-.27.19-.54.3-.76.48-.49-.09-.65.32-.99.44-.13.04-.28,0-.42.06-.12.05-.2.17-.33.22-.13.05-.3,0-.42.06-.09.04-.14.12-.22.15-.1.03-.19-.02-.29.03-.11.05-.18.2-.29.25-.4.19-.88.22-1.2.57-.76.07-1.3.51-2.2.58-.19.12-.34.21-.57.21-.04.03-.02.1-.11.12-.47.02-.88.39-1.37.4,0,.04-.02.07-.04.1-.67.03-1.49.16-1.96.44-.42-.07-.84.21-1.33.29-.23.04-.47,0-.68.06-.41.13-.97.14-1.37.25-.12.03-.23.13-.34.15-.21.05-.45,0-.68.06-.43.14-.91.21-1.37.25-.46.02-.92.04-1.31.06-.24.02-.44.13-.71.19-.45.1-.92-.06-1.37,0-.11.01-.22.08-.33.09-.27.04-.53,0-.82,0-.7.03-1.4.2-2.06.05-.84.19-2.06.07-3.03.03-.23.14-.42-.01-.65-.01-.69,0-1.59.09-2.29-.13-3.05-.13-6.05-1.01-8.84-1.84-.16-.21-.52-.26-.74-.27,0-.09-.13-.14-.21-.21-.41.03-.76-.31-1.18-.48-.19.12-.37-.14-.59-.09-.01-.13.13-.03.05-.14-.43.16-1.21-.48-1.63-.66.03.02,0,.07-.03.05-.04-.13-.18-.01-.28-.09-.7-.43-1.38-.49-2.01-.85-.04-.1-.13-.35-.27-.31.08.1.22.19.12.3-.14-.17-.39-.31-.57-.31-.21-.17-.26-.31-.51-.39-.04-.04-.06.15-.15.06-.22-.32-.44-.36-.63-.64-.17.03-.47-.23-.5-.37-.12-.04,0,.17-.09.12-.24-.2-.48-.36-.6-.64-.09-.01-.19.01-.28-.06-.06-.05.12-.07,0-.13-.13-.03-.05.15-.15.2-.14-.09-.17-.02-.29-.02-.08-.22-.3-.23-.47-.35-.16-.13-.26-.35-.41-.48-.13-.11-.26-.11-.37-.27-.09-.13-.07-.3-.17-.44-.07-.06-.06.11-.14,0-.38-.49-.7-1-1.1-1.31.55.5.59,1.06,1.11,1.46-.06.15.22.18.12.36.09-.01.05-.16.12-.04.02.04,0,.08.05.13-.18.02-.11.13-.17.23.32.42.62.71.93,1.05.08.04.03-.1.12-.05.13.12.2.23.36.36-.05.13,0,.27-.17.32-.39-.48-1.11-.98-1.57-1.58-.15-.17-.16-.44-.4-.45.23.25.22.59.38.84.21.32.6.53.81.84.06.09.04.16.1.23.05.06.2.1.24.16.05.07,0,.12.06.17.11.11.27.13.39.26.2.22.31.51.56.71,0,.08-.11.15-.18.12-.26-.29-.31-.33-.58-.61.02.04.02.08-.02.11-.08-.1-.08-.15-.19-.17.2.21.02.35-.13.35-.47-.57-1.14-1.21-1.42-1.76-.09-.02-.19,0-.27-.07-.47-.52-.84-1.2-1.27-1.82.26.84.86,1.53,1.51,2.27,0,.05-.08.07,0,.14.32.29.63.67.86.9,0,.19-.01.38-.02.58.78.7.95,1.62,1.72,2.3-.06.06-.02.14-.04.21-.11,0-.22.04-.33.02-.13-.11-.3-.19-.36-.34-.82-.41-1.57-1.42-2.38-2.18-.2,0-.22.15-.26.3.28.48.76.7,1.02,1.24-.12.39-.44.41-.77.09-.54-.52-1.33-1.55-1.58-1.99-1.49-1.66-2.55-3.68-3.46-5.9.36,1.29,1.04,2.32,1.49,3.39.05-.04.1-.01.14.07.51,1.02,1.24,2.06,1.92,2.77.07.47.79.9.88,1.37-.32.14-.67-.02-1.01-.3.3.33.48.73.72,1.02.2.24.63.56.69.72.01.04-.09.04-.04.09-.08-.1.17.15.19.16.15.09.14.05.28.19.17.19.17.19.23.36.59.66,1.3,1.13,1.93,1.73.07.06.2.17.22.18.05.07-.04.07.04.15.04.04.07-.03.13.03.25.24.54.49.82.68.69.49,1.49,1.1,2.08,1.45.12.1-.11.08.07.19.98.67,2.08,1.33,3.21,1.87.08.05-.04.14.09.18.15.09.17-.05.31.01.07.07.14.15.16.23,1.28.69,2.72,1.07,4.13,1.46,1.31.37,2.63.68,3.88.93.99.18,1.94.22,2.81.44,1.19.07,2.2.2,3.3.28.79.06,1.65.18,2.32.15.11,0,.25-.07.39-.07.2,0,.4.12.6.13.54.02,1.09-.1,1.63-.08.6,0,1.18.03,1.77.02.33,0,.65-.11.98-.13.22-.01.45.06.68.05.64-.02,1.27-.2,1.87-.22.8-.03,1.64.06,2.43-.19.9-.03,1.99-.13,2.83-.34.73.12,1.41-.22,2.2-.31.08-.01.15.02.23.02,1.21-.06,2.45-.63,3.43-.74.32-.24.66-.15,1-.2.37-.05.67-.23,1.01-.34.11-.03.23,0,.34-.03.35-.08.66-.27,1.03-.4.56-.19,1.23-.14,1.82-.52.53-.07,1.31-.19,1.82-.53,1.02-.17,1.89-.77,2.89-1.1.34-.11.7-.1.96-.38.4,0,.77-.27,1.19-.45.41-.19.86-.32,1.3-.5.62-.26,1.3-.75,1.89-.73.54.48.43-.62.96-.77.32-.02.38.16.62.31.27-.04.45-.21.63-.4.28-.1.62.04.95-.17ZM24.59,88.88s.03-.04.02-.07c.15-.05.11.21-.02.07ZM24.51,88.87c-.19-.2-.57-.38-.61-.62-.03-.04-.1.15-.18.11-.02-.14-.07-.28-.2-.44.18-.17.33.24.51.11.08.13.12.2.25.17.15.29.31.23.41.47-.15.05-.05.11-.18.2Z" style="fill: #231f20; fill-rule: evenodd; stroke-width: 0px;"/>
  </g>
</svg>