<?xml version="1.0" encoding="UTF-8"?>
<svg id="Layer_1" data-name="Layer 1" xmlns="http://www.w3.org/2000/svg" viewBox="0 0 103.75 104.21">
  <g>
    <path d="M106.14,42.85l-21.76-26.51-5.44-6.63-2.72-3.31c-.46-.55-.87-1.08-1.51-1.81-.31-.36-.67-.74-1.08-1.14-.5-.48-1.06-.95-1.64-1.36-1.16-.82-2.48-1.43-3.86-1.75-.69-.16-1.4-.26-2.11-.31-.36-.02-.71-.03-1.07-.02-.32,0-.58.02-.85.03-1.07.07-1.84.18-2.59.31l-2.29.38-2.29.38-2.26.53c-1.5.36-3.02.67-4.48,1.16-1.47.47-2.97.85-4.41,1.4l-4.32,1.63-4.21,1.89c-1.4.64-2.73,1.41-4.1,2.11-5.39,2.95-10.48,6.45-15.16,10.42C8.63,28.21.99,38.22-4.19,49.48l11.18,5.06c4.39-9.51,10.91-18.11,18.97-24.97,4.03-3.42,8.41-6.43,13.05-8.97,1.18-.6,2.32-1.27,3.52-1.81l3.61-1.62,3.7-1.39c1.23-.47,2.51-.79,3.76-1.19,1.25-.42,2.54-.68,3.82-.98l1.92-.45,1.94-.32,1.94-.32c.66-.12,1.31-.2,1.66-.22h.23s0,0,0,0h0s0,0,0,0c0,0,0,0,0,0,.1.09.23.23.39.41.3.34.78.94,1.24,1.49l2.72,3.31,5.44,6.63,21.76,26.51,9.49-7.79Z" style="fill: none; stroke-width: 0px;"/>
    <path d="M20.89,32.83c-.02.08-.1.18-.2.28-.03-.07.07-.24.2-.28Z" style="fill: #231f20; fill-rule: evenodd; stroke-width: 0px;"/>
    <path d="M11.12,31.1c-.05.11-.23.43-.31.3.12-.16.21-.2.31-.3Z" style="fill: #231f20; fill-rule: evenodd; stroke-width: 0px;"/>
    <path d="M10.58,31.44c.03.07-.2.24-.27.34-.06-.06.18-.31.27-.34Z" style="fill: #231f20; fill-rule: evenodd; stroke-width: 0px;"/>
    <path d="M10.4,33.57c-.03.09-.14.3-.25.35-.03-.07.18-.25.25-.35Z" style="fill: #231f20; fill-rule: evenodd; stroke-width: 0px;"/>
    <path d="M8.88,33.35c-.03.17-.17.39-.4.65,0-.15.25-.42.4-.65Z" style="fill: #231f20; fill-rule: evenodd; stroke-width: 0px;"/>
    <path d="M12.75,39.05c-.21.28-.55.92-.82,1.04.33-.29.52-.76.82-1.04Z" style="fill: #231f20; fill-rule: evenodd; stroke-width: 0px;"/>
    <path d="M9.88,38.08c-.13.47-.81.98-1.02,1.54-.17-.02.46-.72.48-.91.09-.1.18-.17.27-.24.09-.13.1-.31.27-.39Z" style="fill: #231f20; fill-rule: evenodd; stroke-width: 0px;"/>
    <path d="M6.33,42.43c.07.03.09.09,0,.22-.05.02-.09.01-.13-.02l.14-.2Z" style="fill: #231f20; fill-rule: evenodd; stroke-width: 0px;"/>
    <path d="M6,44.94c-.07.38-.48,1.11-.8,1.45-.01.06.03.09-.04.18-.12.25-.48.75-.18.24.29-.68.66-1.14,1.02-1.87Z" style="fill: #231f20; fill-rule: evenodd; stroke-width: 0px;"/>
    <path d="M4.56,44.41c0,.1-.07.24-.17.39-.04-.08.1-.35.17-.39Z" style="fill: #231f20; fill-rule: evenodd; stroke-width: 0px;"/>
    <path d="M7.67,46.88c.03.09-.18.31-.24.46.02-.12.12-.38.24-.46Z" style="fill: #231f20; fill-rule: evenodd; stroke-width: 0px;"/>
    <path d="M4.77,45.06c0,.17-.19.44-.24.63-.19.08.13-.43.24-.63Z" style="fill: #231f20; fill-rule: evenodd; stroke-width: 0px;"/>
    <path d="M4.27,45.08c.02.15-.18.44-.3.67.01-.17.2-.45.3-.67Z" style="fill: #231f20; fill-rule: evenodd; stroke-width: 0px;"/>
    <path d="M8.01,47.71c.08.07-.04.25-.1.4-.06-.08.06-.27.1-.4Z" style="fill: #231f20; fill-rule: evenodd; stroke-width: 0px;"/>
    <path d="M7.26,47.57c-.02.2-.36.74-.54,1.01.14-.38.3-.64.54-1.01Z" style="fill: #231f20; fill-rule: evenodd; stroke-width: 0px;"/>
    <path d="M3.91,45.85c-.04.34-.36.67-.5.89.07-.29.41-.57.5-.89Z" style="fill: #231f20; fill-rule: evenodd; stroke-width: 0px;"/>
    <path d="M4.74,47.22c-.01.12-.1.3-.17.45-.13-.03.07-.28.17-.45Z" style="fill: #231f20; fill-rule: evenodd; stroke-width: 0px;"/>
    <path d="M4.21,47.52c0,.16-.1.25-.21.43-.04-.08.14-.3.21-.43Z" style="fill: #231f20; fill-rule: evenodd; stroke-width: 0px;"/>
    <path d="M3.64,47.8c.04.1-.14.5-.24.34.05-.12.09-.08.13-.06.08-.12.01-.14.11-.28Z" style="fill: #231f20; fill-rule: evenodd; stroke-width: 0px;"/>
    <path d="M5.13,49.97c.02-.31.4-.67,0,0h0Z" style="fill: #231f20; fill-rule: evenodd; stroke-width: 0px;"/>
    <path d="M5.83,51.03c-.05.24-.17.44-.31.67.04-.17.24-.58.31-.67Z" style="fill: #231f20; fill-rule: evenodd; stroke-width: 0px;"/>
    <path d="M5.91,51.27c.12-.03-.09.37-.13.25l.13-.25Z" style="fill: #231f20; fill-rule: evenodd; stroke-width: 0px;"/>
    <path d="M7.1,52.44c.02.1-.04.26-.12.37-.05-.07.07-.33.12-.37Z" style="fill: #231f20; fill-rule: evenodd; stroke-width: 0px;"/>
    <path d="M6.28,53.77c-.08.47-.28.56,0,0h0Z" style="fill: #231f20; fill-rule: evenodd; stroke-width: 0px;"/>
    <path d="M12.57,42.97c-.02.1-.08.22-.06.3-.2.07-.28.4-.46.56.05-.31.36-.47.52-.86Z" style="fill: #231f20; fill-rule: evenodd; stroke-width: 0px;"/>
    <path d="M7.01,46.93c-.06.13-.11.08-.17.23-.05-.01-.02-.07-.05-.1-.17.24-.21.4-.33.61,0-.04-.01-.08-.05-.1-.02.36-.44.56-.71,1.19.16-.65,1.01-1.83,1.26-2.35.06.13-.29.51-.2.63.08.06.18-.27.24-.12Z" style="fill: #231f20; fill-rule: evenodd; stroke-width: 0px;"/>
    <path d="M4.24,46.06c-.03.06,0,.04.03.02.05.05-.12.23-.15.26-.04-.1.4-.77.13-.27Z" style="fill: #231f20; fill-rule: evenodd; stroke-width: 0px;"/>
    <path d="M2.47,50.15l-.11-.06c-.16.35-.41.9-.62,1.09.12-.44.74-1.21.71-1.59.06-.05.13-.18.19-.24.3-1.03.97-1.98,1.44-2.97.02.57-.91,1.34-.84,2-.06.07-.03-.01,0-.07-.21.44-.66,1.18-.76,1.83Z" style="fill: #231f20; fill-rule: evenodd; stroke-width: 0px;"/>
    <path d="M6.07,51.49c0,.1-.05.25-.05.36-.03.04-.07-.29.05-.36Z" style="fill: #231f20; fill-rule: evenodd; stroke-width: 0px;"/>
    <path d="M87.05,38.93c.17.21.44.36.62.58.42.51.7,1.04,1.17,1.51.41.42.88.74,1.3,1.19.31.33.43.42.66.63.65.61,1.06,1.21,1.54,1.31.55.35,1.14.87,1.63,1.17.08.05.18.2.21.22,1.24.76,2.38.92,3.68,1.96.23,0,.48-.09.83-.02.15.03.38.21.52.21.5.02.68-.51,1.29-.21.09-.03.04-.14.07-.2.59-.46.92-1.05,1.46-1.3,0-.54.36-.72.4-1.18.03-.28-.08-.71-.1-1.04-.02-.37-.09-.72-.08-1.06.18-.14-.03-.46.07-.64-.19-.45-.26-.84-.46-1.29.03-.08,0-.2.06-.26-.33-1.01-.6-2.08-1.35-3.23-.07-.1-.21-.32-.31-.44-.64-.77-1.57-2.02-1.67-2.62-.1-.16-.15-.11-.25-.26.04-.18-.09-.76-.39-1.12-.1-.12-.43-.22-.68-.46-.37-.37-.48-.92-.81-1.26-.15-.16-.43-.22-.6-.37-.45-.39-1.15-1.35-1.42-1.77-.21-.33-.19-.53-.4-.74-.19-.19-.44-.24-.6-.08-.88-.27-1.82-2.03-2.74-2.8-.41-.78-1.16-1.23-1.66-1.89-.1-.13-.18-.32-.29-.45-.18-.22-.5-.45-.75-.7-.44-.44-.78-.87-1.16-1.22-.27-.8-.9-1.03-1.32-1.55-.15-.2-.23-.44-.41-.66-.15-.18-.36-.3-.52-.51-.16-.2-.25-.47-.41-.66-.12-.14-.26-.22-.35-.34-.12-.16-.14-.3-.29-.46-.15-.16-.38-.26-.53-.42-.55-.6-1.01-1.36-1.67-1.81-.73-1.19-1.73-1.93-2.62-3.33-.31-.28-.53-.48-.76-.85-.08-.06-.13-.01-.22-.13-.47-.72-1.24-1.25-1.71-2-.05,0-.09,0-.15-.04-.69-1.05-1.53-2.16-2.53-3.01-.46-.74-1.79-1.83-3.15-2.56-.65-.36-1.31-.72-1.99-.88-.67-.16-1.45-.3-2.24-.35-.39-.03-.8-.04-1.15-.03-.31,0-.6.03-.84.05-.3.03-.56.15-.82.19-.47.07-.92.06-1.36.18-1.69.47-3.69.62-5.17.95-.46.11-.83.29-1.33.45-.83.25-1.75.3-2.59.54-.21.06-.41.16-.6.23-.49.18-.99.27-1.51.44-1.29.42-2.54.94-3.78,1.22-1.44.78-3.7,1.47-5.4,2.27-.32.32-.74.36-1.13.56-1.19.62-2.7,1.44-3.98,2.02-1.26.76-2.58,1.45-3.85,2.24l-3.8,2.4c-1.23.86-2.43,1.74-3.63,2.61-1.21.86-2.28,1.88-3.38,2.82-.43.18-.94.68-1.2,1-.12-.01-.32.17-.48.29-.41.64-1.2,1.12-1.85,1.77-.04.3-.55.56-.71.9-.18.02.09-.2-.14-.07-.23.63-1.75,1.93-2.31,2.64.04-.04.09-.02.04.04-.22.09-.16.29-.34.46-.56.59-.98,1.15-1.37,1.7-.36.57-.69,1.13-1.1,1.69-.15.1-.57.35-.58.55.18-.17.38-.42.48-.31-.31.28-.62.73-.71,1.02-.33.39-.56.54-.78.96-.08.08.19.02.03.19-.53.49-.62.88-1.08,1.33,0,.23-.43.85-.63.99-.08.2.23-.11.15.05-.32.49-.6.95-1,1.31-.03.14-.01.27-.13.45-.08.12-.08-.11-.18.09-.06.21.21-.05.26.06-.14.26-.04.26-.06.42-.3.28-.31.61-.47.94-.17.34-.44.66-.61.98-.14.28-.13.45-.33.74-.16.24-.38.38-.55.64-.07.15.16-.03.03.17-.61.92-1.12,1.92-1.37,2.72.21-.6.49-1.07.76-1.52.28-.44.58-.85.8-1.36.21-.06.21-.46.45-.49-.02-.1-.21.08-.06-.12.05-.06.1-.07.16-.18.05.22.18.03.32.01.51-.78.86-1.43,1.31-2.1.06-.14-.14.03-.06-.12.17-.26.33-.43.51-.75.16-.02.36-.17.4.02-.7.83-1.31,2.22-2.01,3.3-.21.33-.54.6-.51.89.27-.51.71-.78,1-1.19.38-.52.61-1.21,1-1.71.11-.14.2-.17.3-.3.08-.1.14-.32.23-.43.1-.12.16-.09.23-.2.15-.22.2-.45.39-.69.31-.4.7-.72,1.01-1.18.1-.05.18.07.12.19-.4.51-.47.61-.86,1.14.06-.05.11-.07.14-.04-.13.16-.21.19-.24.35.3-.4.45-.22.44-.02-.39.47-.8,1.02-1.18,1.55-.36.55-.7,1.07-1.02,1.47,0,.13.02.23-.06.4-.55,1-1.39,1.96-1.9,3.07.82-1.12,1.61-2.32,2.42-3.71.06-.03.1.05.17-.09.31-.62.77-1.27,1.09-1.7.25-.11.5-.21.74-.31.47-.7.99-1.21,1.52-1.7.52-.5,1.06-.97,1.6-1.56.06.06.17-.01.25,0-.03.14,0,.27-.06.42-.17.2-.31.43-.51.56-.61,1.22-1.91,2.61-2.8,4.02,0,.25.19.19.38.15.55-.58.83-1.28,1.49-1.83.46-.02.47.38.09.9-.31.44-.76,1-1.17,1.55-.39.56-.76,1.07-.97,1.35-.78,1.36-1.66,2.65-2.39,4.04-.76,1.37-1.58,2.72-2.17,4.21.8-1.58,1.53-3.06,2.43-4.38-.06-.03-.06-.09.01-.2.2-.34.41-.68.62-1.03.22-.34.45-.68.67-1.01.44-.67.85-1.34,1.18-1.94.49-.36.91-1.43,1.46-1.75.19.32,0,.78-.26,1.32.33-.52.79-.89,1.11-1.28.27-.32.63-.96.82-1.08.05-.03.04.09.1.02-.11.13.17-.25.19-.29.11-.21.06-.19.23-.39.22-.27.22-.26.42-.38.77-.91,1.5-1.82,2.33-2.69.08-.09.25-.28.26-.29.09-.07.07.04.18-.06.06-.06-.02-.08.07-.17.33-.34.7-.72,1.02-1.05.81-.84,1.84-1.76,2.49-2.45.16-.13.04.14.24-.07,1.22-1.09,2.59-2.16,3.9-3.31.11-.08.11.09.25-.05.2-.13.06-.21.24-.33.13-.05.26-.09.36-.08,1.64-1.14,3.15-2.56,4.85-3.73.78-.56,1.55-1.15,2.35-1.66.81-.5,1.61-1,2.38-1.48,1.2-.8,2.38-1.52,3.56-2.05.75-.44,1.43-.86,2.15-1.21.72-.33,1.43-.66,2.16-1,.53-.23,1.09-.48,1.63-.72.54-.23,1.08-.4,1.52-.62.15-.07.32-.21.5-.28.28-.11.59-.12.87-.22.76-.26,1.47-.73,2.24-.93.86-.25,1.69-.49,2.54-.73.48-.14.91-.37,1.38-.52.32-.08.67-.08,1-.16.92-.22,1.83-.57,2.71-.75.59-.13,1.19-.21,1.8-.28.6-.08,1.21-.18,1.79-.35.66-.07,1.41-.18,2.12-.28.3-.03.59-.06.88-.09.16-.01.31-.03.45-.04.24.24.58.1.82.36.02.03.01.08.03.11,0,.06.28.35.5.6.29.32.58.65.86.97.64.72,1.25,1.4,1.68,2.04.49.35.67.84.98,1.28.34.47.76.82,1.12,1.25.12.14.18.31.29.45.34.45.77.81,1.18,1.28.61.7,1.04,1.63,1.84,2.35.44.71,1.11,1.73,1.81,2.37.83,1.37,2.06,2.45,3.02,3.78.32.45.52.94.98,1.28.24.55.75,1.02,1.18,1.58.43.55.81,1.17,1.24,1.75.62.83,1.53,1.74,1.77,2.55-.3.71.91.6,1.32,1.32.17.43-.01.5-.09.8.17.37.45.61.73.87.23.38.2.83.57,1.29ZM9.47,36.32s-.05-.02-.08,0c-.03-.19.31-.29.08,0ZM9.44,36.46c-.3.41-.62,1.05-.93,1.27-.06.08.19.03.12.18-.19.13-.39.29-.61.59-.22-.13.35-.62.19-.78.19-.21.28-.32.27-.49.42-.41.38-.61.72-.91.04.18.13,0,.24.13Z" style="fill: #231f20; fill-rule: evenodd; stroke-width: 0px;"/>
  </g>
  <g>
    <path d="M20.1,87.59c-1.42-16.67-2.27-33.4-2.56-50.13l-12.27.21c.29,17.01,1.15,34.01,2.6,50.96l12.23-1.04Z" style="fill: none; stroke-width: 0px;"/>
    <path d="M6.58,48.03s-.06-.08-.06-.13c.07.01.12.08.06.13Z" style="fill: #231f20; fill-rule: evenodd; stroke-width: 0px;"/>
    <path d="M14.84,45.76s-.11-.16.03-.15c.02.07-.02.1-.03.15Z" style="fill: #231f20; fill-rule: evenodd; stroke-width: 0px;"/>
    <path d="M15.02,45.54c-.07,0-.01-.11-.03-.15.09,0,.07.12.03.15Z" style="fill: #231f20; fill-rule: evenodd; stroke-width: 0px;"/>
    <path d="M13.74,44.96s-.08-.11-.03-.15c.07,0,.01.11.03.15Z" style="fill: #231f20; fill-rule: evenodd; stroke-width: 0px;"/>
    <path d="M15.06,44.64c-.08-.05-.11-.14-.09-.26.09.04.07.17.09.26Z" style="fill: #231f20; fill-rule: evenodd; stroke-width: 0px;"/>
    <path d="M8.5,44.04c-.01-.14-.13-.41,0-.51-.08.17.06.35,0,.51Z" style="fill: #231f20; fill-rule: evenodd; stroke-width: 0px;"/>
    <path d="M11.35,43.61c-.18-.16.01-.47-.11-.68.15-.03.03.32.14.37-.01.05-.04.09-.06.13.01.06.11.11.03.18Z" style="fill: #231f20; fill-rule: evenodd; stroke-width: 0px;"/>
    <path d="M11.74,41.54c-.08,0-.13,0-.12-.07.03-.02.07-.02.12-.02v.09Z" style="fill: #231f20; fill-rule: evenodd; stroke-width: 0px;"/>
    <path d="M10.7,40.7c-.14-.13-.15-.44-.05-.62-.02-.02-.07-.02-.06-.07-.02-.1.03-.33.03-.11.1.27,0,.49.08.79Z" style="fill: #231f20; fill-rule: evenodd; stroke-width: 0px;"/>
    <path d="M12.2,40.57s-.06-.09-.06-.15c.07.01.09.13.06.15Z" style="fill: #231f20; fill-rule: evenodd; stroke-width: 0px;"/>
    <path d="M8.28,40.44c-.07-.02,0-.14-.03-.2.04.04.09.15.03.2Z" style="fill: #231f20; fill-rule: evenodd; stroke-width: 0px;"/>
    <path d="M11.7,40.41c-.08-.05-.06-.18-.12-.24.12-.06.1.16.12.24Z" style="fill: #231f20; fill-rule: evenodd; stroke-width: 0px;"/>
    <path d="M12.12,40.3c-.09-.04-.07-.17-.09-.26.07.06.05.18.09.26Z" style="fill: #231f20; fill-rule: evenodd; stroke-width: 0px;"/>
    <path d="M7.56,40.24c-.1,0-.09-.09-.12-.16.09.01.08.1.12.16Z" style="fill: #231f20; fill-rule: evenodd; stroke-width: 0px;"/>
    <path d="M8.28,40.13c-.09-.07-.06-.32-.05-.44.07.15.07.27.05.44Z" style="fill: #231f20; fill-rule: evenodd; stroke-width: 0px;"/>
    <path d="M12.03,40c-.14-.11-.03-.28-.02-.37.08.1-.06.26.02.37Z" style="fill: #231f20; fill-rule: evenodd; stroke-width: 0px;"/>
    <path d="M10.63,39.73c-.05-.04-.06-.12-.09-.18.13-.01.08.1.09.18Z" style="fill: #231f20; fill-rule: evenodd; stroke-width: 0px;"/>
    <path d="M10.93,39.53c-.08-.05-.04-.1-.03-.18.07.02,0,.12.03.18Z" style="fill: #231f20; fill-rule: evenodd; stroke-width: 0px;"/>
    <path d="M11.3,39.33c-.08-.02-.1-.19.06-.15.01.05-.04.04-.09.04-.01.05.05.05.03.11Z" style="fill: #231f20; fill-rule: evenodd; stroke-width: 0px;"/>
    <path d="M8.99,38.91c.12.11-.06.3,0,0h0Z" style="fill: #231f20; fill-rule: evenodd; stroke-width: 0px;"/>
    <path d="M7.89,38.69c-.06-.09-.05-.18-.03-.29.04.07.05.24.03.29Z" style="fill: #231f20; fill-rule: evenodd; stroke-width: 0px;"/>
    <path d="M7.71,38.62c-.09.03-.09-.14,0-.11v.11Z" style="fill: #231f20; fill-rule: evenodd; stroke-width: 0px;"/>
    <path d="M6.12,38.44c-.06-.03-.08-.1-.06-.16.07.01.09.13.06.16Z" style="fill: #231f20; fill-rule: evenodd; stroke-width: 0px;"/>
    <path d="M6.25,37.82c-.14-.18,0-.25,0,0h0Z" style="fill: #231f20; fill-rule: evenodd; stroke-width: 0px;"/>
    <path d="M6.29,42.81s-.06-.09-.12-.11c.12-.07,0-.19.06-.29.13.11-.03.24.05.4Z" style="fill: #231f20; fill-rule: evenodd; stroke-width: 0px;"/>
    <path d="M8.82,40.28c-.01-.05.06-.05.03-.11.05,0,.05.02.09.02.02-.11-.03-.17-.03-.27.02.01.05.02.09.02-.16-.12.09-.27,0-.53.18.25.06.8.1,1.02-.12-.03-.01-.22-.15-.24-.09,0-.01.12-.15.09Z" style="fill: #231f20; fill-rule: evenodd; stroke-width: 0px;"/>
    <path d="M11.64,40s-.03-.01-.03,0c-.07,0-.02-.1,0-.11.09.03.04.32.03.11Z" style="fill: #231f20; fill-rule: evenodd; stroke-width: 0px;"/>
    <path d="M11.28,38.36h.12c0-.14-.04-.37.07-.46.09.17-.11.52.08.64-.03.03-.03.08-.06.11.2.39,0,.81.13,1.21-.32-.17.11-.59-.23-.79.02-.03.03,0,.03.02,0-.18.06-.5-.14-.73Z" style="fill: #231f20; fill-rule: evenodd; stroke-width: 0px;"/>
    <path d="M7.47,38.58c-.05-.03-.07-.1-.12-.13,0-.02.2.09.12.13Z" style="fill: #231f20; fill-rule: evenodd; stroke-width: 0px;"/>
    <path d="M7.41,83.02c0,.1.12.2.13.3.02.24-.08.47,0,.71.07.21.24.4.3.63.04.17.09.22.13.33.13.32.1.59.42.71.22.21.37.49.57.68.03.03.02.1.04.11.52.47,1.32.72,1.71,1.29.18.04.44.05.67.13.1.04.17.13.28.16.38.09.85-.06,1.15.15.09,0,.12-.04.18-.06.74-.06,1.36-.2,1.94-.19.33-.18.72-.18,1.04-.33.19-.09.37-.25.55-.37.21-.13.37-.26.58-.37.22-.02.26-.16.44-.2.12-.18.31-.33.43-.51.07-.02.12-.07.21-.08.35-.39.79-.8.9-1.31,0-.05.03-.14.02-.2-.04-.37,0-.94.28-1.16.02-.07-.05-.06-.04-.13.14-.05.39-.27.37-.44,0-.06-.21-.14-.25-.27-.07-.19.18-.39.13-.55-.02-.08-.2-.15-.25-.23-.12-.21-.08-.65-.03-.83.04-.15.18-.21.14-.31-.03-.09-.2-.16-.43-.13-.53-.24-.19-.99-.44-1.4.16-.33-.17-.61-.15-.91,0-.06.06-.14.05-.2-.01-.1-.12-.23-.16-.36-.08-.22-.08-.42-.17-.6.28-.31-.08-.5-.08-.74,0-.09.09-.19.08-.29,0-.09-.1-.16-.1-.26,0-.09.09-.2.08-.29,0-.07-.07-.12-.07-.17,0-.07.07-.12.05-.2-.02-.08-.14-.15-.16-.23-.07-.29.03-.62-.21-.89.15-.52-.17-.94-.02-1.55-.07-.15-.12-.25-.07-.41-.02-.03-.1-.03-.09-.08.07-.32-.2-.63-.11-.96-.04,0-.07-.02-.09-.04.12-.45.1-1.02-.09-1.35.13-.28-.06-.58-.08-.92-.01-.16.06-.32.02-.46-.08-.28-.02-.66-.08-.94-.02-.08-.11-.16-.12-.24-.03-.14.04-.31,0-.46-.21-.59-.12-1.29-.15-1.81,0-.16-.11-.3-.16-.48-.07-.3.07-.62.01-.92-.01-.08-.08-.15-.09-.22-.04-.18,0-.36,0-.55-.04-.47-.23-.93-.11-1.38-.22-.55-.2-1.38-.26-2.03-.17-.14-.04-.29-.06-.44-.09-.46-.3-1.06-.19-1.55-.38-2.05-.34-4.2-.74-6.23.12-.16.03-.41-.06-.55.08-.03.07-.13.09-.2-.21-.25-.06-.58-.12-.9-.2-.08-.06-.27-.21-.39.11-.06.09.07.15-.02-.36-.2-.22-.91-.32-1.22,0,.02-.05.03-.06,0,.09-.08-.09-.11-.09-.2-.06-.58-.42-.98-.56-1.47.05-.06.19-.23.06-.29-.02.09,0,.2-.15.2.04-.15-.03-.34-.15-.44-.02-.18.06-.28-.06-.44,0-.04-.15.04-.15-.04.07-.26-.06-.38,0-.62-.14-.06-.19-.33-.12-.42-.06-.07-.11.09-.15.02-.05-.21-.11-.4-.02-.59-.07-.05-.16-.08-.18-.15-.01-.05.14.01.09-.07-.08-.07-.14.06-.24.05-.05-.1-.12-.08-.21-.13.08-.15-.09-.24-.14-.37-.06-.13,0-.29-.05-.42-.04-.11-.15-.16-.15-.29,0-.1.1-.19.09-.31-.03-.06-.11.04-.12-.04-.05-.4-.09-.81-.28-1.1.24.45,0,.79.22,1.19-.13.06.09.18-.09.24.08.03.13-.07.12.02-.01.03-.04.04-.03.09-.16-.05-.16.03-.27.07.02.34.1.61.11.9.04.05.09-.04.12.02.03.11,0,.2.06.33-.12.04-.17.13-.33.09,0-.4-.25-.93-.28-1.41-.01-.14.11-.3-.09-.37.06.21-.14.39-.16.57-.02.24.18.49.14.73-.01.07-.06.09-.06.15,0,.05.09.12.09.18,0,.06-.07.06-.06.11.02.1.12.17.12.29,0,.19-.11.37-.07.57-.05.04-.19.03-.21-.02,0-.24,0-.28-.02-.53-.01.03-.04.05-.09.04,0-.08.04-.1-.03-.15.01.18-.22.17-.33.11.03-.46-.09-1.01-.01-1.39-.06-.04-.15-.06-.18-.13-.09-.42-.02-.89-.1-1.35-.17.52-.05,1.06.04,1.65-.03.02-.11,0-.09.07.09.25.08.55.11.75-.13.09-.26.18-.39.27.12.63-.39,1.1-.38,1.7-.09,0-.12.05-.18.07-.08-.05-.17-.08-.24-.13,0-.1-.06-.2,0-.29-.28-.5-.11-1.23-.28-1.85-.15-.07-.26-.01-.39.05-.08.31.14.58-.04.91-.35.12-.6,0-.63-.24-.04-.41-.02-1.13.02-1.39-.24-1.21-.18-2.41-.36-3.65-.05.69.15,1.33.03,1.95.07,0,.1.02.09.07-.02.61,0,1.28.13,1.81-.21.23.05.65-.16.89-.34-.05-.5-.23-.59-.46.03.24-.08.46-.1.67-.01.16.1.45.02.53-.02.02-.09-.02-.09.02,0-.07.02.12.03.13.04.09.07.07.06.18-.01.14-.02.13-.09.22-.04.47.08.93.02,1.4,0,.05,0,.15,0,.16-.02.04-.08,0-.09.07,0,.03.07.02.06.07-.02.18-.05.39-.03.58.03.46-.03,1,0,1.37-.02.08-.13-.02-.12.09-.05.65-.09,1.33-.1,2.02,0,.05-.14.02-.12.09-.02.1.13.07.12.15-.04.05-.08.1-.15.14-.08.79.07,1.6.15,2.42.08.76.1,1.52.16,2.24.04.57.19,1.1.13,1.62.13.68.15,1.27.2,1.9.03.46-.01.97.07,1.35.02.07.09.14.09.22,0,.12-.09.24-.09.36.01.32.15.63.16.95,0,.35,0,.7.01,1.04,0,.2.11.38.13.57.01.13-.06.27-.05.4.02.37.18.75.17,1.1-.01.47-.12.97.06,1.44-.05.53-.02,1.18.07,1.68-.21.43.05.84.03,1.31,0,.05-.05.08-.06.14-.13.72.23,1.48.11,2.06.17.2,0,.4-.01.6-.03.22.09.41.11.62,0,.07-.05.13-.05.2,0,.21.1.41.14.64.05.34-.18.73,0,1.11-.09.31-.19.77-.03,1.11-.18.6.12,1.18.06,1.8-.02.21-.17.4,0,.6-.15.23-.03.47-.03.73,0,.26-.07.53-.09.8-.02.39.14.85-.17,1.16-.67.18.35.36.24.68-.13.17-.32.17-.56.25-.09.15-.02.28.05.42-.05.17-.35.31-.34.53ZM12.76,44s.05,0,.06-.02c.15.04-.06.15-.06.02ZM12.7,43.95c-.02-.18-.16-.44-.05-.57,0-.04-.17.04-.21-.02.07-.08.13-.17.12-.31.25-.01.11.26.33.26-.02.1-.03.15.09.2-.08.21.08.26,0,.42-.14-.04-.11.03-.27.02Z" style="fill: #231f20; fill-rule: evenodd; stroke-width: 0px;"/>
  </g>
  <g>
    <path d="M88.41,83.91c-.05.15-.09.24-.21.42-.12.17-.37.44-.8.73-.84.6-2.26,1.21-3.86,1.69-.81.24-1.66.46-2.57.67l-2.99.68-5.92,1.29c-7.83,1.61-15.55,2.79-23,2.5-14.77-.46-29.18-7.49-39.82-18.08L.56,82.5c6.33,6.3,13.73,11.52,21.88,15.29,8.12,3.76,17.1,6.09,26.16,6.37,9.03.34,17.7-1.06,25.95-2.75,2.06-.43,4.11-.88,6.13-1.34l3.03-.69c1.1-.25,2.24-.54,3.4-.89,2.32-.73,4.78-1.63,7.33-3.38,1.26-.87,2.55-2.01,3.64-3.5,1.1-1.47,1.94-3.29,2.34-5.15l-12-2.56Z" style="fill: none; stroke-width: 0px;"/>
    <path d="M18.47,94.62c-.07,0-.17-.03-.27-.09.06-.05.22-.01.27.09Z" style="fill: #231f20; fill-rule: evenodd; stroke-width: 0px;"/>
    <path d="M19.24,85.41c-.08,0-.32-.08-.22-.18.12.06.15.12.22.18Z" style="fill: #231f20; fill-rule: evenodd; stroke-width: 0px;"/>
    <path d="M19,85.04c-.05.05-.17-.1-.26-.13.05-.07.23.07.26.13Z" style="fill: #231f20; fill-rule: evenodd; stroke-width: 0px;"/>
    <path d="M17.33,85.49c-.08,0-.23-.05-.26-.14.05-.04.17.11.26.14Z" style="fill: #231f20; fill-rule: evenodd; stroke-width: 0px;"/>
    <path d="M17.63,84.08c-.12,0-.28-.07-.45-.21.12-.03.3.13.45.21Z" style="fill: #231f20; fill-rule: evenodd; stroke-width: 0px;"/>
    <path d="M12.71,88.64c-.23-.15-.76-.37-.84-.6.22.26.62.36.84.6Z" style="fill: #231f20; fill-rule: evenodd; stroke-width: 0px;"/>
    <path d="M13.76,85.89c-.38-.04-.73-.56-1.13-.72.04-.15.51.36.67.33.07.07.12.14.17.21.1.06.25.04.3.18Z" style="fill: #231f20; fill-rule: evenodd; stroke-width: 0px;"/>
    <path d="M10.83,83.11c-.04.07-.1.09-.18,0,0-.04,0-.08.05-.12l.13.11Z" style="fill: #231f20; fill-rule: evenodd; stroke-width: 0px;"/>
    <path d="M8.88,82.84c-.3-.06-.76-.47-.94-.77-.05-.02-.08.02-.14-.04-.16-.12-.46-.46-.14-.17.47.28.72.65,1.22.98Z" style="fill: #231f20; fill-rule: evenodd; stroke-width: 0px;"/>
    <path d="M9.69,81.56c-.08,0-.17-.06-.26-.15.07-.03.24.1.26.15Z" style="fill: #231f20; fill-rule: evenodd; stroke-width: 0px;"/>
    <path d="M6.84,84.28c-.08.02-.22-.18-.32-.25.09.03.28.14.32.25Z" style="fill: #231f20; fill-rule: evenodd; stroke-width: 0px;"/>
    <path d="M9.13,81.74c-.13-.01-.29-.19-.43-.23-.01-.17.3.13.43.23Z" style="fill: #231f20; fill-rule: evenodd; stroke-width: 0px;"/>
    <path d="M9.25,81.28c-.12.01-.29-.17-.44-.28.13.02.29.19.44.28Z" style="fill: #231f20; fill-rule: evenodd; stroke-width: 0px;"/>
    <path d="M6.05,84.53c-.08.07-.21-.06-.32-.13.08-.05.21.08.32.13Z" style="fill: #231f20; fill-rule: evenodd; stroke-width: 0px;"/>
    <path d="M6.37,83.85c-.17-.03-.53-.39-.7-.56.28.16.46.32.7.56Z" style="fill: #231f20; fill-rule: evenodd; stroke-width: 0px;"/>
    <path d="M8.75,80.95c-.26-.04-.42-.34-.55-.47.2.07.33.38.55.47Z" style="fill: #231f20; fill-rule: evenodd; stroke-width: 0px;"/>
    <path d="M7.4,81.62c-.1-.02-.21-.11-.32-.17.07-.11.2.08.32.17Z" style="fill: #231f20; fill-rule: evenodd; stroke-width: 0px;"/>
    <path d="M7.32,81.14c-.13-.01-.17-.1-.28-.21.07-.03.19.16.28.21Z" style="fill: #231f20; fill-rule: evenodd; stroke-width: 0px;"/>
    <path d="M7.29,80.62c-.09.03-.34-.18-.18-.25.08.05.03.09,0,.12.07.08.11.02.18.12Z" style="fill: #231f20; fill-rule: evenodd; stroke-width: 0px;"/>
    <path d="M5.06,81.69c.24.06.39.46,0,0h0Z" style="fill: #231f20; fill-rule: evenodd; stroke-width: 0px;"/>
    <path d="M3.95,82.15c-.18-.08-.3-.22-.44-.39.13.07.39.31.44.39Z" style="fill: #231f20; fill-rule: evenodd; stroke-width: 0px;"/>
    <path d="M3.72,82.18c-.02.11-.28-.14-.16-.16l.16.16Z" style="fill: #231f20; fill-rule: evenodd; stroke-width: 0px;"/>
    <path d="M2.32,83.03c-.09,0-.2-.09-.27-.19.08-.03.26.13.27.19Z" style="fill: #231f20; fill-rule: evenodd; stroke-width: 0px;"/>
    <path d="M1.49,82.04c-.37-.17-.37-.36,0,0h0Z" style="fill: #231f20; fill-rule: evenodd; stroke-width: 0px;"/>
    <path d="M9.3,88.85c-.09-.01-.18-.06-.26-.05-.04-.18-.31-.25-.43-.41.27.04.37.32.69.46Z" style="fill: #231f20; fill-rule: evenodd; stroke-width: 0px;"/>
    <path d="M6.97,83.67c-.09-.06-.03-.11-.14-.17.02-.04.07,0,.09-.04-.15-.16-.27-.21-.41-.34.03,0,.07,0,.1-.03-.29-.05-.34-.43-.79-.72.49.2,1.23,1.03,1.59,1.29-.13.05-.34-.29-.46-.22-.07.06.17.18.03.23Z" style="fill: #231f20; fill-rule: evenodd; stroke-width: 0px;"/>
    <path d="M8.49,81.23s-.04,0-.02.02c-.06.04-.15-.12-.16-.15.1-.03.49.38.18.12Z" style="fill: #231f20; fill-rule: evenodd; stroke-width: 0px;"/>
    <path d="M5.91,79.32l.09-.08c-.2-.19-.54-.47-.6-.68.29.16.65.79.95.82.02.06.09.13.11.19.67.4,1.15,1.08,1.82,1.51-.48,0-.78-.85-1.3-.87-.04-.06.02-.02.05,0-.26-.23-.66-.72-1.12-.89Z" style="fill: #231f20; fill-rule: evenodd; stroke-width: 0px;"/>
    <path d="M3.49,82.29c-.09-.01-.19-.09-.28-.11-.03-.03.27-.01.28.11Z" style="fill: #231f20; fill-rule: evenodd; stroke-width: 0px;"/>
    <path d="M88.75,97.96c.22-.08.43-.26.66-.36.56-.23,1.09-.3,1.64-.63.48-.27.89-.66,1.39-.97.37-.22.49-.36.73-.55.7-.54,1.37-.99,1.5-1.46.4-.59.95-1.21,1.23-1.8.04-.09.19-.23.21-.26.67-1.49.6-2.7.93-4.4-.11-.2-.29-.38-.43-.71-.06-.15-.05-.43-.12-.53-.28-.39-.8-.27-.94-.84-.08-.05-.13.04-.2.05-.73-.17-1.38-.15-1.92-.38-.4.17-.77.01-1.13.09-.21.05-.45.17-.69.2-.26.04-.46.09-.7.09-.2-.1-.32,0-.49-.07-.21.07-.41.08-.63.12-.07-.03-.13-.03-.2-.08-.49.03-1.06-.1-1.52.09-.05.02-.15.06-.19.09-.29.24-.99.53-1.35.37-.08.02-.05.08-.15.1-.12-.1-.47-.24-.67-.14-.07.04-.14.26-.29.37-.23.16-.58,0-.82.13-.11.06-.17.27-.28.34-.29.2-.98.34-1.3.36-.24.02-.36-.09-.53-.02-.15.07-.23.25-.16.47-.16.31-.59.44-1.05.54-.49.11-1.07.19-1.45.39-.64-.04-1.15.38-1.73.48-.12.02-.27-.01-.39.02-.2.05-.44.2-.68.29-.42.16-.8.23-1.14.38-.61-.17-.94.25-1.4.34-.17.03-.36-.03-.55.01-.16.03-.3.15-.48.18-.18.03-.38-.02-.55.01-.13.03-.22.11-.32.12-.14.02-.24-.03-.38.01-.15.04-.28.19-.43.23-.55.16-1.18.16-1.66.49-.99,0-1.76.46-2.93.46-.27.11-.47.19-.77.18-.06.03-.05.1-.15.11-.6.02-1.17.36-1.79.35-.02.04-.04.07-.07.1-.85,0-1.9.12-2.53.38-.53-.08-1.09.16-1.71.24-.29.04-.59-.01-.86.05-.53.13-1.24.1-1.75.19-.15.03-.29.12-.44.15-.27.05-.57-.02-.85.04-1.1.25-2.39.19-3.36.21-.3.01-.56.12-.89.15-.56.06-1.13-.1-1.69-.06-.14.01-.28.06-.41.07-.33.02-.65-.05-1-.05-.86,0-1.73.08-2.52-.11-1.04.11-2.52-.12-3.71-.27-.29.12-.52-.06-.8-.09-.43-.04-.92-.05-1.41-.1-.49-.07-.98-.16-1.41-.31-3.77-.52-7.52-1.87-11.12-3.08-.23-.22-.68-.34-.95-.38-.02-.1-.18-.16-.29-.24-.51-.02-.99-.42-1.55-.63-.23.11-.48-.19-.75-.16-.04-.14.16-.02.04-.15-.5.13-1.61-.61-2.17-.82.04.02.02.07-.03.05-.08-.15-.23-.03-.36-.11-.95-.51-1.82-.56-2.66-.96-.07-.1-.26-.4-.42-.35.13.11.32.21.23.33-.21-.19-.56-.33-.78-.33-.3-.17-.41-.33-.73-.41-.06-.04-.02.17-.16.08-.37-.33-.63-.37-.95-.67-.18.04-.63-.22-.72-.37-.15-.03.06.18-.06.14-.35-.19-.69-.35-.94-.64-.11,0-.21.03-.34-.04-.09-.05.1-.09-.04-.15-.16-.02,0,.18-.08.24-.19-.08-.2,0-.33,0-.17-.23-.43-.21-.66-.32-.24-.12-.44-.33-.67-.45-.2-.1-.33-.07-.53-.22-.16-.12-.22-.32-.4-.45-.11-.05,0,.14-.14.04-.63-.46-1.25-.93-1.82-1.15.84.38,1.18.98,1.91,1.3,0,.18.32.16.3.37.09-.03-.02-.18.11-.07.04.04.04.08.11.13-.19.06-.06.16-.07.29.53.39.99.64,1.45.98.11.03,0-.12.11-.07.19.11.31.23.54.34,0,.14.1.29-.07.36-.62-.46-1.59-.91-2.35-1.44-.23-.16-.38-.44-.62-.39.35.22.49.58.77.82.36.3.87.45,1.21.75.1.09.11.16.2.23.07.05.25.08.33.14.09.07.05.13.13.18.17.1.35.1.53.23.29.21.52.5.87.7.03.09-.07.18-.16.14-.38-.27-.45-.31-.86-.58.04.04.05.08.02.12-.12-.09-.14-.15-.26-.15.3.2.14.37-.03.39-.72-.53-1.64-1.13-2.18-1.63-.1,0-.2.04-.32-.02-.72-.43-1.37-1.1-2.11-1.6.68.78,1.55,1.39,2.55,2.02.02.05-.06.09.05.15.45.23.91.6,1.24.81.06.2.12.41.18.62,1.09.6,1.52,1.59,2.55,2.23-.05.07.01.15,0,.22-.12.01-.23.06-.36.05-.17-.1-.37-.17-.48-.32-.98-.36-2.09-1.31-3.19-1.95-.21.03-.18.19-.17.36.44.45,1.02.59,1.45,1.11,0,.42-.35.49-.78.22-.72-.43-1.84-1.36-2.25-1.72-1.06-.64-2-1.43-2.98-2.18-.94-.79-1.88-1.57-2.88-2.4.98,1.01,2.09,1.72,2.96,2.64.04-.05.09-.05.16.02.94.81,2,1.69,2.95,2.23.23.45,1.09.77,1.33,1.22-.29.21-.69.11-1.12-.11.41.27.7.65,1.03.9.27.21.81.45.91.61.02.04-.08.05-.02.1-.11-.08.21.12.24.14.17.07.16.03.33.16.22.17.22.17.32.34.77.59,1.64.98,2.41,1.57.09.06.25.16.27.17.07.07-.03.08.07.15.05.04.07-.04.15.02.31.22.67.45,1,.64.83.45,1.75,1.09,2.45,1.42.14.1-.11.09.1.19.58.34,1.18.68,1.78,1.03.63.32,1.26.64,1.9.96.09.06-.04.14.11.19.17.1.19-.05.34.03.08.08.16.17.18.26,1.47.74,3.08,1.3,4.71,1.8,1.49.52,3.02.96,4.47,1.37,1.16.28,2.27.47,3.29.78,1.42.2,2.61.48,3.94.66.95.15,1.99.38,2.8.39.14,0,.31-.05.47-.03.24.03.48.16.72.19.66.09,1.34,0,2,.06.73.06,1.44.13,2.16.16.41.02.8-.06,1.2-.06.27,0,.54.09.82.08.77,0,1.56-.13,2.29-.12.97,0,1.98.12,2.95-.1,1.09.02,2.4-.08,3.43-.23.86.17,1.7-.19,2.64-.24.1,0,.17.03.27.03,1.44,0,2.96-.54,4.11-.57.4-.22.79-.1,1.19-.14.43-.04.81-.21,1.21-.28.13-.02.27.01.4,0,.42-.05.8-.22,1.25-.33.67-.16,1.44-.03,2.17-.35.61-.01,1.52-.06,2.17-.34,1.19-.02,2.28-.52,3.47-.68.4-.05.79.03,1.15-.2.44.07.91-.14,1.41-.23.5-.09,1.02-.12,1.54-.2.37-.06.77-.17,1.16-.24.4-.08.82-.13,1.16-.04.44.59.73-.51,1.41-.56.38.03.39.23.61.43.34.01.62-.15.91-.29.38-.05.74.16,1.23-.02ZM15.24,85.21s.02-.05,0-.07c.16-.07.2.22,0,.07ZM15.14,85.21c-.29-.19-.79-.35-.93-.6-.05-.04-.05.18-.16.14-.08-.15-.19-.3-.39-.46.13-.21.46.22.6.05.15.14.22.2.36.16.28.3.45.22.65.47-.15.07-.02.12-.13.24Z" style="fill: #231f20; fill-rule: evenodd; stroke-width: 0px;"/>
  </g>
  <g>
    <path d="M92.88,95.6c2.93-4.86,5.08-10.09,6.61-15.39,1.53-5.3,2.45-10.68,2.96-16.04,1.01-10.7.41-21.16-.14-31.26l-12.26.67c.56,10.1,1.08,19.94.18,29.43-.89,9.43-3.25,18.61-7.86,26.24l10.51,6.34Z" style="fill: none; stroke-width: 0px;"/>
    <path d="M91.68,45.76s-.06-.09-.06-.16c.07.01.12.1.06.16Z" style="fill: #231f20; fill-rule: evenodd; stroke-width: 0px;"/>
    <path d="M99.92,43.06s-.11-.2.03-.19c.02.09-.02.12-.03.19Z" style="fill: #231f20; fill-rule: evenodd; stroke-width: 0px;"/>
    <path d="M100.1,42.79c-.07-.01-.01-.13-.03-.19.09,0,.07.15.03.19Z" style="fill: #231f20; fill-rule: evenodd; stroke-width: 0px;"/>
    <path d="M98.8,42.09s-.09-.14-.03-.19c.07.01.01.13.03.19Z" style="fill: #231f20; fill-rule: evenodd; stroke-width: 0px;"/>
    <path d="M100.12,41.69c-.08-.06-.11-.17-.09-.32.09.05.07.2.09.32Z" style="fill: #231f20; fill-rule: evenodd; stroke-width: 0px;"/>
    <path d="M93.54,41.06c-.01-.16-.15-.48-.01-.6-.08.2.08.42.01.6Z" style="fill: #231f20; fill-rule: evenodd; stroke-width: 0px;"/>
    <path d="M96.38,40.5c-.19-.19,0-.56-.13-.82.15-.04.04.38.16.45,0,.06-.03.11-.06.16.01.07.11.13.03.21Z" style="fill: #231f20; fill-rule: evenodd; stroke-width: 0px;"/>
    <path d="M96.69,38c-.08,0-.13,0-.12-.08.03-.02.07-.03.12-.03v.11Z" style="fill: #231f20; fill-rule: evenodd; stroke-width: 0px;"/>
    <path d="M95.62,37.03c-.14-.16-.17-.53-.08-.74-.02-.03-.07-.03-.06-.08-.02-.12.02-.4.03-.13.11.32.03.59.11.95Z" style="fill: #231f20; fill-rule: evenodd; stroke-width: 0px;"/>
    <path d="M97.12,36.83s-.07-.1-.06-.18c.07.02.1.15.06.18Z" style="fill: #231f20; fill-rule: evenodd; stroke-width: 0px;"/>
    <path d="M93.19,36.78c-.07-.03-.01-.17-.04-.24.04.05.09.17.04.24Z" style="fill: #231f20; fill-rule: evenodd; stroke-width: 0px;"/>
    <path d="M96.6,36.66c-.08-.06-.07-.21-.13-.29.11-.08.11.19.13.29Z" style="fill: #231f20; fill-rule: evenodd; stroke-width: 0px;"/>
    <path d="M97.02,36.51c-.09-.05-.07-.2-.1-.32.08.06.06.21.1.32Z" style="fill: #231f20; fill-rule: evenodd; stroke-width: 0px;"/>
    <path d="M92.46,36.57c-.1,0-.1-.11-.12-.18.09.01.09.12.12.18Z" style="fill: #231f20; fill-rule: evenodd; stroke-width: 0px;"/>
    <path d="M93.18,36.41c-.09-.08-.08-.38-.07-.52.08.18.08.32.07.52Z" style="fill: #231f20; fill-rule: evenodd; stroke-width: 0px;"/>
    <path d="M96.92,36.14c-.14-.13-.05-.33-.04-.45.09.12-.05.31.04.45Z" style="fill: #231f20; fill-rule: evenodd; stroke-width: 0px;"/>
    <path d="M95.51,35.87c-.05-.05-.07-.14-.1-.21.13-.02.08.12.1.21Z" style="fill: #231f20; fill-rule: evenodd; stroke-width: 0px;"/>
    <path d="M95.8,35.62c-.08-.06-.05-.12-.03-.21.07.02.01.15.03.21Z" style="fill: #231f20; fill-rule: evenodd; stroke-width: 0px;"/>
    <path d="M96.15,35.37c-.08-.02-.11-.22.06-.19.02.06-.04.05-.09.06-.01.06.06.06.03.13Z" style="fill: #231f20; fill-rule: evenodd; stroke-width: 0px;"/>
    <path d="M93.83,34.94c.13.12-.04.36,0,0h0Z" style="fill: #231f20; fill-rule: evenodd; stroke-width: 0px;"/>
    <path d="M92.72,34.71c-.07-.11-.06-.21-.04-.34.04.08.06.29.04.34Z" style="fill: #231f20; fill-rule: evenodd; stroke-width: 0px;"/>
    <path d="M92.54,34.64c-.09.04-.1-.17,0-.13v.13Z" style="fill: #231f20; fill-rule: evenodd; stroke-width: 0px;"/>
    <path d="M90.94,34.48c-.06-.03-.08-.12-.06-.18.07.02.1.15.06.18Z" style="fill: #231f20; fill-rule: evenodd; stroke-width: 0px;"/>
    <path d="M91.04,33.74c-.15-.21-.01-.3,0,0h0Z" style="fill: #231f20; fill-rule: evenodd; stroke-width: 0px;"/>
    <path d="M91.29,39.65s-.06-.1-.12-.13c.12-.09,0-.23.05-.34.14.13-.02.28.07.47Z" style="fill: #231f20; fill-rule: evenodd; stroke-width: 0px;"/>
    <path d="M93.72,36.58c-.01-.06.05-.06.03-.13.05,0,.05.02.09.02.02-.13-.03-.2-.04-.32.02.01.05.03.09.02-.17-.14.08-.33-.01-.63.19.29.09.95.15,1.21-.12-.03-.02-.27-.16-.29-.09,0,0,.15-.15.11Z" style="fill: #231f20; fill-rule: evenodd; stroke-width: 0px;"/>
    <path d="M96.53,36.16s-.03-.01-.03,0c-.07,0-.02-.12,0-.13.09.03.06.38.03.13Z" style="fill: #231f20; fill-rule: evenodd; stroke-width: 0px;"/>
    <path d="M96.1,34.21h.12c-.02-.17-.06-.44.05-.56.1.2-.09.63.11.76-.03.04-.03.1-.06.13.21.46.04.97.18,1.45-.33-.2.08-.72-.26-.94.01-.04.03,0,.03.03-.02-.21.04-.6-.17-.87Z" style="fill: #231f20; fill-rule: evenodd; stroke-width: 0px;"/>
    <path d="M92.29,34.59c-.06-.04-.07-.11-.12-.15,0-.02.2.1.12.15Z" style="fill: #231f20; fill-rule: evenodd; stroke-width: 0px;"/>
    <path d="M85.1,83.99c-.04.1,0,.25-.04.35-.11.24-.3.41-.36.66-.05.23,0,.49-.08.73-.06.17-.04.24-.06.37-.05.37-.23.6-.03.87.07.31.03.64.09.92.01.04-.04.1-.03.12.17.72.66,1.39.62,2.15.12.14.32.3.46.52.06.09.06.23.12.31.25.31.72.45.83.82.07.06.12.03.18.05.63.39,1.23.62,1.69.98.39,0,.71.25,1.06.28.22.02.48-.04.7-.05.26,0,.48-.05.73-.04.19.11.32-.02.5.04.23-.12.48-.17.71-.3.08.02.14,0,.22.03.56-.23,1.2-.44,1.65-.96.04-.05.12-.15.16-.21.21-.44.61-1.09.99-1.19.06-.07,0-.1.05-.17.15.01.51-.11.6-.32.03-.07-.09-.28-.05-.45.06-.25.39-.37.45-.59.03-.1-.09-.28-.08-.39.03-.3.32-.8.46-1.01.12-.16.27-.17.3-.31.02-.13-.08-.28-.3-.35-.33-.53.39-1.27.37-1.88.31-.33.17-.8.34-1.16.03-.07.12-.14.15-.22.04-.13,0-.33.03-.51.04-.3.13-.54.13-.8.41-.27.16-.64.26-.93.04-.11.16-.19.2-.32.03-.11-.02-.24.02-.35.04-.11.17-.21.2-.32.02-.08-.01-.17.02-.23.03-.09.12-.12.14-.22.01-.1-.07-.24-.05-.34.06-.38.29-.75.17-1.16.36-.59.19-1.22.57-1.92-.01-.2-.02-.35.08-.53-.01-.05-.08-.06-.06-.13.17-.37.02-.84.21-1.22-.03-.02-.06-.04-.07-.08.27-.53.42-1.23.33-1.7.21-.31.13-.74.19-1.16.03-.2.15-.38.14-.57,0-.37.16-.83.17-1.19,0-.11-.07-.22-.06-.32,0-.19.12-.37.1-.57-.05-.78.18-1.63.26-2.29.03-.2-.05-.39-.06-.62-.01-.39.18-.76.19-1.15,0-.1-.05-.2-.05-.29,0-.23.07-.44.09-.68.04-.59-.08-1.19.11-1.73-.14-.72,0-1.74,0-2.56-.15-.19,0-.36-.02-.55-.03-.59-.18-1.34-.04-1.94-.19-2.57-.05-5.23-.41-7.74.12-.2.04-.5-.05-.67.08-.04.07-.15.09-.24-.2-.31-.05-.71-.11-1.1-.2-.1-.06-.34-.21-.48.11-.07.09.08.15-.03-.36-.25-.22-1.12-.33-1.5,0,.03-.05.03-.06,0,.09-.1-.09-.14-.09-.24-.06-.7-.43-1.19-.58-1.78.05-.08.19-.28.06-.35-.02.11,0,.25-.15.24.04-.18-.03-.41-.15-.53-.02-.22.05-.34-.07-.53,0-.05-.15.05-.15-.05.06-.31-.07-.46,0-.74-.14-.07-.2-.4-.13-.5-.06-.09-.11.11-.15.03-.05-.25-.12-.48-.04-.72-.07-.05-.16-.09-.18-.18-.01-.06.14.01.09-.08-.08-.09-.13.08-.24.06-.05-.12-.13-.1-.21-.15.07-.18-.1-.29-.16-.45-.06-.16-.02-.35-.07-.5-.04-.13-.15-.19-.16-.34,0-.12.1-.23.08-.37-.03-.07-.11.05-.12-.05-.06-.48-.12-.97-.33-1.32.26.54.03.95.27,1.42-.13.08.09.21-.08.29.08.03.13-.09.12.02,0,.04-.04.05-.03.11-.16-.06-.16.04-.27.09.03.41.12.73.14,1.08.04.06.09-.05.12.02.03.13.01.24.07.4-.12.05-.17.16-.33.11-.01-.48-.28-1.12-.33-1.69-.02-.17.1-.36-.1-.45.07.25-.13.47-.14.69-.01.29.19.59.16.87,0,.08-.06.11-.06.19,0,.06.1.15.09.21,0,.07-.07.08-.06.13.02.12.12.21.13.34,0,.22-.1.45-.05.69-.05.05-.19.03-.21-.02,0-.29-.01-.34-.04-.63-.01.03-.04.06-.09.05,0-.09.04-.13-.03-.18.02.22-.22.21-.33.14.01-.55-.12-1.21-.06-1.66-.07-.05-.15-.07-.18-.15-.1-.5-.05-1.07-.15-1.61-.15.63,0,1.27.1,1.98-.03.03-.11.01-.09.08.1.3.09.66.14.89-.12.11-.25.22-.38.33.14.75-.36,1.32-.33,2.04-.09,0-.12.06-.18.08-.08-.05-.18-.09-.24-.15-.01-.12-.06-.24,0-.34-.29-.59-.14-1.46-.33-2.2-.15-.08-.26,0-.39.06-.07.37.16.69-.01,1.08-.35.15-.6.02-.63-.27-.06-.49-.06-1.33-.03-1.65-.28-1.43-.27-2.86-.52-4.33-.02.83.21,1.57.11,2.32.07,0,.1.02.09.08,0,.72.05,1.52.19,2.15-.2.28.07.77-.13,1.05-.34-.05-.51-.26-.61-.54.03.28-.07.55-.08.79,0,.2.11.53.04.63-.02.02-.09-.02-.09.03,0-.08.03.14.03.16.04.1.07.08.06.21,0,.16-.01.16-.09.26-.03.56.1,1.09.05,1.64,0,.06,0,.17,0,.18-.02.05-.08.01-.09.08,0,.04.07.02.06.08-.02.22-.04.46-.03.68.04.54-.03,1.17,0,1.61-.02.1-.13-.03-.12.1-.05.75-.09,1.55-.11,2.35-.01.06-.14.01-.12.1-.02.11.12.08.12.18-.04.06-.08.12-.15.15-.1.92.03,1.86.08,2.8.04.88.04,1.76.04,2.59,0,.65.12,1.28.01,1.86.07.79.04,1.46.02,2.19-.01.53-.11,1.1-.08,1.55,0,.08.07.17.06.26,0,.13-.12.26-.13.39-.03.36.07.74.03,1.1-.05.4-.09.79-.14,1.18-.03.22.05.44.03.66-.01.15-.11.29-.12.44-.04.42.05.87-.03,1.27-.11.53-.29,1.06-.23,1.62-.17.58-.27,1.31-.32,1.88-.31.42-.15.94-.3,1.44-.02.05-.07.08-.09.13-.33.74-.17,1.67-.47,2.27.1.27-.11.43-.19.64-.09.23-.04.47-.09.69-.02.07-.09.13-.12.2-.08.22-.04.47-.08.72-.06.38-.42.71-.38,1.18-.2.3-.45.75-.43,1.16-.41.56-.34,1.27-.65,1.88-.1.2-.32.35-.26.61-.23.17-.22.47-.34.73-.12.26-.31.5-.44.77-.19.38-.26.91-.68,1.08-.69-.12.14.51-.11.76-.19.11-.36.01-.62-.01-.15.11-.15.26-.16.42-.13.13-.47.13-.57.34ZM97.8,40.94s.05,0,.06-.03c.15.05-.06.18-.06.03ZM97.74,40.89c-.02-.22-.17-.52-.07-.69,0-.04-.17.05-.21-.02.07-.1.12-.21.11-.37.25-.02.12.31.34.31-.01.13-.02.19.09.24-.07.26.08.31,0,.5-.14-.04-.11.04-.27.03Z" style="fill: #231f20; fill-rule: evenodd; stroke-width: 0px;"/>
  </g>
  <g>
    <path d="M65.81,67.15c-1.28,1.75-3.19,3.18-5.52,4.17-2.32.99-5.01,1.51-7.68,1.54-5.56.08-11.54-1.73-17.77-4.04l-4.25,11.52c3.3,1.22,6.76,2.41,10.44,3.32,3.68.91,7.61,1.53,11.7,1.48,4.17-.05,8.35-.83,12.35-2.52,3.97-1.68,7.82-4.39,10.61-8.19l-9.89-7.28Z" style="fill: none; stroke-width: 0px;"/>
    <path d="M39.29,82.1s-.08.03-.13.02c.03-.06.11-.1.13-.02Z" style="fill: #231f20; fill-rule: evenodd; stroke-width: 0px;"/>
    <path d="M40.03,73.64s-.16.07-.1-.07c.06,0,.07.05.1.07Z" style="fill: #231f20; fill-rule: evenodd; stroke-width: 0px;"/>
    <path d="M39.93,73.41c-.03.06-.08-.02-.12-.01.03-.08.11-.03.12.01Z" style="fill: #231f20; fill-rule: evenodd; stroke-width: 0px;"/>
    <path d="M39.09,74.48s-.11.05-.12-.01c.03-.06.08.02.12.01Z" style="fill: #231f20; fill-rule: evenodd; stroke-width: 0px;"/>
    <path d="M39.27,73.14c-.06.06-.14.06-.22.01.06-.08.15-.02.22-.01Z" style="fill: #231f20; fill-rule: evenodd; stroke-width: 0px;"/>
    <path d="M36.69,79.19c-.11-.03-.36,0-.4-.15.1.13.3.04.4.15Z" style="fill: #231f20; fill-rule: evenodd; stroke-width: 0px;"/>
    <path d="M37.29,76.37c-.19.12-.36-.14-.56-.09.02-.15.25.06.33-.03.04.02.06.06.08.09.05,0,.12-.07.14.02Z" style="fill: #231f20; fill-rule: evenodd; stroke-width: 0px;"/>
    <path d="M35.84,75.42c-.02.08-.05.12-.09.09,0-.03,0-.07.02-.12l.07.03Z" style="fill: #231f20; fill-rule: evenodd; stroke-width: 0px;"/>
    <path d="M34.85,76.15c-.15.09-.39.01-.49-.13-.02.01-.04.06-.07.04-.08-.01-.24-.13-.07-.06.24-.01.38.14.63.16Z" style="fill: #231f20; fill-rule: evenodd; stroke-width: 0px;"/>
    <path d="M35.27,74.71s-.09.03-.14,0c.04-.06.13-.05.14,0Z" style="fill: #231f20; fill-rule: evenodd; stroke-width: 0px;"/>
    <path d="M33.8,78.35c-.04.06-.11-.03-.16-.03.05-.03.15-.04.16.03Z" style="fill: #231f20; fill-rule: evenodd; stroke-width: 0px;"/>
    <path d="M34.97,75.14c-.07.06-.15,0-.22.04,0-.13.16-.05.22-.04Z" style="fill: #231f20; fill-rule: evenodd; stroke-width: 0px;"/>
    <path d="M35.04,74.71c-.06.08-.15.01-.23,0,.07-.05.15,0,.23,0Z" style="fill: #231f20; fill-rule: evenodd; stroke-width: 0px;"/>
    <path d="M33.39,78.96c-.04.09-.1.06-.16.06.04-.08.11-.05.16-.06Z" style="fill: #231f20; fill-rule: evenodd; stroke-width: 0px;"/>
    <path d="M33.56,78.25c-.08.06-.27-.03-.36-.08.14-.02.23.02.36.08Z" style="fill: #231f20; fill-rule: evenodd; stroke-width: 0px;"/>
    <path d="M34.77,74.7c-.13.1-.22-.05-.29-.09.11-.05.17.13.29.09Z" style="fill: #231f20; fill-rule: evenodd; stroke-width: 0px;"/>
    <path d="M34.08,75.94c-.05.04-.11.02-.17.03.03-.13.11-.04.17-.03Z" style="fill: #231f20; fill-rule: evenodd; stroke-width: 0px;"/>
    <path d="M34.04,75.6c-.07.06-.09.01-.14-.03.04-.06.1.03.14.03Z" style="fill: #231f20; fill-rule: evenodd; stroke-width: 0px;"/>
    <path d="M34.01,75.2c-.05.07-.18.04-.09-.1.04,0,.02.05,0,.1.04.03.06-.04.09,0Z" style="fill: #231f20; fill-rule: evenodd; stroke-width: 0px;"/>
    <path d="M32.88,77.23c.13-.08.21.14,0,0h0Z" style="fill: #231f20; fill-rule: evenodd; stroke-width: 0px;"/>
    <path d="M32.31,78.2c-.09.03-.16,0-.23-.06.07-.02.2.03.23.06Z" style="fill: #231f20; fill-rule: evenodd; stroke-width: 0px;"/>
    <path d="M32.2,78.34c0,.1-.14.04-.08-.03l.08.03Z" style="fill: #231f20; fill-rule: evenodd; stroke-width: 0px;"/>
    <path d="M31.49,79.77s-.11.04-.14,0c.04-.06.13-.04.14,0Z" style="fill: #231f20; fill-rule: evenodd; stroke-width: 0px;"/>
    <path d="M31.06,79.46c-.19.08-.19-.07,0,0h0Z" style="fill: #231f20; fill-rule: evenodd; stroke-width: 0px;"/>
    <path d="M34.98,80.91s-.09.03-.13.08c-.02-.13-.15-.06-.21-.14.13-.09.18.1.34.06Z" style="fill: #231f20; fill-rule: evenodd; stroke-width: 0px;"/>
    <path d="M33.87,77.8s-.02-.07-.07-.06c.01-.05.03-.04.05-.08-.08-.05-.14-.03-.21-.05.02-.02.03-.04.05-.08-.15.12-.18-.16-.4-.16.25-.09.64.18.82.2-.06.1-.18-.05-.24.07-.04.09.09.05.01.17Z" style="fill: #231f20; fill-rule: evenodd; stroke-width: 0px;"/>
    <path d="M34.64,75.07s-.02.02-.01.03c-.03.06-.08-.01-.08-.03.05-.07.26.05.09,0Z" style="fill: #231f20; fill-rule: evenodd; stroke-width: 0px;"/>
    <path d="M33.27,74.93l.04-.11c-.11-.03-.29-.07-.33-.2.16-.03.35.26.51.12.01.04.05.05.06.09.36-.07.61.24.96.23-.25.25-.41-.27-.68-.02-.02-.03.01-.03.03-.02-.14-.05-.36-.2-.6-.09Z" style="fill: #231f20; fill-rule: evenodd; stroke-width: 0px;"/>
    <path d="M32.08,78.55s-.1.04-.14.07c-.01-.01.14-.16.14-.07Z" style="fill: #231f20; fill-rule: evenodd; stroke-width: 0px;"/>
    <path d="M71.46,78.83c.08-.07.1-.22.19-.3.2-.17.46-.22.62-.45.14-.2.19-.47.35-.66.11-.14.13-.21.19-.32.18-.31.42-.48.3-.81.02-.32.14-.62.14-.9,0-.04.06-.09.06-.1.01-.7-.4-1.46-.31-2.12-.11-.15-.29-.33-.4-.54-.05-.09-.04-.21-.11-.29-.23-.31-.67-.52-.77-.85-.07-.06-.11-.05-.17-.08-.6-.45-1.15-.76-1.58-1.14-.35-.11-.65-.37-.96-.49-.19-.08-.41-.11-.6-.18-.22-.08-.4-.12-.61-.21-.17-.14-.26-.1-.42-.2-.18,0-.37-.06-.54-.07-.06-.04-.12-.05-.19-.11-.44-.09-.94-.25-1.23-.15-.03,0-.08.03-.1.06-.15.15-.44.31-.72.17-.04,0,0,.06-.04.07-.11-.09-.37-.22-.43-.15-.02.02.06.2.02.27-.05.11-.29-.03-.34.06-.02.04.05.21.04.27-.02.16-.27.25-.39.26-.1,0-.2-.09-.24-.03-.03.05.03.21.16.39.16.52-.42.43-.52.75-.26-.06-.25.31-.44.37-.04.01-.11-.02-.14,0-.06.03-.08.16-.14.23-.1.12-.21.17-.28.3-.29-.18-.26.18-.41.23-.06.02-.15-.04-.21-.02-.05.02-.06.12-.12.14-.06.02-.15-.04-.2-.02-.04.02-.05.09-.08.1-.04.01-.1-.04-.14-.01-.04.03-.05.16-.09.19-.16.11-.4.08-.49.35-.37-.05-.55.31-.99.25-.08.09-.13.16-.25.13-.02.03,0,.1-.03.1-.22-.03-.37.27-.6.22,0,.04,0,.07,0,.09-.32-.05-.69,0-.89.22-.21-.11-.38.12-.6.15-.1.02-.22-.04-.32,0-.18.1-.45.07-.63.13-.05.02-.1.11-.15.13-.1.04-.21-.03-.31.02-.39.23-.88.15-1.23.18-.11,0-.2.11-.32.16-.21.07-.43-.09-.64-.04-.05.01-.1.07-.15.09-.13.04-.24-.02-.38,0-.33,0-.67.17-.98.03-.41.18-1,.1-1.47.09-.12.15-.21,0-.32.02-.34.04-.8.18-1.14,0-1.55.11-3.11-.3-4.7-.34-.09-.15-.29-.11-.42-.06,0-.08-.08-.09-.12-.13-.24.15-.44-.07-.69-.09-.11.17-.22,0-.35.11-.01-.11.08-.08.02-.15-.25.31-.73,0-1,.02.02,0,0,.06-.02.06-.03-.1-.11.06-.17.04-.44-.08-.85.16-1.26.17-.03-.06-.11-.24-.19-.13.06.04.15.06.1.19-.1-.08-.26-.06-.37.03-.14-.03-.19-.13-.35-.06-.03-.01-.02.15-.08.13-.17-.14-.31-.04-.46-.17-.09.12-.31.09-.35,0-.08.04.03.13-.03.15-.17,0-.34,0-.45-.14-.06.05-.11.13-.17.13-.04,0,.05-.13-.02-.1-.08.06,0,.15-.05.24-.09.02-.1.09-.17.16-.08-.11-.21.02-.33.03-.12.01-.22-.07-.33-.06-.1,0-.17.09-.27.06-.08-.03-.11-.15-.2-.18-.05,0,0,.12-.07.1-.32-.07-.64-.14-.93-.05.43-.1.6.22.97.13,0,.14.16-.03.15.16.05-.07,0-.14.06-.11.02.02.02.05.06.05-.1.14-.03.16-.04.27.26.08.49.08.72.15.05-.02,0-.1.06-.11.09,0,.15.05.27.04,0,.12.04.2-.04.34-.3-.11-.79-.03-1.17-.13-.11-.03-.19-.19-.31-.03.18,0,.25.25.38.31.18.08.43-.03.6.07.05.03.05.09.1.1.04.01.12-.05.16-.03.04.02.02.08.06.09.08.01.17-.06.26-.03.14.05.25.2.42.22.01.06-.04.18-.08.19-.18-.07-.22-.07-.41-.12.02.02.02.05,0,.1-.06-.03-.07-.07-.13-.02.14.04.06.26-.02.34-.34-.16-.81-.2-1.07-.38-.05.05-.1.12-.16.13-.35-.04-.69-.24-1.06-.29.34.31.79.35,1.28.44,0,.03-.03.11.02.1.23-.01.45.08.61.11.02.14.05.29.08.45.52.06.72.67,1.2.83-.03.09,0,.12,0,.19-.06.06-.11.14-.18.19-.08-.02-.17,0-.22-.08-.48.13-1-.23-1.54-.25-.11.12-.1.25-.09.38.21.16.5.04.7.3-.02.37-.19.57-.39.52-.34-.08-.89-.3-1.09-.42-1.02-.13-1.94-.54-2.96-.74.51.26,1.08.26,1.51.55.02-.06.05-.08.08-.06.47.2,1,.38,1.46.41.11.26.53.14.64.41-.15.31-.35.41-.56.43.2.04.34.21.49.28.13.06.39.04.43.13.01.02-.04.08-.01.09-.05-.02.1.01.12.01.08-.01.08-.04.16,0,.11.05.1.05.15.15.36.17.76.19,1.13.37.04.02.12.04.13.04.03.03-.02.08.03.1.03.01.03-.06.07-.04.14.07.3.15.46.19.38.09.81.29,1.13.37.06.04-.05.11.04.14.52.22,1.08.42,1.66.6.04.02-.02.14.05.14.08.04.09-.11.16-.08.04.05.07.1.08.18.65.27,1.38.3,2.1.4.67.08,1.34.21,1.99.28.51.05,1.01,0,1.45.14.62-.03,1.15.04,1.73.07.42.03.87.13,1.23.07.06,0,.14-.08.21-.07.11,0,.21.11.32.12.29.02.59-.1.88-.09.32.02.64.03.96.05.18,0,.36-.1.54-.11.12,0,.25.07.38.06.35-.02.7-.16,1.03-.16.44,0,.91.1,1.35-.1.5.01,1.11-.04,1.57-.19.42.17.78-.14,1.22-.17.05,0,.09.03.13.04.69.02,1.35-.44,1.91-.45.16-.21.37-.09.56-.1.21-.02.36-.17.55-.24.06-.02.14.02.2,0,.2-.04.35-.2.56-.29.3-.13.73,0,1.02-.3.31,0,.78-.04,1.03-.31.62-.04,1.05-.51,1.62-.7.19-.06.43-.01.55-.23.26.04.44-.16.68-.27.23-.12.51-.18.76-.29.36-.16.69-.52,1.12-.43.5.48.14-.49.47-.56.22.02.31.18.52.34.18,0,.26-.14.34-.28.18-.06.47.11.65-.04ZM38.05,75.15s.01-.05,0-.06c.08-.13.09.1,0,.06ZM37.99,75.19c-.14-.03-.38.03-.45-.11-.03,0-.03.17-.09.19-.04-.09-.09-.17-.19-.2.07-.24.23-.03.31-.24.07.05.11.07.18-.03.13.13.22,0,.31.12-.08.13-.01.11-.07.26Z" style="fill: #231f20; fill-rule: evenodd; stroke-width: 0px;"/>
  </g>
</svg>