<?xml version="1.0" encoding="UTF-8"?>
<svg id="Layer_1" data-name="Layer 1" xmlns="http://www.w3.org/2000/svg" viewBox="0 0 103.75 104.21">
  <g>
    <path d="M95.77,16.15c-7.4-4.07-15.41-6.84-23.53-8.49-8.13-1.65-16.38-2.21-24.54-1.96C31.39,6.2,15.71,9.77.6,13.69l3.09,11.88c14.84-3.87,29.65-7.16,44.39-7.61,14.64-.46,29.36,2.09,41.78,8.94l5.92-10.75Z" style="fill: none; stroke-width: 0px;"/>
    <path d="M21.58,20.26c-.04.05-.12.08-.22.1,0-.07.13-.15.22-.1Z" style="fill: #231f20; fill-rule: evenodd; stroke-width: 0px;"/>
    <path d="M16.24,12.88c-.07.05-.28.17-.29.03.13-.04.19-.02.29-.03Z" style="fill: #231f20; fill-rule: evenodd; stroke-width: 0px;"/>
    <path d="M15.81,12.78c0,.07-.2.05-.28.08-.02-.09.21-.11.28-.08Z" style="fill: #231f20; fill-rule: evenodd; stroke-width: 0px;"/>
    <path d="M14.96,14.27c-.05.06-.19.13-.27.09,0-.07.19-.05.27-.09Z" style="fill: #231f20; fill-rule: evenodd; stroke-width: 0px;"/>
    <path d="M14.16,13.08c-.08.1-.24.16-.46.19.06-.11.3-.13.46-.19Z" style="fill: #231f20; fill-rule: evenodd; stroke-width: 0px;"/>
    <path d="M14.24,19.78c-.24.06-.7.29-.9.19.31.02.61-.2.9-.19Z" style="fill: #231f20; fill-rule: evenodd; stroke-width: 0px;"/>
    <path d="M12.95,17.14c-.26.24-.84.18-1.2.38-.09-.13.56-.15.64-.29.09-.01.17,0,.25,0,.1-.04.18-.15.31-.1Z" style="fill: #231f20; fill-rule: evenodd; stroke-width: 0px;"/>
    <path d="M9.16,17.6c.03.07.01.13-.09.14-.04-.02-.06-.06-.06-.11l.16-.04Z" style="fill: #231f20; fill-rule: evenodd; stroke-width: 0px;"/>
    <path d="M7.88,18.96c-.21.19-.76.34-1.09.31-.04.03-.03.08-.11.09-.18.06-.6.11-.2.02.47-.21.88-.22,1.4-.42Z" style="fill: #231f20; fill-rule: evenodd; stroke-width: 0px;"/>
    <path d="M7.33,17.55c-.05.06-.14.1-.26.12.01-.08.21-.14.26-.12Z" style="fill: #231f20; fill-rule: evenodd; stroke-width: 0px;"/>
    <path d="M7.91,21.45c-.03.08-.24.07-.35.11.07-.06.24-.15.35-.11Z" style="fill: #231f20; fill-rule: evenodd; stroke-width: 0px;"/>
    <path d="M7.16,18.11c-.08.1-.3.13-.41.22-.14-.09.26-.17.41-.22Z" style="fill: #231f20; fill-rule: evenodd; stroke-width: 0px;"/>
    <path d="M6.88,17.75c-.05.11-.29.14-.46.2.08-.1.31-.13.46-.2Z" style="fill: #231f20; fill-rule: evenodd; stroke-width: 0px;"/>
    <path d="M7.71,22.24c.01.1-.15.13-.25.18,0-.1.16-.12.25-.18Z" style="fill: #231f20; fill-rule: evenodd; stroke-width: 0px;"/>
    <path d="M7.36,21.58c-.11.11-.55.2-.77.24.26-.14.47-.18.77-.24Z" style="fill: #231f20; fill-rule: evenodd; stroke-width: 0px;"/>
    <path d="M6.34,17.96c-.17.18-.49.15-.67.18.17-.12.47-.05.67-.18Z" style="fill: #231f20; fill-rule: evenodd; stroke-width: 0px;"/>
    <path d="M6.16,19.45c-.06.07-.19.11-.3.16-.05-.12.17-.12.3-.16Z" style="fill: #231f20; fill-rule: evenodd; stroke-width: 0px;"/>
    <path d="M5.75,19.24c-.07.1-.17.08-.31.1.02-.07.22-.06.31-.1Z" style="fill: #231f20; fill-rule: evenodd; stroke-width: 0px;"/>
    <path d="M5.32,18.97c-.02.09-.31.18-.29,0,.08-.03.08.02.1.07.1-.01.07-.07.19-.07Z" style="fill: #231f20; fill-rule: evenodd; stroke-width: 0px;"/>
    <path d="M5.06,21.4c.16-.17.54-.07,0,0h0Z" style="fill: #231f20; fill-rule: evenodd; stroke-width: 0px;"/>
    <path d="M4.9,22.58c-.15.1-.31.12-.5.15.11-.07.42-.15.5-.15Z" style="fill: #231f20; fill-rule: evenodd; stroke-width: 0px;"/>
    <path d="M4.83,22.78c.08.08-.24.15-.2.05l.2-.05Z" style="fill: #231f20; fill-rule: evenodd; stroke-width: 0px;"/>
    <path d="M4.85,24.41c-.04.07-.16.12-.26.12.01-.08.21-.14.26-.12Z" style="fill: #231f20; fill-rule: evenodd; stroke-width: 0px;"/>
    <path d="M3.73,24.55c-.29.22-.44.11,0,0h0Z" style="fill: #231f20; fill-rule: evenodd; stroke-width: 0px;"/>
    <path d="M12.49,22.43c-.06.05-.14.09-.17.16-.15-.09-.34.07-.52.05.17-.18.42-.06.69-.21Z" style="fill: #231f20; fill-rule: evenodd; stroke-width: 0px;"/>
    <path d="M7.52,20.98c-.09.03-.1-.03-.2.02-.02-.04.03-.06.02-.1-.2.03-.3.1-.46.14.02-.03.03-.06.02-.1-.18.21-.5.03-.94.22.4-.28,1.4-.4,1.78-.53-.03.13-.39.11-.4.25.01.09.22-.04.19.11Z" style="fill: #231f20; fill-rule: evenodd; stroke-width: 0px;"/>
    <path d="M6.42,18.34s-.02.03,0,.03c0,.07-.17.06-.2.05.03-.09.56-.18.19-.07Z" style="fill: #231f20; fill-rule: evenodd; stroke-width: 0px;"/>
    <path d="M3.59,19.41l-.03-.12c-.25.07-.64.2-.84.14.28-.16.96-.12,1.12-.36.06.02.15,0,.21.01.64-.36,1.45-.36,2.14-.65-.24.39-1.08.15-1.37.56-.06,0,0-.03.03-.04-.32.09-.91.16-1.27.45Z" style="fill: #231f20; fill-rule: evenodd; stroke-width: 0px;"/>
    <path d="M4.8,23.04c-.05.07-.15.11-.21.17-.04,0,.11-.23.21-.17Z" style="fill: #231f20; fill-rule: evenodd; stroke-width: 0px;"/>
    <path d="M81.32,23c.16.06.37.02.53.08.38.15.69.37,1.09.48.35.09.73.08,1.1.2.27.09.37.08.56.12.56.11.94.35,1.29.17.44-.02.93.08,1.32.06.06,0,.16.06.18.06,1-.07,1.82-.49,2.92-.31.16-.11.34-.31.6-.42.12-.05.31-.02.41-.08.37-.23.43-.73.93-.79.07-.07.01-.13.02-.19.37-.65.52-1.28.89-1.73-.09-.43.15-.75.1-1.14-.03-.24-.19-.54-.26-.79-.08-.29-.2-.54-.26-.82.11-.2-.12-.36-.08-.56-.23-.28-.37-.57-.61-.84,0-.08-.05-.16-.01-.24-.47-.65-.93-1.39-1.76-1.94-.08-.05-.24-.15-.34-.2-.67-.29-1.68-.8-1.92-1.23-.11-.07-.14,0-.25-.08-.02-.17-.28-.57-.6-.69-.11-.04-.37.07-.62,0-.37-.09-.62-.46-.95-.54-.15-.04-.37.06-.54.04-.44-.06-1.22-.43-1.55-.59-.25-.14-.31-.3-.52-.34-.19-.04-.38.07-.44.29-.68.3-1.91-.52-2.8-.53-.55-.35-1.2-.23-1.77-.43-.11-.04-.24-.13-.35-.16-.2-.05-.49-.02-.75-.05-.45-.05-.83-.16-1.2-.18-.48-.44-.97-.2-1.43-.31-.17-.04-.32-.17-.52-.22-.16-.04-.34.01-.52-.03-.18-.05-.35-.18-.52-.22-.13-.03-.24,0-.35-.02-.14-.04-.21-.13-.36-.15-.16-.02-.34.07-.5.05-.58-.06-1.18-.3-1.75-.18-.94-.38-1.84-.19-2.97-.57-.3.02-.52.03-.81-.08-.07.01-.08.08-.18.06-.59-.16-1.26.01-1.86-.17-.03.03-.05.06-.1.08-.84-.26-1.93-.37-2.62-.26-.51-.19-1.13-.09-1.78-.12-.3-.02-.6-.12-.88-.1-.56.03-1.28-.09-1.82-.09-.16,0-.32.09-.47.09-.28.02-.58-.08-.88-.05-1.16.12-2.49-.02-3.5-.02-.31,0-.58.09-.93.13-.58.06-1.18-.09-1.76-.04-.15.01-.29.07-.42.09-.35.04-.68-.01-1.05,0-.9.05-1.79.26-2.64.15-1.06.26-2.63.29-3.87.42-.27.19-.54.07-.83.12-.88.14-2,.43-2.93.41-3.86.7-7.9,1.16-11.62,2.15-.32-.07-.76.09-1.01.22-.07-.07-.24-.03-.38-.03-.44.28-1.06.24-1.64.4-.11.22-.5.14-.7.33-.12-.09.11-.11-.06-.14-.32.41-1.65.52-2.21.73.04,0,.06.04.01.06-.16-.06-.19.13-.35.16-1.05.25-1.72.76-2.59,1.08-.12-.02-.46-.11-.53.04.17-.01.37-.07.39.08-.28.01-.62.15-.77.3-.33.09-.52.05-.79.22-.07.01.1.13-.05.16-.48.03-.69.21-1.12.23-.09.16-.57.31-.74.27-.12.09.18.08.07.14-.37.13-.7.27-1.07.26-.07.08-.11.18-.24.24-.09.03,0-.14-.14-.06-.12.11.14.11.13.22-.18.09-.12.15-.2.26-.28-.02-.42.19-.65.29-.23.11-.52.12-.74.22-.19.09-.26.21-.49.26-.19.04-.37-.02-.57.04-.1.05.1.09-.05.14-.71.21-1.43.42-1.92.74.76-.43,1.42-.33,2.09-.71.14.1.3-.16.45,0,.03-.09-.15-.1.02-.13.06,0,.08.03.16,0-.06.18.09.14.17.24.61-.16,1.07-.34,1.6-.47.09-.06-.09-.07.02-.13.2-.07.36-.09.58-.19.1.1.27.12.22.29-.72.16-1.63.61-2.48.84-.26.07-.55.02-.65.24.37-.15.72-.02,1.06-.08.43-.08.85-.37,1.28-.43.12-.02.18.02.29,0,.08-.02.2-.14.3-.16.1-.02.12.04.21.02.18-.06.29-.18.49-.23.33-.07.69-.04,1.04-.16.08.04.08.17,0,.21-.43.09-.51.11-.95.23.05,0,.09.02.1.07-.14.02-.19,0-.27.09.33-.08.35.15.26.28-.82.15-1.79.49-2.48.57-.06.08-.09.17-.2.23-.73.26-1.59.39-2.38.66.96-.05,1.89-.39,2.95-.72.05.02.03.11.14.06.44-.19.97-.29,1.32-.41.19.09.37.18.55.28,1.1-.37,2.03-.03,3.1-.28.01.09.1.1.15.15-.07.09-.11.2-.19.28-.17.05-.34.13-.51.11-.84.47-2.16.57-3.25.99-.1.18.03.26.15.37.56-.04,1-.37,1.62-.31.28.3.12.59-.31.71-.72.2-1.99.47-2.47.53-2.09.72-4.23,1.16-6.38,1.88,1.23-.25,2.31-.71,3.43-.86-.02-.06.01-.1.1-.11,1.08-.23,2.27-.53,3.18-.86.44.12,1.15-.31,1.6-.19-.02.36-.31.58-.7.77.42-.12.83-.1,1.19-.16.29-.05.77-.27.93-.23.04,0-.01.09.06.08-.12.02.21-.07.23-.08.15-.07.11-.09.3-.12.24-.04.24-.03.41,0,.84-.14,1.62-.42,2.46-.52.09-.02.25-.05.27-.05.08,0,.03.08.13.07.06,0,.02-.07.11-.08.33-.04.7-.09,1.02-.17.8-.19,1.77-.3,2.42-.45.15,0-.02.13.18.09,1.14-.15,2.35-.32,3.57-.52.09,0,.04.14.17.09.17,0,.1-.14.26-.16.1.02.19.05.26.11,1.4-.14,2.81-.5,4.23-.77,1.33-.24,2.66-.45,3.92-.63.99-.14,1.93-.4,2.84-.4,1.19-.23,2.22-.34,3.34-.44.81-.09,1.7-.09,2.38-.19.12-.02.25-.1.39-.11.21-.01.42.07.63.06.56-.04,1.12-.19,1.67-.2.62-.01,1.22-.03,1.83-.04.34,0,.67-.1,1.01-.12.23,0,.46.07.7.06.66-.02,1.32-.16,1.95-.12.83.05,1.68.16,2.52.06.92.12,2.05.14,2.94.15.7.29,1.47.08,2.27.2.09.01.14.06.22.09,1.21.29,2.6.09,3.57.38.39-.11.69.1,1.02.18.37.08.72.03,1.08.08.12.02.21.09.33.12.36.08.72.03,1.12.07.6.05,1.18.43,1.88.4.5.21,1.25.46,1.86.46.94.45,2.02.38,3,.75.33.12.6.35.98.31.31.25.77.25,1.19.41.42.14.83.36,1.26.53.62.22,1.43.35,1.79.83,0,.72.72-.1,1.17.2.22.22.12.39.15.66.2.17.43.2.67.23.24.16.32.52.66.65ZM13.4,15.6s-.02-.05-.05-.05c.05-.16.29,0,.05.05ZM13.33,15.68c-.33.09-.76.33-1.02.28-.06.01.1.15,0,.21-.16-.04-.34-.05-.58,0-.07-.24.44-.21.41-.43.19-.02.28-.03.34-.17.4,0,.45-.18.76-.16-.04.16.08.09.09.26Z" style="fill: #231f20; fill-rule: evenodd; stroke-width: 0px;"/>
  </g>
  <g>
    <path d="M91.49,81.9c-26.82,6.74-55.57,5.69-81.85-2.92l-3.81,11.67c28.48,9.33,59.56,10.47,88.64,3.16l-2.98-11.91Z" style="fill: none; stroke-width: 0px;"/>
    <path d="M23.71,94.26c-.06.03-.14.03-.24,0,.04-.06.18-.09.24,0Z" style="fill: #231f20; fill-rule: evenodd; stroke-width: 0px;"/>
    <path d="M22.08,85.39c-.07.02-.3.04-.24-.09.12.01.16.06.24.09Z" style="fill: #231f20; fill-rule: evenodd; stroke-width: 0px;"/>
    <path d="M21.77,85.12c-.03.06-.18-.03-.26-.03.02-.08.22-.02.26.03Z" style="fill: #231f20; fill-rule: evenodd; stroke-width: 0px;"/>
    <path d="M20.47,86.12c-.06.03-.21.03-.26-.03.03-.06.18.03.26.03Z" style="fill: #231f20; fill-rule: evenodd; stroke-width: 0px;"/>
    <path d="M20.32,84.72c-.1.06-.26.05-.45-.02.09-.07.29,0,.45.02Z" style="fill: #231f20; fill-rule: evenodd; stroke-width: 0px;"/>
    <path d="M17.49,90.78c-.23-.05-.72-.07-.85-.24.25.16.61.11.85.24Z" style="fill: #231f20; fill-rule: evenodd; stroke-width: 0px;"/>
    <path d="M17.58,87.85c-.32.1-.77-.23-1.16-.21-.01-.16.53.12.66.04.08.03.14.08.2.12.1.02.22-.05.3.06Z" style="fill: #231f20; fill-rule: evenodd; stroke-width: 0px;"/>
    <path d="M14.29,86.51c-.01.08-.05.12-.14.08-.02-.03-.02-.08,0-.12l.14.04Z" style="fill: #231f20; fill-rule: evenodd; stroke-width: 0px;"/>
    <path d="M12.6,87.11c-.26.06-.77-.09-1.02-.28-.04,0-.06.05-.13.02-.17-.04-.53-.2-.17-.09.48.05.81.25,1.32.34Z" style="fill: #231f20; fill-rule: evenodd; stroke-width: 0px;"/>
    <path d="M12.85,85.61c-.07.03-.16.01-.27-.03.05-.06.24-.02.27.03Z" style="fill: #231f20; fill-rule: evenodd; stroke-width: 0px;"/>
    <path d="M11.41,89.27c-.06.05-.23-.07-.34-.08.08-.02.27,0,.34.08Z" style="fill: #231f20; fill-rule: evenodd; stroke-width: 0px;"/>
    <path d="M12.44,86.01c-.11.05-.3-.04-.43-.02-.06-.14.29-.01.43.02Z" style="fill: #231f20; fill-rule: evenodd; stroke-width: 0px;"/>
    <path d="M12.4,85.55c-.1.07-.3-.02-.46-.06.11-.04.31.04.46.06Z" style="fill: #231f20; fill-rule: evenodd; stroke-width: 0px;"/>
    <path d="M10.85,89.85c-.04.09-.18.04-.29.03.05-.08.19-.02.29-.03Z" style="fill: #231f20; fill-rule: evenodd; stroke-width: 0px;"/>
    <path d="M10.9,89.1c-.14.04-.55-.11-.75-.18.28.01.47.08.75.18Z" style="fill: #231f20; fill-rule: evenodd; stroke-width: 0px;"/>
    <path d="M11.87,85.47c-.22.07-.46-.11-.61-.17.19-.02.4.19.61.17Z" style="fill: #231f20; fill-rule: evenodd; stroke-width: 0px;"/>
    <path d="M10.99,86.67c-.09.03-.21,0-.32,0,.02-.13.19-.02.32,0Z" style="fill: #231f20; fill-rule: evenodd; stroke-width: 0px;"/>
    <path d="M10.77,86.28c-.11.04-.17-.01-.3-.07.05-.06.2.06.3.07Z" style="fill: #231f20; fill-rule: evenodd; stroke-width: 0px;"/>
    <path d="M10.56,85.83c-.06.06-.34,0-.23-.14.08.01.05.06.04.11.08.04.1-.03.19.03Z" style="fill: #231f20; fill-rule: evenodd; stroke-width: 0px;"/>
    <path d="M9.12,87.79c.22-.06.47.21,0,0h0Z" style="fill: #231f20; fill-rule: evenodd; stroke-width: 0px;"/>
    <path d="M8.39,88.72c-.17.01-.31-.05-.48-.13.12,0,.42.08.48.13Z" style="fill: #231f20; fill-rule: evenodd; stroke-width: 0px;"/>
    <path d="M8.22,88.85c.03.11-.27,0-.18-.06l.18.06Z" style="fill: #231f20; fill-rule: evenodd; stroke-width: 0px;"/>
    <path d="M7.39,90.25c-.07.04-.19.02-.28-.03.05-.06.25-.02.28.03Z" style="fill: #231f20; fill-rule: evenodd; stroke-width: 0px;"/>
    <path d="M6.4,89.8c-.35.04-.42-.13,0,0h0Z" style="fill: #231f20; fill-rule: evenodd; stroke-width: 0px;"/>
    <path d="M14.78,92.31c-.07.02-.16.02-.22.06-.09-.15-.33-.1-.47-.2.23-.08.39.14.69.14Z" style="fill: #231f20; fill-rule: evenodd; stroke-width: 0px;"/>
    <path d="M11.32,88.67c-.09-.02-.06-.08-.17-.09,0-.05.05-.04.06-.07-.18-.08-.29-.07-.45-.12.03-.02.05-.03.07-.07-.25.09-.42-.23-.87-.29.46-.04,1.34.36,1.71.44-.09.1-.37-.1-.45.01-.04.09.2.08.1.19Z" style="fill: #231f20; fill-rule: evenodd; stroke-width: 0px;"/>
    <path d="M11.75,85.84s-.03.02,0,.03c-.03.06-.16-.04-.18-.06.07-.07.53.12.19.03Z" style="fill: #231f20; fill-rule: evenodd; stroke-width: 0px;"/>
    <path d="M8.98,85.34l.04-.11c-.23-.06-.61-.15-.73-.3.3,0,.81.38,1.06.26.04.04.12.07.16.12.69.01,1.32.42,2.01.51-.39.21-.93-.41-1.36-.2-.05-.03,0-.03.05-.02-.29-.09-.79-.32-1.23-.25Z" style="fill: #231f20; fill-rule: evenodd; stroke-width: 0px;"/>
    <path d="M8.07,89.05c-.07.03-.18.01-.26.04-.03-.02.21-.14.26-.04Z" style="fill: #231f20; fill-rule: evenodd; stroke-width: 0px;"/>
    <path d="M84.77,95.9c.17-.03.34-.18.52-.21.42-.08.82-.04,1.24-.18.37-.12.69-.35,1.07-.46.29-.08.37-.14.56-.22.55-.21,1.02-.26,1.2-.62.35-.29.82-.52,1.12-.79.05-.04.17-.05.18-.07.77-.67,1.12-1.55,2.06-2.12.05-.19.05-.45.17-.71.05-.11.21-.22.24-.33.12-.41-.18-.83.13-1.19,0-.1-.08-.1-.11-.16-.17-.73-.47-1.3-.52-1.88-.34-.27-.38-.67-.66-.94-.17-.17-.46-.29-.66-.44-.23-.17-.46-.29-.66-.47-.05-.22-.29-.21-.38-.38-.31-.07-.56-.21-.88-.28-.04-.07-.12-.1-.15-.18-.68-.24-1.38-.56-2.21-.52-.07,0-.23.02-.32.04-.6.13-1.54.23-1.91,0-.11,0-.1.07-.21.07-.1-.13-.47-.33-.74-.27-.09.02-.22.24-.43.32-.3.11-.64-.09-.91,0-.12.04-.23.24-.36.3-.33.17-1.05.23-1.36.21-.24-.01-.35-.14-.52-.08-.15.05-.25.22-.2.45-.38.57-1.62.37-2.29.7-.54-.1-1,.28-1.5.32-.1,0-.23-.04-.33-.03-.17.02-.39.15-.6.21-.37.11-.7.13-1,.25-.52-.24-.82.15-1.23.18-.15.01-.31-.06-.48-.04-.14.02-.27.12-.43.13-.16.01-.33-.06-.48-.04-.11.01-.19.08-.29.09-.12,0-.2-.05-.33-.03-.13.03-.26.15-.39.18-.49.09-1.03.01-1.48.28-.86-.11-1.57.25-2.58.14-.24.08-.42.14-.69.1-.06.03-.05.1-.14.09-.53-.06-1.06.22-1.6.14-.02.04-.04.07-.07.09-.75-.11-1.68-.08-2.26.13-.46-.13-.97.09-1.53.09-.26,0-.52-.07-.77-.03-.48.07-1.11,0-1.57.05-.14.01-.27.1-.4.12-.24.03-.51-.05-.77,0-1,.2-2.16.06-3.03.04-.27,0-.5.09-.81.12-.51.05-1.03-.12-1.53-.09-.13,0-.25.07-.37.08-.3.02-.59-.03-.91-.04-.78-.03-1.58.1-2.3-.08-.95.14-2.32.03-3.41-.04-.26.14-.48-.02-.73-.02-.78,0-1.8.09-2.61-.11-3.47-.04-7.02-.64-10.45-.88-.24-.16-.67-.15-.92-.1-.04-.08-.19-.1-.31-.15-.46.13-.96-.15-1.5-.2-.17.17-.46-.04-.69.06-.07-.12.13-.07,0-.15-.41.28-1.55-.11-2.09-.12.04,0,.03.06-.01.06-.11-.11-.2.05-.35.02-.96-.13-1.71.03-2.54-.03-.09-.07-.33-.28-.45-.18.14.05.33.09.28.23-.23-.1-.57-.11-.76-.04-.3-.06-.44-.17-.73-.12-.07-.02.03.16-.11.13-.4-.17-.65-.1-1.01-.26-.14.11-.6.05-.72-.06-.14.03.11.14,0,.15-.35-.03-.68-.07-.97-.24-.09.04-.17.11-.3.1-.09-.01.06-.13-.08-.12-.14.04.06.16,0,.25-.18,0-.17.08-.27.14-.22-.14-.42-.02-.65-.03-.24,0-.47-.13-.7-.14-.19-.01-.3.07-.51,0-.17-.05-.28-.19-.48-.23-.11,0,.04.13-.11.09-.67-.15-1.35-.28-1.88-.25.81,0,1.3.37,2.01.35.06.16.32,0,.37.2.07-.06-.07-.16.07-.1.05.02.06.06.13.07-.14.13,0,.17.03.29.56.14,1.02.19,1.51.32.1-.01-.04-.11.07-.1.19.02.33.08.56.1.04.13.17.23.05.36-.65-.19-1.6-.2-2.39-.39-.24-.06-.45-.24-.64-.09.37.04.59.32.89.42.39.13.86.06,1.23.2.11.04.14.11.24.13.08.02.23-.03.31,0,.09.03.08.1.16.11.17.03.32-.03.5.02.3.09.58.26.93.31.05.07,0,.19-.09.19-.4-.09-.47-.11-.88-.2.04.03.06.06.05.11-.12-.04-.16-.09-.26-.05.3.08.22.29.09.37-.74-.24-1.69-.39-2.29-.64-.08.04-.15.11-.27.11-.72-.12-1.48-.4-2.25-.53.81.4,1.73.54,2.74.74.03.04-.02.11.08.12.44.03.93.19,1.27.25.11.16.22.33.33.5,1.07.17,1.72.84,2.73,1.08-.03.09.05.13.06.2-.1.05-.17.14-.28.18-.17-.03-.35-.03-.48-.12-.92.07-2.09-.4-3.17-.55-.17.11-.09.25-.04.4.49.22,1,.15,1.5.46.11.39-.16.59-.58.5-.7-.15-1.89-.51-2.32-.68-1.04-.18-2.07-.41-3.09-.67-1.02-.29-2.04-.58-3.09-.82,1.13.42,2.24.56,3.23,1,.01-.06.06-.08.14-.05,1.01.31,2.15.61,3.07.74.32.31,1.11.26,1.43.57-.18.3-.53.37-.95.35.41.09.75.3,1.09.41.27.1.78.11.9.22.03.03-.05.08.01.1-.11-.03.21.03.23.03.16,0,.14-.03.32.02.23.07.22.07.35.18.79.24,1.59.32,2.37.57.09.02.24.06.26.07.07.04,0,.08.09.12.06.02.05-.06.13-.03.3.1.65.21.97.28.79.15,1.7.4,2.34.51.14.05-.07.11.12.15,1.09.28,2.25.58,3.43.82.09.03,0,.14.13.15.16.05.15-.1.29-.07.09.05.16.11.2.19,1.35.33,2.78.43,4.19.6,1.33.15,2.64.29,3.9.43.99.1,1.94.11,2.82.26,1.2,0,2.22.1,3.34.18.8.06,1.68.21,2.36.16.12,0,.26-.07.4-.06.2,0,.4.12.61.14.55.03,1.12-.06,1.67-.03.62.05,1.21.09,1.82.13.34.02.67-.08,1.01-.08.22,0,.46.08.69.09.66,0,1.32-.11,1.94-.07.83.04,1.68.21,2.52.05.93.06,2.05.05,2.94-.02.73.22,1.47-.03,2.28,0,.09,0,.14.04.23.05,1.24.11,2.59-.28,3.6-.17.37-.18.7-.02,1.05,0,.38.02.72-.11,1.08-.14.12-.01.23.04.35.04.37,0,.72-.14,1.12-.19.6-.08,1.26.12,1.93-.1.54.06,1.35.14,1.94-.08,1.05.1,2.06-.29,3.12-.32.36,0,.7.11,1.05-.08.39.11.83-.02,1.28-.08.45-.05.93-.03,1.4-.07.67-.05,1.48-.31,2.03-.07.34.64.62-.42,1.17-.37.3.09.3.29.46.51.27.06.49-.04.73-.15.3.01.56.27.94.2ZM18.62,86.67s0-.05-.02-.07c.11-.12.23.12.02.07ZM18.53,86.71c-.3-.06-.76-.05-.95-.21-.06-.02.01.18-.09.19-.11-.11-.25-.2-.47-.26.05-.24.45.02.52-.19.16.07.24.1.35,0,.33.17.44.05.68.2-.1.12.02.12-.04.27Z" style="fill: #231f20; fill-rule: evenodd; stroke-width: 0px;"/>
  </g>
  <g>
    <path d="M24.9,88.32c-5.42-9.47-7.65-20.96-7.65-32.42,0-11.55,2.18-23.25,5.04-34.96l-11.92-2.91c-2.96,12.13-5.38,24.78-5.39,37.87,0,6.54.63,13.14,2.09,19.65,1.46,6.5,3.77,12.92,7.19,18.88l10.65-6.11Z" style="fill: none; stroke-width: 0px;"/>
    <path d="M8.2,33.29s-.03-.12-.02-.21c.07.03.1.15.02.21Z" style="fill: #231f20; fill-rule: evenodd; stroke-width: 0px;"/>
    <path d="M16.92,31.89c-.02-.06-.06-.26.08-.21,0,.1-.05.14-.08.21Z" style="fill: #231f20; fill-rule: evenodd; stroke-width: 0px;"/>
    <path d="M17.17,31.62c-.06-.03.02-.15.02-.22.08.02.03.19-.02.22Z" style="fill: #231f20; fill-rule: evenodd; stroke-width: 0px;"/>
    <path d="M16.1,30.51c-.04-.05-.05-.18.02-.22.06.03-.02.16-.02.22Z" style="fill: #231f20; fill-rule: evenodd; stroke-width: 0px;"/>
    <path d="M17.48,30.37c-.06-.09-.06-.22,0-.39.08.08.01.25,0,.39Z" style="fill: #231f20; fill-rule: evenodd; stroke-width: 0px;"/>
    <path d="M11.29,27.96c.03-.2,0-.62.17-.73-.14.22-.06.52-.17.73Z" style="fill: #231f20; fill-rule: evenodd; stroke-width: 0px;"/>
    <path d="M14.2,28.03c-.12-.28.16-.67.12-1,.15-.01-.08.45.02.57-.03.07-.07.12-.1.17,0,.09.07.19-.03.26Z" style="fill: #231f20; fill-rule: evenodd; stroke-width: 0px;"/>
    <path d="M15.27,25.18c-.08-.01-.12-.04-.09-.12.03-.02.07-.02.12,0l-.03.12Z" style="fill: #231f20; fill-rule: evenodd; stroke-width: 0px;"/>
    <path d="M14.55,23.74c-.09-.22,0-.67.17-.89-.01-.04-.06-.05-.03-.11.02-.15.15-.46.07-.15,0,.41-.16.7-.2,1.14Z" style="fill: #231f20; fill-rule: evenodd; stroke-width: 0px;"/>
    <path d="M16.05,23.93c-.03-.06-.03-.14,0-.23.07.04.04.2,0,.23Z" style="fill: #231f20; fill-rule: evenodd; stroke-width: 0px;"/>
    <path d="M12.29,22.75c-.06-.05.04-.2.04-.29.02.07.03.23-.04.29Z" style="fill: #231f20; fill-rule: evenodd; stroke-width: 0px;"/>
    <path d="M15.61,23.58c-.06-.09,0-.26-.03-.37.14-.06.04.25.03.37Z" style="fill: #231f20; fill-rule: evenodd; stroke-width: 0px;"/>
    <path d="M16.05,23.53c-.08-.08,0-.26,0-.4.05.1-.01.27,0,.4Z" style="fill: #231f20; fill-rule: evenodd; stroke-width: 0px;"/>
    <path d="M11.67,22.29c-.1-.03-.06-.16-.06-.25.09.04.04.16.06.25Z" style="fill: #231f20; fill-rule: evenodd; stroke-width: 0px;"/>
    <path d="M12.4,22.31c-.06-.12.05-.47.1-.64.02.24-.03.41-.1.64Z" style="fill: #231f20; fill-rule: evenodd; stroke-width: 0px;"/>
    <path d="M16.08,23.08c-.1-.19.06-.4.11-.53.04.17-.15.35-.11.53Z" style="fill: #231f20; fill-rule: evenodd; stroke-width: 0px;"/>
    <path d="M14.81,22.34c-.04-.07-.02-.18-.02-.27.13.01.04.16.02.27Z" style="fill: #231f20; fill-rule: evenodd; stroke-width: 0px;"/>
    <path d="M15.18,22.14c-.06-.09,0-.15.04-.26.06.04-.03.18-.04.26Z" style="fill: #231f20; fill-rule: evenodd; stroke-width: 0px;"/>
    <path d="M15.6,21.95c-.07-.05-.03-.29.11-.2,0,.07-.06.05-.1.04-.03.07.04.08-.01.16Z" style="fill: #231f20; fill-rule: evenodd; stroke-width: 0px;"/>
    <path d="M13.52,20.76c.08.18-.16.41,0,0h0Z" style="fill: #231f20; fill-rule: evenodd; stroke-width: 0px;"/>
    <path d="M12.53,20.16c-.03-.14.02-.27.08-.42.02.11-.04.36-.08.42Z" style="fill: #231f20; fill-rule: evenodd; stroke-width: 0px;"/>
    <path d="M12.38,20.02c-.1.02-.03-.23.04-.16l-.04.16Z" style="fill: #231f20; fill-rule: evenodd; stroke-width: 0px;"/>
    <path d="M10.92,19.35c-.05-.06-.04-.16,0-.24.07.04.04.21,0,.24Z" style="fill: #231f20; fill-rule: evenodd; stroke-width: 0px;"/>
    <path d="M11.27,18.5c-.07-.3.09-.36,0,0h0Z" style="fill: #231f20; fill-rule: evenodd; stroke-width: 0px;"/>
    <path d="M9.56,25.66c-.03-.06-.03-.14-.08-.19.14-.07.07-.28.16-.4.09.19-.11.33-.08.59Z" style="fill: #231f20; fill-rule: evenodd; stroke-width: 0px;"/>
    <path d="M12.87,22.67c0-.08.07-.05.07-.15.05,0,.04.04.08.05.06-.15.04-.25.07-.38.02.02.04.05.08.05-.12-.21.18-.36.19-.75.08.39-.22,1.15-.26,1.47-.1-.07.07-.32-.06-.38-.09-.03-.06.17-.18.09Z" style="fill: #231f20; fill-rule: evenodd; stroke-width: 0px;"/>
    <path d="M15.7,22.98s-.02-.02-.03,0c-.07-.03.02-.14.04-.16.07.06-.07.46-.01.16Z" style="fill: #231f20; fill-rule: evenodd; stroke-width: 0px;"/>
    <path d="M15.93,20.58l.12.03c.04-.2.09-.53.23-.64.03.26-.3.71-.15.92-.04.03-.06.11-.1.14.05.59-.29,1.14-.3,1.75-.25-.33.31-.81.06-1.18.03-.04.03,0,.02.04.06-.25.24-.69.13-1.06Z" style="fill: #231f20; fill-rule: evenodd; stroke-width: 0px;"/>
    <path d="M12.17,19.9c-.04-.06-.03-.15-.07-.22.01-.03.16.17.07.22Z" style="fill: #231f20; fill-rule: evenodd; stroke-width: 0px;"/>
    <path d="M10.37,86.3c.06.15.22.27.29.42.15.36.16.73.37,1.07.19.3.47.53.65.85.13.23.21.3.32.44.31.43.44.84.82.91.35.24.65.6.96.79.05.03.08.13.1.15.77.51,1.71.57,2.45,1.22.19-.01.44-.09.71-.06.12.01.25.12.36.11.41-.02.75-.4,1.16-.24.09-.03.08-.1.13-.14.65-.36,1.13-.79,1.67-1,.19-.37.56-.52.76-.83.12-.19.19-.46.3-.67.12-.24.19-.46.33-.68.2-.11.14-.29.29-.42.01-.27.1-.51.11-.78.06-.05.07-.13.15-.17.12-.62.33-1.27.17-1.92-.01-.06-.05-.18-.08-.25-.21-.44-.44-1.17-.27-1.52-.01-.09-.08-.06-.09-.15.11-.11.25-.45.16-.65-.03-.07-.26-.12-.35-.27-.14-.22.01-.54-.11-.73-.06-.09-.26-.13-.34-.22-.21-.22-.34-.8-.36-1.04-.02-.19.09-.31.02-.43-.07-.11-.25-.15-.46-.06-.61-.18-.55-1.23-.93-1.71.05-.46-.37-.76-.45-1.16-.02-.08.02-.19,0-.27-.04-.13-.18-.29-.27-.45-.14-.28-.2-.55-.35-.77.18-.45-.21-.65-.28-.98-.02-.12.04-.26,0-.4-.03-.11-.14-.2-.16-.33-.02-.13.04-.28,0-.4-.02-.09-.1-.15-.11-.22-.02-.1.04-.18,0-.28-.04-.1-.17-.19-.21-.3-.13-.39-.1-.84-.4-1.18.04-.72-.35-1.26-.3-2.11-.09-.19-.17-.33-.14-.56-.03-.04-.1-.03-.1-.11.02-.44-.29-.85-.25-1.31-.04-.01-.07-.02-.1-.05.04-.63-.01-1.4-.25-1.86.11-.39-.12-.8-.17-1.26-.02-.22.04-.44-.01-.64-.1-.39-.08-.92-.14-1.3-.02-.11-.11-.22-.13-.33-.04-.2.03-.42-.02-.64-.23-.82-.15-1.79-.18-2.53,0-.23-.11-.42-.16-.67-.06-.42.09-.86.05-1.28-.01-.11-.07-.21-.09-.31-.03-.25.02-.5.01-.76,0-.66-.17-1.32-.02-1.94-.17-.8-.08-1.95-.06-2.88-.15-.22,0-.41,0-.62-.03-.66-.16-1.52.02-2.21-.07-2.94.4-5.97.5-8.9.16-.21.13-.57.07-.78.08-.03.1-.16.14-.26-.14-.39.09-.82.12-1.29-.17-.15.02-.4-.1-.6.12-.06.07.11.15,0-.31-.35.04-1.33.02-1.79,0,.03-.06.03-.06-.01.11-.09-.06-.18-.03-.3.1-.82-.12-1.47-.12-2.19.07-.08.26-.28.15-.39-.04.12-.07.28-.21.25.09-.2.07-.49-.01-.65.04-.26.14-.38.08-.63.01-.06-.16.03-.13-.1.15-.35.06-.56.2-.87-.12-.12-.08-.51.02-.62-.04-.12-.14.09-.15,0,.02-.3.02-.59.17-.84-.05-.08-.13-.14-.12-.26,0-.08.13.05.11-.07-.05-.12-.15.05-.25,0-.02-.16-.09-.14-.16-.24.12-.19-.01-.37-.02-.56,0-.2.09-.41.08-.6,0-.17-.09-.26-.04-.44.03-.15.17-.25.2-.41,0-.09-.12.03-.1-.09.09-.58.18-1.16.1-1.63.08.7-.27,1.12-.19,1.74-.15.06.02.27-.17.32.07.06.15-.06.11.06-.02.04-.06.05-.06.12-.14-.12-.17,0-.29.03-.1.49-.1.88-.19,1.3.02.09.1-.03.11.06,0,.17-.06.28-.05.48-.13.03-.21.15-.35.05.13-.56.06-1.39.19-2.06.04-.21.2-.39.04-.55-.01.32-.27.51-.35.77-.1.34.01.74-.1,1.07-.03.09-.09.12-.11.2-.01.07.05.2.03.27-.02.08-.09.07-.1.14-.02.15.06.28.02.43-.06.26-.22.5-.25.8-.06.04-.19,0-.2-.08.08-.34.08-.4.14-.76-.02.04-.05.06-.1.04.03-.11.08-.14.02-.23-.05.26-.27.19-.36.08.18-.64.24-1.46.44-1.98-.05-.07-.13-.13-.13-.23.06-.62.29-1.27.36-1.93-.34.7-.41,1.49-.52,2.36-.03.03-.11-.02-.11.07,0,.38-.11.8-.14,1.09-.15.1-.31.19-.47.29-.08.92-.73,1.48-.91,2.34-.09-.02-.13.04-.2.05-.06-.08-.14-.15-.19-.24.02-.14,0-.3.09-.41-.12-.78.28-1.78.33-2.72-.12-.14-.25-.08-.39-.03-.18.42-.06.86-.34,1.29-.38.1-.59-.13-.53-.49.09-.6.35-1.62.48-2,.18-1.79.65-3.49.92-5.3-.3.97-.33,1.93-.66,2.78.06.01.09.05.06.12-.23.87-.45,1.83-.5,2.63-.28.28-.16.95-.45,1.23-.32-.15-.41-.45-.42-.81-.05.35-.23.65-.32.93-.07.23-.05.67-.15.77-.02.03-.08-.04-.09.01.03-.1-.02.18-.01.2.01.14.04.12,0,.27-.05.19-.06.19-.16.3-.19.67-.22,1.35-.42,2.02-.02.08-.04.21-.05.22-.03.06-.08,0-.11.08-.02.05.06.04.04.11-.08.26-.17.56-.21.83-.1.67-.32,1.45-.41,2-.04.12-.12-.06-.14.11-.23.93-.45,1.93-.64,2.94-.02.08-.14,0-.14.11-.04.14.11.12.08.25-.05.07-.11.14-.18.17-.29,1.15-.33,2.38-.43,3.6-.09,1.14-.23,2.27-.3,3.35-.06.85-.02,1.68-.16,2.43.02,1.03-.05,1.92-.08,2.88-.03.69-.14,1.45-.08,2.04,0,.1.07.22.07.34,0,.18-.11.35-.12.53-.02.48.09.97.08,1.45-.02.53-.04,1.05-.05,1.58,0,.3.1.58.11.88,0,.2-.07.4-.07.6.01.57.15,1.15.15,1.68,0,.72-.12,1.47.07,2.19-.02.81.02,1.79.15,2.56-.18.65.12,1.28.14,1.99,0,.08-.04.13-.04.21-.05,1.09.4,2.24.39,3.13.2.3.07.61.08.91.01.33.15.62.22.93.02.1-.02.21-.01.31.03.32.19.61.27.96.12.52-.03,1.12.26,1.68-.01.48,0,1.19.26,1.69,0,.94.46,1.78.61,2.71.05.31-.02.64.2.91-.06.36.13.72.23,1.12.1.39.14.81.23,1.23.13.59.48,1.26.33,1.79-.58.42.51.46.54.96-.04.29-.24.32-.43.51-.02.25.11.43.25.62.03.27-.18.55-.06.88ZM15.44,28.92s.05,0,.07-.02c.13.1-.11.2-.07.02ZM15.4,28.84c.04-.26-.01-.66.13-.82.01-.05-.18.01-.2-.08.1-.1.18-.22.22-.41.25.04.02.39.23.45-.05.14-.08.21.02.3-.14.28-.01.38-.14.59-.13-.09-.11.02-.27-.03Z" style="fill: #231f20; fill-rule: evenodd; stroke-width: 0px;"/>
  </g>
  <g>
    <path d="M91.66,94.43c3.14-6.09,5.17-12.55,6.46-19.01,1.29-6.47,1.85-12.98,1.92-19.43.14-12.9-1.61-25.41-3.28-37.56l-12.16,1.68c1.68,12.15,3.3,24.06,3.17,35.75-.06,5.82-.58,11.59-1.68,17.17-1.11,5.57-2.83,10.93-5.32,15.76l10.9,5.64Z" style="fill: none; stroke-width: 0px;"/>
    <path d="M87.55,34.7s-.07-.1-.08-.18c.07.01.13.11.08.18Z" style="fill: #231f20; fill-rule: evenodd; stroke-width: 0px;"/>
    <path d="M95.48,30.82c-.04-.05-.14-.23,0-.23.03.1,0,.15,0,.23Z" style="fill: #231f20; fill-rule: evenodd; stroke-width: 0px;"/>
    <path d="M95.63,30.48c-.07,0-.03-.16-.05-.22.09,0,.09.18.05.22Z" style="fill: #231f20; fill-rule: evenodd; stroke-width: 0px;"/>
    <path d="M94.26,29.74c-.05-.04-.1-.16-.05-.22.07,0,.03.16.05.22Z" style="fill: #231f20; fill-rule: evenodd; stroke-width: 0px;"/>
    <path d="M95.53,29.16c-.09-.07-.13-.2-.13-.38.1.05.09.24.13.38Z" style="fill: #231f20; fill-rule: evenodd; stroke-width: 0px;"/>
    <path d="M88.9,28.88c-.03-.19-.2-.57-.08-.73-.06.25.12.5.08.73Z" style="fill: #231f20; fill-rule: evenodd; stroke-width: 0px;"/>
    <path d="M91.67,27.99c-.21-.22-.07-.68-.22-.98.14-.06.08.45.21.53,0,.08-.02.13-.04.2.02.08.13.15.06.25Z" style="fill: #231f20; fill-rule: evenodd; stroke-width: 0px;"/>
    <path d="M91.71,24.96c-.08.02-.13,0-.13-.08.02-.03.06-.04.12-.04v.13Z" style="fill: #231f20; fill-rule: evenodd; stroke-width: 0px;"/>
    <path d="M90.53,23.86c-.16-.18-.23-.62-.16-.89-.02-.03-.07-.03-.07-.09-.04-.15-.03-.48.01-.16.15.38.1.71.22,1.14Z" style="fill: #231f20; fill-rule: evenodd; stroke-width: 0px;"/>
    <path d="M92,23.51c-.05-.04-.08-.12-.08-.22.08.01.11.18.08.22Z" style="fill: #231f20; fill-rule: evenodd; stroke-width: 0px;"/>
    <path d="M88.07,23.74c-.07-.03-.03-.2-.06-.28.05.06.11.2.06.28Z" style="fill: #231f20; fill-rule: evenodd; stroke-width: 0px;"/>
    <path d="M91.47,23.34c-.09-.07-.09-.25-.16-.34.11-.1.13.22.16.34Z" style="fill: #231f20; fill-rule: evenodd; stroke-width: 0px;"/>
    <path d="M91.87,23.14c-.1-.05-.1-.24-.13-.37.08.07.09.25.13.37Z" style="fill: #231f20; fill-rule: evenodd; stroke-width: 0px;"/>
    <path d="M87.32,23.53c-.1,0-.11-.12-.14-.21.1,0,.1.14.14.21Z" style="fill: #231f20; fill-rule: evenodd; stroke-width: 0px;"/>
    <path d="M88.02,23.29c-.1-.09-.12-.45-.13-.63.1.21.12.38.13.63Z" style="fill: #231f20; fill-rule: evenodd; stroke-width: 0px;"/>
    <path d="M91.73,22.7c-.16-.15-.08-.4-.09-.54.1.14-.02.38.09.54Z" style="fill: #231f20; fill-rule: evenodd; stroke-width: 0px;"/>
    <path d="M90.29,22.47c-.06-.06-.08-.16-.12-.24.13-.04.1.14.12.24Z" style="fill: #231f20; fill-rule: evenodd; stroke-width: 0px;"/>
    <path d="M90.55,22.15c-.08-.07-.06-.14-.06-.25.07.02.03.18.06.25Z" style="fill: #231f20; fill-rule: evenodd; stroke-width: 0px;"/>
    <path d="M90.88,21.82c-.08-.02-.13-.26.04-.23.02.07-.04.07-.08.07,0,.08.06.06.05.16Z" style="fill: #231f20; fill-rule: evenodd; stroke-width: 0px;"/>
    <path d="M88.51,21.47c.14.14,0,.43,0,0h0Z" style="fill: #231f20; fill-rule: evenodd; stroke-width: 0px;"/>
    <path d="M87.37,21.27c-.08-.12-.08-.25-.08-.41.05.09.09.34.08.41Z" style="fill: #231f20; fill-rule: evenodd; stroke-width: 0px;"/>
    <path d="M87.19,21.19c-.09.06-.12-.2-.02-.16l.02.16Z" style="fill: #231f20; fill-rule: evenodd; stroke-width: 0px;"/>
    <path d="M85.58,21.11c-.07-.04-.09-.13-.08-.22.08.01.11.18.08.22Z" style="fill: #231f20; fill-rule: evenodd; stroke-width: 0px;"/>
    <path d="M85.6,20.21c-.17-.25-.05-.36,0,0h0Z" style="fill: #231f20; fill-rule: evenodd; stroke-width: 0px;"/>
    <path d="M86.5,27.33s-.07-.12-.14-.15c.11-.11-.02-.28.02-.42.15.14,0,.34.12.56Z" style="fill: #231f20; fill-rule: evenodd; stroke-width: 0px;"/>
    <path d="M88.58,23.46c-.02-.08.05-.08.01-.16.05-.01.05.02.09.02,0-.16-.06-.24-.07-.38.03.01.05.03.09.02-.18-.16.04-.4-.08-.76.22.33.2,1.14.28,1.45-.12-.03-.05-.32-.19-.33-.09,0,0,.18-.14.14Z" style="fill: #231f20; fill-rule: evenodd; stroke-width: 0px;"/>
    <path d="M91.34,22.74s-.03-.01-.03,0c-.07,0-.03-.14-.02-.16.09.03.1.45.05.16Z" style="fill: #231f20; fill-rule: evenodd; stroke-width: 0px;"/>
    <path d="M90.69,20.43h.12c-.03-.22-.11-.54-.02-.69.12.23-.02.77.19.91-.03.05-.02.12-.04.17.26.53.15,1.17.34,1.74-.35-.22,0-.87-.37-1.12.01-.05.03,0,.03.03-.04-.26-.03-.73-.27-1.03Z" style="fill: #231f20; fill-rule: evenodd; stroke-width: 0px;"/>
    <path d="M86.94,21.16c-.06-.04-.09-.13-.14-.18,0-.03.21.1.14.18Z" style="fill: #231f20; fill-rule: evenodd; stroke-width: 0px;"/>
    <path d="M83.62,82.1c-.04.12.01.29-.04.42-.11.3-.31.53-.36.85-.06.28,0,.59-.08.87-.06.21-.04.3-.06.45-.06.44-.24.75-.03,1.04.07.36.02.75.09,1.07.01.05-.04.13-.04.15.17.82.68,1.53.62,2.42.13.14.33.3.47.53.06.1.05.26.12.35.26.32.75.4.86.82.08.06.12.02.19.03.66.35,1.28.52,1.75.86.41-.05.74.17,1.1.16.23-.01.5-.13.73-.17.27-.05.5-.14.76-.17.2.1.34-.08.53-.03.24-.18.51-.28.75-.47.08,0,.15-.03.23,0,.58-.36,1.25-.7,1.71-1.38.04-.06.13-.19.16-.27.21-.55.62-1.36,1.02-1.54.06-.09,0-.12.05-.21.16-.01.53-.21.61-.47.03-.09-.1-.31-.06-.52.05-.3.4-.49.45-.76.03-.13-.09-.31-.09-.45.03-.36.3-.99.45-1.25.11-.2.28-.24.3-.41.02-.16-.09-.31-.32-.37-.34-.57.35-1.55.32-2.26.31-.43.16-.97.3-1.42.03-.09.12-.19.14-.28.04-.16,0-.39.01-.6.03-.36.12-.66.11-.96.4-.37.13-.77.22-1.14.04-.14.16-.25.19-.41.03-.13-.03-.28,0-.42.04-.14.16-.27.19-.41.02-.1-.02-.2,0-.28.03-.11.11-.17.12-.29,0-.13-.08-.27-.07-.4.04-.46.25-.93.12-1.4.32-.74.13-1.47.48-2.35-.02-.24-.04-.41.05-.64-.01-.06-.09-.07-.07-.15.15-.47-.03-1,.15-1.48-.03-.02-.06-.05-.08-.08.24-.66.34-1.52.23-2.07.2-.4.08-.9.11-1.41.02-.24.12-.47.11-.7-.03-.44.11-1.01.09-1.44,0-.13-.08-.25-.09-.38-.01-.22.09-.46.06-.7-.1-.93.05-1.97.09-2.77,0-.25-.07-.46-.1-.74-.05-.46.12-.93.1-1.39,0-.12-.06-.23-.07-.34-.03-.28.04-.54.03-.83-.01-.71-.17-1.42-.03-2.09-.21-.85-.15-2.09-.22-3.07-.17-.22-.04-.43-.06-.66-.08-.7-.3-1.59-.21-2.33-.43-3.08-.55-6.28-1.16-9.27.1-.25-.01-.61-.12-.81.07-.05.06-.19.07-.3-.24-.36-.13-.85-.22-1.32-.21-.1-.09-.4-.26-.57.1-.09.1.09.15-.04-.38-.27-.34-1.33-.48-1.78,0,.03-.05.05-.06,0,.07-.12-.11-.16-.11-.28-.13-.84-.56-1.4-.77-2.11.04-.1.16-.36.02-.42,0,.13.02.3-.12.3.02-.22-.08-.5-.21-.63-.05-.26.01-.41-.12-.64,0-.06-.14.08-.16-.05.03-.38-.12-.55-.09-.9-.15-.08-.24-.47-.18-.6-.07-.1-.1.13-.15.05-.08-.3-.18-.57-.12-.86-.07-.06-.17-.09-.2-.21-.02-.08.14,0,.08-.1-.09-.1-.13.1-.23.09-.07-.14-.14-.11-.23-.17.05-.22-.13-.34-.21-.53-.08-.19-.06-.42-.12-.6-.06-.16-.17-.21-.19-.4-.02-.15.07-.29.04-.46-.04-.08-.1.07-.13-.05-.11-.58-.23-1.16-.47-1.56.32.63.14,1.15.43,1.7-.12.11.12.25-.05.36.08.03.12-.11.12.02,0,.04-.04.07-.02.13-.17-.06-.15.06-.26.12.07.49.2.87.26,1.3.05.07.08-.07.12.02.05.16.04.29.11.47-.11.07-.15.21-.32.16-.06-.58-.4-1.33-.51-2.01-.04-.21.06-.44-.15-.53.1.3-.08.57-.06.84.02.35.26.69.26,1.04,0,.1-.05.14-.04.23,0,.07.11.17.12.25,0,.08-.06.1-.04.17.03.14.15.24.16.4.03.27-.05.55.02.84-.05.06-.18.05-.21-.01-.04-.35-.05-.41-.11-.76,0,.04-.03.07-.08.07,0-.11.03-.15-.05-.22.04.26-.19.27-.31.19-.05-.66-.26-1.45-.24-2-.07-.05-.16-.08-.2-.17-.16-.6-.17-1.29-.33-1.93-.08.77.13,1.53.32,2.38-.02.04-.11.02-.08.1.13.36.17.79.23,1.07-.11.14-.23.28-.35.42.23.89-.22,1.62-.11,2.48-.09,0-.11.08-.17.11-.08-.06-.18-.09-.26-.17-.02-.14-.09-.28-.04-.41-.36-.69-.3-1.75-.57-2.64-.16-.09-.27.01-.38.1-.03.45.23.82.11,1.3-.33.21-.6.07-.66-.29-.11-.59-.21-1.61-.21-2-.44-1.71-.59-3.44-.99-5.2.07,1,.38,1.89.37,2.79.06-.01.1.02.1.09.08.87.22,1.84.43,2.59-.17.35.16.93-.02,1.28-.35-.04-.54-.28-.67-.6.06.34,0,.67.01.96.01.24.17.63.11.76-.01.03-.09-.02-.09.04,0-.1.04.17.05.19.06.12.08.1.09.25.01.2,0,.19-.06.32.03.68.22,1.31.22,1.99,0,.07.02.2.02.22-.01.07-.08.02-.08.1,0,.05.07.02.07.09,0,.26,0,.56.05.82.09.65.1,1.42.17,1.95,0,.12-.13-.02-.11.14.03.92.07,1.89.14,2.86,0,.07-.14.03-.11.13,0,.14.13.09.13.21-.03.08-.07.15-.14.2,0,1.12.22,2.26.37,3.4.13,1.06.21,2.13.3,3.14.06.8.25,1.55.19,2.27.14.95.18,1.78.22,2.67.03.64-.01,1.35.06,1.89.01.09.08.2.09.31,0,.16-.1.33-.1.49,0,.44.14.89.13,1.33-.01.49-.03.97-.04,1.45,0,.27.08.54.09.81,0,.18-.08.36-.09.55-.01.52.12,1.05.07,1.55-.07.66-.22,1.32-.11,2-.13.73-.18,1.62-.19,2.32-.29.55-.09,1.16-.2,1.8-.01.07-.06.11-.08.17-.29.94-.07,2.06-.34,2.82.12.31-.09.54-.16.81-.08.29,0,.57-.05.86-.01.09-.09.17-.11.26-.07.28-.02.57-.05.89-.05.47-.38.92-.33,1.48-.19.39-.43.97-.38,1.46-.39.74-.3,1.59-.59,2.37-.1.26-.32.47-.25.77-.23.24-.22.6-.32.94-.11.33-.3.65-.43.99-.19.48-.23,1.14-.67,1.4-.71-.04.15.58-.1.93-.2.16-.37.08-.63.09-.16.15-.15.34-.16.53-.14.18-.48.23-.58.5ZM93.13,28.43s.05-.01.06-.04c.15.05-.04.23-.06.04ZM93.07,28.37c-.05-.26-.23-.62-.15-.82,0-.05-.16.07-.21-.01.06-.12.1-.26.07-.46.25-.04.15.36.37.35,0,.15,0,.23.12.28-.04.32.12.36.06.61-.15-.04-.1.06-.27.06Z" style="fill: #231f20; fill-rule: evenodd; stroke-width: 0px;"/>
  </g>
  <g>
    <path d="M86.14,29.7c-6.85,5.5-13.2,11.2-19.77,16.15-3.28,2.48-6.61,4.78-10.04,6.79-.86.49-1.72.98-2.59,1.44l-1.31.67c-.43.22-.9.46-1.25.62-.71.34-1.26.49-1.29.48h0s.07.03-.11-.04c-.3-.1-.95-.47-1.86-1.03l-2.68-1.65c-1.78-1.11-3.56-2.24-5.33-3.39-3.53-2.29-7.04-4.65-10.53-7.06-6.97-4.81-13.88-9.81-20.81-14.84l-7.2,9.94c6.94,5.03,13.91,10.08,21.04,15,3.56,2.46,7.17,4.89,10.82,7.26,1.83,1.19,3.67,2.35,5.52,3.51l2.79,1.72c.92.55,2.1,1.32,3.81,1.99.81.32,1.95.64,2.98.78,1.06.14,2.14.13,3.2-.02,2.09-.31,3.57-.95,4.8-1.5.62-.28,1.11-.54,1.63-.8l1.55-.79c1.02-.55,2.02-1.12,3.02-1.68,3.97-2.33,7.69-4.91,11.25-7.6,7.11-5.38,13.53-11.14,20.04-16.37l-7.68-9.57Z" style="fill: none; stroke-width: 0px;"/>
    <path d="M19.06,49.17c-.07,0-.16-.05-.25-.11.06-.04.22,0,.25.11Z" style="fill: #231f20; fill-rule: evenodd; stroke-width: 0px;"/>
    <path d="M20.51,40c-.09-.02-.34-.11-.23-.21.13.07.15.14.23.21Z" style="fill: #231f20; fill-rule: evenodd; stroke-width: 0px;"/>
    <path d="M20.27,39.59c-.06.04-.18-.12-.27-.16.05-.07.25.09.27.16Z" style="fill: #231f20; fill-rule: evenodd; stroke-width: 0px;"/>
    <path d="M18.51,39.9c-.08,0-.24-.07-.27-.16.06-.04.18.12.27.16Z" style="fill: #231f20; fill-rule: evenodd; stroke-width: 0px;"/>
    <path d="M18.82,38.48c-.13,0-.3-.08-.48-.25.12-.02.32.15.48.25Z" style="fill: #231f20; fill-rule: evenodd; stroke-width: 0px;"/>
    <path d="M13.74,42.9c-.23-.15-.75-.39-.83-.62.22.27.62.37.83.62Z" style="fill: #231f20; fill-rule: evenodd; stroke-width: 0px;"/>
    <path d="M14.81,40.14c-.38-.06-.76-.57-1.19-.73.04-.16.53.36.7.34.08.07.13.14.18.21.1.06.25.05.31.19Z" style="fill: #231f20; fill-rule: evenodd; stroke-width: 0px;"/>
    <path d="M11.66,37.34c-.04.07-.09.09-.18.01-.01-.04,0-.08.04-.12l.14.11Z" style="fill: #231f20; fill-rule: evenodd; stroke-width: 0px;"/>
    <path d="M9.65,37.15c-.3-.05-.82-.42-1.04-.71-.05-.01-.08.03-.14-.03-.18-.11-.52-.43-.16-.16.51.25.81.59,1.34.9Z" style="fill: #231f20; fill-rule: evenodd; stroke-width: 0px;"/>
    <path d="M10.37,35.81c-.08,0-.18-.06-.29-.14.07-.04.26.08.29.14Z" style="fill: #231f20; fill-rule: evenodd; stroke-width: 0px;"/>
    <path d="M7.72,38.74c-.08.02-.23-.16-.34-.22.1.02.3.11.34.22Z" style="fill: #231f20; fill-rule: evenodd; stroke-width: 0px;"/>
    <path d="M9.8,36.02c-.13,0-.32-.17-.47-.2-.03-.17.32.11.47.2Z" style="fill: #231f20; fill-rule: evenodd; stroke-width: 0px;"/>
    <path d="M9.88,35.56c-.13.02-.32-.15-.49-.25.14,0,.33.17.49.25Z" style="fill: #231f20; fill-rule: evenodd; stroke-width: 0px;"/>
    <path d="M6.95,39.06c-.07.07-.21-.04-.33-.09.08-.06.21.06.33.09Z" style="fill: #231f20; fill-rule: evenodd; stroke-width: 0px;"/>
    <path d="M7.22,38.36c-.17-.02-.56-.33-.75-.49.3.13.49.27.75.49Z" style="fill: #231f20; fill-rule: evenodd; stroke-width: 0px;"/>
    <path d="M9.33,35.25c-.27-.02-.48-.31-.63-.43.22.06.38.36.63.43Z" style="fill: #231f20; fill-rule: evenodd; stroke-width: 0px;"/>
    <path d="M8.02,36.04c-.1,0-.23-.09-.34-.14.06-.12.22.06.34.14Z" style="fill: #231f20; fill-rule: evenodd; stroke-width: 0px;"/>
    <path d="M7.89,35.56c-.13,0-.19-.09-.3-.19.07-.03.21.14.3.19Z" style="fill: #231f20; fill-rule: evenodd; stroke-width: 0px;"/>
    <path d="M7.79,35.04c-.09.03-.37-.15-.21-.24.09.05.04.08.02.12.08.07.11.02.2.11Z" style="fill: #231f20; fill-rule: evenodd; stroke-width: 0px;"/>
    <path d="M5.68,36.34c.25.03.45.4,0,0h0Z" style="fill: #231f20; fill-rule: evenodd; stroke-width: 0px;"/>
    <path d="M4.63,36.94c-.19-.06-.32-.18-.48-.33.13.05.42.25.48.33Z" style="fill: #231f20; fill-rule: evenodd; stroke-width: 0px;"/>
    <path d="M4.42,37c0,.11-.29-.1-.18-.13l.18.13Z" style="fill: #231f20; fill-rule: evenodd; stroke-width: 0px;"/>
    <path d="M3.15,38.04c-.09.01-.21-.06-.29-.14.07-.04.27.08.29.14Z" style="fill: #231f20; fill-rule: evenodd; stroke-width: 0px;"/>
    <path d="M2.22,37.19c-.38-.11-.41-.3,0,0h0Z" style="fill: #231f20; fill-rule: evenodd; stroke-width: 0px;"/>
    <path d="M10.36,43.15c-.08-.01-.18-.06-.25-.04-.04-.18-.31-.24-.43-.4.26.03.37.31.68.44Z" style="fill: #231f20; fill-rule: evenodd; stroke-width: 0px;"/>
    <path d="M7.81,38.13c-.09-.06-.04-.1-.16-.16.02-.05.07-.02.09-.04-.17-.15-.29-.19-.45-.3.03,0,.07-.01.09-.04-.3-.02-.39-.4-.86-.65.51.16,1.34.92,1.72,1.14-.12.06-.37-.26-.49-.18-.06.07.19.16.05.23Z" style="fill: #231f20; fill-rule: evenodd; stroke-width: 0px;"/>
    <path d="M9.08,35.56s-.04,0-.02.02c-.05.05-.17-.1-.18-.13.09-.04.54.35.2.11Z" style="fill: #231f20; fill-rule: evenodd; stroke-width: 0px;"/>
    <path d="M6.2,33.88l.07-.09c-.24-.16-.62-.41-.71-.61.32.13.78.72,1.09.71.03.06.11.12.14.18.75.31,1.32.98,2.06,1.36-.48.04-.9-.8-1.44-.78-.05-.05.02-.03.05,0-.3-.21-.78-.65-1.27-.77Z" style="fill: #231f20; fill-rule: evenodd; stroke-width: 0px;"/>
    <path d="M4.2,37.14c-.09,0-.2-.06-.29-.07-.03-.03.26-.05.29.07Z" style="fill: #231f20; fill-rule: evenodd; stroke-width: 0px;"/>
    <path d="M85.19,46.43c.16-.13.25-.35.41-.49.38-.32.79-.51,1.13-.88.3-.32.52-.71.84-1.03.24-.23.3-.34.45-.51.43-.51.88-.81.9-1.23.22-.45.59-.91.78-1.31.03-.06.14-.14.15-.16.48-1.02.47-2.02,1.19-3.04-.03-.2-.14-.45-.12-.75,0-.13.13-.32.12-.44-.04-.45-.51-.68-.33-1.19-.04-.09-.12-.06-.18-.09-.46-.59-.99-.96-1.27-1.49-.46-.07-.66-.42-1.05-.51-.25-.06-.6-.02-.87-.04-.31-.03-.61,0-.89-.06-.14-.18-.39-.03-.56-.14-.36.11-.69.13-1.05.26-.07-.04-.17-.02-.23-.08-.82.18-1.71.3-2.6.84-.08.05-.25.16-.33.23-.58.49-1.53,1.18-2.03,1.21-.12.07-.07.12-.19.19-.16-.05-.64,0-.9.23-.09.08-.13.36-.31.56-.27.29-.72.33-.96.58-.11.12-.13.36-.23.5-.27.36-1,.87-1.32,1.06-.25.15-.43.11-.58.27-.13.15-.15.36.01.53-.11.75-1.48,1.38-2.01,2.1-.61.26-.89.88-1.38,1.24-.1.07-.25.11-.35.19-.16.13-.31.38-.5.57-.32.33-.64.57-.88.87-.64.13-.76.65-1.15.94-.15.11-.35.14-.51.27-.13.11-.21.28-.36.39-.15.11-.36.15-.5.26-.11.08-.15.19-.25.25-.12.08-.24.08-.35.18-.12.11-.18.29-.3.4-.44.39-1.02.68-1.34,1.18-.92.42-1.45,1.2-2.54,1.69-.21.22-.36.37-.65.5-.04.06,0,.12-.1.17-.55.28-.95.84-1.54,1.08,0,.04,0,.08-.03.12-.8.36-1.73.92-2.23,1.41-.53.14-.96.61-1.52.93-.26.15-.56.22-.79.39-.46.32-1.12.63-1.58.89-.14.08-.23.23-.36.31-.24.15-.55.21-.79.39-1,.73-2.1,1.09-2.62,1.23-.16.05-.28.18-.4.23-.17.09-.37-.07-.53-.06-.05,0-.1.05-.14.06-.1,0-.2-.08-.4-.15-.46-.16-1.2-.39-1.87-.96-1.06-.43-2.45-1.34-3.58-2.02-.34-.02-.5-.29-.77-.43-.84-.44-1.95-.94-2.72-1.58-3.67-2.01-7.22-4.53-10.82-6.6-.2-.28-.66-.51-.94-.6,0-.1-.17-.2-.27-.31-.54-.13-.99-.63-1.55-.97-.25.06-.49-.28-.78-.3-.03-.15.17,0,.05-.15-.55.05-1.64-.91-2.22-1.2.04.03.01.08-.04.05-.08-.16-.24-.06-.38-.17-.98-.64-1.87-.84-2.76-1.31-.07-.11-.26-.43-.43-.39.14.12.33.25.23.36-.22-.21-.58-.39-.81-.41-.31-.2-.42-.38-.76-.48-.06-.05-.02.17-.16.07-.38-.37-.67-.41-1-.74-.19.03-.66-.25-.76-.41-.16-.04.07.19-.06.15-.37-.21-.72-.39-.99-.7-.12,0-.22.03-.36-.05-.09-.05.1-.09-.05-.15-.17-.02.01.18-.08.24-.2-.08-.21,0-.34,0-.19-.24-.45-.22-.7-.34-.25-.12-.47-.34-.72-.46-.21-.1-.35-.08-.56-.23-.17-.12-.25-.32-.45-.45-.11-.05,0,.14-.15.04-.69-.45-1.37-.9-1.97-1.11.89.35,1.3.95,2.08,1.26.02.18.35.15.34.37.09-.03-.03-.18.11-.07.04.04.04.08.12.13-.19.06-.05.16-.06.29.57.4,1.05.65,1.54,1,.11.03,0-.12.11-.07.2.11.33.23.57.35,0,.14.11.3-.06.37-.65-.48-1.68-.93-2.48-1.48-.24-.16-.42-.44-.66-.38.38.21.55.58.84.81.38.3.91.45,1.28.76.1.09.12.16.21.23.08.06.26.08.34.14.09.07.06.13.14.18.17.11.36.12.54.25.3.22.54.53.9.74.03.09-.07.18-.16.14-.39-.29-.47-.33-.88-.62.04.04.05.09.02.12-.12-.1-.14-.16-.27-.16.31.21.14.38-.02.39-.73-.57-1.71-1.15-2.28-1.66-.11,0-.2.04-.33-.02-.74-.44-1.47-1.06-2.26-1.54.75.76,1.69,1.31,2.72,1.96.02.05-.06.1.05.15.47.23.95.61,1.29.82.07.21.13.42.19.63,1.1.65,1.55,1.63,2.55,2.34-.06.07,0,.15,0,.22-.12,0-.23.04-.36.03-.17-.11-.36-.19-.47-.35-.99-.38-2.08-1.39-3.21-2.01-.21.03-.18.19-.17.36.45.43,1.03.59,1.46,1.12-.02.42-.36.48-.78.2-.7-.46-1.85-1.33-2.27-1.69-2.12-1.27-4.04-2.76-6.17-4.11,1.09.87,2.25,1.48,3.19,2.32.03-.06.09-.05.16,0,.98.75,2.09,1.55,3.04,2.08.24.44,1.1.74,1.35,1.19-.29.21-.69.12-1.12-.09.41.27.71.62,1.02.88.26.21.79.46.88.62.02.04-.08.05-.02.1-.11-.08.21.13.24.14.17.07.16.03.33.17.22.17.21.17.31.34.74.6,1.56,1.05,2.3,1.66.08.06.24.17.25.19.06.07-.04.07.05.15.05.04.07-.03.14.03.29.24.62.51.93.72.77.52,1.62,1.22,2.25,1.65.13.11-.12.07.07.2,1.03.81,2.14,1.65,3.27,2.47.08.07-.06.13.08.2.15.13.19-.02.33.09.07.09.12.19.13.28,1.27,1,2.7,1.84,4.11,2.72,1.31.84,2.61,1.68,3.85,2.48.98.62,1.98,1.12,2.81,1.75,1.23.66,2.24,1.33,3.36,2,.8.49,1.64,1.1,2.36,1.46.12.06.3.09.43.17.21.12.36.34.56.47.56.35,1.15.57,1.79.95.71.42,1.5.88,2.48,1.28.28.11.57.2.88.27.34.07.68.14.99.21.44.09.9.24,1.37.28,1.3.11,2.73-.22,3.74-.47,1.4-.34,2.61-.76,3.51-1.35,1.05-.45,2.3-1.06,3.22-1.63.88-.22,1.57-.87,2.45-1.33.09-.05.18-.04.27-.09,1.39-.61,2.62-1.77,3.72-2.3.3-.38.72-.44,1.08-.65.4-.22.68-.55,1.04-.8.12-.08.26-.1.38-.18.38-.23.67-.56,1.05-.86.57-.45,1.35-.68,1.92-1.3.57-.29,1.41-.75,1.9-1.3,1.11-.57,1.93-1.53,2.97-2.23.35-.24.75-.35.99-.73.44-.15.8-.55,1.23-.88.42-.32.91-.6,1.36-.92.65-.46,1.31-1.18,1.97-1.3.64.35.4-.75.97-1.04.34-.11.43.07.7.17.29-.11.46-.34.65-.56.3-.16.68-.08,1.03-.36ZM16.32,39.51s.02-.05,0-.07c.16-.06.21.23,0,.07ZM16.21,39.5c-.31-.21-.81-.4-.97-.65-.06-.04-.05.18-.16.14-.09-.15-.21-.31-.43-.47.13-.21.49.22.63.06.16.14.23.21.38.17.3.32.47.25.68.51-.15.07-.02.12-.13.24Z" style="fill: #231f20; fill-rule: evenodd; stroke-width: 0px;"/>
  </g>
</svg>