<?xml version="1.0" encoding="UTF-8"?>
<svg preserveAspectRatio="none" xmlns="http://www.w3.org/2000/svg" xmlns:xlink="http://www.w3.org/1999/xlink" viewBox="0 0 1029.64 10.79">
  <defs>
    <clipPath id="clippath">
      <rect y="0" width="1029.64" height="10.77" style="fill: none; stroke-width: 0px;"/>
    </clipPath>
  </defs>
  <g id="Group_76191" data-name="Group 76191">
    <g style="clip-path: url(#clippath);">
      <g id="Group_150" data-name="Group 150">
        <path id="Path_53" data-name="Path 53" d="M450.94,3.06c.02-.12,1.26-.08.94-.25h1.38c.23.09-1.8.15-.48.19-.61.07-1.23.09-1.84.06M444.94,3.49c.12-.07.92-.04.93-.12.95-.07.65.11.91.13.73.05,2.7-.1,2.28.13-1.37.03-2.75-.01-4.12-.13M450.95,2.93h-2.29c.02-.19,2.71-.26,2.29,0M425.18,3.83c.76-.11,1.53-.13,2.3-.06.85,0,.3-.21.94-.25,1.53,0,3.06,0,4.59,0,1.45.06-.82.08-1.38.06.13.15,1.58.12,1.35.32.85,0,.3-.21.94-.25,1.38-.07,2.76.06,4.1.38,1.22-.1,2.45-.07,3.66.07-2.08.13-5.25-.12-7.32-.2.29.06,1.05.07.9.19-1.67-.02-3.62-.01-3.65-.26-2.58-.15-4.27.2-6.44.18.12,0-.3-.2-.91-.13-.09.18,1.54.13.89.38-1.07-.05-2.15-.03-3.22.06-.84,0-1.41-.13-2.75-.07.3-.06.61-.08.92-.06,1.55-.16,1.17-.6,3.72-.62-1.15.07-.89.34-1.87.44.45.07.91.09,1.37.07.33-.11.65-.26.96-.44.98-.03.86.09.9.19M441.77,2.98c-.3-.22,1.63-.22,2.3-.12-.76.16-1.53.2-2.3.12M431.68,2.96h.92c.76-.02,1.53.03,2.28.13,4.04.05-.68.02-1.39.12-.53-.1-1.9-.08-1.81-.26M438.57,2.85c.96-.03,1.21.05,1.83.07-.54.12-2.43.04-1.86.31-1.02-.03-.33-.34.03-.38M444.02,3.48c1.27.03,0,.2-.93.12.38.16,3.19-.01,3.66.13-1.06.13-1.62-.03-3.22.06-.13-.15-1.58-.12-1.35-.32.86-.06,1.52.19,1.83,0M453.66,3.37c.51.27-3.77.26-3.21,0,1.07.07,2.14.07,3.21,0M743.9,4.91c-.49.21,1.42.1,2.28.13-.76.15-1.54.15-2.29,0-.85,0-.3.21-.94.25-1.08-.11-2.59,0-3.67-.07-.18-.01.16-.17.02-.19-.3-.04-3.23.04-1.82-.13.92-.06,1.84,0,2.74.19.92.02,1.84-.02,2.76-.12-.58-.27-1.51,0-2.75,0-1.5-.31-8.35-.02-11.45-.21,6.63-.07,15.21-.03,21.56.03-1.11.18-5.33-.07-6.43.11M758.65,4.13c.59-.27,2.5-.08,3.68-.18.61-.06,1.22-.06,1.83,0,.82.46-5.1.18-5.52.18M754.53,3.92c-.32.05-.73.17-.02.19.94.04,1.1-.12.47-.12.86-.19,2.17.08,3.67,0,0,.04,0,.08,0,.13-3.51.04-6.83.25-9.65.24-1.22-.09-2.44-.12-3.67-.07-.54-.08-.17-.1.02-.19-1.21-.16-2.43-.22-3.65-.19-.41-.25,3.77.08,2.76-.12.62-.08,1.24,0,1.81.25.46-.09.93-.04,1.37.13.49.03,1.39-.03,1.83,0,.22.02.05.19.91.13.48-.01.21-.07.01-.13-.76-.08-1.52-.13-2.28-.13-.08,0,.66-.11.47-.13-.79-.06-2.67.1-2.28-.13,3.71.02,5.59.1,8.24.14M753.6,4.11c-.76-.1-1.52-.14-2.28-.13-.57.19,1.91.27,2.28.13M447.67,3.75c1.89,0,1.82.25,4.11.2-1.22.19-2.45.19-3.67,0-1.37.21-2.76.23-4.13.06-1.07-.14,1.2.05,2.29,0,.48,0,.95-.09,1.4-.25M767.85,3.76c1.79-.04,4.08.3,1.35.32,1.59-.21-1.61-.1-1.35-.32M764.14,4.2h2.3c.69.2-3.01.19-2.3,0M455.07,3.01h-1.38c0-.08.01-.17.02-.25h1.38c-.77.12.04.08-.02.25M740.33,3.72c.33-.16,2.1-.13,2.32-.31,3.19.03,7.15-.05,9.63.08-2.76.16-6.05-.03-8.72.05-1.41.04-1.83.18-3.22.18M592.75,2.22c1.45-.33,4.02-.2,7.36-.18-1.22.12-2.45.14-3.67.06-1.45.02-2.39.14-3.68.12M420.16,3.52c1.97,0-.75-.27,1.4-.25-.29-.07-1.05-.07-.9-.19.76-.02,1.53,0,2.29.07.78.02,2.68-.08,2.28.13-.76.02-1.53,0-2.29-.07-.99,0-.08.21-.02.19-.33.12-2.07,0-1.4.25-2.12-.16-2.56.13-4.13,0,.25-.05.49-.1.48-.19.76-.04,1.53-.02,2.29.07M731.64,3.45c.91-.14,1.84-.14,2.75,0,.45,0,.36-.08.47-.12,1.07.05,2.15.03,3.22-.06.52,0,2.06-.07,1.83.13-1.95-.09-3.01.17-4.15.18-1.45,0-2.17-.16-4.12-.13M944.32,5.24c.63.26-4.16.42-3.68.06.61.08,1.21.12,1.82.13,1.09-.02-.5-.17-.9-.19-1.99-.02-1.16.35-3.24.31,1.2-.35,2.45-.5,3.7-.43,1.12,0,1.09.13,2.28.13M906.27,4.99c-1.11.03-2.91.15-2.74-.13.76.1,1.52.15,2.28.13.36-.22-1.86-.08-1.35-.32,1.23.03,4.42.25,3.67,0,.68-.17,2.51.03,2.28.19-.53.02-1.33-.03-1.84,0-.16.03-.32.07-.47.12-.55.02-1.26-.02-1.83,0M913.08,5.83c-1.4.14-4.73.01-6.88.05.62-.1,1.23-.21.95-.44,1.55-.06.7.2.89.32,1.22.06.56-.13.93-.19.25-.04,1.08-.07.92,0,.22-.09.15-.17-.44-.25-.28-.04-.57.05-.46.06-.9-.14-1.82-.21-2.73-.19.91-.16,1.84-.16,2.75,0,2.46.02,2.3-.19,4.59-.06-.91.16-1.84.2-2.76.12,0,.06,0,.13-.01.19,1.22-.1,2.45-.12,3.67-.06.54,0,.4-.11.47-.19.61,0,1.22.05,1.83.13.92-.09,1.84-.13,2.76-.12-.03.21-1.33.24-2.78.25-1.65.13-1.4.24-1.87.44-1.75.09-.07-.28-1.82-.19-.58.01-.47.12-.01.13M938.42,4.54c.61-.03,1.22,0,1.83.07.87,0,1.36-.08,1.84-.06,1.23.04,1.97.19,3.19.19-1.23.34-3.21-.16-5.05.05-.59-.14-1.2-.23-1.81-.26M931.98,4.72c.76-.16,1.54-.18,2.3-.06,1.22-.15,2.45-.21,3.68-.18-2.33.09-.81.27.89.32-2,.33-3.88-.12-6.43.05.08-.07-.09-.11-.45-.13M891.14,4.97h1.38c-.27.15-.42.32-1.86.31-.36-.18.66-.16.49-.31M891.52,5.79c.76.1,1.52.15,2.28.13.46-.09.92-.13,1.39-.12-.05.09-.09.18.44.19-1.14.07-3.98.14-4.11-.2M896.1,5.91c.52-.25,2.18.02,4.13-.06-.87-.28,3.09.05,4.6-.12.33.27-2.39.16-3.69.18-1.68.09-3.36.08-5.04,0M895.21,5.6c.3-.06.61-.08.92-.06.03-.11-.33-.16-.9-.19-.07-.09,2.66-.08.93-.19.23-.23,1.61.06,1.83.07.54.03,1.32-.03,1.83,0,.22.01.27.11.45.13.69.05,1.61-.03,1.36.13.81.02,2.3-.06,1.82.13-1.18-.09-2.8-.06-4.12-.13-.9-.2-1.82-.25-2.74-.13.8.12,3.02.05,2.72.32-2.3.05-2.22-.22-4.12-.07M944.37,4.68c-.28-.06-.54-.11.01-.13,1.92-.05,6.35.05,9.63.01,1.66-.04,1.65.11,0,.06-3.24.05-6.59.14-9.64.05M898.04,4.79c.75-.23,1.54-.34,2.32-.31-1.38.09,1.18.33-.95.31.28.13,2.32.02,1.81.26-1.73-.19-3.89,0-6.41-.14,1.21-.16-.74-.05-.44-.25,2.1-.07,1.79.18,3.66.13M899.01,4.16c-1.5-.15,3.27.04,3.22-.12,1.29.1,1.96-.07,3.21.07-1.7.04-4.05.24-5.06.18,1.54-.13.38-.14-1.37-.13M931.02,5.22c.47.01.93-.03,1.39-.12,1.17-.01.56.17,1.82.19-1.08.2.14.33-1.87.38-.31-.19.81-.18.49-.38-1.18-.03-2.62.22-1.4.31-.15.05-.31.05-.46,0h-.92c-.32-.2,1.27-.12.95-.31-1.38.1-2.76.12-4.13.06.04-.18,1.07-.23,1.86-.31.76.02,1.52.09,2.28.19M985.66,4.68c-.86-.12,3.69-.03,5.05-.05-.8.28-3.12,0-5.05.05M967.66,5.91c1.21.13,2.44.18,3.66.13-1.06.19-2.15.21-3.22.06-.18.14-1.84.08-2.31.18,1.68.1,3.37.08,5.05-.05-.09,0,.08.12-.01.13.63-.02,1.25-.11,1.86-.25.46-.03.92.01,1.36.13,1.16-.03,2.53-.1,3.22-.06,1.75-.09.06.28,1.82.19.64-.02.04-.11-.46-.13.36-.14,2.58-.02,3.68-.06-.57.09-1.76.09-2.31.18.08.05.46.06.45.13,1.03-.03,1.47-.13,2.31-.18-.44.21,3.5.16,4.57.2-.87.07-1.62.15-2.77.18.61.07,1.22.09,1.83.07-1.46.18-6.79.25-9.66.23-.77,0-.87-.03-.9-.13-.48.03-.35.11-.93.12-.97.03-.72-.13-.91-.13-.57,0-.78.11-1.39.12-.99.02-2.37-.13-3.66-.13-2.05,0-3.9.08-5.97.05-1.81-.02-3.53-.16-5.49-.2-.77-.01-1.2.06-1.38.06-3.06,0-6.04-.23-8.72-.01-.45-.07-.91-.11-1.37-.13.37-.14,2.84.02,2.31-.25-1.32.09-2.68.17-3.69.31-2.15-.22-6.13-.04-9.16-.14-1.1-.03-1-.13-1.82-.19-1.07,0-2.13-.07-3.19-.19.37-.29,2.66-.06,3.68-.06,1.42,0,3.08-.02,4.13,0,.31,0,.62-.01.92-.06.34.01,1.23.13,1.36.13.55,0,1.63-.07,2.3-.06,1.22.05,2.45.03,3.67-.06.11.18-1.86.23-.03.32.68-.03-.18-.08.02-.19.93.01,1.86-.07,2.77-.25,3.59.11,5.95.04,8.7.2,1.24.02,2.48-.11,3.7-.37,1.14.05,2.45.09,4.12.07,0,.08-.01.17-.02.25,1.2.02,1.98-.02,1.85-.19M951.14,6.07c.29.09.6.13.91.13,0-.29-1.29-.12-2.74-.13.41.11.13.32.88.38.99-.14-.57-.28.95-.38M954.34,6.21c-.77.02-1.55.08-2.31.18-.3-.07-.62-.07-.92,0,1.72-.06.71.24,2.28.19-.47-.24,1.15-.18.95-.38M957.54,6.34c-.9-.18-1.81-.27-2.73-.26-.4.18.63.16.43.32,1.1.03,1.01-.11,2.3-.06M977.22,6.75c.36.01.53.05.45.13,1.12-.03,2.36-.05,2.32-.25-.92-.05-1.85,0-2.76.12M963.48,6.53c-1.46.07-4.51-.16-3.67,0,.55.06,4.73.13,3.67,0M964.89,6.1c-.29-.37-4.68-.03-5.06.18,2.63.07,2.2-.28,5.06-.18M771.05,3.9c1.56.05.6-.25,2.31-.18-.18.19-1.9.16-1.42.44-.8-.02-1.04-.11-.89-.25M1029.64,5.38c-.61.27-2.28-.01-4.13.06-1.11-.12,3.02-.04,4.13-.06M945.24,5.31c1.75-.09.87.17,2.29.13-.66.2-2.26-.09-2.76.06-1.56-.07,1.27-.02.47-.19M948.4,5.88c.24.14-.88.09-.94.19-1.07-.07-2.14-.07-3.21,0,.71-.29,2.05-.1,4.15-.18M958.6,4.58h1.84c-.25.05-.49.1-.48.19h.92c.58-.01.47-.12.01-.13.76-.08,1.53-.06,2.29.07.07-.11-.55-.13-.44-.25,1.52.19,3.05.23,4.58.13-.16.15-2.18.03-1.85.25-.27.01-1.38-.13-1.37-.13-.17,0-.33.04-.47.13-1,0-1.98-.06-4.13,0,0-.12-1.25-.08-.89-.25M411.92,3.31c-.08-.19,1.66-.22,2.3-.12-.76.16-1.53.2-2.3.12M955.34,5.14c1.89,0,3.33.26,4.13-.06,1.72-.07,1.29.16,2.74.13,1.78.05,2.4-.23,3.68-.06-1.22.15-2.46.21-3.69.18-2.29.03-6.45.1-6.86-.2M954.42,5.2c-.39.5-3.94.03-5.98.24.55-.28.28-.08-.9-.19,1.61-.31,4.47.18,6.89-.05M958.04,5.77c.82,0,.97-.07,1.84-.06.71.25-1.98.02-1.85.19-2.18-.06-4.15-.15-6.87-.14-.74-.18,5.6,0,6.88.01M1027.29.72c-1.21.41-2.47.69-3.74.81-.32.03-1.59.01-2.3.06-1.37.14-2.76.18-4.14.12-.96.03-1.5.13-2.31.18-6.59-.06-10.76.12-15.14-.02.46-.06.92-.11,1.39-.12-.75-.15-1.53-.17-2.29-.07-1.2-.25-2.43-.33-3.65-.26,1.36.22,2.73.35,4.1.38-1.81.15-3.38-.05-5.51.05.81-.21-1.33-.22.94-.25-.91-.1-1.83-.12-2.74-.07.07.2,1.8.17,1.34.44h-2.29c2.96-.08-.51-.41-1.81-.25-.06.1,1,.02,1.37.07,1.08.12-2.55.02-3.68.12-.29-.06-1.05-.07-.9-.19-1.68.05-3.36-.02-5.03-.2,2.37-.09,5.19-.12,5.55-.5.49.02.3.12.9.13,1.38-.04-.43-.13.02-.25,1.72.05,2.2-.07,3.67-.06.44.19-1.03.11-1.85.12-.44.29,3.22.15,3.67,0,1.45-.03,1.02.2,2.74.13.48-.06.94-.12,1.4-.19,0-.14-1.48,0-1.38,0-.6-.02-.71-.12-1.36-.13-.73,0-2.08.11-3.67,0,4.02-.08,8.25-.12,12.41-.17-.58.26-.54.44-.06.63,1.4.05,1.35-.11,2.75-.06,1.25-.06-1.21-.12-.43-.32h2.29c-.17-.29-1.44-.24-3.19-.19,1.14-.24,4.71-.14,6.9-.24-.25.05-.49.1-.48.19,1.14.01,1.43-.1,2.31-.12-.29-.09-.6-.13-.9-.13,1.94-.19,5.46-.17,8.27-.23-.52.09-.51.15.44.19,1.01.05,1.91-.23.94-.25.92-.08,1.84-.1,2.76-.06,1.19.19,1.34.52,2.69.7M994.66,1.36c-1.21-.23-2.45-.26-3.66-.07,1.28.1,1.88-.02,3.66.07M1002.92,1.31c-1.38-.17-1.91-.17-1.33-.51-2.36-.07-.7.37-1.41.38-.68-.16-4.28-.19-4.14.12.62.04,1.24,0,1.85-.12,1.67.19,3.36.24,5.04.13M1012.59.95c-1.07-.07-2.15-.05-3.22.06-.64.03-2.95-.08-2.3.12.11.13,2.01.02,2.28.13.64-.31,2.12-.14,3.24-.31M1011.64,1.32c-.15.17.94.16,1.82.19.48-.21-.62-.21-1.82-.19M1014.89.82c-.62-.03-1.25.03-1.86.19.62.02.87.09,1.83.07,0-.08.02-.17.02-.25M1016.29.64c-.38.05-1.27.43.42.38.7,0,1.05-.46-.42-.38M1022.73.4c.48,0,.37-.08-.45-.06-.14.21.52.3,1.81.32.42-.2-1.51-.09-1.36-.25M805.45,3.95c-1.13-.08-3.58.02-3.65-.19,2.01-.04,2.57.11,4.58.07-.12.07-.92.04-.93.12M804.09,3.7c-1.54-.14,2.12-.27,2.76-.12-.51.13-2.24-.11-2.76.12M819.24,3.6c-1.82.29-3.68.33-5.51.12-.86.05-1.69.1-2.76.12-.08-.05.19-.06.46-.06.09-.05-.17-.06-.45-.06,1.41-.28,6.03.29,5.98-.18,1.3-.05,1.18.09,2.28.07M800.41,3.82c-2.23-.06-2.37.18-4.6.12.05-.27,2.88-.15,3.7-.31.72.05,2.71.25,1.34.38.03.2,1.81-.19,1.83,0-.09.25-2.07.18-3.22.12-.38-.2.74-.19.94-.31M812.76,4.21c-2.92-.07-4.2,0-7.33-.07.4-.28,2.23-.37,4.62-.37.71.25-1.98.02-1.85.19,1.4.22,3.84-.07,4.57.26M910.92,4.25c-.08-.11.8-.16.02-.19.7-.19,2.05.05,1.82.19h-1.84M792.59,4.05c1.24-.05,2.25.11,4.59,0-.16.15-2.18.03-1.86.25-1.07-.06-2.91-.03-2.73-.26M774.77,3.33c1.98-.17,3.98-.17,5.96,0,.39.24-.83,0-1.38,0-1.31-.02-3.43.07-4.58,0M817.81,4.16c2.91,0,.35-.4,3.24-.37-.28.17-1.47.22-1.41.44-1.89,0-4.04.16-4.57-.13,1.38.05,3.88-.19,2.75.07M783.03,3.22c1.1-.14,4.12-.02,5.97-.05-1.99.12-3.98.14-5.97.05M788.03,3.8c1.18.12,1.38-.03,2.75.07-.14.13-1.71.06-1.85.19-.61-.04-.84-.14-.9-.25M776.08,3.97c.15-.16-.62-.21-1.82-.19,1.09-.28,3.66.04,5.52-.12.43.16.89.25,1.35.25,1.38-.04-.43-.13.02-.25.61.06,1.22.08,1.83.07.43.12-1.39.21-.02.25-.91.14-1.84.16-2.75.06-.61.08-1.23.12-1.85.12-.2-.13.67-.12,1.39-.12.14-.1-.42-.11-.44-.19-1.53.2-3.07.32-4.62.37,1.17-.29-.64-.12-1.83-.07-.05-.11.57-.13.48-.25,1.41-.04,1.34.11,2.75.07M793.6,3.05c1.06.13,2.84.02,4.59,0,.82,0,.97.07,1.83.07.82,0,.97-.07,1.84-.06,3.55.03,8.32.05,12.84.02-.15.35-3.07.11-4.14.12-1.07.08-2.15.1-3.22.06-.58.01-.47.12,0,.13-.48.16-2.03-.05-1.82-.19-3.94.07-6.77-.04-9.65.11-.76,0-1.53-.08-2.27-.26M915.06,4.13c-1.2-.17,2.74-.22,3.68-.12-.22.18-3.46-.06-3.68.12M920.43,5.71c-.88-.02-1.82-.17-2.74-.13-.24-.25,3.1.07,2.75.07.37,0,2.23-.06,3.68-.06,1.37,0,2.51.08,3.67,0,.6.16,1.21.2,1.82.13-1.45.18-3.3-.07-5.5-.07-1.4,0-2.47.09-3.68.06M916.41,4.51c.32.2-1.59.07-.95.31-.46.03-.92,0-1.36-.13.76-.17,1.54-.23,2.31-.18M914.09,4.7c-1.3-.01.52.41-1.4.31-.58-.16,1.37-.26.03-.32.45-.15.93-.15,1.38,0M915.84,5.7c.91.08,1.83.1,2.75.07,1.48.07-3.78.3-2.75-.07M841.34,2.62c1.9-.01,1.78.09,3.21,0,.02.36-2.74-.08-2.32.31-1.54.06-.7-.2-.89-.32M891.8,2.58c2.46-.2,5.72.04,8.26.01,2.02-.02,3.26-.23,4.6-.12.11.18-1.76.09-2.76.12-.86.03-1.61.11-2.31.12-.3,0-.61-.02-.91-.06-.76.08-1.53.06-2.29-.07-1.53.1-3.06.1-4.59,0M922.76,5.34c-.76.08-1.53.12-2.3.12-.3-.22,1.63-.22,2.3-.12M927.42,4.46c.7.09,1.77.14,2.73.19-1.45.47-5.62.22-8.74.24-.54.01-.39.11-.48.19-1.38-.12-2.76-.11-4.13.06-.76-.02-1.52-.09-2.28-.19,1.51-.16,3.23.08,5.05-.05.76-.2,1.54-.3,2.32-.31.12.1-.44.11-.47.19,2.7-.1,5.93.21,5.99-.3M919.28,3.06c1.36-.28,2.76-.34,4.14-.18.53-.12,3.93-.24,3.66.07-2.64,0-6.17.17-7.81.11M189.84,4.02c2.19-.11,5.79-.03,8.26-.11-2.26.16-5.68.16-8.26.11M742.71,7.94c.91-.15,1.84-.17,2.76-.06-.91.15-1.84.17-2.76.06M745.95,7.63c-1.38,0-2.75,0-4.13,0-.12-.16,4.38-.22,4.13,0M745.44,8.26c-.76.14-1.54.16-2.3.06.76-.15,1.54-.17,2.3-.06M717.52,7.52c-1.07.08-2.14.1-3.22.06.44-.24,1.85-.04,3.22-.06M746.31,8.83c3.26-.09,4.85.04,7.34.01-.7.24,2.05.02,1.35.25-1.5-.08-2.92-.02-4.12-.07-.09,0,.09-.11,0-.13-.39-.05-1.81.04-2.29,0-.7.05.12.09-.48.25-1.11-.21-2.42,0-4.12-.13-.52.01-.26.06,0,.06-.47.19-1.22-.07-1.83-.07-.18-.14,2.77-.15,1.4-.25.88-.15,2.32.1,1.35.25.43-.07,1.69-.02,1.39-.19M755.6,7.52c-.34.23-3.35.08-5.05.12.98-.27,3.23.03,5.05-.12M710.11,8.39c.09-.16-.69-.2-1.35-.25-.32.03-.63.09-.93.19-1.08-.02-1.71-.1-3.21-.07,1.11-.16.22-.2,1.4-.31,1.8.1-.09.07-.02.25,1.38-.15,2.76-.22,4.14-.19-.17.35.86.18,2.74.19-.04.27-1.71.31-3.7.31-.16-.11.37-.12.93-.12M754.13,8.46c.52-.12,2.46.08,4.13,0-.14.2-3,.03-4.13,0M749.47,9.33c-.76.08-1.53.1-2.3.06.21-.24,1.58-.17,2.3-.06M701.37,8.5c-.92.14-1.84.2-2.77.18,0-.19,1.62-.15,2.77-.18M688.54,8.42c.45.05.91.07,1.37.06-.92.14-1.84.2-2.77.19.15-.13,1.25-.12,1.4-.25M757.43,7.52c6.26.04,7.95.01,14.21.09,1.43.09-1.66.05-2.76.06-3.36,0-8.69-.03-12.39-.02-.16-.11.37-.12.93-.12M669.72,8.57c-1.98.02-1.76-.16-1.35-.32,1.39-.02.93.21,1.35.32M649.01,9.29c-1.2.02-1.97-.03-1.82-.19,1.2-.02,1.97.03,1.82.19M666.91,9.26c-2.68.11-6.15.05-9.17-.08-1.44-.03-1.06.19-2.76.12.09-.05.46-.06.47-.12-2.48-.07-3.41.07-5.06.12.61-.31-1.13-.3-2.26-.38,1.68-.17,3.37-.13,5.03.13,1.2-.35,2.45-.47,3.7-.37.18.17-1.71.06-1.85.19.61.1,1.24.08,1.84-.06.44.06,2.17-.08,2.75,0,.05,0-.06.12-.01.13.59,0,1.06-.1,1.84-.12.31,0,.61.01.92.06.76-.07,1.53-.07,2.29,0,.19.03.73.04.91.06.56.08-1.01.32,1.35.32M665.08,9.06c-2.07.05-3.61-.34-3.68.12,1.23.08,2.46.04,3.68-.12M703.3,7.56c1.06-.15,2.15-.17,3.21-.06-1.07.08-2.14.1-3.21.06M702.35,7.88c.95-.14,3.81-.02,5.51-.05-.95.14-3.81.02-5.51.05M640,7.46c-1.22.12-2.45.14-3.67.06-1.21-.11,2.69-.04,3.67-.06M655.6,7.49c-1.63.11-3.97.05-6.43.05-2.07,0-9.48-.04-5.49-.07,3.03-.03,8.6.04,11.92.02M504.89,5.1c-1.22-.28,3.53,0,5.06-.12-1.22.19-2.45.21-3.67.06-.46-.04-.93-.02-1.39.06M498.02,4.9c1.67.05,3.33.09,5.5.07-1.21.15-5.3.2-5.5-.07M494.86,4.39c-1.14-.01-.11-.21.02-.25,1.14,0,1.41.1,2.28.13-.38.17-2.14-.14-2.3.12M775.31,7.68c1.33-.11,5.54-.08,6.88.01-2.19.16-5.43-.01-6.88-.01M647.69,8.73c-.25.55-4.05.54-6.91.3-.64.02-.05.11.45.13-1.37.08-2.75.03-4.12-.13-.56,0-.21.08,0,.06-1.68.08-3.36.06-5.04-.07-.69.09-2.62.01-2.32.25-2.14-.13-4.28-.16-6.42-.07-.9-.18-1.81-.29-2.72-.32-1.12.13,2.54.14.88.38-.92.02-1.44-.02-1.37-.13-3.11.03-7.26-.09-9.64.05-1,.01-1.45-.05-1.36-.19-1.83.23-3.68.27-5.51.12-1.22.13-2.45.19-3.68.18-.2-.14.67-.12,1.39-.12-1.17-.19-2.88.08-4.12-.07-.52.01-.26.06,0,.06-.49.24-.73-.05-1.37-.06h-2.3c-.75-.01-1.55.01-2.29,0-.56-.01-1.36-.13-1.36-.13-.52,0-1.16.16-1.85.19-.72.03-.8-.07-1.37-.06-.38,0-.45.07-.92.06-1.8-.03-2.96-.15-4.12-.07.38.06.77.08,1.15.07-2.05.09-4.24-.06-6.2-.08-.72,0-1.48.07-2.3.06-.26,0-1.01-.08-1.83-.07-.64.01-.1.09-.47.12-.83.07-2.34-.06-3.21,0,.6-.15,1.23-.19,1.85-.12-1.83-.1.64-.23-.43-.38-.37.01-.46.06-.92.06-1.38.04.43.14-.02.25-.61.04-1.22.04-1.83,0-.17,0-1.3.12-1.39.12-.22,0-2.08-.2-1.84.06-1.02.03-.64-.12-1.36-.13-.78-.02-.87.05-.93.12-1.83-.16-3.67-.16-5.5,0-1.16-.07-2.08-.18-3.65-.19-.18.11.35.12.91.13-.79.1-1.67-.02-3.21.06-.85,0-.3.21-.94.25-.93-.03-1.85.03-2.77.18-.43.02-1.52-.03-2.29,0-3.27.11-9.63,0-14.68-.02-1.07.09-2.14.07-3.21-.07-1.01-.04-.66.12-1.39.12-5.29-.05-9.13.05-12.83-.15,1.67-.17,3.63.09,5.51-.05.65-.22-1.63-.13-2.74-.13-.55,0-1.44-.06-1.37-.06-1.1.02-1.59.15-2.31.12-2.29-.18-4.59-.16-6.88.05-4.07-.09-7.38.1-10.08-.14-2.65.23-7.71.04-11.01-.02-1.04.26-4.58.05-7.8.05-2.46,0-4.81.12-6.89.11-2.92,0-5.84-.02-8.26-.01-2.48,0-5.08-.17-6.89.05-1.22-.11-2.45-.11-3.67,0-.76,0-.77-.06-1.37-.06-2.53-.02-5.7.1-8.72.11-1.63,0-3.1-.08-4.58-.07-.95,0-1.79.11-2.76.12-1.04.02-2.12-.08-3.21-.07-1.54.01-3.1.16-4.59.06-.45,0-.36.08-.47.12-1.1-.04-2.09-.09-3.66-.07-1.66-.26-3.34-.36-5.02-.32-.91-.19,1.9-.3,1.43-.63-1.07-.09-2.14-.09-3.21,0-.7.05.12.1-.48.25-1.72.04-.98-.24-2.27-.26-1.71-.07-1.32.15-2.76.12.07-.11-.55-.13-.44-.25-1.59-.05-1.77.09-3.22.06-.12-.1.44-.11.48-.19-1.37.09-2.75.07-4.12-.07-.55,0-.22.07,0,.06-1.83.08-3.67.05-5.5-.07-.87.05-.33.19-1.38.06-.93,0-1.86.09-2.77.25-.45-.11-.9-.19-1.35-.25-.46.04-.92.07-1.38.06-.02.15.77.19.43.38-1.17,0-.56-.05-.45-.13-1.28-.07-1.21.1-2.3.06-1.14-.04-2.28-.52-3.2-.13.45.08.92.08,1.38,0,.75.06.47.27.88.38-1.1.04-2.1.09-3.67.06.2-.14,2.51.01,2.31-.19-1.99-.13-4-.07-5.98.18-1.49-.07-4.38.05-4.1-.26-1.71-.07-1.32.15-2.76.12-.83-.05.28-.07.92-.06-.18-.2-2.92-.26-1.33-.51-1.07-.09-2.14-.09-3.21,0,.76.08,1.52.13,2.29.13-.75.09.7.36-1.41.38-2.15-.01.51-.09.02-.25-.91.12-1.84.12-2.75,0-1.38.04.43.14-.02.25-.86-.11-3.03-.05-4.58-.07-.88-.1.82-.26-.89-.32-.47-.03-.93,0-1.39.12.1.09,1.37.02,1.37.13.45.21-1.44.1-2.3.12.4.24,1.84.05,3.21.07-.79.33-3.13.07-5.52.12.17-.08.82-.1.93-.19-1.38.11-2.76,0-4.1-.32-.37.01-.46.06-.92.06.76.12,1.52.31,2.24.57-1-.05-1.82-.13-1.81-.32-.77-.06-1.55,0-2.31.19-.61-.04-.84-.14-.9-.25-.92.09-1.84.11-2.76.06-.61.02-1.22-.02-1.83-.13-1.69.04.18.19-.95.31h1.38c-.48.12-3.34.04-2.73-.19-2.05.05-2.74-.09-4.58-.07,1.09.13,4.87.14,3.64.38-1.3,0-1.05-.19-2.28-.19-.37.01-.46.06-.92.06-.07.11.55.13.44.25.96.03,1.22-.04,1.84-.06.81.16-2.84.12-3.67,0-.05-.11.57-.13.48-.25-1.83.14-3.67.1-5.49-.14-.89.11.37.21.89.32-2.54.18-4.72-.36-7.79-.14-1.42.05-.54-.22-2.28-.13-1.47-.06-.97.16-1.85.19-2.2-.13-3.6-.02-5.03-.2-.46.09-.92.13-1.39.12-.46.11-.93.19-1.4.25.5.08.39.13-.47.12-.11-.19,1.32-.38-.42-.44-1.18.01.62.11-.02.25-1.78-.04-2.87.12-4.14.12-1.71,0-2.89-.22-5.03-.2-1.1-.03.23.29-1.39.19-1.43.02-.22-.08-.45-.13-.28-.06-1.48-.03-1.36-.19-1.86.07-.59.22-1.41.38-1.68-.09-3.36-.09-5.04,0-.98-.13.07-.2.48-.31-1.53-.07-3.06-.05-4.59.06.41-.22-.29-.28,1.41-.38-.61-.07-1.22-.09-1.83-.07-1.01,0-.22.27-.49.38-1.4,0-1.12.23-2.77.18-.54,0-.4.11-.47.19-2.98-.09-5.74,0-8.25-.08-.45,0-.36.08-.47.12-1.92-.03-3.34.03-4.59,0-.08,0,.09-.12.01-.13-.39-.05-1.82.04-2.29,0-.5.02-.32.12-.93.12-.58.2,1.48.05.9.25-2.07.17-1.1-.37-3.66-.13-.12-.1.44-.11.47-.19-1.07.05-2.14.05-3.21,0-.54,0-.4.11-.48.19-2.72-.11-4.42-.02-6.88.05.11-.09,1.37-.02,1.39-.12-.57-.21-5.05.25-1.85.19-1.07.08-2.14.1-3.22.06.21-.13-.3-.17-.44-.25-.52.01-.26.06,0,.06-1.11.22-4.43-.21-5.06.12-1.45.03-1.02-.19-2.74-.13-.23.13.64.12,1.36.13-1.07.07-2.14.05-3.2-.07-.79.02.58.22-1.39.19-.98.03-.87-.09-.9-.19-1.52-.05-2.88.15-4.6.18-.27,0-.55-.06-.91-.06-.31,0-.62.02-.92.06-1.13,0-3.13-.03-5.04,0-.84.01-2.35,0-3.21,0-1.07.08-2.14.08-3.21,0-.61-.07-1.22-.09-1.83-.07-.07,0-.48.12-.47.12-.17,0-3.2-.3-3.67.06-1.81.01-2.83.04-5.51.05-.53,0-1.98.06-1.84.06-.61-.01-.7-.13-1.37-.13-1.46,0-1.27.21-2.29,0-.48.06-.94.12-1.39.19-6.78.02-13.37.07-19.29.22-.31-.03-.61-.09-.9-.19-4.41.31-8.92.27-13.33.36-1.21-.02-.38.24-1.85.19.24-.2-.55-.26-1.35-.32-.36.19,1.25.12.89.32-.76.07-1.53.03-2.28-.13-.62.04-.86.13-.94.25-3.18.05-4.27,0-7.8-.01,1.27-.29,1.2-.33,1.44-.69-.97-.03-.88.09-.93.19-.62,0-1.24-.12-1.8-.38-2.25.12-4.25-.12-5.52.12-1.02.03-.64-.12-1.37-.13-.5.02-.32.12-.93.12-1.6.05-1.76-.1-3.21-.07-.73-.24-1.51-.31-2.28-.19-1.07.21,3.75.08.9.19-.75.03-1.68,0-1.83,0-1.13.03-1.39.12-1.85.12-.8.01-.97-.07-1.83-.07-3.57,0-8.01.12-10.09.05-.54,0-.4.11-.48.19-2.76-.11-5.52-.05-8.27.18-.94.03-1.49-.07-2.29-.07-.46.01-.93.05-1.39.12-.31-.01-.61-.06-.91-.13-.23,0-2.14.06-2.3.06-.84.01-1.42.09-2.76.06.61.07,1.22.09,1.83.07,1.1.12-3.03.04-4.14.06,1.08-.16-1.33-.2.49-.31-.4-.17-.87.17-2.3.06-.64.14,1.16.24-.02.25-1.81,0,.16-.1-.9-.19-.85-.03-.57.15-.93.19-.38.04-2.43-.08-1.85.12-2.53.03-4.32-.04-6.41-.07.25-.2-.98-.25.03-.38-1.77-.1-6.35-.11-8.26-.01-.4.02-.4.06-.47.12-3.8.08-8.03-.18-10.09.05-1.98-.06-4.99-.18-5.06.12-1.24-.07-2.38.05-3.67.06-.88,0-2.03-.08-2.75-.07-.51,0-1.07.11-1.39.12-1.83.07-4.08.03-5.97.05-1.58.02-4.44-.02-6.89.05-1.58.05-2.69.17-4.14.18-1.68.02-3.35-.04-5.05.06.35-.19-.45-.23-.42-.38,1.72.05,1.02-.24,2.32-.25-.41-.17-1.44.09-2.75,0,1.16-.2,1.55-.56-.4-.69-.26-.02-1.02.12-1.39.12-.97.02-3.18-.04-5.04,0-1.38.1-2.76.12-4.13.06-1.04.22-5.77.15-8.74.24-.92.03-1.37.14-2.31.19-2.64.11-5.34-.05-7.79-.07.27-.24-1.15-.26-1.34-.44-2.53-.1-2.72-.51-4.99-.64.94-.23-.01-.25-1.35-.32,1.71-.31-1.16-.44-1.32-.7.74.02.79-.06,1.38-.06-.61-.07-1.22-.09-1.83-.07,1.11-.16.21-.2,1.4-.31.18-.11-.35-.12-.9-.13.61-.04.35-.17.94-.25.13-.02.82.02.92,0,.48-.1-.21-.29.49-.32.31-.01.52.09.91.07.63-.01,1.26-.12,1.86-.31,1.59.05,1.77-.09,3.22-.06.54,0,.4-.11.47-.19,2.21.24,6.56.2,8.21.52h3.67c.2-.37-1.39-.51-1.76-.82,3.04-.05-.27-.39.97-.57h1.83c.02-.15-.77-.19-.42-.38,2.51.05,2.91.04,5.04.07.59.18,1.2.27,1.81.26,1.6-.02-.02-.17.93-.19h1.83l-.02.25c1.81-.07,3.17.2,3.68-.06-.03-.1-2.75.12-2.28-.19,4.74,0,9.48.02,14.22.02.6-.02.73-.11,1.39-.12.02-.15-.77-.19-.42-.38,1.53-.13,3.07-.17,4.6-.12.48-.19-1.01-.11-1.83-.13-1.45-.06.82-.08,1.38-.06,3.17.07,8.58-.15,9.62.2,1.22-.19,2.45-.25,3.68-.18-.11.09-1.37.02-1.39.12.08.05.46.06.45.13.78.04,1.56-.04,2.31-.25,3.2-.05,5.69.17,8.26.01-2.36.18,1.92.15,2.29,0,2.88,0,6.23.05,8.71.01,6.7-.09,15.31.2,20.19-.09.81.05.06.11-.02.19.3-.03.61,0,.91.07,1.31,0,1.11-.12,2.31-.12.81,0,1.93.14,2.74.13.97,0,1.22-.15,2.3-.12,1-.01,1.46.05,1.36.19,1.07-.18,2.15-.24,3.23-.18-.12.07-.91.04-.93.12.54.11,1.92,0,3.2.07.16,0,.84.13.91.13,3.34.06,7.07-.1,9.18-.05.32-.03.63-.09.93-.19,2.44.15,4.89.15,7.34.01l-.02.19c.93.02,1.85-.04,2.77-.18,1.4.06-.54.17-.48.25,1.59.01,2.17-.12,3.23-.18,2.14.07,4.29.04,6.43-.11.68.03,1.15.1,1.83.13,6.51-.27,14.08-.36,21.58-.22,1.11-.06,2.23-.11,3.23-.18,1.83.05,3.27.14,5.49.14,0,.08-.01.17-.02.25,1.98-.22,3.98-.25,5.97-.12-1.07.08-2.14.08-3.21,0-.92.15-1.85.23-2.78.25.6.1,1.21.14,1.82.12-1.48.1-.72.39-1.42.5-1.67.27-4.08.09-6.44.24-.88-.03-1.97-.03-1.82-.19-.68.03-1.16.09-1.85.12.59.16,1.21.2,1.82.13-1.83.09-3.67.09-5.5,0,.53-.2.23-.17-.43-.32-.91.12-1.84.13-2.76.06.07.07-.11.11-.47.12.09.2,3.78-.09,3.19.19-1.99,0-4.13.01-5.5-.07-1.72.05-.05.22-.94.31,1.22-.07,2.45-.07,3.67,0-.07.12-.32.21-.94.25.44.12.9.19,1.36.19,1.67-.11-.8-.18-.43-.32.98.03.88-.09.93-.19,1.41-.04,1.67.07,2.75.07-.61.07-1.22.09-1.84.06,1.07.14,2.16.1,3.22-.12,1.07,0,2.13.09,3.19.26.94-.04.16-.32,1.86-.25.46.03.92.13,1.34.31.46-.11.93-.19,1.4-.25,4.32-.04,10.07.04,15.6.03,1.06.02.53-.18,1.39-.19-.6-.1-1.21-.15-1.82-.13,1.27-.2-.49-.4-.87-.57h1.83c-.67.19-.41.36,1.34.38.36-.19-1.58-.08-.89-.32,1.53.14,3.07.13,4.59-.05-.92-.06-1.83-.06-2.75,0-1.78-.03-2.71-.19-4.11-.26.65-.08,1.68-.33.03-.38,1.51-.09,2.97-.18,4.16-.31.61,0,1.22.05,1.82.13,1.26.06,2.34-.05,3.68-.06.75,0,.78.07,1.37.07,1.56,0,2.76-.09,4.13-.06,2.78.06,8.47.01,11.47.02.92.1,1.85.08,2.76-.06.61,0,1.22.05,1.82.13.78.02.87-.05.93-.12,1.48-.05.61.21,1.82.19,1.68.05,2.56-.15,3.67,0,.54,0,.4-.11.48-.19,1.38.13,3.47.16,5.95.14.32-.03.63-.09.93-.19,5.07.02,17.61.06,26.15-.02,1.3-.01,2.28-.1,3.68-.12,2.99-.05,5.85.07,8.26-.05-2.35-.06-1.62-.18.93-.19-1.48,0,9.41.05,13.3.02.76,0,.78.07,1.37.07.83,0,2.05-.07,3.22-.06.99.01,1.78.07,2.29.07,1.08,0,1.85-.18,4.14-.12.47.01,1.46.13,1.36.13.7,0,1.51-.16,2.31-.18.25,0,.82.07,1.37.07,1.18,0,2.39-.12,3.68-.12,1.18,0,6.13.06,7.8.01.46-.09.92-.13,1.39-.12.12.1-.44.11-.47.19.82,0,.97-.08,1.84-.06.08-.07-.09-.11-.45-.13.21-.17,1.44,0,.9.13.92-.07,1.84-.09,2.76-.06.35,0,2.53-.12,3.22-.12.88,0,1.74.07,2.75.07,2.75-.02,6.28-.08,8.72-.05,1.17.01,2.53-.12,3.68-.12.74,0,.79.05,1.37.07,1.37.04,2.65-.07,3.67-.06.9.01,1.68.11,2.28.13.85.03,2.15.07,2.75.07.4,0,1.21-.12,1.39-.12.76,0,.77.06,1.37.07.81,0,.98-.06,1.84-.06.96,0,1.84.08,2.75.07,1.33-.01,4.88-.26,7.34-.05.39-.12,3.77-.18,6.44-.18.66,0,1.6.07,2.29.07,4.92-.03,10-.2,14.23-.1.91.1,1.83.12,2.74.06-.45-.07-.91-.09-1.37-.07,1-.11,5.27-.13,5.03.13.91-.13,1.84-.18,2.76-.12,1.38-.12,2.76-.16,4.14-.12.2.13-.66.12-1.39.12.28.06,1.05.23-.47.19.28.19.99-.06,1.83,0-.36.06-.51.14-.48.25,1.29.05,1.2-.09,2.3-.06-.54.25,1.38.31,2.28.19-.56-.21-2.52-.24-2.71-.51.78-.04,1.55-.13,2.32-.25.66.08.67.24,1.35.32,1.33,0,1.13-.3-.44-.25,1.07-.19,2.17-.08,3.18.32.86-.13,2.71-.13,2.33-.44.46.04.93.02,1.38-.06.93.12,3.02.09,3.18.32-1.2.02-2.3.02-1.82-.19h-2.29c-.4.24,2.21.08,1.81.32-.76.07-1.53.04-2.29-.07.12.21,2.02.19,2.26.38,1.07-.09,2.14-.11,3.22-.06-.06.29-3.34.46-2.81.63-1.08.12-2.47-.06-4.13.06.77-.12-.04-.08.02-.25-2.16-.03-.91.43-3.24.37-1.17,0-.55-.05-.45-.13-1.01-.04-.66.12-1.39.12-2.1.07-1.79-.18-3.66-.13-1.53.09.94.16.43.32-.27-.11-2.17,0-2.28-.13-1.09.02.49.17.9.19-1.14.1-3.26-.07-4.6.12.92.06,1.84.04,2.76-.06.19.15,2.01.17.89.32,2.08.08,1.82-.17,3.68-.12.76.08,1.52.1,2.29.07.9-.04,1.42-.11,2.3-.12.87.09,1.98.15,3.19.19,1.57-.07-1.27-.02-.44-.19,1.77-.2,5.73.12,6.43-.11,1.06.13,2.13.17,3.2.13-.81.34-2.55-.14-3.68.06,1.57.25,3.73.41,5.45.64,1.66-.2-1.18-.34-2.26-.38.2-.23,3.55-.01,2.78-.37.46-.03.92.01,1.37.13,1.68-.14,3.37-.18,5.06-.12-.14.13-2.03.01-1.85.19.98.08,2.09.13,3.19.19,1.17,0,.93-.21.95-.38,1.09.04,3.33-.07,3.66.07.1.3-2-.08-2.76.12,1.27.29,2.66-.07,4.12.07.07-.11-.55-.13-.44-.25,1.38,0,2.75,0,4.13,0,1.41.14-3.29-.04-2.77.18,1.09.15,3.32-.08,5.05-.05-2.45-.21,2.54-.09,4.14-.12,1.31.11-2.35.05-3.22.06.65.27,3.54.07,4.59,0,1.98.21,3.97.24,5.96.07-.62-.14-3.19-.03-4.58-.07.76-.08,1.53-.1,2.3-.06,1.38.06,2.76.02,4.14-.12,2.59.18,4.49.08,7.78.14.5-.01.32-.12.93-.12,1.21-.02,1.5.09,1.35.25,3.1-.2,5.02.14,7.8.01.91.13-.21.12-.48.25.74-.02.78.06,1.37.07.58-.01.62-.19.02-.19,1.68-.16,3.37-.22,5.06-.18.05-.09.09-.18-.44-.19,1.08-.12,2.47.06,4.14-.06-1,.13-.2.34.88.38-.32.19-.98-.06-1.83,0-.1.14.36.2,1.36.19,2.01-.05-.22-.33.96-.44,2.03.12,2.21.11,5.03.13,0,.06-.01.13-.02.19,2.29,0,2.97-.22,5.52-.18-.66.16.73.15.9.19.31.08-.32.26.89.25,1.52-.15-1.65-.19-.88-.44,1.82-.04,1.29.24,3.19.19.64-.02.05-.11-.45-.13,1.07-.06,2.14-.04,3.2.07,1.11,0,2.53-.11,3.68-.12s2.25.1,3.21,0c.12.1-.44.11-.48.19.92-.08,1.84-.1,2.76-.06.13.14-1.33.07-1.39.19,1.71.07,1.32-.15,2.76-.12-.27-.17-1.9-.16-1.8-.38.34.03,1.58-.04,1.83,0,.14.02-.7.09-.47.12,1.51.21,3.03.31,4.56.32,1.26-.05-1.38-.14.02-.25,1.28.04,2.37.1,3.66.13,0,.06-.01.13-.02.19.61.03,1.22.03,1.83,0,1.61.05,1.69.22,2.76-.06-.95-.06-2.99-.22-.44-.25-.77-.15-3.5-.03-5.04-.07-.15-.21,2.09-.11,3.23-.11,1.45,0,3.11.01,4.13,0-.01.1-.02.21-.03.32,1.91.01,2.51-.12,1.86-.31h2.75c-.17.08-.81.1-.93.19,2.1-.03,2.85.12,5.04.07-.09.05-.46.06-.47.12,3.54.08,5.48,0,8.71.08.39-.22,1.79-.3,4.15-.24-.12-.25-2.6.07-3.66-.13.8-.14,3.5-.02,5.05-.05.16.11-.37.12-.93.12,1.61.07-.09.23.89.32,2.13.06-.62-.16.93-.19,2.08-.07,1,.28,3.19.19.88,0-.69-.24.48-.31,1.08.16,3.92-.12,2.74.13,2.23-.11,4.41-.11,6.43-.05.69-.3-1.91-.16-3.2-.19.4-.24,1.99-.03,3.22-.06,1.08-.02,1.59-.16,2.76-.12.44.21-.65.2-1.85.19.75.16,1.52.2,2.29.13-.26.16-.62.22.43.32.61-.03-.52-.27.94-.31.51-.16-1.96-.22-.43-.32,1.17,0,.55.05.45.13,2.38-.06,2.98-.02,5.5,0,.04.32-2.32-.1-2.31.18.91.1,1.82.14,2.74.13,1.01,0,.06-.21.02-.19.43-.22,1.64.05,1.4-.25,1.71.04,2.92-.16,4.13,0,1.05-.2,5.23-.07,8.73-.11,1.22-.07,2.45-.05,3.66.07.5-.01.32-.12.93-.12,5.9.07,9.34-.14,14.22.02.5-.01.32-.12.93-.12,1.11-.02.99.12,2.29.07.47.24-.98.2-1.4.31-1.36-.2-2.74-.24-4.12-.13.91.11,1.83.15,2.74.13.25.03.25.18.44.19.79.06,1.8.03,2.75.07.58-.2-1.48-.05-.9-.25.71-.09,3.5-.21,1.4-.31.23-.09,4.15-.15,3.67.07,2.3-.22,5.77-.05,9.64-.05,4.21,0,9.46-.07,12.85-.1.61,0,1.22.05,1.83.13,1-.06,2.16,0,2.29,0,.76-.13,1.53-.17,2.3-.12.85.21-.79.12-1.39.19-.29.03-.62.17-.93.19-.59.03-2.56-.18-2.3.06.14.11.65-.04,1.38,0,.57.25,1.21.32,1.82.19.2-.15-2.09.03-1.36-.19,2.17-.07,4.89.15,6.87.14-.02-.23-2.99-.05-3.65-.2-.61-.26,1.01-.2.95-.38,4.59-.1,8.39.04,11.92.14,2.9-.19,5.82-.23,8.73-.11.36-.24-.49-.31-1.81-.32.16-.15,2.01-.06,2.31-.18-.02-.24-1.3,0-1.83,0-1.52,0-3.14-.08-5.04-.07-.5.01-.32.12-.93.12-1.07.02-2.14-.03-3.2-.13-1.04.03.55.1-.47.19-3.14-.13-6.61.09-9.63-.08,1.27-.21-2.55-.16-2.72-.38-1.21-.02.4.35-1.4.25.45.07.91.09,1.37.07,1.45.05-.82.08-1.38.06-1.06-.12-2.13-.18-3.19-.19-.48.19,1.01.11,1.83.13-.07.21-1.35.05-2.3.06-1.91.02-4.81.1-7.34.05-.2-.14.67-.12,1.39-.12-1.07-.17-2.17-.13-3.22.12-3.68-.02-4-.3-7.3-.26-.39.24,2.17.08,3.2.13-3.52.3-8.08-.03-11.01.05-.34,0-.87.12-.93.12-.69,0,.08-.13.01-.13-.9,0-1.94.12-2.76.12-1.78,0-2.21-.21-3.65-.2-.54,0-.4.11-.47.19-4.29-.08-8.12.16-11-.08-.57,0-.21.08,0,.06-2.29.11-4.59.09-6.87-.07-.97.05-2.04.09-2.76.18-3.68-.03-8.73-.18-12.82-.34-.61-.29-1.93-.38-1.78-.63-3.96.07-5.78,0-9.63-.02-.32.03-.63.09-.93.19-.76.02-1.53,0-2.29-.07-1.09.02.49.17.9.19,2.09.08,2.57-.26,4.13-.06-1.38.15-2.76.21-4.14.18.29.09.6.13.91.13-.3.07-.62.07-.92,0-.33-.03-1.2-.07-.9-.25-.6,0-1.23,0-1.83,0-.57-.01-1.35-.13-1.36-.13-.76.1-1.54.14-2.31.12-.11-.23-2.55-.16-2.72-.38-1.4.08.65.24-.48.31-1.43.03-2.21-.08-1.36-.19-1.14.19-3.38-.16-3.23.18.34.22,2.17-.19,2.3,0,.46.21-1.99.1-2.77.12-.39.01-1.18.12-1.39.12-2.44.09-4.89.04-7.33-.14-1.23.09-3.26-.05-5.05,0-1.09.03-2.12.13-2.77.18,2.01.18,3.63-.08,5.5,0-1.37.18-2.76.24-4.14.18-1.45,0-3.3-.13-5.5-.07-.38-.2,1.2-.13,1.4-.25-1.41.06-2.26.19-3.69.25-1.37-.12-2.74-.17-4.12-.13-.16.17,2.58-.06,1.82.19-1.23-.08-2.46-.04-3.68.12-1.07-.03-2.13-.13-3.18-.32-.68.05-1.78.05-1.4.25-1.21.07-1.96-.2-1.84.06-.92-.02-1.83-.12-2.73-.32-1.25.06,1.21.12.43.32-3.19-.21-5.82.03-8.71-.08-.46.09-.92.13-1.39.12,1.24-.27-1.04-.11-1.35-.32-.55.12-3.75.19-2.78.31-.47.21-.9-.07-1.37-.07-1.29.06.65.17-.48.25-4.45-.05-8.39.02-11.93.04-.74,0-.79-.07-1.37-.07-1.19.01-2.16.15-3.68.12-.61.01-1.22-.03-1.83-.13-1.64.03-3.74.03-5.51.05-3.82.18-7.64.03-11.43-.46.18-.25.03-.46-1.33-.51.6-.15,1.23-.19,1.85-.12-.99-.13,1.11-.48-1.33-.51.79-.03,1.58-.18,2.33-.44.37-.05,1.85.05,1.39-.12,4.66.17,9.96.12,14.66.21.76.02,1.43.12,2.28.13,1.18.02,2.37-.08,3.67-.06.79.01.98.07,1.83.07,1.22-.1,2.45-.1,3.67,0,.5-.01.32-.12.93-.12,1.24.03,2.48-.03,3.67,0,.53.02,1.35.13,1.37.13.5,0,.86-.1,1.39-.12,1.09-.04,2.27.08,3.2.07.86-.01,1.07-.1,1.85-.12,1.47-.05,2.95,0,4.58.07.78.03.87-.05.93-.12,2.73.11,6.48.03,10.55.02.88.1-.82.26.89.32,1.41-.08-.65-.24.49-.31,3.58.03,4.78.05,8.26.01-.45.11-.92.16-1.39.12.77.19,1.58.13,2.31-.18,2.14-.05-.65.16.9.19.98.03.88-.09.93-.19,1.07,0,2.14,0,3.21,0,.75.13-.05.08-.02.25h1.38c.96-.04-1.67-.27.94-.25,1.88-.02-.08.09.44.25.61.05,1.22.05,1.83,0,1.01,0,.22-.27.49-.38,1.07,0,2.14,0,3.21,0-.36.06-.5.14-.48.25.59-.09,2.42,0,1.86-.25,1.53-.11,3.06-.02,4.56.26.87.02,2.14-.31,2.3,0,1.27-.05-1.05-.26,1.39-.19-.29-.09-.6-.13-.91-.13.25-.02,4.19-.19,3.2.13,1.4,0,1.12-.22,2.77-.18,0,.06-.01.13-.02.19.3-.11,1.39-.1,1.85-.19.77-.01,1.53.07,2.27.26.09-.28,3.43-.15,4.14-.18-.45-.06-.91-.08-1.37-.07,2.52-.19,5.67.07,8.72.01,1.03.31,2.09.5,3.16.57,1.41.05.9-.17,2.3-.12-1.33-.23,1.47-.28-.43-.38.58-.13,3.26.03,2.32-.31,5.35-.16,12.51.04,17.43-.03-.3.23-2.77.11-4.6.12-1.68.01-3.48-.02-4.59.06.91.03,1.83.12,2.73.26,1.84.05,1.15-.26,2.77-.25,0,.04,0,.08,0,.13,1.53-.03,3.05.04,4.57.2.5-.02.32-.12.93-.12h3.21c1.1.09.27.13.9.19,1.81.01-.14-.1.93-.19,1.21,0,2.87.06,2.31-.18,2.78.14,6.92.02,9.17.08-1.55.14-5.04.01-7.34.05-.54.09-1.33.15-1.4.31,1.2.02,1.97-.02,1.85-.19,1.73.13,3.04-.05,5.5,0-.56.08-.19.1-.02.19,3.94-.06,7.73-.09,12.85-.1,1.12.09-.84.19.44.25,1.97,0-.63-.33,2.32-.25.94.15-.67.33-1.87.38.3.23,3.02.1,2.31-.18.88.03,1.66-.04.92-.06,8.97-.03,22.05.12,30.73-.01.52-.01.26-.06,0-.06,1.05-.04,2.95-.01,5.05-.06.27.2-1.65.08-.48.25.76.07,1.53.1,2.29.07,1.19.07-1.65,0-2.31.12,1.74.08,3.17.2,5.03.26,1.21-.34,2.46-.53,3.72-.56,1.11.04,2.35.06,2.27.26,2.12-.21,4.76,0,9.18-.05.35.06.48.14.44.25.98.03.88-.09.93-.19,2.1.07,4.54,0,7.34.01,4.07,0,8.05.16,11.45.21,1.37-.07,2.75-.05,4.12.07.6-.02.73-.11,1.39-.12.76,0,1.52.07,2.28.19,3.54-.24,8.37.02,14.22-.04,1.11.15-.7.12-.49.31,2.2,0,1.78-.39,4.62-.31-.42.11-1.3.16-.95.38,1.65.05,1.8-.26,3.22-.06-.3.13-2.15.04-2.31.18,1.07.15,2.39-.21,4.6-.12.12.17-.65.21-1.85.19.92.06,1.85.05,2.76-.05.11.13,2.02.02,2.29.13,1.37-.2,2.76-.31,4.15-.31-.47.08-.47.23-.94.31-.83,0-.96-.08-1.83-.07-.27.3,2.58.18,3.66.13.1.18-1.05.19-.95.38.71-.07,1.14-.18,1.86-.25.77-.04,1.53.05,2.27.26-2.18.02-7.3.25-9.17-.08-1.04.03.55.1-.47.19-1.95-.03-4.73.05-5.96-.07-.45,0-.36.08-.47.12-2.14-.11-4.29-.09-6.43.05-2.6-.14-5.2-.12-7.8.05-1.37-.15-2.74-.21-4.11-.2-.09.24,1.86.21,2.72.32-.61.25-.95-.02-2.29,0-1-.01-.23.22-.48.31,1.7.06,3.39-.04,5.07-.31,5.77.07,9.1-.02,13.3.08-.77.17-1.54.29-2.32.37.18.14,2.43,0,2.74.13.17-.13-.08-.2-.9-.19,1.22-.16,2.45-.2,3.68-.12.03.1-.24.24.44.25,1.66.06.24-.31,2.31-.18-.82.21-.83.15.43.32.79-.04.3-.14-.45-.13.11-.09,1.37-.02,1.39-.12,1.09.11,2.15.17,1.34.38,1.87.03,1.87-.2,4.14-.12,1.81-.01,1.38.27,3.19.26,1.3-.09,2.71-.16,1.87-.38,2.55.01,3.8-.1,3.7-.31,1.3-.05,1.18.09,2.29.07.2.14-.67.12-1.39.12.02.18,1.03.24,1.81.32,1.07-.11,2.14-.11,3.21,0,.55.2-1.49.05-.94.25,0,.15,1.25-.02.93-.12,1.51,0,2.29-.1,4.13-.06.16-.15-.05-.24-.43-.32-.6.09-2,.06-3.21.06.32-.31-2.44-.21-2.25-.51,5.25.06,14.49-.05,19.26.09-.07.29-1.07.06-1.84.06-3.87-.01-9.79.01-13.77-.02,1.37.03,2.74.13,4.1.32,1.57.05.61-.25,2.31-.18,1.02-.03.64.12,1.36.13.47.08.94.04,1.39-.12.21,0,.59.06.91.06.31,0,.62-.02.93-.06,2.05.01,3.66.15,5.96,0,.78-.02.86.05.91.13,1.38-.04-.43-.14.02-.25.61.01,1.22.08,1.82.19.99.01.23-.22.49-.32,3.62-.04,6.99-.12,10.1-.11.31.02.61.06.91.13.5.01,1.99-.05,2.76-.06.92.04,1.84.02,2.76-.06.46.01.91.06,1.37.13,2.3-.18,7.53.05,11.02-.11.38.2-1.2.13-1.4.25-1.83-.07-2.75-.07-4.59,0-.89.02-.38.24-1.85.19,1.38.07,2.77.03,4.14-.12.46.15,3.07,0,2.73.26.81-.09-.44-.27.95-.38,1.3-.05,1.18.09,2.29.07.48-.19-1.01-.11-1.82-.13,1.53-.15,3.06-.21,4.6-.18,1.29-.01,2.62-.02,3.67,0,.57.01,1.35.13,1.37.13.31-.02.62-.06.93-.12.92.06,1.84.05,2.76-.06.78-.02.86.05.9.13,1.34.02,1.42-.14,2.76-.12-.6.15-1.23.19-1.85.12.3.12,1.38.15,1.81.26,1.07-.02,2.15-.04,1.85-.25.31.05,2.72.17,2.3-.06-.43-.16-1.77.08-3.21,0,.76-.08,1.53-.12,2.3-.12-.27-.19-2.46-.13-2.73-.32-1.22.09-2.45.05-3.66-.13.22-.14,1.95.24,2.3-.06-.3-.07-.61-.07-.92,0-1.47-.15,2.15-.41-1.35-.38.24-.29,3.66.14,4.15-.18-1.7-.06-2.72-.22-5.03-.2-1.35.05.58.16-.03.32-.62-.04-1.22-.17-1.8-.38-.92.07-1.84.07-2.75,0,1.71-.32,4.78-.06,7.82-.18-.2.1-1.45.05-.94.25,1.77.06.77-.27,2.77-.18.08-.07-.09-.11-.45-.13,1.53-.12,3.41-.2,3.72-.5.76-.02,1.52.03,2.28.13,2.04.05,2.76-.08,4.59-.06.07.14-.39.2-1.39.19,1.35.31,4.87-.02,5.01.39,1.93-.08-.05-.36-.88-.44.76-.08,1.53-.1,2.3-.06-1.38.19.68.28.88.44,2.28-.1,3.23-.39,6.46-.37,1.24-.04.87.13,1.36.19.38-.01.46-.06.92-.06.94-.07-1.32-.17.48-.25.98-.03.87.09.9.19,1.39-.08,2.51-.2,4.6-.18,1.06.11,2.13.15,3.2.13-.45-.07-.91-.09-1.37-.07,1.37-.19,6.44.04,9.18-.11.94.06.36.33,1.81.32.68-.03-.17-.08.02-.19,2.64,0,5.3.02,7.35-.05.04.18.55.3,2.27.26-.29-.07-1.05-.07-.9-.19.9-.07.7.12.9.13,1.07-.07,2.14-.07,3.21,0-1.55.22-3.06.05-5.51.12-.77.1-1.54.16-2.31.18,1.43-.24-3.34-.06-4.11-.2-.47.06-.94.12-1.39.19-.62-.04-1.22-.17-1.8-.38-1.4.18-1.59-.15-3.66-.07-.67.37,2.79.26,1.32.57-1.19-.11-2.3-.23-2.25-.51-1.98-.06-2.12.17-.94.25-.31.11-1.06.04-.91-.06-1.07.02-2.14-.03-3.2-.13-.89-.03-.7.29.44.19-.62.19-2.02-.12-2.75.06-.14.1.42.11.44.19.77-.08,2.92.03,2.77-.18,1.83-.06,1.37.19,3.2.13.24.14-.89.09-.93.19.14.14.82-.06.92-.06.59,0,.73.14,1.36.13.75-.01,1.22-.13,2.3-.12.62-.02.39-.16.48-.25,1.07,0,2.14.09,3.19.26.63.05,1.26-.03,1.86-.25,1.05.09,1.45.26,2.26.38,1.99-.24,3.99-.34,5.99-.31-.45.23,1.8.09,2.74.13,1.42-.03.94-.34,3.23-.25-.46.06-.92.11-1.38.12.76.09,1.53.09,2.29,0-.36-.06-.53-.13-.9-.19-1.25-.19-2.17-.07-1.35-.25-1.38,0-2.75,0-4.13,0,1.68-.12,3.37-.14,5.05-.06,1.62-.03,4.48-.04,7.34.01-.35.19.45.23.43.38,2.4.09,3.47-.02,5.5.07-.6.2-1.23.29-1.86.25,1.3.2,2.04-.22,3.23-.25,1.63-.03,1.11.22,2.74.19.87,0-.09-.27-1.36-.19.95-.31,1.62.1,2.74.13,1.86-.07.59-.21,1.41-.38,1.81.03-.58.27,1.35.32.27-.15,2.34-.05,1.86-.31,1.39.11,3.94-.06,2.74.13,1.25-.04,3.63.09,4.13-.06.81.05.06.11-.02.19,1.47.06.66-.2,1.4-.25.73.24,1.25-.11,3.67,0-.46.13-.93.23-1.4.31-8.65-.09-12.12.2-19.74.22-.65.02-.05.11.45.13-1.62.04-3.32.14-4.6.12-.38,0-.79-.12-1.37-.13-.31,0-.62.02-.92.06-.72-.03.62-.18-1.82-.13.81-.39,3.19-.09,4.6-.18-1.97-.23-4.84-.35-8.22-.39.25-.05.49-.1.47-.19-1.85.06-1.07.3-.5.5,2.01.07,1.53-.21,3.23-.18-.27.29-2.06.58.86.63-3.71.01-8.91.28-13.31.04-1.42.18-4.69.11-7.35.11-.89.02-.38.24-1.85.19-.48,0-.95-.16-1.34-.44-2.2.06-1.74.01-4.59.06-.21.13.3.17.44.25.73-.13,2.57-.11,3.23-.25,2.75.4-1.89.54-4.17.43.16-.03.32-.07.47-.12-.22,0-2.72,0-2.3.12-2.65-.03-8.32.02-12.39.11-2.81.06-5.83-.05-8.26-.01-1.18.02-2.66.16-4.14.18-1.54-.04-3.07.03-4.6.18.25.22,2.63.14,2.72.38,1.98-.16,3.98-.09,5.95.2,1.21-.29,2.46-.41,3.7-.37.4-.18-.63-.16-.43-.32,2.8-.07,1.45.35.88.51.43.04,2.32,0,3.67.07.88,0-.7-.24.48-.31-.18-.12-2.2.21-3.21,0,.47-.03.94-.12,1.4-.25,3.35.09,7.27-.02,12.38.02,1.45.13-2.85-.03-2.31.18.9.16,1.83.21,2.74.13,1.21.02.38-.24,1.85-.19-1.12.19.58.24,1.36.19,1.05-.07.02-.28.92-.06,1.05.2,2.13.25,3.2.13-.45-.13-2.02-.1-1.81-.32.76.02,1.52.09,2.28.19.37-.01.46-.06.92-.06.33-.17-.94-.12-1.36-.19-.43-.14,1.34-.06,1.38-.06,1.05-.04,1.08-.11,1.85-.12,2.03-.04,4.81.04,7.34.01-1.22.11-2.45.13-3.67.06.9.16,1.82.21,2.74.13.01.18,1.03.24,1.81.32,1.5-.11-1.18-.17-.43-.38,2.66-.05,1.81.38,3.17.51,1.71,0,2.9.07,4.12.13.85,0,.3-.21.94-.25,2.36-.05,1.89.29,4.57.2-.28.29,1.7.27,1.33.57-1.38-.1-2.77-.04-4.14.18.61.07,1.22.09,1.83.07-.36.06-.5.14-.48.25-1,0-1.45-.05-1.36-.19-.66-.03-1.14.24-1.38.06-.65-.11-.41-.14.93-.12-.85-.11-.44-.33.49-.38-.92-.04-1.84-.02-2.76.06-.13-.15-.7-.24-.42-.44-1.39,0-.47.32-1.86.31-.15.17,1.77.05,1.35.25-.76.04-1.51.02-2.27-.06-.91.16-1.84.22-2.76.18.8-.21.6-.39-1.81-.32-1.21-.15,1.23-.17.03-.32-.76.14-1.54.18-2.31.12.18-.11-.35-.12-.91-.13.31-.14.94-.38.04-.5-.76.17-1.53.23-2.31.18-.57-.25,1.52-.13.95-.38-1.8-.08-1.21.17-1.86.25-.88-.03-.01-.29-1.82-.19-.43.23-.92.34-1.4.31.38.15,1.15-.17,2.76-.06-.73.17,1.02.12,1.36.19.19.04-.12.14-.02.19.15.07,1.15.06.9.19-.76.06-1.53.08-2.3.06.17-.08.82-.1.93-.19-.77-.04-1.54,0-2.3.12.18.3,2.34.25,4.11.2.45.19-1.03.11-1.85.12.84.16,1.3.3-.04.44.11.07.91.04.91.13.91-.12,1.84-.13,2.76-.06-.37.28-4.16.15-6.9.18-1.54.02-2.75.11-4.13.06.61-.07,1.23-.09,1.84-.06-.92-.05-1.84-.03-2.76.06-.46,0-.91-.05-1.36-.13-.8.01-1.43.16-2.31.18-.74.02-1.03-.07-1.83-.07-1.53.08-3.06.08-4.59,0,.38-.32,2.2-.44,4.62-.31-.13-.21-2.07-.18-3.65-.2-1.34.05-.53.09-.48.25-.92-.02-1.44.01-1.38.12-.82.01-2.29-.07-1.85.12.04.12,1.72-.1,2.29.07-2.17.16-4.74-.01-7.34.05-.59.01-1.15.11-1.85.12-2.01.03-4.81.04-6.88.05-3.46.02-7.3.05-9.63-.01-.08,0,.08-.12.01-.13-.45-.06-1.26.11-1.84.06,1-.41-.98.11-3.21,0-.54,0-.4.11-.47.19-1.68.06-3.36.02-5.04-.13-1.44-.03-1.05.19-2.76.12-.34-.22.28-.3,1.86-.25.06-.19-1.37-.19-2.74-.19-.35.19.45.23.43.38-21.87.23-43.92.05-65.14.02-3.58,0-6.5.02-10.09-.02-.74,0-.8.07-1.38.06-1.57-.02-4.57-.07-7.33-.07-1.53,0-2.96.09-4.59.05-2.18-.04-8.73-.08-12.38-.02-2.6.13-5.2.13-7.8-.01-1.99.11-3.98.1-5.96-.01.29.06,1.05.07.9.19-3.41-.1-5.98.03-10.1-.02.17-.08.82-.1.93-.19-1.87-.07-1.19.21-2.31.25-1.07-.02-.24-.28.03-.32-1.3.03-1.96.15-3.23.18-1.45-.1-2.37,0-4.13,0-.83,0-1.55-.07-2.29-.07-1.14.01-3.02.19-5.52.12-.65-.02-1.18-.12-1.36-.13-.76.1-1.53.1-2.29,0-1.56.04-5.27.22-7.36.24-.86.01-1.63-.07-1.83-.07-.83,0-.97.07-1.84.06-.46-.01-.92-.06-1.37-.13-.23,0-.84.07-1.38.06-1.98-.02-5.06-.12-6.88-.07-.8.02-1.34.11-2.3.12-.45-.07-.91-.11-1.37-.13-.94.12-2.78.06-4.14.06-.98,0-2.18.11-3.22.12-.82,0-.96-.07-1.83-.07-3.09.02-7.18.09-10.56.11-.74,0-.79-.07-1.37-.07-3.12.02-5.87.14-7.81.11-.46-.01-.91-.06-1.37-.13-2.48.03-4.57.12-7.35.11-.3-.07-1.05-.07-.9-.19-.54,0-.39.11-.47.19-2.98-.04-5.13.28-7.34-.01-1.63.05-1.67,0-3.67.06-.51-.08-1.3-.12-.89-.32-2.05,0-.6.14-1.4.25-2.11.05-2.2-.16-4.11-.13-.85,0-.3.21-.94.25-2.29-.11-5.47.04-8.72-.01-.97-.02-2.1-.12-3.2-.13-2.82-.02-7.92.23-9.63-.08-.32.03-.63.09-.93.19-3.03-.16-4.83.16-8.26-.01-.75.27-1.8.12-3.68.18-.17.07.73.19.9.19.49.01.83-.12,1.39-.12.7,0,.86.08,1.37.07.67-.02,1.24-.12,1.85-.12,1.01,0,1.67.06,2.75.07s2.59-.07,4.59,0c.57.02,1.26.13,1.37.13.5,0,2.02-.07,3.21-.06,1.52.02,1.76,0,3.67,0,1.62.01,3.89.03,6.42.01.12.1-.45.11-.48.19,1.4,0,3.02-.03,2.74.19.54-.01.4-.11.47-.19-.76-.09-1.52-.11-2.29-.07,2.29-.19,4.59-.21,6.89-.05,1.14.09,1.46-.25,1.84-.06.94.13-.21.12-.93.19-.46.04.13.14-.93.12-.37,0-.45-.07-.91-.07.46-.07.92-.09,1.38-.06-1.46-.17-3.02.04-4.58-.07-.72.34,3.58.02,2.72.38,2.14-.21,4.29-.29,6.44-.24.62-.27-2.18-.08-1.81-.32,1.68-.04,3.36,0,5.03.13-.79.09-3.4.09-1.86.31.89-.02.38-.24,1.85-.19-.42.36,3.02.24,3.67.07-.91-.13-1.83-.17-2.74-.13.45-.24,2.32-.05,3.68-.06-1.08.24.83.25,1.8.38.53-.24-1.6-.23-.43-.38,1.24.04,1.12.26,2.73.26,1.32-.03-.73-.09-.9-.13,4.48-.13,11.04-.1,16.98-.1,1.07.09,2.15.07,3.21-.06,2.56.1,7.59.1,9.63.08-1.68.16-3.37.2-5.06.12-2.78.01-5.37-.03-7.34.05.13.22,1.25.16.43.38,1.68-.05,2.43.11,3.21,0-.58-.03-.94-.07-2.28-.13,1.08-.32,2.77.05,4.59,0,.2-.15-2.09.03-1.36-.19,10.57.04,25.44.08,36.69.06.76,0,1.53.07,2.29.07,1.03,0,1.81-.07,2.76-.06,1.52.15,3.06.17,4.58.07.16.14,1.83.09,2.27.19.58-.02.47-.12.01-.13,8.08-.32,16.98.1,23.41-.15.66.03-.05.05-.01.13,1.6-.07,3.29-.13,5.51-.12-.06.16-1.8.09-1.86.25,1.53-.1,3.06-.12,4.6-.06-.04.27-1.93-.07-2.31.19-1.45.03-1.61-.12-3.2-.07-.37.01-.46.06-.92.06-.14.14.09.24.9.25-1.47.07-1.76.35-1.87.44.73.24,2.7,0,3.66.13.23.2-1.47.05-1.84.06-.48.01-.26.12-.47.13-1.34.04-3.05.01-5.05.05-.77-.12-.67-.47.5-.5.35-.14-1.66-.26-1.82-.13-1.42-.1.96-.2.95-.31-1-.01-1.46.05-1.39.19-1.45.03-1.02-.19-2.74-.13.8-.25,2.96.08,3.68-.18,1.68.13,3.36.15,5.04.07.63-.27-3.65-.01-1.81-.26-1.9.15-3.19,0-4.61.18-.88-.03-1.97-.03-1.82-.19-1.93.18-5.79.06-9.17-.01-1.83.16-3.68.2-5.51.12-1.27.08-2.35.18-4.14.18-.05-.11.58-.13.48-.25-.62.01-1.24.07-1.85.19-1.56.01-3.71-.06-4.59.06.6.1,1.21.15,1.82.13-.88.11-2.94.05-3.68.18-2.07-.01-2.65-.22-4.57-.26-.68.03.17.08-.02.19-1.95.01-2.45-.17-4.57-.13-.46.09-.92.13-1.39.12-.18.11.35.12.9.13-1.22.09-2.45.07-3.66-.07-1.04.03.55.1-.48.19-1.5-.05-.61-.42-3.18-.32.3.06,1.05.07.9.19-1.55-.12-1.7.15-2.76.06.13.01.51-.17.02-.19-.43-.02-1.25.14-.47.12.19.18-2.5-.05-2.31.12.56.17,4.26-.07,3.65.26.62-.02.39-.16.48-.25h2.29M695.82,9.19c-.07-.2-.29-.38-1.8-.38-.01.13-.02.25-.03.38h1.84M695.44,8.37h-1.38c.44.19.44.44,2.72.38.8-.29-2.15-.09-1.34-.38M660.59,8.19c1.35.03.36.37,2.73.26.54-.2-.71-.15-.9-.25-.61-.1-1.23-.1-1.83,0M878.72,5.39c1.05-.09,2.96-.05,2.78-.31-1.47-.06-.96.16-1.85.19.08-.16.11-.31-.89-.32-.01.15-.03.29-.04.44M857.17,5.23h-1.38c.31.19-.49.23-.49.38,1.68.03,1.41-.23,1.87-.37M858.04,5.8c-.75.25-1.54.4-2.33.44,1.62,0,4.43-.3,2.33-.44M866.32,5.5c-.03.19-1.97.36.43.38-.46-.24.98-.2,1.4-.31-.87.01-1.01-.07-1.83-.07M865.89,5.12c.12-.09.76-.1.93-.19-.62-.02-.87-.09-1.83-.07-.14.14.09.24.9.25M863.54,5.81c-.15.09-.66.12-.48.25.61-.01,1.22,0,1.83.07.11-.18.09-.34-1.35-.32M854.89,4.98c1.41.17,2.91-.06,5.04,0,.1.09.75.11.9.19-.01.08-.81.06-.93.12.9.16,1.82.24,2.73.26.62-.02,1.24-.09,1.85-.19-.13-.31-.99-.53-3.16-.57-.32.13.6.09.91.13.48.07,1.36.27.43.32-1.13-.06-1.98-.15-1.8-.38-2.32,0-4.41.02-5.97.12M854.08,3.78c.92.05,1.85,0,2.76-.12-.92.06-1.84.04-2.75-.07,0,.06-.01.13-.01.19M844.52,3.01c.38.05,3.57.18,3.22-.06-1.07-.13-2.15-.11-3.22.06M839.87,3.69c2.32-.04,3.95.26,5.95.07.51-.34-2.02-.27-2.74-.13-1.07-.08-2.15-.06-3.21.06M833.45,3.68c1.51.21,3.53-.2,5.04,0-.78-.34-3.63-.1-5.04,0M831.68,2.98c2.09,0,4.44.3,5.96,0-2.36.09-4.51-.18-5.96,0M848.87,5.78s-.08.07-.46.06c-.15.17.62.21,1.82.19.14-.16-.15-.27-1.35-.25M848.5,4.65c-.3.25,2.51.08,3.66.13-.77.21.09.24,1.81.26.45-.41-4.05-.43-5.47-.39M848.46,5.09c.61-.1,1.24-.03,1.82.19.62.02,1.24-.02,1.85-.12-1.8-.03-1.99-.11-.89-.25-.93-.04-1.86.02-2.77.18M847.92,6.03c-1.29-.08-.8-.39-3.18-.32-.5.14.84.13.9.25.01.03-1.09.07-.93.19.08.06.16.16,1.82.13-.44-.35.73-.12,1.4-.25M837.42,5.63c-.45-.38,3.8.11,2.32-.31.92.03,1.84,0,2.76-.12,1.52.13,3.01.26,5.02.32l.02-.25c-2.05.02-3.23-.03-2.27-.26-2.44.02-4.13.14-6.44.18.51.28-4.34.21-1.42.44M832.29,6.51c1.84-.04,3.16-.15,4.61-.24,1.65.11,3.92.14,6.41.14.16-.15-.05-.24-.43-.32-.82.07-2.67,0-3.22.12,1.16.11,1.61-.07,2.29.07-1.22.11-2.45.06-3.66-.13,2.42-.1.73-.25,2.33-.37.87-.01,1,.07,1.83.07.09-.18-1.36-.15-1.35-.32.18-.03,2.24-.09.93-.12-1.23.18-2.46.29-3.7.31,1.2.28-.69.3-1.4.31.87,0-.3.24-.94.25.2-.32-3.2-.15-3.64-.38,0,.11-.02.21-.03.32.91-.08,1.84-.03,2.74.13-1.24.02-3.38-.09-2.77.18M830.09,5.37c-1.3.05-1.18-.09-2.29-.07-.83.28,2.41.23,2.29.07M827.29,6c1.97.03.6-.17,1.39-.19.92.08,1.85.04,2.76-.12-1.75-.06-2.93.1-3.67,0,.37.18-.66.16-.49.31M824.51,6.31c.91.08,1.84.08,2.75,0-.36-.01-.53-.05-.45-.13-.77-.07-1.54-.03-2.3.12M821.31,6.17c-1.49.08-.33-.2-1.82-.13-.61.12-1.23.17-1.85.13-.58.2,1.48.05.9.25-1.36.01-2.24-.25-2.75,0,1.35-.01,1.4.14,2.74.13,1.71-.1,2.78-.29,5.07-.31.08-.07-.06-.18.48-.19,2.26-.08-1.24-.07-1.38.06-.61,0-1.36-.26-1.83-.07.49.02,1.09.11.45.13M815.84,5.73c.91.07,1.83.09,2.75.07.58-.2-1.48-.05-.9-.25,1.41-.04,1.67.07,2.75.07.77-.12-.04-.08.02-.25-1.38-.02-2.77.04-4.14.18,2.14.01-.34.11-.48.19M813.97,6.1c-.68-.39-1.49-.53-2.26-.38.81.02,1.04.11.9.25-.82.01-2.29-.07-1.85.12,1.58-.03,2.57.03,3.66.07.6,0,3.32.01,1.84-.06h-2.29M815.42,5.29c-1.07-.09-2.14-.12-3.21-.07,1.06.16,2.14.19,3.21.07M811.77,5.03c1.48.08.37-.2,1.85-.12.72,0,.34.16,1.37.13,0-.08.01-.17.02-.25-1.73.05-2.18-.08-3.66-.07-.24.2,1.57.17.43.32M808.05,5.66c-.55.2,3.93.24,2.74.13-1.82.08-.92-.21-2.74-.13M806.26,5.09c1.29.06,1.86.21,3.65.19.25-.22-2.67-.34-3.65-.19M801.2,5.27c1.14.04,3.63.26,4.13,0-1.37-.13-2.75-.13-4.13,0M799.31,5.89c.91.1,1.82.14,2.74.13-.89-.22-1.83-.27-2.74-.13M799.26,6.46c1.1.12,3.68.05,5.5.07.47-.25-2.56-.03-2.27-.26.64,0,.5-.16-.45-.13-.26.09.51.33-.49.31-.76-.15-1.53-.15-2.29,0M782.3,6.37c-1.08,0-1.34-.11-2.75-.07-.66.2,2.73.16,2.75.07M798,5.14c-.31-.02-.62,0-.92.06,1.82.06,1.44-.18,1.86-.31h-1.83c-.35.17.9.13.89.25M796.52,6.34c-.09.16.69.2,1.35.25.15-.09.66-.12.48-.25h-1.83M790.2,5.13c2.39.08,2.93-.1,4.6-.12-.02.17-1.29.16-1.86.25,1.08.09,2.18,0,3.23-.25-1.83.03-3.66-.04-5.49-.2.37.18-.66.16-.48.31M791.5,6.07c-4.64.06,1.83.18,1.84-.06-.86,0-1.03.05-1.84.06M785.54,6c0,.11-.02.21-.03.32-.05.09-3.3.03-1.84.12,1.77,0,3.38,0,4.58.07.75-.31-2.36-.1-1.8-.38.86.01,1.02-.07,1.84-.06-.29.33,4.29.57,5.03.2-1.85-.01-3.53-.05-4.12-.07-.85-.31,1.54-.17,1.4-.38-2.14,0-2.55.24-5.06.18M778.74,5.11c.61,0,1.22.05,1.82.13,1.02-.09-.56-.16.48-.19.18.11.59-.01,1.38,0,.26.2-.88.19-.03.32.61.03,1.23,0,1.84-.06-.26,0-.52-.05,0-.06,1.07-.04,2.14.05,3.19.26-.13-.25.85-.35.52-.63-1.92.07-2.26,0-4.12-.07-.06.08-.15.15-.93.12-1.42,0-1.29-.2-3.2-.13-.2.12-1.32.11-.95.31M779.17,5.48c.75.18,1.53.2,2.29.07-.51.23,1.12.18.89.38.94.06,1.75-.2.93-.19-.3.07-.61.07-.92,0,0-.04,0-.08,0-.13,1.07.04,2.15.02,3.22-.06-1.07-.08-2.14-.08-3.21,0-1.52-.16-3.04-.23-4.57-.2-.33.17.79.08,1.37.13M774.08,5.98c.76,0,1.53.04,2.28.13-1.07,0-2.14,0-3.21,0-.39.07-.62.17-.48.31,2.73.09,2.85-.19,5.06-.18.3-.13-.81-.12-.9-.19.31-.02.62-.06.93-.12-.3,0-.61-.03-.91-.06-.2-.06.96-.14-.45-.13.9.32-2.09.09-2.31.25M769.99,5.47c.86.11,3.03.05,4.59.07-.3-.37-3.28-.21-4.59-.07M768.48,5.76c-.17,0-.4-.02-.8-.04-.45-.08-.91-.13-1.36-.13-.62-.05-1.24,0-1.85.12.92-.04,1.83-.02,2.75.07-2.17-.06-1.28.15-1.85.19-.91-.07-1.83-.09-2.74-.07.27.28,3.61.14,5.02.26,0,.06-.38.07-.47.12.76.04,1.53.04,2.29,0,.7-.24-2.05-.01-1.35-.25h2.29c.49-.26-2.05-.03-2.28-.19-.09-.07.13-.09.35-.09.49.02.27,0,0,0M761.27,5.51c2.44.07,1.11-.11,1.85-.12,1.91-.04,3.99.15,5.5.07-.68-.01-.41-.15-.43-.25-2.13.18-3.72.04-6.89.05,0,.08-.01.17-.02.25M748.9,5.37c-.03.09.2.14.44.19.62.03,1.25-.03,1.85-.19-.76-.08-1.53-.08-2.29,0M743.81,5.93c.92.04,1.84.02,2.76-.06-.92-.12-1.85-.1-2.76.06M733.68,6.36c.61.05,1.22.05,1.83,0,.39-.24-2.17-.25-1.83,0M733.27,5.73c1.52.14,3.05.17,4.58.07-1.12-.04-3.84-.19-4.58-.07M724.63,4.89c.6.12,1.21.17,1.83.13,0-.06.01-.13.02-.19-.61-.03-1.23,0-1.84.06M720.94,5.14c1.54.11,3.46.07,3.23-.25-.61-.09-1.23-.09-1.83,0,.28,0,.54.01.45.06-.62-.09-1.26-.03-1.85.18M714.54,4.88c-.21.3,1.84.01,2.75,0,1.22.1,2.45.08,3.67-.06-2.1.02-5.04-.07-6.43.05M710.81,5.56c.92.12,1.85.1,2.76-.06-.92-.04-1.84-.02-2.76.06M736.16,4.16c1.5,0,1.74.18,3.66.13.07-.32-2.29-.24-3.66-.13M731.12,4.08c1.55-.08,2.4.25,3.21.07-1.85-.07-1.07-.14.02-.25-1.08-.04-2.16.03-3.23.18M725.67,3.51c.44.15.12.4,1.8.38.22-.24-.94-.29-1.8-.38M724.27,3.82c2.48.08-1.73.37,1.34.38.71-.2-.21-.5-1.34-.38M711.86,4.05c-.54-.01-.49-.1-.44-.19-.61-.01-1.23,0-1.84.06-.34.16,1.94.27,2.28.13M708.26,3.23c.07.1-.18.23.44.25-.13-.13,1.32.02,1.37.07-.05.1-1.17.05-.93.19,2.04.02,4.8-.11,6.89-.05,1.14.03,1.62.24,2.73.26-1.46,0-4.05.19-3.24.31.95-.2,4.07-.19,4.62-.37-.06.02-1.47-.04-.91-.13.76-.07,1.53-.07,2.29,0-.46-.03-.92,0-1.38.06.68.08,1.87.08,2.28.19-.52.09-.51.15.44.19-.33-.19,1.59-.07.95-.31-1.15,0-1.45.12-1.83-.07.45-.19.96-.38,1.42-.57h-1.83c-.62.16,1.8.2.44.25-.61.03-1.22,0-1.83-.07-.04.01,1.27-.04.92-.06-1.3-.08-2.66,0-4.13,0-.95,0-2.58-.17-2.76.06,2.19,0,2.75.21,4.57.26-1.22.07-2.45,0-3.65-.19-1.37.09-2.75.09-4.13,0-.06-.18,2.99.08,2.31-.18-2.17.11-2.8-.04-5.04-.07M699.42,4.66c1.01.39,2.11.5,3.18.32-.3,0-.61-.04-.9-.13.6-.09,2-.06,3.22-.06-.54.2.7.16.9.25,1.58.05,1.77-.09,3.22-.06-.3-.19-.31-.12.03-.32l-9.63-.02M686.57,4.89c1.67.02,2.99,0,4.13-.06.13.14-1.33.07-1.39.19.3-.02.61,0,.91.06h.92c.09-.09-.14-.23.48-.25.61.28,2.37.01,3.67,0v.19c1.88-.2,4.8.23,5.04-.05-1.93.05-3.37-.15-2.27-.32-1.38-.03-2.77.03-4.14.18-2.41.05-6.48-.38-7.34.05M677.08,3.05c.77.04,1.54,0,2.3-.12-1.07-.08-.85,0-2.29-.07l-.02.19M674.23,4.24c.91.07,1.83.09,2.74.07.67-.2-2.73-.16-2.74-.07M673.72,4.81c3.05-.02-.43.21.89.32,2.06.03,3.44-.03,5.05-.05,1.13-.08-.81-.19.48-.25,1.21.17,2.42.28,3.64.32.5.01.99-.12,1.41-.38-1.66,0-3.67-.03-1.85.12-1.58-.04-2.42-.17-4.11-.2-1.08.29-4.11-.07-5.51.12M673.23,5.12c-.55-.01-.28-.07,0-.13-1.23,0-.98-.2-2.27-.19-.91.09,1.24.5,2.27.32M468.41,2.59c-.46-.03-.93,0-1.39.06,1.67.04-1.27.32.9.25.52-.06.16-.12.49-.31M491.21,4.2c-1.53-.07-3.06-.05-4.59.06.5.04,3.63.04,4.59-.06M512.91,2.6c-1.41.04-1.67-.07-2.75-.07.9.21,1.84.24,2.75.07M519.79,2.54c-1.25.15-2.61-.12-3.68.06.45.06,3.96.18,3.68-.06M563.82,2.62c-.48.08-.47.23-.95.31h1.84c.08-.16.11-.31-.89-.32M584.81,3.97c-1.75.03-.91-.29-3.2-.19-.24.2,1.57.17.43.32.92.05,1.85,0,2.76-.12M592.28,2.41c-.61.04-1.23,0-1.83-.13-.13.18.85.22,1.35.32-.02.12-1.26.08-.94.25,2.74.03,1.08-.16,1.42-.44M618.4,2.64c-.92-.05-1.85,0-2.76.12,1.71-.04,2.67.18,2.76-.12M630.22,3.92h-2.29c-.47.25,2.72.26,2.29,0M633.97,2.98c-.92-.08-1.85-.04-2.76.12.95-.04,3.18.11,2.76-.12M641.29,3.18c-1.56-.05-3.83.14-2.77.25.19-.08,3.54.13,2.77-.25M651.76,4.14c-1.04-.26-2.12-.35-3.19-.26-.81.34,1.56.25,3.19.26M660.58,2.9c-1.4-.18-3.01,0-4.57-.2-.3.17.76.08,1.37.13,1.06.19,2.14.21,3.2.07M667.76,4.73c-1.39,0-2.79.13-4.16.37,1.37.08,2.75.08,4.13,0-1.02-.03-.33-.33.03-.38M656.27,4.97c-.3.25,2.51.08,3.66.13.62-.02.89-.09,1.84-.06-.29.16.17.23,1.36.19.36-.19-1.25-.12-.89-.32.93.05,1.86-.01,2.77-.18-2.8.07-6.27.34-8.74.24M631.97,4.87c.36.01.53.05.45.13.76-.04,1.53-.04,2.29,0,.44-.19-3.02-.17-2.74-.13M623.25,4.97c.62.07,1.24.03,1.85-.12-.62-.02-.87-.09-1.83-.07l-.02.19M620.04,4.91c.86.36,1.8.49,2.72.38.5-.23-.55-.12-.9-.25.04.01.69-.09,0-.13h-1.83M589.28,5.24c.92.05,1.85,0,2.76-.12-1.35.01-1.4-.14-2.74-.13,0,.08-.01.17-.02.25M415.97,4.26c-.17-.12,1.02-.17,2.31-.25-.6-.08-1.21-.12-1.82-.13-.27.08-2.37.4-.49.38M405.87,4.37c.35.01.53.05.45.13.77.02,1.55-.04,2.31-.19-.92-.04-1.84-.02-2.76.06M178.72,5.33c.91.1,1.83.13,2.75.07-.91-.14-1.83-.16-2.75-.07M171.88,4.88c.83,0,1.07.06.9.19,1.45.03,1.63-.11,3.22-.06-.9-.19-1.81-.27-2.73-.26-.2.01.06.16-.47.12,0-.1-1.23-.21-.92,0M164.05,5.24c-.22.16,2.37.26,2.74.13-.86-.05-1.67-.11-2.74-.13M28.7,5.59c-1.76-.05-1.79.3-.02.25l.02-.25M41.09,5.48c.06-.19-1.37-.19-2.73-.19-.29.22,1.34.19,2.73.19M46.18,10.28c-.6-.11.2-.4-1.34-.38-.39.07-.62.17-.49.31.87-.01,1.01.07,1.83.07M58.1,10.42c.15-.12-.61-.13-.9-.19.31-.15.95-.32-.89-.32-.03.09.2.14.44.19-1-.01-1.46.05-1.39.19.92-.03,1.83.01,2.74.13M59.98,4.57c-1.28.05-4.3-.14-4.14.12.38.19.7-.14,1.84-.06.04.08.12.15.91.13-.69-.22,1.56-.04,1.39-.19M62.27,9.93c-1.13.02-2.91.13-2.32.31,1.53-.18,3.06-.24,4.6-.18.43-.18-1.47-.14-2.28-.13M67.8,9.62c-.7.14-2.31.14-2.33.37,2.1.07,4.31-.27,2.33-.37M95.76,4.63c.75.1,1.51.17,2.28.19.28-.17-1.86-.32-2.28-.19M130.01,6.38l-.02.25h1.38c.15-.16-.14-.27-1.35-.25M187.82,6.16c-1.23-.06-2.46-.02-3.68.12.88-.05,4.56-.03,3.68-.12M193.75,6.61c-.91-.13-1.82-.2-2.74-.19.89.25,1.82.31,2.74.19M197.95,5.74c-.17.26,2.66.05,3.21,0-1.07-.08-2.14-.08-3.21,0M214.87,6.39c-1.24.04-.88-.13-1.36-.19-1.38-.05-2.76-.01-4.14.12-.45-.07-.91-.12-1.36-.13-2.48.21-6.07.11-8.72.05.42.12-2.63.03-.93.12.86.01,1.02-.07,1.84-.06.9.19,1.81.27,2.73.26.83.03,1.17-.06,2.3-.06,1.1,0,2.6.13,3.66.13.6,0,.63-.08,1.38-.06,1.22.03,4.57.09,4.6-.18M270.38,6.23c-1.08-.03-2.13-.18-3.19-.19-1.22-.02-1.42.11-2.3.12-.46,0-.34-.06-.45-.06-.16-.03-.32,0-.47.06-1.39-.07-2.78.01-4.15.24,1.69.06,4.34-.09,6.89-.11,1.32-.01,3.17.21,3.67-.06M334.36,3.75c-.92-.07-1.84-.07-2.75,0-.44.23,3.02.15,2.75,0M326.07,4.18c1.73.13,1.84-.28.94-.31.33.2-1.59.08-.94.31M328.34,4.5c-.75-.1-1.51-.17-2.28-.19-2.42.16,1.43.5,2.28.19M271.33,5.98c-.14.18,1.02.2.88.38-.31-.02-.62,0-.92.06,2.48-.02,2.87-.43.04-.44M297.21,8.98c-1.22-.08-2.45-.06-3.67.06,1.22.09,2.45.07,3.67-.06M309.6,8.88c-1.07.05-2.14,0-3.2-.13-.06.16-.88.19-.03.31.78-.1,3.35.05,3.23-.18M335.76,8.73c-.76-.11-1.54-.09-2.3.06.76.11,1.54.09,2.3-.06M333.76,5.39c-1.22-.06-2.45-.04-3.67.06.46-.25-1.73-.06-1.83-.07-.97-.02-1.17-.18-2.28-.19.32.28-2.51.11-2.78.31-.81-.02-2.3.06-1.82-.13,1.44-.03,1.86.15,2.3-.06-.76-.07-1.52-.09-2.29-.07-.84.03-3.85.44-4.14.12.26,0,.53-.05,0-.06-.59.18-2.66-.28-3.22.06.27.09,1.77.01,1.82.13-1.68-.09-3.37-.07-5.05.05-.3-.04-.61-.1-.9-.19-.39-.03-2.94.02-3.21,0-.07,0,.08-.12.01-.13-.89-.01-1.87.12-2.76.06-.07-.07.09-.18-.44-.19-1.01.13.04.2.43.32-1.91.06-.52.25-2.78.31-.61-.08-1.21-.12-1.83-.13-.61.09-1.23.13-1.85.12-2.75.07-6.05.07-9.17-.01-.6.16-1.23.22-1.85.19-4.92.05-7.22.09-12.4.11-.38.45,3.4.13,5.03.13,2.81,0,5.38.11,7.79.14-.01-.11.37-.16.93-.19,3.95.12,6.03-.04,9.64-.11.28.14-1.32.2.44.19.54-.11,1.77-.13,2.31-.25,3.36.05,6.61-.1,8.25.08,1.68-.11,3.37-.11,5.04,0-.53-.31,2.34-.14,3.23-.25-.15.13-1.25.12-1.4.25,1.57-.11,2.2.01,4.13,0,.76-.25-1.98-.03-1.82-.19.31-.23,2.2.02,4.13-.06.06-.08.15-.15.93-.12-.91.2.16.05,1.37.07,1.38.08,2.77.04,4.14-.12.03.11-.12.2-.48.25.77.04,1.55-.02,2.31-.18,2.95.05,5.69.04,6.4.2-.07.07-.83.14-.02.19.69-.07.73-.24,1.41-.31,1.24,0,2.12.27,2.75,0-1.37.03-2.75-.01-4.12-.13.76-.06,2.09-.08,3.22-.12.76-.04,1.53-.01,2.29.07,2.3-.41-8.42-.31-8.24-.14M355.34,5.11c-.34.22,1.59.23,2.28.13.34-.22-1.59-.23-2.28-.13M369.22,3.81c-1.32,0-3.01.03-3.66-.07.73.23,1.5.31,2.27.26-.28,0-.54,0-.45-.06.62.02,1.24-.02,1.84-.12M372.38,4.45c-.92-.1-1.85-.08-2.76.06.92.1,1.85.08,2.76-.06M373.72,4.76c.09-.25-1.16-.17-2.28-.13-.49.21,1.42.1,2.28.13M374.79,8.35c-1.08-.07-2.16,0-3.23.18,1.08.06,2.16,0,3.23-.18M375.67,8.73c-.23.2.96.2,2.28.19.23-.2-.96-.2-2.28-.19M382.13,8.37c-.77-.07-1.54-.03-2.3.12.68.1,2.61.1,2.3-.12M387.44,5.29c-1.73-.09-.9.17-2.31.12-.9-.06-4.58-.3-5.04,0,1.65.05,3.5-.09,4.12.07-.11-.03-1.45.05-.47.06.78-.14,4.1.07,3.69-.25M388.08,8.38c-1.3.05-1.18-.09-2.29-.07-.04.11.09.2.44.25.62.04,1.25-.03,1.85-.19M401.68,5.12c-2.32.15-3.68-.17-4.59.06,1.4.06,1.41.31,3.18.32.54-.09.55-.16.02-.25.47.03.93,0,1.39-.12M406.22,5.57c-1.21-.02-1.51.08-1.4.25,1.23,0,2.22-.14,1.4-.25M431.44,5.67c-.36-.01-.53-.05-.45-.13-1.29-.07-3.16.1-3.21,0,.13-.13,2.03-.01,1.85-.19-1.07-.06-2.15-.04-3.22.06.67.19-.17.24.42.38,1.72-.09,3.41-.1,4.6-.12M459.01,5.21c-.87.01-1-.07-1.83-.07.36.18-.66.16-.48.31.78.01,1.56-.07,2.31-.25M465.43,5.22c-.91-.11-1.82-.15-2.74-.13-.03.09.2.14.44.19-1.59.19-2.79-.15-3.67,0,.47.19,2.94.1,4.11.2.09-.09-.14-.23.48-.25.06.12,1.55.04,1.83.13,2.96-.17,1.08-.05-.45-.13M525.63,9.29c-1.23-.07-2.45-.05-3.68.06.55.01.28.07-.01.13,1.58-.1,3.04.21,3.69-.18M526.56,9.16c-.3-.07-.62-.07-.92,0,.75.14,1.51.22,2.27.26.42-.2-1.18-.13-1.35-.25M532.97,9.3c-.92-.11-1.86-.07-2.77.12.92.04,1.85,0,2.77-.12M541.87,7.11c-1.08,0-2.15.07-3.23.18,1.08.12,2.17.05,3.23-.18M543.98,9.26c-.92-.11-1.85-.07-2.76.12.92.12,1.86.08,2.76-.12M575.32,7.48c-.92-.03-1.84,0-2.76.06.05.12.28.21.9.25-.58-.27,1.32-.2,1.86-.31M578.07,7.61c-.6-.14-1.22-.16-1.83-.07,1.15.29-1.17.04-1.85.12.13.38,3.17.08,3.67-.06M597.24,8.65c-1.07-.12-2.15-.1-3.21.06,1.23-.14,2.33.1,3.21-.06M614.67,8.61c-.45.12-.92.16-1.39.12-.24.2.55.26,1.35.32-.05-.11.47-.15,1.39-.12.24-.2-.55-.26-1.35-.32M618.77,8.94c-.43-.18-.88-.31-1.34-.38.12.17-.69.47,1.34.38M618.88,7.68c-1.74.09-5.03-.03-5.53.24.46.04.92.02,1.38-.06,1.4-.04,4.28.09,4.15-.18M634.44,8.21c.78,0,1.55-.08,2.31-.25-1.3.05-1.18-.09-2.29-.07,0,.11-.02.21-.03.32M632.11,8.58c-.77-.03-1.54,0-2.3.06-.38.14.47.42.89.25-1.06-.07.91-.25,1.4-.31M639.42,8.78c-1.16.05-3.94-.13-3.68.12,1.16-.05,3.94.13,3.68-.12M639.43,8.72c-.16-.27-3.84-.07-5.49-.14-.06.12-1.52.04-1.39.19,3.11-.02,3.73-.16,6.89-.05M306.7,5.41c-.91.23-1.84.32-2.78.25.45-.11.92-.16,1.39-.12.09-.05-.17-.06-.45-.06.61-.07,1.23-.09,1.84-.06M861.84,4.36c-.91.15-1.84.17-2.76.06.91-.12,1.84-.14,2.76-.06M473.25,4.99c2.14-.15,4.29-.17,6.43-.05.05.26-.7,0-1.38,0-1.25.14-3.7.07-5.05.05M537.92,5.09c1.4-.07,3.27-.04,5.97-.05-1.67.08-4.43.14-5.97.05M821.16,7.82c-.7.34-4.12.15-5.97.12-1.26-.02-3.41.11-3.66-.13,3.24.13,7.2.05,9.63.01M875.93,5.83c-.82,0-.98.07-1.84.06-.34-.07-.65-.25-.88-.51,1.41.08,2.57.2,2.71.45M830.32,8.02c-1.1.14-4.11.02-5.97.05,1.36-.16,4.24-.05,5.97-.05M789.52,7.7c2.62,0,5.7.01,7.8.01-4.33.28-8.16-.05-14.23.04-.91-.11,4.51-.05,6.43-.05M878.65,6.15c-1.53,0-3.06,0-4.58,0,.87-.04,4.37-.27,4.58,0M891.51,5.98c-.91.13-1.84.15-2.76.06.91-.13,1.84-.15,2.76-.06M884.16,6.09c-1.53.08-3.06.06-4.58-.07,1.22-.12,2.45-.16,3.68-.12-.03.11.33.16.9.19M840.71,4.64c-1.9-.07-1.8.13-3.22.12-1.08-.38-2.97.03-4.12-.07.25-.05.49-.1.48-.19,1.07-.04,2.14-.02,3.2.07,1.02-.05,3.76-.26,3.66.07M227.47,3.84c3.01-.07,6.03-.03,9.63.02-2.47.1-5.5.12-8.73.11-.78.02-.86-.05-.9-.13M419.17,9.68c-1.07,0-2.14,0-3.21,0,.11-.1,3.43-.25,3.21,0M144.82,10.06c-.92.14-1.84.21-2.77.18-.7,0-2.55-.05-2.28-.19,1.99.09,2.56-.02,5.05,0M396.69,9.71c-.98-.11-3.18-.06-5.04-.07s-4.35.1-4.58-.13c3,.1,8.83-.19,9.61.2M282.03,9.46c1.54.22-3.45.06-4.14.18-.45-.07-.91-.09-1.37-.06.68-.26,4.85-.01,5.51-.12M368.31,9.04c-1.17,0-2.36-.02-2.28-.19,1.32-.01,2.5,0,2.28.19M399.95,9.15c.19.18-2.5-.05-2.3.12-.37-.16-3.59.07-3.19-.19,1.95,0,3.2.11,5.5.07M414.63,9.17c-2.1.03-2.53-.16-4.11-.2.09,0,4.66-.09,4.11.2M398.6,8.9c-1.51,0-3.25.02-3.19-.19.76.11,3.35-.03,3.19.19M392.65,8.7c-.36.21,1.86.08,1.35.32-1.53,0-1.55-.21-3.19-.19.6-.15,1.23-.19,1.84-.12M204.99,3.99c1.68-.16,3.37-.19,5.05-.12,4.28,0,7.69,0,11.47.02,1.9,0,4.39-.23,5.04.07-3.65-.14-7.58.05-11.47.04-2.97,0-6.38-.06-10.09-.02M244.9,3.86c.87-.02,3.4-.07,4.59,0-1.53.13-3.06.13-4.59,0M271.5,3.97c.7-.09,2.02-.1,3.22-.12.35.24-2.17.08-3.22.12M250.4,3.93c-.1-.25,5-.11,5.97-.05-1.1.14-4.12.02-5.97.05M170.57,4.12c1.53-.11,3.06-.13,4.59-.06-.65.14-3.19.02-4.59.06M133.85,4.37c.91-.13,1.84-.15,2.76-.06,3.94-.04,9.47-.1,13.31-.1-.69.35-2.96.11-4.14.12-3.31.02-6.68.05-11.93.04M199.02,3.98c.58-.21,5.54-.15,5.04,0-1.34-.08-2.74.04-5.04,0M176.07,4.13c.91-.16,1.84-.18,2.76-.06-.92.08-1.84.1-2.76.06M460.92,9.56c-.95.14-3.81.02-5.51.05.95-.14,3.81-.02,5.51-.05M711,8.65c-.62.1-2.05.09-2.77.18.3.09.6.13.91.13-.74.23-.67-.15-1.83-.07,1.22-.2,2.46-.28,3.69-.25M722,8.79c-.41.32-2.22.1-3.68.06.36-.14,2.58-.02,3.68-.06M706.8,9.52c-1.37,0-2.8,0-2.73-.19.32.14,3.18-.05,2.73.19M717.37,9.35c-1.07.1-2.14.08-3.21-.07-.76.06-1.53.06-2.29,0,1.83-.09,3.67-.07,5.5.07M707.31,9.02c-.76.07-1.53.09-2.3.06-.29.02-.37.12-.47.12-.73.03-.8-.08-1.37-.06-.92.15-1.84.21-2.77.19-.44-.19,1.03-.11,1.85-.12-.21-.2,1.1-.26-.43-.31.58-.22.95.06,1.37.06.63,0,.14-.1.47-.12.7-.04,1.86.15,3.21.07-.08.07.09.11.45.13M681.62,9.04c-2.29-.02-2.76.21-5.52.12.23-.13-.64-.12-1.37-.13,1.83-.26,3.68-.28,5.51-.05-.04-.16-.84-.2.03-.31-2.01.04-7.29.03-7.77-.33,1.92.01,2.7.18,4.57.2.55.02,1.6-.18.48-.19,2.94-.2,8.04.09,10.56-.05-1.38.17-2.76.25-4.15.24-.35.14,1.67.26,1.82.13,1.69.16-1.75.13-2.76.12-.84-.11.21-.18.49-.31-1.85.04-2.61-.06-4.12-.07-.4.24,1.47.14,1.82.19.13.02-.7.1-.47.12.33.04,1.72-.01,1.36.19-.45,0-.36.08-.47.12M707.23,9.97c-1.86.03-3.44.23-5.07.31-1.2.06-.62-.11-1.84,0-2.38.2-6.45.24-11.49.3-.44-.09-1.54-.08-1.82-.19-.13-.29,2.64-.16,1.41-.44,1.63-.09,2.05.04,3.67-.06,0-.27-2.74-.17-4.57-.2-.05-.11.57-.13.48-.25,2.3.24,5.37.04,8.71.08.2.14-.67.12-1.39.12-.63.01-1.26.12-1.86.31.77.12,1.55.08,2.3-.12,3.63.02,6.81.22,9.63.02.6.1,1.21.15,1.82.13M698.5,10.08c-.45-.07-.91-.11-1.36-.13-.33.25,1.73.18,3.19.19,3.12-.01-.52-.1-1.83-.07M685.73,9.18c.12-.07.92-.04.93-.12-.91-.09-1.83-.11-2.74-.07.3.06.61.08.91.06.22.2-1.28.28.9.25-.91.13-1.84.15-2.76.06.31-.05.62-.07.93-.06.17-.06-2.62.02-3.21,0-.2-.14.67-.12,1.39-.12,2.14-.31,4.3-.43,6.45-.37-.25.05-.49.1-.48.19.91-.2,1.84-.28,2.77-.25-.14.16.14.27,1.35.25-.48.37-2.87.22-4.61.31-.03-.17.77-.12.02-.25-.61.12-1.23.16-1.85.12M723.42,8.37c-.11.09-1.37.02-1.39.12-1.2,0-2.66,0-3.67,0-1.22.08-2.45,0-3.65-.2,1.11-.02.99.12,2.29.07,0-.06,0-.13.02-.19-1.68-.12-3.36-.14-5.04-.07-.5-.24,1.43-.1,2.3-.12.7-.02,1.6-.11,2.3-.12,2.31-.04,4.8.02,6.43-.05,1.11.15-.7.12-.48.31-.4-.26-3.87-.22-5.49-.13.88.26,1.8.36,2.72.32.29-.16-.17-.23-1.36-.19,1.68-.02,3.35.07,5.02.26M674.72,9.16c-1.84.27-2.32-.13-5.04-.07,2,.08.9.22-.94.25.28-.3-1.78-.09-2.73-.32.32-.05,1.95-.2.02-.19.46-.24,2.32-.05,3.67-.06-.32.15-2.41.04-1.86.31.45,0,.36-.08.47-.12,1.07,0,2.14,0,3.21,0,.74-.01-.72-.3,1.4-.25.9.19-1.85.46,1.8.44M737.12,8.95c.91.09,1.83.11,2.74.06.25.24-3.03.09-2.75-.07M1011.75,5.35c1.1-.14,4.12-.02,5.97-.05-1.1.14-4.12.02-5.97.05M737.59,8.81c-.78,0-1.56.1-2.32.31-1.59-.02-3.53.02-3.65-.19,1.37.09,2.75.09,4.13,0-.3-.06-.61-.08-.91-.06.91-.14,1.84-.16,2.76-.06M1018.81,8.51c-.6.15-1.23.19-1.85.12-.06.17.75.13-.02.25-1.71.11-3.6.08-5.52.12-2.95.06-6,.16-9.19.17-.7,0-1.25-.06-1.37-.06-4.61,0-9.21.19-13.78.23-.81,0-1.9-.08-2.75-.07-.52,0-1.29.12-1.85.12-.73,0-1.57-.07-2.29-.07-3.16.02-7.14.1-10.55.05.39-.18-.63-.16-.43-.32-1.85.08.11.13-.03.31-3.38.06-4.99-.02-6.44.18-.61.06-1.23.04-1.83-.07-1.07.1-2.14.1-3.21,0,.51.41-1.33.11-2.31.25.61.05,1.22.15,1.81.32.76-.1-.18-.24.95-.38,1.45-.03,1.61.12,3.2.07,0,.08-.01.17-.02.25,1.54.03.29-.33,2.33-.37.05.11-.57.13-.48.25,1.78.05,2.4-.23,3.68-.06,1.68-.2,3.37-.29,5.06-.24-.92.12-1.84.18-2.77.19.45.09,1.21.13,1.82.19,1,0-.43-.13-.45-.13.46-.05.92-.07,1.38-.06.75-.2,1.53-.24,2.3-.12.46.17-1,.07-1.38.12s.11.23-.94.25c1.52.15,3.05.19,4.58.13.03-.3-1.84-.05-2.28-.19-.55-.27,1.54-.17,1.86-.31,1.54.06.22.12.43.32,1.05.21,2.12.3,3.19.26-.01.22-1.71.4-2.31.19-1.25.06,1.21.12.43.31-1.07.07-2.14.07-3.21,0-.44,0-1,.07-1.84.06-2.11-.02-4.55-.14-6.87-.14-.94,0-1.25.06-1.84.06-3.29-.02-7.35-.11-10.54-.08-1.38.01-2.37-.05-3.66-.07-7.73-.12-15.84-.15-23.36-.35-.75-.02-1.18-.1-1.82-.13-1.58-.07-3.14,0-5.04,0-1.46,0-2.07-.11-3.67,0-.76-.02-1.52-.09-2.27-.19-2.28.12-4.83-.09-7.35.05-.82.02,0-.24.93-.19-1.66-.22-4.12.08-3.69.18-1.68-.06-3.83-.07-4.1-.32-2.18.29-5.89-.22-7.8.11-.46.02-.92-.02-1.37-.13-.32,0-.77.08-1.38.06-2-.05-5.48-.2-8.24-.2-.77-.03-1.54.01-2.3.12-.54-.01-.38-.11-.44-.19-2.52.06-4.52.06-6.42-.01-.45,0-.36.08-.47.12-1.71-.12-2.61.05-3.66-.13-1.02-.04-.66.12-1.39.12-1.04-.08-3.08-.12-5.04-.13-1.19,0-3.43.04-4.13.06-.96.02-1.88.11-2.76.12-3.35.05-6.77,0-9.63-.02-2.7-.02-5.52.22-7.34-.01-.78.02-1.04.12-1.84.12-.74,0-.81-.07-1.37-.06-1.04.02-2.53.12-3.68.12-2.6,0-5.05-.11-7.79-.07-.7,0-.81.06-1.38.06-.79,0-1.52-.07-2.29-.07-.59,0-1.31.11-1.84.12-.24,0-.85-.06-1.37-.06-.82,0-.97.06-1.84.06-3.56-.01-7.41-.08-10.55-.02-.75.02-.78-.07-1.37-.06-2.14.13-4.28.15-6.42.05-1.8.19-4.47,0-7.8.05.06-.12,1.52-.04,1.39-.19-.62-.03-1.25.03-1.85.19-.86-.11-3.02-.05-4.58-.07-1.05-.02-.52.18-1.39.19-4.65.05-8.88-.09-12.84-.02-1.06.02-1.78.11-2.76.12-2.88.03-5.82-.07-8.71-.08-.88,0-1.91.07-2.76.06s-1.35-.1-2.28-.13c-.83-.02-1.42.06-2.3.06-3.39-.01-7.35-.09-11-.14-.26-.19,1.78-.02,3.22-.06.86-.02,2.99-.29,3.21,0,1.62.04,1.14-.22,2.77-.18-.03.11.33.16.9.19-.21-.14,1.59-.27,2.76-.06.51-.23-1.71-.1-1.35-.32,3.11-.04,4.4-.02,6.89-.05.42-.24-1.99-.11-1.34-.38,3.19.14,5.39-.23,7.79.08.96-.03.98-.1.47-.19,1.05-.09,1.71.16,1.83,0,1.08.02-.54.17-.48.25,3.23-.14,5.27-.22,8.73-.11-.3-.06-.61-.08-.91-.06,1.64,0,5.88-.14,8.26.01,1.62.04,1.15-.22,2.77-.19.91.1,1.82.15,2.74.13.78.02.87-.05.93-.12.92.11,1.84.09,2.76-.06-.33-.14-2.57-.03-3.66-.07.14-.16-.14-.27-1.35-.25-.37.01-.46.06-.92.06.29.06,1.05.07.9.19-11.36-.16-16.32.03-27.06-.11-.54-.08-.17-.1.02-.19-2.93,0-5.41.06-7.8-.01-.5.02-.32.12-.93.12-1.26-.04-2.56-.07-2.26-.32-1.22.07-1.43.05-.94.25-.45-.1-.91-.14-1.37-.13.91-.21,1.85-.33,2.78-.37,1.37.1,2.75.12,4.12.07.69.22-1.56.03-1.39.19.9.15,3.62.02,2.31-.18,1.79.07,2.68-.14,3.67,0,.2.14-.67.12-1.39.12.65.17,2.95.04,2.76-.12,2.32.07,4.96.08,7.8.01,1.29.03,1.94.16,3.19.19.5-.01.32-.12.93-.12,4.28.05,9.79-.07,13.29.08.45.21-1.43.1-2.3.12,1.38.12,2.78.06,4.14-.18,5.76.15,10.02.13,15.59.09.33.12,1.36.05.44.19.62.04,1.24,0,1.85-.12,3.63.1,7.72.12,11,.08,1.71-.02,3.87-.05,5.51-.05,1.42,0,2.39.07,3.66.07.72,0,1.57-.06,2.3-.06.71,0,1.06.12,1.82.13.63,0,4.37-.06,5.52-.12.31-.06.62-.1.93-.12,1.07.08,2.14.11,3.21.07.92.09,1.84.07,2.76-.06,1.45,0,1.52.17,3.2.13-.45-.07-.91-.09-1.37-.06.91-.15,1.84-.17,2.76-.06,5.74,0,10.88-.07,17.89.03,2.16.03,6.11.02,9.17.02.82,0,.96.07,1.83.07,1.68-.12,3.37-.09,5.04.07,1.83-.16,3.68-.2,5.52-.11-.46.06-.92.08-1.38.06-.15.11,2.56.12,1.84-.06,1.21.13,2.43.18,3.65.13-.3-.06-.61-.08-.91-.06,1.85-.14,5.65-.01,8.26-.05,2.28.23,4.57.31,6.86.26-.28-.13-2.31-.02-1.81-.26,2.64.07,3.05-.17,5.97-.12,1.71.03,3.52.14,5.5.14-.46.07-.92.09-1.38.06.98.17,3.06,0,1.85-.19.61-.07,1.23-.03,1.82.13,2.71-.18,7.16-.02,10.56-.11-1.57.19,1.95.26,2.74.13-.27-.23-2.33.17-1.82-.13,4.41-.01,9.77.05,12.84.02-.14.1.43.11.45.19.47-.06.94-.12,1.39-.19,1.98,0,4.05.03,5.96,0,3.32-.04,6.91.07,10.54.08.85,0,1.9-.06,2.76-.06,3.85,0,10.69.07,15.6.02,1.5-.01,2.74-.1,4.14-.12,2.98-.04,5.8.03,8.71.01,3.65-.02,7.2-.1,10.56-.11.82,0,.96.07,1.83.07.91,0,1.27-.06,1.84-.06,1.22.09,2.45.07,3.67-.06,5.6.03,6.33-.01,11.93.02.05.11-.57.13-.48.25-1.22,0-2.45,0-3.67,0-1-.01-.23.22-.49.31,1.01.03.67-.12,1.39-.12,1.16-.01.41.1.91.13.46.02.93,0,1.39-.06.76.1,1.52.15,2.28.13M779.85,8.19c-.91-.12-1.83-.15-2.75-.07.91.12,1.83.15,2.75.07M760.5,9.1c-.86-.07-2.16-.08-3.2-.13-.28.23,2.4.38,2.72.32-1.32-.04.71-.1.48-.19M765.03,9.8c-1.21-.2-2.44-.25-3.65-.13,1.21.11,2.44.16,3.65.13M780.64,9.64c-1.38-.12-2.76-.1-4.13.06,1.59-.1,2.75.1,4.13-.06M792.23,8.27c-.62-.14-4.11.06-3.22.12.4-.14,2.92.03,3.22-.12M823.32,9.39c-1.07-.08-2.15-.06-3.21.06,1.07.12,2.15.1,3.21-.06M837.09,9.29c-.12-.15-1.25.07-1.39.12,1.38,0,2.75,0,4.13,0,.45-.23-1.8-.09-2.74-.13M892.64,8.81c-.77-.06-1.55,0-2.31.19,1.17,0,2.36,0,2.31-.19M894.98,8.25c-1.7.06-5.41-.27-5.97.05,1.75.08.7.03,1.38-.06,1.46-.2,4.37.42,4.59,0M905.08,8.14c-.87-.11-2.82-.02-2.77.19.93.05,1.86-.01,2.77-.19M905.99,8.26c1.34-.01,1.4.15,2.74.13.6-.21-2.3-.26-2.74-.13M925.59,9.74h-1.84c-.76.29,2.35.22,1.84,0M932.47,9.69c-2.44.08-1.4-.31-3.65-.26.03.2,1.56.2,2.27.32.55.2-1.49.05-.94.25.79.04,1.57-.07,2.32-.31M947.09,10.34h1.84c.38-.24-2.18-.25-1.84,0M949.9,9.72c-.92-.04-1.85,0-2.76.13.31,0,.61.04.91.13,1.17,0,1.79-.09,1.86-.25M973.71,10.27c.9.2,1.8.32,2.72.38.76-.22-1.29-.2-1.81-.25-.15-.02.13-.1,0-.13.05.01-1.01-.07-.91-.06-.59-.05-1.22-.03-1.83-.07-.48.19,1.01.11,1.83.13M970.48,10.45h-2.29c-.72.19,2.98.2,2.29,0M966.39,10c.37.32,2.38.05,3.19.26-.13-.15,1.33-.07,1.39-.19-1.73-.09-2.55.02-4.58-.07M962.67,10.56c.77.02,1.54-.02,2.31-.12.48-.01,2.44.22,2.3-.06-.87-.1-4.69-.07-4.61.18M955.34,10.43c1.12-.03,2.36-.05,2.32-.25-1.12.03-2.36.05-2.32.25M1002.3,8.55c-.18-.12-.14-.27-1.36-.25-.82.13-1.05.18-.49.38.62,0,1.23-.05,1.85-.12M1008.75,8.18c-.3,0-.61-.04-.9-.13.48,0,1.16-.03.46-.06-1,.14-1.56-.05-3.21,0-.18.27,1.66.17,2.74.13-.15.1.6.17.91.06M730.76,8.3c-2.23,0-2.58.14-4.61.24-1.25-.1-2.22-.24-3.18-.38,1.68-.23,3.38-.35,5.08-.37-1.07.18-2.15.27-3.24.25-.15.17.62.21,1.82.19.35-.31,5.77-.68,6.44-.18-.76-.06-1.53-.06-2.29,0,1.89.29,5.5-.12,6.87.14l.02-.25c-1.73-.05-2.2.07-3.67.06-.9-.36,4.35-.31,4.59-.12,1.22-.07,2.45-.07,3.67,0-.62.05-1.24.13-1.86.25-.86,0-.3-.21-1.36-.19-.66.01-.18.19-.94.19.61.07,1.22.09,1.83.07-1.37.28-2.76.38-4.15.31-1.52,0-3.34-.2-5.03-.2M731.15,9.12h-1.38c1.13-.15-.67-.12-.43-.32,1.45,0,1.56.16,1.81.32M738.97,8.75c1.77.05,1.63,0,2.75.07-.02.1-3.41.13-2.75-.07" style="fill: #24272a; fill-rule: evenodd; stroke-width: 0px;"/>
      </g>
    </g>
  </g>
</svg>